<svg xmlns="http://www.w3.org/2000/svg" width="230.603" height="200" viewBox="0 0 230.603 200">
  <g id="Grupo_54777" data-name="Grupo 54777" transform="translate(242.292 -165.078)">
    <g id="Grupo_54726" data-name="Grupo 54726">
      <path id="Trazado_101797" data-name="Trazado 101797" d="M-13.523,319.947a7.715,7.715,0,0,1-7.715,7.714H-60.2A10.061,10.061,0,0,1-70.263,317.6v-.075A10.061,10.061,0,0,1-60.2,307.541a10,10,0,0,1,4.822,1.23,16.866,16.866,0,0,1,16.742-14.849A16.869,16.869,0,0,1-21.769,310.8c0,.494-.025.981-.068,1.468.2-.019.393-.031.6-.031a7.571,7.571,0,0,1,2.105.293A7.715,7.715,0,0,1-13.523,319.947Z" fill="#f7ffff"/>
      <path id="Trazado_101798" data-name="Trazado 101798" d="M-13.523,319.947a7.715,7.715,0,0,1-7.715,7.714H-60.2A10.061,10.061,0,0,1-70.263,317.6v-.075a5.962,5.962,0,0,0,.694,1.5,6.556,6.556,0,0,0,2.842,2.211,12.986,12.986,0,0,0,6.765.413,43.16,43.16,0,0,1,6.8-.862c2.517.031,4.979.762,7.5.868a47.065,47.065,0,0,0,7.8-.775c2.374-.3,4.767-.4,7.153-.5a34.613,34.613,0,0,1,7.377.225c1.793.312,3.805.855,5.291-.182a3.977,3.977,0,0,0,1.131-4.485,9.9,9.9,0,0,0-2.218-3.411A7.715,7.715,0,0,1-13.523,319.947Z" fill="#e8fdff"/>
    </g>
    <g id="_0" data-name="0">
      <g id="Grupo_54727" data-name="Grupo 54727">
        <path id="Trazado_101799" data-name="Trazado 101799" d="M-42.642,204.569h0a2.963,2.963,0,0,0,4.19,0l7.557-7.557a1.118,1.118,0,0,1,1.582,0h0a1.118,1.118,0,0,1,0,1.582l-1.113,1.113a1.932,1.932,0,0,0,0,2.733l.072.072a1.932,1.932,0,0,0,2.733,0L-12.908,187.8a1.931,1.931,0,0,0,0-2.732h0a1.931,1.931,0,0,0-2.732,0L-25.674,195.1a1.118,1.118,0,0,1-1.582,0l-.073-.072a1.118,1.118,0,0,1,0-1.582l4.261-4.261a2.963,2.963,0,0,0,0-4.19h0a2.963,2.963,0,0,0-4.19,0l-15.384,15.384A2.963,2.963,0,0,0-42.642,204.569Z" fill="#ceeefe"/>
      </g>
    </g>
    <g id="Website">
      <path id="Rectángulo_5222" data-name="Rectángulo 5222" d="M5.6,0H106.042a5.594,5.594,0,0,1,5.594,5.594V133.5a5.6,5.6,0,0,1-5.6,5.6H5.6A5.6,5.6,0,0,1,0,133.5V5.6A5.6,5.6,0,0,1,5.6,0Z" transform="translate(-171.561 192.347)" fill="#2291d6"/>
      <path id="Trazado_101800" data-name="Trazado 101800" d="M-69.191,198.04A2.061,2.061,0,0,0-67.13,200.1a2.06,2.06,0,0,0,2.06-2.061,2.06,2.06,0,0,0-2.06-2.061A2.061,2.061,0,0,0-69.191,198.04Z" fill="#fef054"/>
      <path id="Trazado_101801" data-name="Trazado 101801" d="M-74.936,198.04a2.061,2.061,0,0,0,2.061,2.061,2.061,2.061,0,0,0,2.061-2.061,2.061,2.061,0,0,0-2.061-2.061A2.061,2.061,0,0,0-74.936,198.04Z" fill="#f8a35e"/>
      <path id="Trazado_101802" data-name="Trazado 101802" d="M-80.68,198.04a2.061,2.061,0,0,0,2.061,2.061,2.061,2.061,0,0,0,2.061-2.061,2.061,2.061,0,0,0-2.061-2.061A2.061,2.061,0,0,0-80.68,198.04Z" fill="#8ffe00"/>
      <rect id="Rectángulo_5223" data-name="Rectángulo 5223" width="11.461" height="2.462" transform="translate(-77.309 203.234)" fill="#e5fbfe"/>
      <rect id="Rectángulo_5224" data-name="Rectángulo 5224" width="11.461" height="2.462" transform="translate(-91.102 203.234)" fill="#e5fbfe"/>
      <rect id="Rectángulo_5225" data-name="Rectángulo 5225" width="11.461" height="2.462" transform="translate(-104.895 203.234)" fill="#e5fbfe"/>
      <rect id="Rectángulo_5226" data-name="Rectángulo 5226" width="11.461" height="2.462" transform="translate(-118.688 203.234)" fill="#e5fbfe"/>
      <circle id="Elipse_4214" data-name="Elipse 4214" cx="5.577" cy="5.577" r="5.577" transform="translate(-166.943 208.34) rotate(-76.666)" fill="#e5fbfe"/>
      <path id="Rectángulo_5227" data-name="Rectángulo 5227" d="M3.4,0H96.175a3.4,3.4,0,0,1,3.4,3.4V30.275a3.4,3.4,0,0,1-3.4,3.4H3.4a3.4,3.4,0,0,1-3.4-3.4V3.4A3.4,3.4,0,0,1,3.4,0Z" transform="translate(-165.529 212.12)" fill="#8cc9ed"/>
      <g id="Grupo_54730" data-name="Grupo 54730">
        <g id="Grupo_54728" data-name="Grupo 54728">
          <path id="Trazado_101803" data-name="Trazado 101803" d="M-67.5,229.845l-4.767-4.767V226.9l2.943,2.943-2.943,2.943v1.824Z" fill="#f7ffff"/>
        </g>
        <g id="Grupo_54729" data-name="Grupo 54729">
          <path id="Trazado_101804" data-name="Trazado 101804" d="M-164.005,229.845l4.767-4.767V226.9l-2.943,2.943,2.943,2.943v1.824Z" fill="#f7ffff"/>
        </g>
      </g>
      <rect id="Rectángulo_5228" data-name="Rectángulo 5228" width="73.512" height="1.756" transform="translate(-139.468 248.544)" fill="#8cc9ed"/>
      <rect id="Rectángulo_5229" data-name="Rectángulo 5229" width="73.512" height="1.756" transform="translate(-139.468 252.082)" fill="#8cc9ed"/>
      <rect id="Rectángulo_5230" data-name="Rectángulo 5230" width="49.832" height="1.756" transform="translate(-139.468 255.621)" fill="#8cc9ed"/>
      <rect id="Rectángulo_5231" data-name="Rectángulo 5231" width="21.997" height="1.756" transform="translate(-165.7 248.544)" fill="#8cc9ed"/>
      <rect id="Rectángulo_5232" data-name="Rectángulo 5232" width="21.997" height="1.756" transform="translate(-165.7 252.149)" fill="#8cc9ed"/>
      <rect id="Rectángulo_5233" data-name="Rectángulo 5233" width="21.997" height="1.756" transform="translate(-165.7 255.753)" fill="#8cc9ed"/>
      <rect id="Rectángulo_5234" data-name="Rectángulo 5234" width="13.826" height="1.756" transform="translate(-165.7 259.358)" fill="#8cc9ed"/>
      <g id="Grupo_54731" data-name="Grupo 54731">
        <rect id="Rectángulo_5235" data-name="Rectángulo 5235" width="100.364" height="1.756" transform="translate(-165.7 304.356)" fill="#8cc9ed"/>
        <rect id="Rectángulo_5236" data-name="Rectángulo 5236" width="100.364" height="1.756" transform="translate(-165.7 307.961)" fill="#8cc9ed"/>
        <rect id="Rectángulo_5237" data-name="Rectángulo 5237" width="100.364" height="1.756" transform="translate(-165.7 311.566)" fill="#8cc9ed"/>
        <rect id="Rectángulo_5238" data-name="Rectángulo 5238" width="63.083" height="1.756" transform="translate(-165.7 315.17)" fill="#8cc9ed"/>
      </g>
      <path id="Trazado_101805" data-name="Trazado 101805" d="M-143.613,269.435v25.056a1.41,1.41,0,0,1-1.411,1.412h-19.328a1.412,1.412,0,0,1-1.418-1.412V269.435a1.412,1.412,0,0,1,1.418-1.411h19.328A1.409,1.409,0,0,1-143.613,269.435Z" fill="#2385bd"/>
      <path id="Trazado_101806" data-name="Trazado 101806" d="M-117.695,269.435v25.056a1.41,1.41,0,0,1-1.411,1.412h-19.328a1.412,1.412,0,0,1-1.418-1.412V269.435a1.412,1.412,0,0,1,1.418-1.411h19.328A1.409,1.409,0,0,1-117.695,269.435Z" fill="#2385bd"/>
      <path id="Trazado_101807" data-name="Trazado 101807" d="M-65.771,270.3v23.332a2.269,2.269,0,0,1-1.637,2.18,2.134,2.134,0,0,1-.637.094h-43.609a2.275,2.275,0,0,1-2.28-2.274V270.3a2.111,2.111,0,0,1,.094-.637,2.271,2.271,0,0,1,2.186-1.636h43.609A2.274,2.274,0,0,1-65.771,270.3Z" fill="#2385bd"/>
      <path id="Trazado_101808" data-name="Trazado 101808" d="M-145.155,270.978V295.9h-19.2a1.412,1.412,0,0,1-1.418-1.412V269.567h19.2A1.41,1.41,0,0,1-145.155,270.978Z" fill="#3d96ca"/>
      <path id="Trazado_101809" data-name="Trazado 101809" d="M-119.238,270.978V295.9h-19.2a1.412,1.412,0,0,1-1.418-1.412V269.567h19.2A1.409,1.409,0,0,1-119.238,270.978Z" fill="#3d96ca"/>
      <path id="Trazado_101810" data-name="Trazado 101810" d="M-67.314,271.84v23.332a2.106,2.106,0,0,1-.094.637,2.134,2.134,0,0,1-.637.094h-43.609a2.275,2.275,0,0,1-2.28-2.274V270.3a2.111,2.111,0,0,1,.094-.637,2.207,2.207,0,0,1,.643-.093h43.609A2.274,2.274,0,0,1-67.314,271.84Z" fill="#3d96ca"/>
      <g id="Grupo_54732" data-name="Grupo 54732">
        <rect id="Rectángulo_5239" data-name="Rectángulo 5239" width="13.355" height="1.731" transform="translate(-160.809 288.961)" fill="#8cc9ed"/>
        <rect id="Rectángulo_5240" data-name="Rectángulo 5240" width="9.025" height="1.731" transform="translate(-160.809 291.929)" fill="#8cc9ed"/>
      </g>
      <g id="Grupo_54733" data-name="Grupo 54733">
        <rect id="Rectángulo_5241" data-name="Rectángulo 5241" width="13.355" height="1.731" transform="translate(-135.345 288.961)" fill="#8cc9ed"/>
        <rect id="Rectángulo_5242" data-name="Rectángulo 5242" width="9.025" height="1.731" transform="translate(-135.345 291.929)" fill="#8cc9ed"/>
      </g>
      <rect id="Rectángulo_5243" data-name="Rectángulo 5243" width="34.537" height="1.881" transform="translate(-132.849 321.842)" fill="#dcf3fe"/>
      <rect id="Rectángulo_5244" data-name="Rectángulo 5244" width="16.223" height="1.881" transform="translate(-123.692 325.402)" fill="#dcf3fe"/>
    </g>
    <g id="transform">
      <g id="Grupo_54738" data-name="Grupo 54738">
        <rect id="Rectángulo_5245" data-name="Rectángulo 5245" width="159.9" height="159.9" transform="translate(-195.692 181.946)" fill="none" stroke="#f7ffff" stroke-linecap="round" stroke-miterlimit="10" stroke-width="2" stroke-dasharray="0 3.5"/>
        <g id="Grupo_54737" data-name="Grupo 54737">
          <g id="Grupo_54734" data-name="Grupo 54734">
            <rect id="Rectángulo_5246" data-name="Rectángulo 5246" width="9.07" height="9.07" transform="translate(-200.227 177.411)" fill="#f7ffff"/>
            <rect id="Rectángulo_5247" data-name="Rectángulo 5247" width="5.066" height="5.066" transform="translate(-198.225 179.413)" fill="#8cc9ed"/>
            <rect id="Rectángulo_5248" data-name="Rectángulo 5248" width="9.07" height="9.07" transform="translate(-120.277 177.411)" fill="#f7ffff"/>
            <rect id="Rectángulo_5249" data-name="Rectángulo 5249" width="9.07" height="9.07" transform="translate(-40.328 177.411)" fill="#f7ffff"/>
            <rect id="Rectángulo_5250" data-name="Rectángulo 5250" width="5.062" height="5.062" transform="translate(-38.324 179.415)" fill="#8cc9ed"/>
          </g>
          <g id="Grupo_54735" data-name="Grupo 54735">
            <rect id="Rectángulo_5251" data-name="Rectángulo 5251" width="9.07" height="9.07" transform="translate(-200.227 257.361)" fill="#f7ffff"/>
            <rect id="Rectángulo_5252" data-name="Rectángulo 5252" width="9.07" height="9.07" transform="translate(-40.328 257.361)" fill="#f7ffff"/>
          </g>
          <g id="Grupo_54736" data-name="Grupo 54736">
            <rect id="Rectángulo_5253" data-name="Rectángulo 5253" width="9.07" height="9.07" transform="translate(-200.227 337.31)" fill="#f7ffff"/>
            <rect id="Rectángulo_5254" data-name="Rectángulo 5254" width="4.936" height="4.936" transform="translate(-198.16 339.377)" fill="#8cc9ed"/>
            <rect id="Rectángulo_5255" data-name="Rectángulo 5255" width="9.07" height="9.07" transform="translate(-120.277 337.31)" fill="#f7ffff"/>
            <rect id="Rectángulo_5256" data-name="Rectángulo 5256" width="9.07" height="9.07" transform="translate(-40.328 337.31)" fill="#f7ffff"/>
            <rect id="Rectángulo_5257" data-name="Rectángulo 5257" width="4.741" height="4.741" transform="translate(-38.163 339.475)" fill="#8cc9ed"/>
          </g>
        </g>
      </g>
    </g>
    <g id="photo_image_picture" data-name="photo image picture">
      <g id="Grupo_54739" data-name="Grupo 54739">
        <rect id="Rectángulo_5258" data-name="Rectángulo 5258" width="45.119" height="29.616" rx="3.001" transform="translate(-132.916 335.462)" fill="#fff"/>
        <path id="Trazado_101811" data-name="Trazado 101811" d="M-88.8,337.549v21.5a.761.761,0,0,1-.758.758h-41.6a.753.753,0,0,1-.75-.758v-21.5a.754.754,0,0,1,.75-.758h41.6A.761.761,0,0,1-88.8,337.549Z" fill="#dcf3fe"/>
        <path id="Trazado_101812" data-name="Trazado 101812" d="M-88.8,355.2v3.849a.76.76,0,0,1-.758.758h-18.228l-2.566-9.539.991-.991,6.624-6.631a.977.977,0,0,1,1.382,0Z" fill="#8cc9ed"/>
        <path id="Trazado_101813" data-name="Trazado 101813" d="M-95.242,359.809h-12.546l-2.566-9.539.991-.991Z" fill="#7abade"/>
        <path id="Trazado_101814" data-name="Trazado 101814" d="M-99.557,359.809h-31.6a.749.749,0,0,1-.75-.749v-8.973l10.582-10.105a1.766,1.766,0,0,1,2.485.044Z" fill="#8cc9ed"/>
        <rect id="Rectángulo_5259" data-name="Rectángulo 5259" width="8.997" height="1.107" transform="translate(-97.839 361.488)" fill="#dcf3fe"/>
        <rect id="Rectángulo_5260" data-name="Rectángulo 5260" width="2.275" height="1.107" transform="translate(-101.079 361.488)" fill="#dcf3fe"/>
        <rect id="Rectángulo_5261" data-name="Rectángulo 5261" width="5.55" height="1.107" transform="translate(-107.309 361.488)" fill="#dcf3fe"/>
      </g>
    </g>
    <g id="login">
      <g id="Grupo_54742" data-name="Grupo 54742">
        <g id="Grupo_54740" data-name="Grupo 54740">
          <path id="Trazado_101815" data-name="Trazado 101815" d="M-71.42,275.886v3.31a1.4,1.4,0,0,1-1.4,1.4h-33.321a1.229,1.229,0,0,1-.2-.017,1.394,1.394,0,0,1-1.2-1.386v-3.31a1.4,1.4,0,0,1,1.4-1.4h33.321a1.4,1.4,0,0,1,1.381,1.2A1.246,1.246,0,0,1-71.42,275.886Z" fill="#8cc9ed"/>
        </g>
        <g id="Grupo_54741" data-name="Grupo 54741">
          <path id="Trazado_101816" data-name="Trazado 101816" d="M-71.42,284.445v3.311a1.4,1.4,0,0,1-1.4,1.4h-33.321a1.224,1.224,0,0,1-.2-.016,1.4,1.4,0,0,1-1.2-1.386v-3.311a1.4,1.4,0,0,1,1.4-1.4h33.321a1.4,1.4,0,0,1,1.381,1.2A1.233,1.233,0,0,1-71.42,284.445Z" fill="#8cc9ed"/>
        </g>
      </g>
      <g id="Grupo_54743" data-name="Grupo 54743">
        <path id="Trazado_101817" data-name="Trazado 101817" d="M-96.357,277.739a.7.7,0,0,1-.7.7.7.7,0,0,1-.7-.7.7.7,0,0,1,.7-.7A.7.7,0,0,1-96.357,277.739Z" fill="#dcf3fe"/>
        <path id="Trazado_101818" data-name="Trazado 101818" d="M-92.568,277.739a.7.7,0,0,1-.7.7.7.7,0,0,1-.7-.7.7.7,0,0,1,.7-.7A.7.7,0,0,1-92.568,277.739Z" fill="#dcf3fe"/>
        <path id="Trazado_101819" data-name="Trazado 101819" d="M-88.78,277.739a.7.7,0,0,1-.7.7.7.7,0,0,1-.7-.7.7.7,0,0,1,.7-.7A.7.7,0,0,1-88.78,277.739Z" fill="#dcf3fe"/>
        <path id="Trazado_101820" data-name="Trazado 101820" d="M-84.992,277.739a.7.7,0,0,1-.7.7.7.7,0,0,1-.7-.7.7.7,0,0,1,.7-.7A.7.7,0,0,1-84.992,277.739Z" fill="#dcf3fe"/>
        <path id="Trazado_101821" data-name="Trazado 101821" d="M-81.2,277.739a.7.7,0,0,1-.7.7.7.7,0,0,1-.7-.7.7.7,0,0,1,.7-.7A.7.7,0,0,1-81.2,277.739Z" fill="#dcf3fe"/>
      </g>
      <g id="Grupo_54744" data-name="Grupo 54744">
        <path id="Trazado_101822" data-name="Trazado 101822" d="M-96.357,286.4a.7.7,0,0,1-.7.7.7.7,0,0,1-.7-.7.7.7,0,0,1,.7-.7A.7.7,0,0,1-96.357,286.4Z" fill="#dcf3fe"/>
        <path id="Trazado_101823" data-name="Trazado 101823" d="M-92.568,286.4a.7.7,0,0,1-.7.7.7.7,0,0,1-.7-.7.7.7,0,0,1,.7-.7A.7.7,0,0,1-92.568,286.4Z" fill="#dcf3fe"/>
        <path id="Trazado_101824" data-name="Trazado 101824" d="M-88.78,286.4a.7.7,0,0,1-.7.7.7.7,0,0,1-.7-.7.7.7,0,0,1,.7-.7A.7.7,0,0,1-88.78,286.4Z" fill="#dcf3fe"/>
        <path id="Trazado_101825" data-name="Trazado 101825" d="M-84.992,286.4a.7.7,0,0,1-.7.7.7.7,0,0,1-.7-.7.7.7,0,0,1,.7-.7A.7.7,0,0,1-84.992,286.4Z" fill="#dcf3fe"/>
        <circle id="Elipse_4215" data-name="Elipse 4215" cx="0.701" cy="0.701" r="0.701" transform="translate(-82.606 285.703)" fill="#dcf3fe"/>
      </g>
    </g>
    <g id="_0-2" data-name="0">
      <g id="Grupo_54745" data-name="Grupo 54745">
        <path id="Trazado_101826" data-name="Trazado 101826" d="M-240.943,352.229h0a4.605,4.605,0,0,0,6.512,0l11.745-11.745a1.739,1.739,0,0,1,2.459,0h0a1.739,1.739,0,0,1,0,2.459l-1.73,1.73a3,3,0,0,0,0,4.247l.112.112a3,3,0,0,0,4.247,0l22.869-22.869a3,3,0,0,0,0-4.247h0a3,3,0,0,0-4.247,0l-15.6,15.6a1.739,1.739,0,0,1-2.459,0l-.113-.113a1.739,1.739,0,0,1,0-2.459l6.623-6.622a4.605,4.605,0,0,0,0-6.512h0a4.605,4.605,0,0,0-6.512,0l-23.911,23.911A4.605,4.605,0,0,0-240.943,352.229Z" fill="#ceeefe"/>
      </g>
    </g>
    <g id="Artwork_4" data-name="Artwork 4">
      <g id="Grupo_54747" data-name="Grupo 54747">
        <rect id="Rectángulo_5262" data-name="Rectángulo 5262" width="57.676" height="52.188" rx="6.331" transform="translate(-237.474 279.256)" fill="#2291d6"/>
        <g id="Grupo_54746" data-name="Grupo 54746">
          <circle id="Elipse_4216" data-name="Elipse 4216" cx="2.006" cy="2.006" r="2.006" transform="translate(-188.037 282.261)" fill="#8ffe00"/>
          <path id="Trazado_101827" data-name="Trazado 101827" d="M-189.971,284.267a2.006,2.006,0,0,1-2.006,2.006,2.007,2.007,0,0,1-2.007-2.006,2.007,2.007,0,0,1,2.007-2.006A2.006,2.006,0,0,1-189.971,284.267Z" fill="#fef054"/>
        </g>
      </g>
    </g>
    <g id="Grupo_54752" data-name="Grupo 54752">
      <rect id="Rectángulo_5263" data-name="Rectángulo 5263" width="46.242" height="9.391" rx="2.76" transform="translate(-231.781 290.296)" fill="#f7ffff"/>
      <g id="Grupo_54748" data-name="Grupo 54748">
        <rect id="Rectángulo_5264" data-name="Rectángulo 5264" width="9.229" height="3.47" rx="1.735" transform="translate(-194.779 300.904)" fill="#fef054"/>
        <rect id="Rectángulo_5265" data-name="Rectángulo 5265" width="4.842" height="1.169" transform="translate(-192.621 302.05)" fill="#f7ffff"/>
      </g>
      <rect id="Rectángulo_5266" data-name="Rectángulo 5266" width="17.38" height="2.099" transform="translate(-229.233 291.784)" fill="#2291d6"/>
      <rect id="Rectángulo_5267" data-name="Rectángulo 5267" width="13.729" height="2.099" transform="translate(-210.569 291.784)" fill="#2291d6"/>
      <g id="Grupo_54751" data-name="Grupo 54751">
        <rect id="Rectángulo_5268" data-name="Rectángulo 5268" width="0.281" height="3.406" transform="translate(-196.192 291.051)" fill="#2291d6"/>
        <g id="Grupo_54749" data-name="Grupo 54749">
          <rect id="Rectángulo_5269" data-name="Rectángulo 5269" width="0.86" height="0.38" transform="translate(-197.052 290.667)" fill="#2291d6"/>
          <rect id="Rectángulo_5270" data-name="Rectángulo 5270" width="0.86" height="0.38" transform="translate(-195.916 290.667)" fill="#2291d6"/>
        </g>
        <g id="Grupo_54750" data-name="Grupo 54750">
          <rect id="Rectángulo_5271" data-name="Rectángulo 5271" width="0.86" height="0.38" transform="translate(-197.052 294.454)" fill="#2291d6"/>
          <rect id="Rectángulo_5272" data-name="Rectángulo 5272" width="0.86" height="0.38" transform="translate(-195.916 294.454)" fill="#2291d6"/>
        </g>
      </g>
    </g>
    <g id="Grupo_54757" data-name="Grupo 54757">
      <rect id="Rectángulo_5273" data-name="Rectángulo 5273" width="46.242" height="9.391" rx="2.76" transform="translate(-231.781 308.18)" fill="#f7ffff"/>
      <g id="Grupo_54753" data-name="Grupo 54753">
        <path id="Trazado_101828" data-name="Trazado 101828" d="M-193.045,322.257h5.76a1.74,1.74,0,0,0,1.734-1.735h0a1.74,1.74,0,0,0-1.734-1.735h-5.76a1.74,1.74,0,0,0-1.734,1.735h0A1.74,1.74,0,0,0-193.045,322.257Z" fill="#fef054"/>
        <rect id="Rectángulo_5274" data-name="Rectángulo 5274" width="4.842" height="1.169" transform="translate(-192.621 319.933)" fill="#f7ffff"/>
      </g>
      <rect id="Rectángulo_5275" data-name="Rectángulo 5275" width="17.38" height="2.099" transform="translate(-229.233 309.668)" fill="#2291d6"/>
      <rect id="Rectángulo_5276" data-name="Rectángulo 5276" width="11.224" height="2.099" transform="translate(-202.674 309.668)" fill="#2291d6"/>
      <rect id="Rectángulo_5277" data-name="Rectángulo 5277" width="7.537" height="2.099" transform="translate(-210.913 309.668)" fill="#2291d6"/>
      <g id="Grupo_54756" data-name="Grupo 54756">
        <rect id="Rectángulo_5278" data-name="Rectángulo 5278" width="0.281" height="3.406" transform="translate(-190.803 308.934)" fill="#2291d6"/>
        <g id="Grupo_54754" data-name="Grupo 54754">
          <rect id="Rectángulo_5279" data-name="Rectángulo 5279" width="0.86" height="0.38" transform="translate(-191.662 308.55)" fill="#2291d6"/>
          <rect id="Rectángulo_5280" data-name="Rectángulo 5280" width="0.86" height="0.38" transform="translate(-190.526 308.55)" fill="#2291d6"/>
        </g>
        <g id="Grupo_54755" data-name="Grupo 54755">
          <rect id="Rectángulo_5281" data-name="Rectángulo 5281" width="0.86" height="0.38" transform="translate(-191.662 312.338)" fill="#2291d6"/>
          <rect id="Rectángulo_5282" data-name="Rectángulo 5282" width="0.86" height="0.38" transform="translate(-190.526 312.338)" fill="#2291d6"/>
        </g>
      </g>
    </g>
    <g id="pencil_edit" data-name="pencil edit">
      <g id="Grupo_54759" data-name="Grupo 54759">
        <g id="Grupo_54758" data-name="Grupo 54758">
          <path id="Trazado_101829" data-name="Trazado 101829" d="M-170.4,311.99h0a3,3,0,0,1,0,4.248l-13.426,13.426h-4.248v-4.248l13.426-13.426A3,3,0,0,1-170.4,311.99Z" fill="#f7ffff"/>
          <path id="Trazado_101830" data-name="Trazado 101830" d="M-175,312.342l-1.127,1.129-11.9,11.9,4.247,4.247,13.034-13.034Z" fill="#fef054"/>
        </g>
      </g>
      <path id="Trazado_101831" data-name="Trazado 101831" d="M-188.071,329.664h2.407l-2.407-2.407Z" fill="#8cc9ed"/>
    </g>
    <g id="Artwork_6" data-name="Artwork 6">
      <g id="Grupo_54766" data-name="Grupo 54766">
        <g id="Grupo_54762" data-name="Grupo 54762">
          <path id="Trazado_101832" data-name="Trazado 101832" d="M-53.493,355.4h-10.97V336.73H-58l4.505,4.5Z" fill="#fef054"/>
          <g id="Grupo_54760" data-name="Grupo 54760">
            <rect id="Rectángulo_5283" data-name="Rectángulo 5283" width="7.846" height="0.537" transform="translate(-62.895 339.148)" fill="#f1fcff"/>
            <rect id="Rectángulo_5284" data-name="Rectángulo 5284" width="7.846" height="0.537" transform="translate(-62.895 340.483)" fill="#f1fcff"/>
            <rect id="Rectángulo_5285" data-name="Rectángulo 5285" width="7.846" height="0.537" transform="translate(-62.895 341.817)" fill="#f1fcff"/>
            <rect id="Rectángulo_5286" data-name="Rectángulo 5286" width="7.846" height="0.537" transform="translate(-62.895 343.151)" fill="#f1fcff"/>
            <rect id="Rectángulo_5287" data-name="Rectángulo 5287" width="7.846" height="0.537" transform="translate(-62.895 344.486)" fill="#f1fcff"/>
            <rect id="Rectángulo_5288" data-name="Rectángulo 5288" width="4.618" height="0.537" transform="translate(-62.895 345.82)" fill="#f1fcff"/>
          </g>
          <g id="Grupo_54761" data-name="Grupo 54761">
            <rect id="Rectángulo_5289" data-name="Rectángulo 5289" width="7.846" height="0.537" transform="translate(-62.895 348.505)" fill="#f1fcff"/>
            <rect id="Rectángulo_5290" data-name="Rectángulo 5290" width="7.846" height="0.537" transform="translate(-62.895 349.84)" fill="#f1fcff"/>
            <rect id="Rectángulo_5291" data-name="Rectángulo 5291" width="7.846" height="0.537" transform="translate(-62.895 351.174)" fill="#f1fcff"/>
            <rect id="Rectángulo_5292" data-name="Rectángulo 5292" width="4.618" height="0.537" transform="translate(-62.895 352.508)" fill="#f1fcff"/>
          </g>
          <path id="Trazado_101833" data-name="Trazado 101833" d="M-53.493,339.544h-2.814V336.73h0l2.814,2.814Z" fill="#fbdd47"/>
        </g>
        <g id="Grupo_54765" data-name="Grupo 54765">
          <path id="Trazado_101834" data-name="Trazado 101834" d="M-58.944,352.753h-10.97V334.087h6.465l4.505,4.505Z" fill="#fff"/>
          <g id="Grupo_54763" data-name="Grupo 54763">
            <rect id="Rectángulo_5293" data-name="Rectángulo 5293" width="7.846" height="0.537" transform="translate(-68.346 336.506)" fill="#4ca5d7"/>
            <rect id="Rectángulo_5294" data-name="Rectángulo 5294" width="7.846" height="0.537" transform="translate(-68.346 337.84)" fill="#4ca5d7"/>
            <rect id="Rectángulo_5295" data-name="Rectángulo 5295" width="7.846" height="0.537" transform="translate(-68.346 339.174)" fill="#4ca5d7"/>
            <rect id="Rectángulo_5296" data-name="Rectángulo 5296" width="7.846" height="0.537" transform="translate(-68.346 340.509)" fill="#4ca5d7"/>
            <rect id="Rectángulo_5297" data-name="Rectángulo 5297" width="7.846" height="0.537" transform="translate(-68.346 341.843)" fill="#4ca5d7"/>
            <rect id="Rectángulo_5298" data-name="Rectángulo 5298" width="4.618" height="0.537" transform="translate(-68.346 343.178)" fill="#4ca5d7"/>
          </g>
          <g id="Grupo_54764" data-name="Grupo 54764">
            <rect id="Rectángulo_5299" data-name="Rectángulo 5299" width="7.846" height="0.537" transform="translate(-68.346 345.862)" fill="#4ca5d7"/>
            <rect id="Rectángulo_5300" data-name="Rectángulo 5300" width="7.846" height="0.537" transform="translate(-68.346 347.197)" fill="#4ca5d7"/>
            <rect id="Rectángulo_5301" data-name="Rectángulo 5301" width="7.846" height="0.537" transform="translate(-68.346 348.531)" fill="#4ca5d7"/>
            <rect id="Rectángulo_5302" data-name="Rectángulo 5302" width="4.618" height="0.537" transform="translate(-68.346 349.866)" fill="#4ca5d7"/>
          </g>
          <path id="Trazado_101835" data-name="Trazado 101835" d="M-58.944,336.9h-2.814v-2.814h0l2.814,2.814Z" fill="#e4faff"/>
        </g>
      </g>
    </g>
    <g id="Grupo_54767" data-name="Grupo 54767">
      <path id="Trazado_101836" data-name="Trazado 101836" d="M-56.186,184.816a4.04,4.04,0,0,1-4.043,4.043H-88.774a7.2,7.2,0,0,1-7.2-7.191,7.137,7.137,0,0,1,1.027-3.7,7.188,7.188,0,0,1,6.169-3.494c.2,0,.407.016.61.033a11.9,11.9,0,0,1,11.635-9.427,11.891,11.891,0,0,1,11.894,11.893c0,.22-.011.44-.022.659a5.626,5.626,0,0,1,4.4,3.148c.011,0,.017-.005.028-.005a4.035,4.035,0,0,1,4.037,3.961A.378.378,0,0,1-56.186,184.816Z" fill="#f7ffff"/>
      <path id="Trazado_101837" data-name="Trazado 101837" d="M-56.186,184.816a4.04,4.04,0,0,1-4.043,4.043H-88.774a7.2,7.2,0,0,1-7.2-7.191,7.137,7.137,0,0,1,1.027-3.7,5.8,5.8,0,0,0,1.066,3.73A5.16,5.16,0,0,0-92.2,183.19a5.514,5.514,0,0,0,6.444-.983,3.53,3.53,0,0,1,1.3-1.077c.923-.3,1.807.456,2.67.89,1.8.895,3.966.417,5.883-.192s3.922-1.352,5.889-.918a23.913,23.913,0,0,1,2.752,1.022,3.887,3.887,0,0,0,2.863.115A25.224,25.224,0,0,0-58.79,184.9a3.243,3.243,0,0,0,1.934.248,1.42,1.42,0,0,0,.664-.412A.378.378,0,0,1-56.186,184.816Z" fill="#e8fdff"/>
    </g>
    <g id="Grupo_54769" data-name="Grupo 54769">
      <path id="Trazado_101838" data-name="Trazado 101838" d="M-19.926,236.227a16.561,16.561,0,0,1-16.56,16.561c-12.619,0-26.811-16.561-26.811-16.561s14.486-16.56,26.811-16.56a16.555,16.555,0,0,1,16.254,13.406A16.36,16.36,0,0,1-19.926,236.227Z" fill="#f7ffff"/>
      <path id="Trazado_101839" data-name="Trazado 101839" d="M-19.926,236.227a16.561,16.561,0,0,1-16.56,16.561c-12.619,0-26.811-16.561-26.811-16.561,24.325,8.74,40.86,3.143,43.065-3.154A16.36,16.36,0,0,1-19.926,236.227Z" fill="#e8fdff"/>
      <g id="Grupo_54768" data-name="Grupo 54768">
        <path id="Trazado_101840" data-name="Trazado 101840" d="M-42.652,242.383l5.041-5.041-1.008-1.008-5.041,5.041-1.008.56-1.232,1.9.784.784,1.9-1.232Z" fill="#2291d6"/>
        <path id="Trazado_101841" data-name="Trazado 101841" d="M-33.074,236.837l5.179-5.179a1.119,1.119,0,0,0,.3-.533,3.817,3.817,0,0,0-1.052-3.754,3.814,3.814,0,0,0-3.754-1.052,1.119,1.119,0,0,0-.533.3l-5.179,5.179a2.061,2.061,0,0,1,0,2.913l-.448.448-.785-.784-.84.84,3.7,3.7.84-.84-.784-.785.448-.448A2.061,2.061,0,0,1-33.074,236.837Z" fill="#fef054"/>
      </g>
    </g>
    <g id="Grupo_54771" data-name="Grupo 54771">
      <path id="Trazado_101842" data-name="Trazado 101842" d="M-168.187,222.89c-.007,0-.007.007-.013.013-.431.487-14.305,16.142-26.136,16.142a16.15,16.15,0,0,1-16.148-16.155,16.144,16.144,0,0,1,16.148-16.147C-182.03,206.743-168.187,222.89-168.187,222.89Z" fill="#f7ffff"/>
      <path id="Trazado_101843" data-name="Trazado 101843" d="M-168.2,222.9c-.431.487-14.305,16.142-26.136,16.142a16.15,16.15,0,0,1-16.148-16.155C-204.569,236.084-184.029,233.554-168.2,222.9Z" fill="#e8fdff"/>
      <g id="setting">
        <g id="Grupo_54770" data-name="Grupo 54770">
          <path id="Trazado_101844" data-name="Trazado 101844" d="M-195.1,227.056l6.416-6.416a2,2,0,0,1,1.462-.573,3.862,3.862,0,0,0,2.816-1.134,3.877,3.877,0,0,0,.982-3.821l-1.908,1.908-2.1-.564-.564-2.1,1.893-1.893a3.878,3.878,0,0,0-3.782.993,3.87,3.87,0,0,0-1.134,2.816,2,2,0,0,1-.572,1.462l-6.415,6.415a2,2,0,0,1-1.462.573,3.862,3.862,0,0,0-2.816,1.134,3.875,3.875,0,0,0,.184,5.654,3.9,3.9,0,0,0,5.194-.073,3.868,3.868,0,0,0,1.236-2.953A1.941,1.941,0,0,1-195.1,227.056Zm-4.9,3.168-1.206-1.207.441-1.648,1.648-.442,1.207,1.207-.442,1.648Z" fill="#8cc9ed"/>
          <path id="Trazado_101845" data-name="Trazado 101845" d="M-194.952,223.993h0a.572.572,0,0,1,0-.8l2.058-2.057a.57.57,0,0,1,.8,0h0a.572.572,0,0,1,0,.805l-2.058,2.057A.57.57,0,0,1-194.952,223.993Z" fill="#2291d6"/>
        </g>
      </g>
    </g>
    <rect id="Rectángulo_5303" data-name="Rectángulo 5303" width="14.023" height="1.249" transform="translate(-179.801 283.632)" fill="#8cc9ed"/>
    <g id="cart_shop" data-name="cart shop">
      <g id="Grupo_54772" data-name="Grupo 54772">
        <path id="Trazado_101846" data-name="Trazado 101846" d="M-150.359,175.565l-1.887,10.3a1.43,1.43,0,0,1-1.4,1.171h-16.3a1.429,1.429,0,0,1-1.409-1.194l-1.729-10.385Z" fill="#4ca5d7"/>
        <path id="Trazado_101847" data-name="Trazado 101847" d="M-173.429,176.015h23.411a1.128,1.128,0,0,0,1.128-1.128h0a1.128,1.128,0,0,0-1.128-1.128h-23.411a1.128,1.128,0,0,0-1.128,1.128h0A1.128,1.128,0,0,0-173.429,176.015Z" fill="#fef054"/>
        <path id="Trazado_101848" data-name="Trazado 101848" d="M-169.265,169l6.5,6.5a1.143,1.143,0,0,0,1.613,0h0a1.145,1.145,0,0,0,0-1.613l-6.5-6.5a1.145,1.145,0,0,0-1.613,0h0A1.143,1.143,0,0,0-169.265,169Z" fill="#4ca5d7"/>
        <path id="Trazado_101849" data-name="Trazado 101849" d="M-157.555,183.83h0a.857.857,0,0,0,.855-.855v-4.738a.858.858,0,0,0-.855-.855h0a.857.857,0,0,0-.855.855v4.738A.857.857,0,0,0-157.555,183.83Z" fill="#6bd6f3"/>
        <path id="Trazado_101850" data-name="Trazado 101850" d="M-161.724,183.83h0a.857.857,0,0,0,.855-.855v-4.738a.857.857,0,0,0-.855-.855h0a.858.858,0,0,0-.855.855v4.738A.857.857,0,0,0-161.724,183.83Z" fill="#6bd6f3"/>
        <path id="Trazado_101851" data-name="Trazado 101851" d="M-165.892,183.83h0a.857.857,0,0,0,.855-.855v-4.738a.858.858,0,0,0-.855-.855h0a.858.858,0,0,0-.855.855v4.738A.857.857,0,0,0-165.892,183.83Z" fill="#6bd6f3"/>
      </g>
    </g>
    <g id="gear">
      <g id="Grupo_54773" data-name="Grupo 54773">
        <g id="gear-2" data-name="gear">
          <path id="Trazado_101852" data-name="Trazado 101852" d="M-110.859,228.932a8.436,8.436,0,0,0,.15-1.6,8.475,8.475,0,0,0-.15-1.6h-2.782a5.885,5.885,0,0,0-.525-1.267l1.966-1.966a8.591,8.591,0,0,0-2.264-2.266l-1.968,1.968a5.785,5.785,0,0,0-1.267-.525v-2.784a8.528,8.528,0,0,0-1.6-.15,8.554,8.554,0,0,0-1.6.15v2.784a5.814,5.814,0,0,0-1.268.525l-1.967-1.968A8.572,8.572,0,0,0-126.4,222.5l1.966,1.966a5.782,5.782,0,0,0-.524,1.267h-2.783a8.558,8.558,0,0,0-.15,1.6,8.518,8.518,0,0,0,.15,1.6h2.783a5.77,5.77,0,0,0,.524,1.268l-1.966,1.966a8.572,8.572,0,0,0,2.263,2.266l1.967-1.968a5.917,5.917,0,0,0,1.268.526v2.783a8.555,8.555,0,0,0,1.6.15,8.529,8.529,0,0,0,1.6-.15V232.99a5.888,5.888,0,0,0,1.267-.526l1.968,1.968a8.554,8.554,0,0,0,2.264-2.264l-1.966-1.968a5.872,5.872,0,0,0,.525-1.268Zm-8.441.132a1.733,1.733,0,0,1-1.733-1.733A1.734,1.734,0,0,1-119.3,225.6a1.735,1.735,0,0,1,1.734,1.734A1.734,1.734,0,0,1-119.3,229.064Z" fill="#419ecf"/>
        </g>
        <g id="gear-3" data-name="gear">
          <path id="Trazado_101853" data-name="Trazado 101853" d="M-102.8,235.183a5.2,5.2,0,0,0,.091-.973,5.213,5.213,0,0,0-.091-.974h-1.691a3.571,3.571,0,0,0-.319-.77l1.195-1.194a5.224,5.224,0,0,0-1.376-1.377l-1.2,1.195a3.547,3.547,0,0,0-.77-.318V229.08a5.2,5.2,0,0,0-.973-.091,5.21,5.21,0,0,0-.973.091v1.692a3.568,3.568,0,0,0-.77.318l-1.2-1.195a5.205,5.205,0,0,0-1.375,1.377l1.195,1.194a3.521,3.521,0,0,0-.319.77h-1.691a5.213,5.213,0,0,0-.091.974,5.2,5.2,0,0,0,.091.973h1.691a3.521,3.521,0,0,0,.319.77l-1.195,1.195a5.2,5.2,0,0,0,1.375,1.376l1.2-1.2a3.622,3.622,0,0,0,.77.319v1.691a5.21,5.21,0,0,0,.973.091,5.2,5.2,0,0,0,.973-.091v-1.691a3.6,3.6,0,0,0,.77-.319l1.2,1.2a5.205,5.205,0,0,0,1.376-1.376l-1.195-1.195a3.571,3.571,0,0,0,.319-.77Zm-5.13.08a1.054,1.054,0,0,1-1.053-1.053,1.054,1.054,0,0,1,1.053-1.054,1.054,1.054,0,0,1,1.054,1.054A1.054,1.054,0,0,1-107.927,235.263Z" fill="#419ecf"/>
        </g>
      </g>
    </g>
    <g id="gear-4" data-name="gear">
      <g id="Grupo_54774" data-name="Grupo 54774">
        <g id="gear-5" data-name="gear">
          <path id="Trazado_101854" data-name="Trazado 101854" d="M-110.859,228.308a8.454,8.454,0,0,0,.15-1.6,8.473,8.473,0,0,0-.15-1.6h-2.782a5.872,5.872,0,0,0-.525-1.268l1.966-1.966a8.591,8.591,0,0,0-2.264-2.266l-1.968,1.968a5.834,5.834,0,0,0-1.267-.525v-2.784a8.528,8.528,0,0,0-1.6-.15,8.554,8.554,0,0,0-1.6.15v2.784a5.863,5.863,0,0,0-1.268.525l-1.967-1.968a8.572,8.572,0,0,0-2.263,2.266l1.966,1.966a5.77,5.77,0,0,0-.524,1.268h-2.783a8.556,8.556,0,0,0-.15,1.6,8.537,8.537,0,0,0,.15,1.6h2.783a5.782,5.782,0,0,0,.524,1.267l-1.966,1.966a8.572,8.572,0,0,0,2.263,2.266l1.967-1.967a5.914,5.914,0,0,0,1.268.525v2.783a8.472,8.472,0,0,0,1.6.15,8.446,8.446,0,0,0,1.6-.15v-2.783a5.885,5.885,0,0,0,1.267-.525l1.968,1.967a8.554,8.554,0,0,0,2.264-2.264l-1.966-1.968a5.885,5.885,0,0,0,.525-1.267Zm-8.441.132a1.733,1.733,0,0,1-1.733-1.734,1.733,1.733,0,0,1,1.733-1.733,1.734,1.734,0,0,1,1.734,1.733A1.734,1.734,0,0,1-119.3,228.44Z" fill="#fff"/>
        </g>
        <g id="gear-6" data-name="gear">
          <path id="Trazado_101855" data-name="Trazado 101855" d="M-102.8,234.558a5.2,5.2,0,0,0,.091-.973,5.21,5.21,0,0,0-.091-.973h-1.691a3.55,3.55,0,0,0-.319-.77l1.195-1.195a5.224,5.224,0,0,0-1.376-1.377l-1.2,1.2a3.5,3.5,0,0,0-.77-.319v-1.692a5.2,5.2,0,0,0-.973-.091,5.21,5.21,0,0,0-.973.091v1.692a3.521,3.521,0,0,0-.77.319l-1.2-1.2a5.205,5.205,0,0,0-1.375,1.377l1.195,1.195a3.5,3.5,0,0,0-.319.77h-1.691a5.21,5.21,0,0,0-.091.973,5.2,5.2,0,0,0,.091.973h1.691a3.5,3.5,0,0,0,.319.77l-1.195,1.195a5.2,5.2,0,0,0,1.375,1.377l1.2-1.2a3.625,3.625,0,0,0,.77.32v1.69a5.128,5.128,0,0,0,.973.091,5.113,5.113,0,0,0,.973-.091v-1.69a3.6,3.6,0,0,0,.77-.32l1.2,1.2a5.205,5.205,0,0,0,1.376-1.376l-1.195-1.2a3.55,3.55,0,0,0,.319-.77Zm-5.13.08a1.053,1.053,0,0,1-1.053-1.053,1.053,1.053,0,0,1,1.053-1.053,1.053,1.053,0,0,1,1.054,1.053A1.053,1.053,0,0,1-107.927,234.638Z" fill="#fef054"/>
        </g>
      </g>
    </g>
    <g id="_0-3" data-name="0">
      <path id="Trazado_101856" data-name="Trazado 101856" d="M-222.058,225.726h-1.028a1.03,1.03,0,0,1-1.03-1.031v-1.027a1.068,1.068,0,0,0-.828-1.061,1.039,1.039,0,0,0-1.245,1.015V224.7a1.03,1.03,0,0,1-1.03,1.031h-1.028a1.069,1.069,0,0,0-1.061.827,1.039,1.039,0,0,0,1.016,1.246h1.073a1.03,1.03,0,0,1,1.03,1.03v1.028a1.069,1.069,0,0,0,.828,1.061,1.039,1.039,0,0,0,1.245-1.016v-1.073a1.03,1.03,0,0,1,1.03-1.03h1.074A1.039,1.039,0,0,0-221,226.553,1.068,1.068,0,0,0-222.058,225.726Z" fill="#c8edfd"/>
    </g>
    <g id="_0-4" data-name="0">
      <path id="Trazado_101857" data-name="Trazado 101857" d="M-158.5,358.512h-.981a.984.984,0,0,1-.983-.984v-.981a1.021,1.021,0,0,0-.79-1.013.992.992,0,0,0-1.189.97v1.024a.984.984,0,0,1-.984.984h-.981a1.018,1.018,0,0,0-1.012.79.991.991,0,0,0,.969,1.188h1.024a.984.984,0,0,1,.984.984v.981a1.019,1.019,0,0,0,.79,1.013.992.992,0,0,0,1.189-.97v-1.024a.984.984,0,0,1,.983-.984h1.024a.992.992,0,0,0,.97-1.188A1.019,1.019,0,0,0-158.5,358.512Z" fill="none" stroke="#8cc9ed" stroke-miterlimit="10" stroke-width="1.5"/>
    </g>
    <g id="_0-5" data-name="0">
      <path id="Trazado_101858" data-name="Trazado 101858" d="M-12.575,211.194h-.842a.844.844,0,0,1-.845-.844v-.842a.876.876,0,0,0-.678-.87.852.852,0,0,0-1.021.832v.88a.844.844,0,0,1-.844.844h-.842a.876.876,0,0,0-.87.679.851.851,0,0,0,.832,1.02h.88a.844.844,0,0,1,.844.845v.842a.876.876,0,0,0,.678.87.852.852,0,0,0,1.021-.833v-.879a.845.845,0,0,1,.845-.845h.879a.851.851,0,0,0,.832-1.02A.875.875,0,0,0-12.575,211.194Z" fill="#d4effe"/>
    </g>
    <g id="_0-6" data-name="0">
      <g id="Grupo_54775" data-name="Grupo 54775">
        <path id="Trazado_101859" data-name="Trazado 101859" d="M-20.595,276.487l-5.611,5.611a.82.82,0,0,1-1.156,0h0a.818.818,0,0,1,0-1.155l5.611-5.611a.82.82,0,0,1,1.156,0h0A.818.818,0,0,1-20.595,276.487Z" fill="#e9f8ff"/>
        <path id="Trazado_101860" data-name="Trazado 101860" d="M-17.926,273.818l-.651.652a.82.82,0,0,1-1.156,0h0a.82.82,0,0,1,0-1.156l.651-.651a.82.82,0,0,1,1.156,0h0A.818.818,0,0,1-17.926,273.818Z" fill="#e9f8ff"/>
        <path id="Trazado_101861" data-name="Trazado 101861" d="M-14.636,270.529l-.117.116a.818.818,0,0,1-1.155,0h0a.82.82,0,0,1,0-1.156l.116-.116a.82.82,0,0,1,1.156,0h0A.82.82,0,0,1-14.636,270.529Z" fill="#e9f8ff"/>
      </g>
    </g>
    <g id="_0-7" data-name="0">
      <g id="Grupo_54776" data-name="Grupo 54776">
        <path id="Trazado_101862" data-name="Trazado 101862" d="M-216.266,257.921l-7.42,7.421a1.085,1.085,0,0,1-1.529,0h0a1.085,1.085,0,0,1,0-1.529l7.421-7.42a1.084,1.084,0,0,1,1.528,0h0A1.084,1.084,0,0,1-216.266,257.921Z" fill="#e9f8ff"/>
        <path id="Trazado_101863" data-name="Trazado 101863" d="M-212.736,254.392l-.862.861a1.082,1.082,0,0,1-1.528,0h0a1.082,1.082,0,0,1,0-1.528l.861-.862a1.085,1.085,0,0,1,1.529,0h0A1.085,1.085,0,0,1-212.736,254.392Z" fill="#e9f8ff"/>
        <path id="Trazado_101864" data-name="Trazado 101864" d="M-208.386,250.042l-.154.153a1.082,1.082,0,0,1-1.528,0h0a1.082,1.082,0,0,1,0-1.528l.153-.154a1.085,1.085,0,0,1,1.529,0h0A1.085,1.085,0,0,1-208.386,250.042Z" fill="#e9f8ff"/>
      </g>
    </g>
    <path id="Trazado_101865" data-name="Trazado 101865" d="M-14.153,257.239a1.656,1.656,0,0,1-1.656,1.656,1.656,1.656,0,0,1-1.657-1.656,1.656,1.656,0,0,1,1.657-1.656A1.656,1.656,0,0,1-14.153,257.239Z" fill="#d4effe"/>
    <path id="Trazado_101866" data-name="Trazado 101866" d="M-48.044,282.385a1.067,1.067,0,0,1-1.066,1.067,1.067,1.067,0,0,1-1.067-1.067,1.067,1.067,0,0,1,1.067-1.066A1.066,1.066,0,0,1-48.044,282.385Z" fill="#d4effe"/>
    <circle id="Elipse_4217" data-name="Elipse 4217" cx="1.244" cy="1.244" r="1.244" transform="translate(-40.223 360.768)" fill="#d4effe"/>
    <path id="Trazado_101867" data-name="Trazado 101867" d="M-180.281,352.325a1.333,1.333,0,0,1-1.333,1.333,1.332,1.332,0,0,1-1.333-1.333,1.333,1.333,0,0,1,1.333-1.333A1.333,1.333,0,0,1-180.281,352.325Z" fill="#d4effe"/>
    <path id="Trazado_101868" data-name="Trazado 101868" d="M-205.7,197.6a.888.888,0,0,1-.889.888.887.887,0,0,1-.888-.888.888.888,0,0,1,.888-.889A.889.889,0,0,1-205.7,197.6Z" fill="#d4effe"/>
    <path id="Trazado_101869" data-name="Trazado 101869" d="M-47.333,169.077a1.333,1.333,0,0,1-1.333,1.333A1.333,1.333,0,0,1-50,169.077a1.333,1.333,0,0,1,1.333-1.333A1.333,1.333,0,0,1-47.333,169.077Z" fill="#d4effe"/>
    <path id="Trazado_101870" data-name="Trazado 101870" d="M-129.981,186.495a.978.978,0,0,1-.978.978.978.978,0,0,1-.978-.978.977.977,0,0,1,.978-.977A.977.977,0,0,1-129.981,186.495Z" fill="#d4effe"/>
  </g>
</svg>
