<svg xmlns="http://www.w3.org/2000/svg" xmlns:xlink="http://www.w3.org/1999/xlink" width="180.441" height="180.045" viewBox="0 0 180.441 180.045">
  <defs>
    <linearGradient id="linear-gradient" x1="0.459" y1="0.447" x2="0.208" y2="1.077" gradientUnits="objectBoundingBox">
      <stop offset="0" stop-color="#ff9085"/>
      <stop offset="1" stop-color="#fb6fbb"/>
    </linearGradient>
    <linearGradient id="linear-gradient-2" x1="-6.568" y1="-1.564" x2="-7.268" y2="-0.843" gradientUnits="objectBoundingBox">
      <stop offset="0.004" stop-color="#e38ddd"/>
      <stop offset="1" stop-color="#9571f6"/>
    </linearGradient>
    <linearGradient id="linear-gradient-3" x1="3.529" y1="-3.536" x2="-0.451" y2="1.706" gradientUnits="objectBoundingBox">
      <stop offset="0" stop-color="#247c8c"/>
      <stop offset="0.996" stop-color="#0c5d77"/>
    </linearGradient>
    <linearGradient id="linear-gradient-4" x1="0.752" y1="-0.312" x2="0.11" y2="2.539" xlink:href="#linear-gradient-3"/>
    <linearGradient id="linear-gradient-5" x1="0.95" y1="-1.041" x2="0.035" y2="2.55" xlink:href="#linear-gradient-3"/>
    <linearGradient id="linear-gradient-6" x1="1.449" y1="-2.342" x2="-0.127" y2="2.666" xlink:href="#linear-gradient-3"/>
    <linearGradient id="linear-gradient-7" x1="3.6" y1="-3.375" x2="-0.478" y2="1.722" gradientUnits="objectBoundingBox">
      <stop offset="0" stop-color="#475ff9"/>
      <stop offset="0.996" stop-color="#009dd7"/>
    </linearGradient>
    <linearGradient id="linear-gradient-8" x1="0.755" y1="-0.339" x2="0.101" y2="2.521" xlink:href="#linear-gradient-7"/>
    <linearGradient id="linear-gradient-9" x1="0.967" y1="-1.101" x2="0.02" y2="2.58" xlink:href="#linear-gradient-7"/>
    <linearGradient id="linear-gradient-10" x1="1.488" y1="-2.391" x2="-0.162" y2="2.625" xlink:href="#linear-gradient-7"/>
    <linearGradient id="linear-gradient-11" x1="-126.406" y1="0.5" x2="-125.406" y2="0.5" gradientUnits="objectBoundingBox">
      <stop offset="0" stop-color="#ffc444"/>
      <stop offset="0.996" stop-color="#f36f56"/>
    </linearGradient>
    <linearGradient id="linear-gradient-13" x1="-31.056" y1="0.5" x2="-30.056" y2="0.5" gradientUnits="objectBoundingBox">
      <stop offset="0" stop-color="#aa80f9"/>
      <stop offset="0.996" stop-color="#6165d7"/>
    </linearGradient>
    <linearGradient id="linear-gradient-14" x1="1.044" y1="0.689" x2="-0.154" y2="0.091" gradientUnits="objectBoundingBox">
      <stop offset="0" stop-color="#311944"/>
      <stop offset="1" stop-color="#a03976"/>
    </linearGradient>
    <linearGradient id="linear-gradient-15" x1="1759.228" y1="-141.293" x2="1759.653" y2="-137.757" gradientUnits="objectBoundingBox">
      <stop offset="0" stop-color="#444b8c"/>
      <stop offset="0.996" stop-color="#26264f"/>
    </linearGradient>
    <linearGradient id="linear-gradient-16" x1="-36.333" y1="0.5" x2="-35.168" y2="0.5" xlink:href="#linear-gradient-14"/>
    <linearGradient id="linear-gradient-17" x1="2752.157" y1="-130.442" x2="2751.804" y2="-134.923" xlink:href="#linear-gradient-11"/>
    <linearGradient id="linear-gradient-18" x1="-0.137" y1="0.804" x2="1.251" y2="-0.034" xlink:href="#linear-gradient-14"/>
    <linearGradient id="linear-gradient-19" x1="-14.486" y1="-2.756" x2="-15.071" y2="-2.023" xlink:href="#linear-gradient-15"/>
    <linearGradient id="linear-gradient-20" x1="55.076" y1="0.675" x2="55.774" y2="0.067" xlink:href="#linear-gradient-11"/>
    <linearGradient id="linear-gradient-21" x1="122.067" y1="409.771" x2="120.458" y2="411.875" xlink:href="#linear-gradient-14"/>
    <linearGradient id="linear-gradient-22" x1="224.086" y1="-0.396" x2="224.022" y2="0.617" xlink:href="#linear-gradient-14"/>
    <linearGradient id="linear-gradient-23" x1="635.959" y1="-0.415" x2="635.959" y2="-0.162" xlink:href="#linear-gradient-14"/>
    <linearGradient id="linear-gradient-24" x1="189.702" y1="-298.967" x2="189.485" y2="-299.256" xlink:href="#linear-gradient-13"/>
    <linearGradient id="linear-gradient-25" x1="190.762" y1="-297.271" x2="191.283" y2="-298.253" xlink:href="#linear-gradient-13"/>
    <linearGradient id="linear-gradient-26" x1="251.825" y1="-297.925" x2="253.328" y2="-297.925" xlink:href="#linear-gradient-13"/>
    <linearGradient id="linear-gradient-27" x1="57.051" y1="0.658" x2="57.775" y2="-0.034" xlink:href="#linear-gradient-11"/>
    <linearGradient id="linear-gradient-28" x1="208.035" y1="0.285" x2="207.09" y2="1.234" xlink:href="#linear-gradient-11"/>
    <linearGradient id="linear-gradient-29" x1="1289.078" y1="1.257" x2="1287.329" y2="-0.355" xlink:href="#linear-gradient-14"/>
    <linearGradient id="linear-gradient-30" x1="108.901" y1="0.875" x2="108.842" y2="-0.095" xlink:href="#linear-gradient-11"/>
    <linearGradient id="linear-gradient-31" x1="88.018" y1="0.5" x2="89.018" y2="0.5" gradientUnits="objectBoundingBox">
      <stop offset="0" stop-color="#444b8c"/>
      <stop offset="0.996" stop-color="#3e4177"/>
    </linearGradient>
    <linearGradient id="linear-gradient-32" x1="235.51" y1="0.5" x2="236.51" y2="0.5" gradientUnits="objectBoundingBox">
      <stop offset="0" stop-color="#311944"/>
      <stop offset="1" stop-color="#6b3976"/>
    </linearGradient>
    <linearGradient id="linear-gradient-33" x1="526.336" y1="-3.467" x2="525.558" y2="2.597" xlink:href="#linear-gradient-14"/>
    <linearGradient id="linear-gradient-34" x1="94.288" y1="0.5" x2="95.359" y2="0.5" xlink:href="#linear-gradient-31"/>
    <linearGradient id="linear-gradient-35" x1="104.067" y1="0.5" x2="105.067" y2="0.5" xlink:href="#linear-gradient-31"/>
    <linearGradient id="linear-gradient-36" x1="239.741" y1="0.353" x2="240.037" y2="1.391" xlink:href="#linear-gradient-2"/>
    <linearGradient id="linear-gradient-37" x1="69.66" y1="-0.209" x2="69.181" y2="1.155" xlink:href="#linear-gradient-2"/>
    <linearGradient id="linear-gradient-38" x1="0.493" y1="0.63" x2="0.516" y2="0.194" xlink:href="#linear-gradient-31"/>
    <linearGradient id="linear-gradient-39" x1="0.487" y1="0.301" x2="0.526" y2="0.897" xlink:href="#linear-gradient-31"/>
    <linearGradient id="linear-gradient-40" x1="104.323" y1="1.317" x2="103.816" y2="0.447" xlink:href="#linear-gradient-31"/>
    <linearGradient id="linear-gradient-41" x1="187.959" y1="-1.24" x2="187.807" y2="1.38" xlink:href="#linear-gradient-14"/>
    <linearGradient id="linear-gradient-42" x1="506.852" y1="0.5" x2="507.852" y2="0.5" xlink:href="#linear-gradient-14"/>
    <linearGradient id="linear-gradient-43" x1="174.269" y1="65.672" x2="173.636" y2="63.733" xlink:href="#linear-gradient-32"/>
    <linearGradient id="linear-gradient-44" x1="465.889" y1="-0.993" x2="465.532" y2="-0.051" xlink:href="#linear-gradient-14"/>
  </defs>
  <g id="Grupo_84701" data-name="Grupo 84701" transform="translate(804.228 -1915.062)">
    <path id="Trazado_102248" data-name="Trazado 102248" d="M-760.228,1925.519c-6.161,8.625.808,22.785-8.268,29.225-8.833,6.268-19.492-4.271-27.811,1.117-12.341,7.993-10.494,45.183,7.181,68.463,5.316,7,9.79,9.75,11.7,17.625,4.1,16.91-11.05,26.783-8.275,35.155,6.251,18.848,105.257,35.65,145.643-20.373,18.862-26.165,22.044-64.2,5.743-93.286C-663.768,1910.889-746.405,1906.167-760.228,1925.519Z" transform="translate(0 0)" fill="#ffedb7"/>
    <g id="Grupo_81640" data-name="Grupo 81640" transform="translate(-740.846 1918.472)">
      <g id="Grupo_81639" data-name="Grupo 81639">
        <path id="Trazado_102249" data-name="Trazado 102249" d="M-706.462,2083.037c-2.88.989-29.1-33-27.268-70.327,2.845-58.04,72.5-103.526,95.934-92.089,6.42,3.134,11.631,11.644,12.148,19.436.652,9.836-6.027,20.82-14.133,26.246-5.029,3.366-9.9,6.964-15.02,10.195-2.414,1.525-5.242,3.255-5.08,5.3.16,2.018,3.083,2.451,5.742,4.859,3.98,3.6,6.045,10.429,4.429,14.9-2.392,6.62-13.023,8.567-20.813,9.994-9.708,1.778-14.544.279-19.8,4.635-2.816,2.335-5.442,6.1-4.425,8.074,1.481,2.882,9.639-.066,12.022,3.648.532.83.962,2.283-.021,5.313-4.279,13.181-22.1,15.464-23.958,26.98-.387,2.394.422,2.052.63,12.484C-705.939,2079.453-705.871,2082.835-706.462,2083.037Z" transform="translate(733.821 -1918.85)" fill="url(#linear-gradient)"/>
        <path id="Trazado_102250" data-name="Trazado 102250" d="M-705.827,2078.341c-1.016.2-14.773-27.05-11.594-58.635,5.338-53.051,56.5-98.941,76.523-91.1,7.96,3.117,13.278,15.623,10.27,23.189-5.317,13.367-35.641,8.83-40.415,23.52-1.773,5.453,2.053,7.167,0,12.92-4.65,13.027-26.665,10.952-28.82,20.538-1.672,7.437,10.953,11.454,10.27,21.532-.582,8.591-10.022,9.594-15.239,21.2C-710.787,2064.757-705.118,2078.2-705.827,2078.341Z" transform="translate(732.232 -1919.736)" fill="#fff" opacity="0.3" style="mix-blend-mode: soft-light;isolation: isolate"/>
      </g>
      <path id="Trazado_102251" data-name="Trazado 102251" d="M-695.182,2090.78c-3.348-.2-12.761-31.986.513-60.11,11.841-25.086,40.06-43.716,61.362-38.1,7.253,1.911,17.47,7.624,17.778,14.729.266,6.157-6.963,12.067-12.2,14.673-8.53,4.246-15.378,1.521-17.01,5.391-1.219,2.891,1.285,7.53,4.368,9.721,3.731,2.651,6.388.349,9.836,2.862s5.134,8.011,3.953,12.667c-1.257,4.952-5.325,7.3-6.961,8.249-2.685,1.552-5.5,2.142-10.7,2.217-8.773.127-11.651-1.4-16.776-1.6a34.218,34.218,0,0,0-24.274,9.566C-694.118,2079.774-693.188,2090.9-695.182,2090.78Z" transform="translate(730.601 -1926.106)" fill="url(#linear-gradient-2)"/>
      <path id="Trazado_102252" data-name="Trazado 102252" d="M-694.64,2087.211c-.659-.114-5.146-36.4,17.888-63.273,13.138-15.327,36.293-28.783,49.36-22.195,3.628,1.829,8.575,6.261,7.95,10.269-.532,3.415-5.125,5.3-10.931,7.62-12.527,5-18.159,3.044-20.208,6.957-2.243,4.287,1.806,11.82,6.294,15.9,5.61,5.1,11.439,4.381,12.257,7.951.71,3.1-2.873,7.2-6.626,9.276-8.089,4.466-14.121-2.079-29.483-.663-4.956.457-10.184.938-15.046,4.268C-694.379,2070.989-694.194,2087.288-694.64,2087.211Z" transform="translate(729.989 -1926.951)" fill="#fff" opacity="0.5" style="mix-blend-mode: soft-light;isolation: isolate"/>
    </g>
    <g id="Grupo_81641" data-name="Grupo 81641" transform="translate(-795.618 1954.309)">
      <path id="Trazado_102253" data-name="Trazado 102253" d="M-688.218,2091.034c-4.838,6.405-2.438,17.905-10.688,16.86-9.135-1.156-16.364-6.558-16.364-14.821s6.194-15.33,13.723-15.778C-694.138,2076.854-679.825,2079.921-688.218,2091.034Z" transform="translate(786.742 -1970.493)" fill="url(#linear-gradient-3)"/>
      <path id="Trazado_102254" data-name="Trazado 102254" d="M-710.511,1958.834c-29.138-1.666-57.422,8.686-80.309,27.905a10.892,10.892,0,0,0-.665,16l.451.456a15.236,15.236,0,0,0,20.205.674c19.158-15.591,36.121-25.286,60.317-24.437a84.86,84.86,0,0,1,57.855,25.5c3.172,3.212,13.347,2.979,16.258-.422l-5.127-.378a10.51,10.51,0,0,0-.483-13.657A102.507,102.507,0,0,0-710.511,1958.834Z" transform="translate(794.664 -1958.659)" fill="url(#linear-gradient-4)"/>
      <path id="Trazado_102255" data-name="Trazado 102255" d="M-707.642,1996.984c-19.937-.406-39,6.978-54.507,19.949a10.772,10.772,0,0,0-.722,15.691l.073.074c3.753,3.8,11.579,6.171,18.829.689,12.309-9.307,21.045-16.244,36.327-16.262a56.394,56.394,0,0,1,38.08,14.584c3.389,3.043,13.562,3.128,16.584-.4l-.074-1.151c3.423-4-2.028-9.815-5.791-13.323A73.167,73.167,0,0,0-707.642,1996.984Z" transform="translate(791.796 -1962.482)" fill="url(#linear-gradient-5)"/>
      <path id="Trazado_102256" data-name="Trazado 102256" d="M-735.487,2061.378c3.533,3.577,14.29,3.759,18.392.707,5.1-3.8,5.806-6.123,12.2-6.369a27.845,27.845,0,0,1,16.887,4.818c3.778,2.573,14.163,2.046,17.3-1.614l-5.439-.151c3.812-4.452,3.214-11.564-1.248-14.865a44.615,44.615,0,0,0-27.5-8.784,50.141,50.141,0,0,0-29.221,10.3c-5.091,3.807-5.78,11.493-1.413,15.915Z" transform="translate(789.052 -1966.288)" fill="url(#linear-gradient-6)"/>
    </g>
    <g id="Grupo_81642" data-name="Grupo 81642" transform="translate(-788.335 1953.158)">
      <path id="Trazado_102257" data-name="Trazado 102257" d="M-681.284,2092.213c0,8.026-5.921,15.073-13.33,15.748-7.529.687-13.723-5.446-13.723-13.709s6.194-15.33,13.723-15.778C-687.2,2078.032-681.284,2084.186-681.284,2092.213Z" transform="translate(778.767 -1969.462)" fill="url(#linear-gradient-7)"/>
      <path id="Trazado_102258" data-name="Trazado 102258" d="M-702.42,1957.556c-29.138-1.667-57.422,8.686-80.309,27.905a10.891,10.891,0,0,0-.665,16l.451.456a10.568,10.568,0,0,0,14.467.715c18.624-16.225,41.86-25.327,66.056-24.478a84.861,84.861,0,0,1,57.855,25.5,7.13,7.13,0,0,0,10.8-.419l.327-.383a10.507,10.507,0,0,0-.483-13.656A102.5,102.5,0,0,0-702.42,1957.556Z" transform="translate(786.573 -1957.381)" fill="url(#linear-gradient-8)"/>
      <path id="Trazado_102259" data-name="Trazado 102259" d="M-699.551,1995.706c-19.937-.406-39,6.978-54.507,19.949a10.771,10.771,0,0,0-.722,15.69l.074.075a9.947,9.947,0,0,0,13.686.411c11.71-10.049,26.187-15.966,41.469-15.985a56.4,56.4,0,0,1,38.08,14.584,7.659,7.659,0,0,0,11.238-.78l.058-.068c3.424-4,3.186-10.519-.578-14.027A73.16,73.16,0,0,0-699.551,1995.706Z" transform="translate(783.705 -1961.204)" fill="url(#linear-gradient-9)"/>
      <path id="Trazado_102260" data-name="Trazado 102260" d="M-727.395,2060.1a9.826,9.826,0,0,0,13.065.688,31.378,31.378,0,0,1,17.523-6.349,27.851,27.851,0,0,1,16.887,4.817,8.762,8.762,0,0,0,11.816-1.718l.04-.047c3.812-4.453,3.214-11.564-1.248-14.865a44.613,44.613,0,0,0-27.5-8.784,50.133,50.133,0,0,0-29.221,10.3c-5.091,3.807-5.78,11.494-1.413,15.916Z" transform="translate(780.961 -1965.01)" fill="url(#linear-gradient-10)"/>
    </g>
    <g id="Grupo_81645" data-name="Grupo 81645" transform="translate(-785.332 1916.911)">
      <path id="Trazado_102261" data-name="Trazado 102261" d="M-758.181,1929.743c-1.144-.086-1.094,2.982-4.322,5.593-2.886,2.334-5.015,1.571-6.229,3.623a5.708,5.708,0,0,0,1.144,6.737c2.6,2.095,8.354,0,10.805-3.813C-753.647,1937.007-756.464,1929.872-758.181,1929.743Z" transform="translate(781.853 -1918.376)" fill="url(#linear-gradient-11)"/>
      <path id="Trazado_102262" data-name="Trazado 102262" d="M-758.181,1929.743c-1.144-.086-1.094,2.982-4.322,5.593-2.886,2.334-5.015,1.571-6.229,3.623a5.708,5.708,0,0,0,1.144,6.737c2.6,2.095,8.354,0,10.805-3.813C-753.647,1937.007-756.464,1929.872-758.181,1929.743Z" transform="translate(781.853 -1918.376)" fill="url(#linear-gradient-11)"/>
      <path id="Trazado_102263" data-name="Trazado 102263" d="M-760.462,1958.992a54.258,54.258,0,0,0-19.086,8.483c-1.947,1.4-2.847,2.266-3.333,3.535-2.766,7.23,11.449,18.161,12.964,19.305l1.985-4.629c-1.469-8.062-3.915-10.592-5.961-11.344-.573-.21-1.533-.437-1.515-.707.044-.64,5.444.273,10.6-1.616s10.315-6.645,9.392-9.8C-755.581,1961.649-756.287,1959.987-760.462,1958.992Z" transform="translate(783.237 -1921.294)" fill="url(#linear-gradient-13)"/>
      <path id="Trazado_102264" data-name="Trazado 102264" d="M-760.462,1958.992a54.258,54.258,0,0,0-19.086,8.483c-1.947,1.4-2.847,2.266-3.333,3.535-2.766,7.23,11.449,18.161,12.964,19.305l1.985-4.629c-1.469-8.062-3.915-10.592-5.961-11.344-.573-.21-1.533-.437-1.515-.707.044-.64,5.444.273,10.6-1.616s10.315-6.645,9.392-9.8C-755.581,1961.649-756.287,1959.987-760.462,1958.992Z" transform="translate(783.237 -1921.294)" fill="url(#linear-gradient-14)"/>
      <path id="Trazado_102265" data-name="Trazado 102265" d="M-768.217,2017.693s.87.31.872,1a11.569,11.569,0,0,1-1.841,4.793c-.96,1.077-1.046-.529-.987-1.564a18.748,18.748,0,0,1,.548-3.8C-769.387,2017.675-768.217,2017.693-768.217,2017.693Z" transform="translate(781.935 -1927.152)" fill="url(#linear-gradient-15)"/>
      <path id="Trazado_102266" data-name="Trazado 102266" d="M-771.875,1970.017c-1.7-.033-5.674-.35-6.733,1.616-.883,1.639.664,4.126,1.616,5.655,2.587,4.156,5.1,4.582,6.867,7.136a9,9,0,0,1,1.5,4.343l1.126-2.626c-1.469-8.062-3.915-10.592-5.961-11.344-.573-.21-1.533-.437-1.515-.707.044-.64,5.444.273,10.6-1.616,4.69-1.716,9.385-5.823,9.482-8.922C-762.314,1968.879-767.9,1970.095-771.875,1970.017Z" transform="translate(782.802 -1921.749)" opacity="0.3" fill="url(#linear-gradient-16)" style="mix-blend-mode: multiply;isolation: isolate"/>
      <path id="Trazado_102267" data-name="Trazado 102267" d="M-767.642,2014.448c-.051,1.06-.141,1.945-.222,2.6a8.646,8.646,0,0,1-.571,2.556c-.2.457-.69,1.454-.924,1.385s.007-1.176.193-4.247c.028-.447.11-1.866.11-1.866h0Z" transform="translate(781.863 -1926.828)" fill="url(#linear-gradient-17)"/>
      <path id="Trazado_102268" data-name="Trazado 102268" d="M-754.023,1959.626a42.009,42.009,0,0,0-10.906,9.425c-2.4,2.941-6.046,7.415-7.366,14.086-.7,3.556-.358,6.745.364,12.979a130.848,130.848,0,0,0,2.547,14.675l1.241.5a26.58,26.58,0,0,0,3.079-9.383c.851-6.744-1.673-8.888-.462-13.672,1.05-4.144,4.089-6.684,10.169-11.766,5-4.175,9.6-6.652,11.311-11.86a3.969,3.969,0,0,0,.064-2.963C-745,1959.505-748.905,1958.758-754.023,1959.626Z" transform="translate(782.184 -1921.322)" fill="url(#linear-gradient-18)"/>
      <path id="Trazado_102269" data-name="Trazado 102269" d="M-747.806,1929.2c-1.4-.3-3.694-.241-5.885-1.965-.659-.519-3-2.359-2.711-4.991a5.279,5.279,0,0,1,2.715-3.71c1.555-.856,3.1-.666,4.823-.431,2.228.305,2.969.914,4.517,1.331,3.831,1.033,5.127-1.123,8.984-.941,4.93.232,5.357,3.874,9.505,3.965,4.657.1,5.549-4.456,10.147-5.228,6.382-1.072,16.037,5.8,15.843,13.718-.112,4.575-3.518,9.817-7.869,11.391-2.536.917-5.273.627-6.053,2.275-.556,1.174.693,2.078.575,4.123-.152,2.636-2.422,4.486-2.788,4.785-3.4,2.773-11.029,1.372-16.239-2.551C-741.634,1943.889-740.212,1930.83-747.806,1929.2Z" transform="translate(780.562 -1917.116)" fill="url(#linear-gradient-19)"/>
      <path id="Trazado_102270" data-name="Trazado 102270" d="M-737.816,1929.044a99.909,99.909,0,0,0-10.867-.742c-8.568-.116-9.794.97-10.109,1.774-.585,1.5.418,2.251-.152,4.865-.34,1.564-.018,2.276-.676,3.955-.641,1.637-.139,2.517.428,6.355.725,4.908,1.06,7.4-.314,9.38-.954,1.375-2.022,1.492-1.92,2.144.217,1.391,5.027.624,11.117,3.295a45.366,45.366,0,0,1,4.747,2.524c3.186,1.871,3.776,2.586,5.251,3.433,4.667,2.681,11.676,2.939,15.35-.3,1.37-1.209,2.368-2.985,1.919-3.636-.612-.885-3.347,1.126-5.858-.1-1.663-.813-1.347-2.127-3.27-3.677-2.313-1.864-3.921-.888-5.5-2.1-2.457-1.892-1.339-6.423-.649-14.02A126.814,126.814,0,0,0-737.816,1929.044Z" transform="translate(781.062 -1918.231)" fill="url(#linear-gradient-20)"/>
      <path id="Trazado_102271" data-name="Trazado 102271" d="M-746.01,1934.108l-.951-.162s-1.6-3.959-3.157-2.842-.414,1.325.109,1.456a4.622,4.622,0,0,1,1.835,1.913c.209.549,1.862,1.089,1.862,1.089Z" transform="translate(780.011 -1918.492)" fill="url(#linear-gradient-21)"/>
      <path id="Trazado_102272" data-name="Trazado 102272" d="M-746.187,1926.921c1.168.725,3.057,1.672,3.266,1.929s-5.723,1.273-9.414-.59c0,0-.572-.318,1.653-.763.474-.1.382-1.017.318-1.971l.445-.826S-747.355,1926.2-746.187,1926.921Z" transform="translate(780.16 -1917.873)" fill="url(#linear-gradient-22)"/>
      <path id="Trazado_102273" data-name="Trazado 102273" d="M-749.757,1924.579a1.752,1.752,0,0,1-.812,1.881c-.993.557-2.673-1.727-2.359-2.576a1.5,1.5,0,0,1,.87-.77,1.663,1.663,0,0,1,1.76.823c.117-.255.326-.39.466-.348.178.053.2.378.211.451A.919.919,0,0,1-749.757,1924.579Z" transform="translate(780.217 -1917.711)" fill="url(#linear-gradient-23)"/>
      <g id="Grupo_81644" data-name="Grupo 81644" transform="translate(21.317 8.443)">
        <g id="Grupo_81643" data-name="Grupo 81643">
          <path id="Trazado_102274" data-name="Trazado 102274" d="M-757.212,1934.414l4.857.246c.185.009.408-.221.362-.378l-2.269-7.341a.288.288,0,0,0-.3-.2l-4.658.1c-.152.009-.235.308-.193.456l1.93,6.9A.3.3,0,0,0-757.212,1934.414Z" transform="translate(759.545 -1926.519)" fill="url(#linear-gradient-24)"/>
          <path id="Trazado_102275" data-name="Trazado 102275" d="M-757.344,1934.213l4.884.229c.186.009.316-.125.27-.282l-2.181-7.468a.29.29,0,0,0-.3-.2l-4.665.276a.238.238,0,0,0-.213.3l1.935,6.927A.3.3,0,0,0-757.344,1934.213Z" transform="translate(759.558 -1926.494)" fill="url(#linear-gradient-25)"/>
        </g>
        <path id="Trazado_102276" data-name="Trazado 102276" d="M-754.656,1929.828c-.144.679-.755.533-1.254,1.355-.632,1.043-.026,1.965-.606,2.347a1.228,1.228,0,0,1-1.015.046l.139.5a.3.3,0,0,0,.271.209l4.883.23c.187.009.317-.125.271-.282l-2.181-7.469a.289.289,0,0,0-.3-.2l-.7.041a2.711,2.711,0,0,0-.135.88C-755.261,1928.612-754.486,1929.032-754.656,1929.828Z" transform="translate(759.356 -1926.501)" fill="url(#linear-gradient-26)" style="mix-blend-mode: multiply;isolation: isolate"/>
      </g>
      <path id="Trazado_102277" data-name="Trazado 102277" d="M-752.543,1956.21c1.764.732,2,2.312,4.443,3.208,2.327.855,3.108-.216,5.429.494,3.487,1.066,4.82,4.43,5.347,4.113.483-.291.02-3.509-2.221-5.594-2.574-2.394-5.346-1.3-6.993-3.784a4.066,4.066,0,0,1-.576-3.7c.758-1.611,2.736-1.052,3.785-2.386,1.883-2.395-2.524-6.714-1.316-10.365.482-1.458,2.017-3.283,6.968-4.506-.067,3.659-.278,6.717-.489,9.04-.69,7.6-1.808,12.128.649,14.02,1.575,1.213,3.183.237,5.5,2.1,1.923,1.549,1.607,2.864,3.27,3.677,2.511,1.227,5.246-.784,5.858.1.449.651-.549,2.427-1.919,3.636-3.674,3.242-10.683,2.983-15.35.3-1.475-.847-2.065-1.563-5.251-3.433a45.366,45.366,0,0,0-4.747-2.524c-4.273-1.874-7.915-2.056-9.783-2.478C-756.234,1955.657-753.975,1955.616-752.543,1956.21Z" transform="translate(780.913 -1918.77)" opacity="0.3" fill="url(#linear-gradient-27)" style="mix-blend-mode: multiply;isolation: isolate"/>
      <path id="Trazado_102278" data-name="Trazado 102278" d="M-759.241,1931.57c1.3.706-.42,8.338-2.86,12.14-.718,1.118-3.1,2.847-5.021,2.351-1.481-.381-2.282-3.595-1.971-5.657.284-1.875,2.4-3.246,5.085-5.657C-761.367,1932.38-760,1931.155-759.241,1931.57Z" transform="translate(781.833 -1918.55)" fill="url(#linear-gradient-28)"/>
      <path id="Trazado_102279" data-name="Trazado 102279" d="M-758.954,1931.606l-.3-.924a.572.572,0,0,1,.266-.678,1.083,1.083,0,0,1,1.175-.066c.619.476-.429,2.955-.668,2.765A3.287,3.287,0,0,1-758.954,1931.606Z" transform="translate(780.847 -1918.38)" fill="url(#linear-gradient-29)"/>
      <path id="Trazado_102280" data-name="Trazado 102280" d="M-742.3,1929.963c.775-1.442,3.843-1.472,5.842-.988,5.506,1.336,11.146,8.577,9.049,14.89-.129.386-1.6,4.625-5.019,5.43-4.426,1.041-10.8-3.988-13.9-13.573l.9-2.139a69.289,69.289,0,0,0,5.264,4.936,32.285,32.285,0,0,0,5.1,3.784,25.319,25.319,0,0,1-4.2-4.278,17.064,17.064,0,0,1-2.3-4.277C-742.337,1931.752-742.725,1930.754-742.3,1929.963Z" transform="translate(779.555 -1918.271)" fill="url(#linear-gradient-30)"/>
    </g>
    <g id="Grupo_81646" data-name="Grupo 81646" transform="translate(-701.059 1983.272)">
      <path id="Trazado_102281" data-name="Trazado 102281" d="M-654.241,2038.686c4.812-2.349,14.2,6.162,18.765,14.316,1.82,3.249,3.956,7.063,3.433,11.6-.93,8.04-9.848,15.092-22.123,17.446l-1.037-3.7c1.342-1.4,3.35-3.415,5.914-5.728,3.94-3.552,4.75-3.788,4.94-4.91.618-3.673-8.827-6.747-12.186-13.206C-659.424,2048.946-657.937,2040.492-654.241,2038.686Z" transform="translate(686.473 -1995.568)" fill="url(#linear-gradient-31)"/>
      <path id="Trazado_102282" data-name="Trazado 102282" d="M-646.852,2110.488s-.789,1.949-.4,2.712,2.288.28,4.962.688,4.516,1.034,4.665.48-5.391-3.477-5.833-3.881S-646.852,2110.488-646.852,2110.488Z" transform="translate(685.406 -2002.754)" fill="url(#linear-gradient-32)"/>
      <path id="Trazado_102283" data-name="Trazado 102283" d="M-646.287,2107.272l1.869,2.913a2.612,2.612,0,0,1-2.325.534l-2.056-2.76Z" transform="translate(685.55 -2002.451)" fill="url(#linear-gradient-33)"/>
      <path id="Trazado_102284" data-name="Trazado 102284" d="M-656.535,2054.5c-2.889-5.553-1.4-14.006,2.295-15.812a4.91,4.91,0,0,1,3.39-.183,6.492,6.492,0,0,0-.205,4.295c1.465,4.39,7.8,3.89,9.775,8.886,1.25,3.158-.738,4.725,1.036,7.257,1.839,2.623,4.848,2.184,5.776,4.74.692,1.9-.672,2.987-.148,4.59a3,3,0,0,0,.919,1.322c-3.253,5.851-10.823,10.6-20.468,12.451l-1.037-3.7c1.342-1.4,3.35-3.416,5.914-5.728,3.94-3.551,4.75-3.788,4.94-4.91C-643.731,2064.031-653.176,2060.957-656.535,2054.5Z" transform="translate(686.473 -1995.569)" opacity="0.3" fill="url(#linear-gradient-34)" style="mix-blend-mode: multiply;isolation: isolate"/>
      <path id="Trazado_102285" data-name="Trazado 102285" d="M-652.141,2040.666c-.208,8.414-.091,17.513.519,27.2A310.856,310.856,0,0,0-647.6,2101.8l-2.375.755c-8.142-7.933-10.578-14.91-11.245-19.93-.472-3.548.242-3.853-.394-8.294-1.212-8.457-4.372-11.353-6.592-19.269a47.11,47.11,0,0,1-1.7-13.312Z" transform="translate(687.657 -1995.805)" fill="url(#linear-gradient-35)"/>
      <path id="Trazado_102286" data-name="Trazado 102286" d="M-647.326,2021.282c-.148.034-.789.248-1.043,2.928-.612,6.465,2.754,9.083,1.925,12.589-.795,3.366-4.852,5-9.029,6.679-2.791,1.123-11.423,4.6-16.443.691-2.113-1.644-2.344-3.628-3.851-10.923-3.83-18.536-5.314-20.128-3.7-24.14,2.765-6.89,10.172-9.744,11.4-10.219,13.139-5.062,28.653,4.242,34.785,14.931.807,1.408,5.628,9.813,2.241,13.8-2.049,2.413-6.759,2.8-9.866,1.157C-645.06,2026.576-645.943,2020.965-647.326,2021.282Z" transform="translate(688.674 -1991.495)" fill="#fff"/>
      <path id="Trazado_102287" data-name="Trazado 102287" d="M-628.763,2028.393a.3.3,0,0,0,.122-.027.3.3,0,0,0,.147-.393,17.309,17.309,0,0,0-9.092-8.363.293.293,0,0,0-.379.175.3.3,0,0,0,.176.38,17.032,17.032,0,0,1,8.756,8.053A.3.3,0,0,0-628.763,2028.393Z" transform="translate(684.471 -1993.703)" opacity="0.3" fill="url(#linear-gradient-36)" style="mix-blend-mode: multiply;isolation: isolate"/>
      <path id="Trazado_102288" data-name="Trazado 102288" d="M-670.881,2007.428c.83,2.257-1.658,4.213-.592,6.664,1.529,3.513,7.6,1.709,9.775,5.183,2.575,4.117-3.32,10.869-.889,13.181,1.108,1.053,2.388-.3,5.628.444,4.614,1.054,6,4.7,8.145,4.147.675-.174,1.493-.787,2.181-2.673a5.946,5.946,0,0,1,.188,3.117c-.795,3.366-4.852,5-9.029,6.679-2.791,1.123-11.423,4.6-16.443.691-2.113-1.644-2.344-3.628-3.851-10.923-3.83-18.536-5.314-20.128-3.7-24.14a15.7,15.7,0,0,1,3.692-5.394C-672.614,2005.1-671.315,2006.246-670.881,2007.428Z" transform="translate(688.674 -1992.187)" opacity="0.3" fill="url(#linear-gradient-37)" style="mix-blend-mode: multiply;isolation: isolate"/>
      <path id="Trazado_102289" data-name="Trazado 102289" d="M-663.888,2021.224c-.355.322-3.949,3.488-8.272,2.407-3.766-.942-6.077-4.6-6.482-7.682-.963-7.327,8.582-13.475,7.405-14.958-.7-.883-4.459.826-6.961,2.369-2.6,1.6-9.615,5.927-11.111,14.418-.127.721-1.778,10.843,4,15.024,5.343,3.866,15.809,1.763,22.9-7.38Z" transform="translate(689.623 -1991.822)" fill="#fff"/>
      <path id="Trazado_102290" data-name="Trazado 102290" d="M-638.56,2015.9l-4.28,13.671a1.108,1.108,0,0,1-1.017.776l-23.029.813a1.106,1.106,0,0,1-1.121-1.341l2.977-13.726a1.108,1.108,0,0,1,1.048-.872l24.331-.757A1.106,1.106,0,0,1-638.56,2015.9Z" transform="translate(687.469 -1993.191)" fill="url(#linear-gradient-38)"/>
      <path id="Trazado_102291" data-name="Trazado 102291" d="M-638.692,2016.405l-4.154,13.267a1.075,1.075,0,0,1-.988.753l-22.351.789a1.075,1.075,0,0,1-1.088-1.3l2.891-13.321a1.073,1.073,0,0,1,1.016-.846l23.615-.735A1.074,1.074,0,0,1-638.692,2016.405Z" transform="translate(687.396 -1993.245)" fill="url(#linear-gradient-39)"/>
      <path id="Trazado_102292" data-name="Trazado 102292" d="M-667.272,2030.156l2.759-12.716a3.565,3.565,0,0,0,1.649,1.952c1.664.821,2.958-.659,6.59-.519,1.389.054,4.228.164,6,2,1.663,1.726.956,3.5,2,5.924a9.14,9.14,0,0,0,3.388,3.909l-21.3.752A1.075,1.075,0,0,1-667.272,2030.156Z" transform="translate(687.396 -1993.488)" opacity="0.3" fill="url(#linear-gradient-40)" style="mix-blend-mode: multiply;isolation: isolate"/>
      <path id="Trazado_102293" data-name="Trazado 102293" d="M-652.594,1997.249a1.573,1.573,0,0,0,1.141,1.962,14.292,14.292,0,0,1,2.887.922c1.016.582-3.094-.09-6.874-.179a31.187,31.187,0,0,1-5.116-.511.262.262,0,0,1-.03-.507,22.52,22.52,0,0,1,3.779-.923c1.607-.2,3.33-3.749,3.33-3.749l1.377,1.251Z" transform="translate(686.744 -1991.175)" fill="url(#linear-gradient-41)"/>
      <path id="Trazado_102294" data-name="Trazado 102294" d="M-636.966,2020.7l-.261-.428a1.829,1.829,0,0,0-1.994-1.354l-1.374.169a.739.739,0,0,0-.632.886c.128.613.456,1.346,1.3,1.289,1.433-.1,2.349,1.992,2.349,1.992l.55-.775A1.617,1.617,0,0,0-636.966,2020.7Z" transform="translate(684.796 -1993.634)" fill="url(#linear-gradient-42)"/>
      <path id="Trazado_102295" data-name="Trazado 102295" d="M-648.771,1995.089c1.187-.176,2.518-1.174,2.493-2-.036-1.133-2.628-1.755-3.937-2.069s-1.87-.2-2.245.085a2.142,2.142,0,0,0-.719,1.267,5.617,5.617,0,0,0-.005,1.259c.038.6.027.573.042.749a7.739,7.739,0,0,0,.567,2.206,5.376,5.376,0,0,1,.689-.637,4.754,4.754,0,0,1,1.049-.618A6.573,6.573,0,0,1-648.771,1995.089Z" transform="translate(685.99 -1990.833)" fill="url(#linear-gradient-43)"/>
      <path id="Trazado_102296" data-name="Trazado 102296" d="M-653.262,1995.7a2.929,2.929,0,0,0,1.636,2.381c1.4.65,3.249-2.265,2.739-3.378a1.942,1.942,0,0,0-1.236-.9c-.319-.074-.475-.01-.994-.141-.478-.121-.571-.231-.755-.195-.231.047-.526.31-.745,1.338-.114-.4-.369-.671-.644-.687a.526.526,0,0,0-.275.077C-653.914,1994.433-653.84,1995.046-653.262,1995.7Z" transform="translate(686.046 -1991.095)" fill="url(#linear-gradient-44)"/>
    </g>
  </g>
</svg>
