<svg xmlns="http://www.w3.org/2000/svg" width="210" height="150" viewBox="0 0 210 150">
  <g id="Icons" transform="translate(-116 -156)">
    <g id="Grupo_87363" data-name="Grupo 87363" transform="translate(116 156)">
      <g id="Grupo_87332" data-name="Grupo 87332">
        <g id="Grupo_87330" data-name="Grupo 87330" transform="translate(0 22.5)">
          <path id="Trazado_140875" data-name="Trazado 140875" d="M318.5,313.5h-195A7.5,7.5,0,0,1,116,306V186H326V306A7.5,7.5,0,0,1,318.5,313.5Z" transform="translate(-116 -186)" fill="#0a5078"/>
        </g>
        <g id="Grupo_87331" data-name="Grupo 87331">
          <path id="Trazado_140876" data-name="Trazado 140876" d="M326,178.5H116v-15a7.5,7.5,0,0,1,7.5-7.5h195a7.5,7.5,0,0,1,7.5,7.5Z" transform="translate(-116 -156)" fill="#00a0c8"/>
        </g>
      </g>
      <g id="Grupo_87333" data-name="Grupo 87333" transform="translate(0 22.5)">
        <path id="Trazado_140877" data-name="Trazado 140877" d="M206,313.5H123.5A7.5,7.5,0,0,1,116,306V186h90Z" transform="translate(-116 -186)" fill="#00325a"/>
      </g>
      <g id="Grupo_87334" data-name="Grupo 87334" transform="translate(191.25 7.5)">
        <ellipse id="Elipse_4535" data-name="Elipse 4535" cx="4" cy="3.5" rx="4" ry="3.5" transform="translate(-0.25 0.5)" fill="#fab400"/>
      </g>
      <g id="Grupo_87335" data-name="Grupo 87335" transform="translate(176.25 7.5)">
        <ellipse id="Elipse_4536" data-name="Elipse 4536" cx="4" cy="3.5" rx="4" ry="3.5" transform="translate(-0.25 0.5)" fill="#c80a50"/>
      </g>
      <g id="Grupo_87336" data-name="Grupo 87336" transform="translate(161.25 7.5)">
        <ellipse id="Elipse_4537" data-name="Elipse 4537" cx="4" cy="3.5" rx="4" ry="3.5" transform="translate(-0.25 0.5)" fill="#00143c"/>
      </g>
      <g id="Grupo_87347" data-name="Grupo 87347" transform="translate(97.5 37.5)">
        <g id="Grupo_87337" data-name="Grupo 87337">
          <path id="Trazado_140878" data-name="Trazado 140878" d="M272.25,213.5h-22.5a3.75,3.75,0,0,1,0-7.5h22.5a3.75,3.75,0,0,1,0,7.5Z" transform="translate(-246 -206)" fill="#c80a50"/>
        </g>
        <g id="Grupo_87338" data-name="Grupo 87338" transform="translate(15 15)">
          <path id="Trazado_140879" data-name="Trazado 140879" d="M292.25,233.5h-22.5a3.75,3.75,0,0,1,0-7.5h22.5a3.75,3.75,0,0,1,0,7.5Z" transform="translate(-266 -226)" fill="#c80a50"/>
        </g>
        <g id="Grupo_87339" data-name="Grupo 87339" transform="translate(52.5 15)">
          <path id="Trazado_140880" data-name="Trazado 140880" d="M334.75,233.5h-15a3.75,3.75,0,0,1,0-7.5h15a3.75,3.75,0,0,1,0,7.5Z" transform="translate(-316 -226)" fill="#fab400"/>
        </g>
        <g id="Grupo_87340" data-name="Grupo 87340" transform="translate(15 30)">
          <path id="Trazado_140881" data-name="Trazado 140881" d="M292.25,253.5h-22.5a3.75,3.75,0,0,1,0-7.5h22.5a3.75,3.75,0,0,1,0,7.5Z" transform="translate(-266 -246)" fill="#c80a50"/>
        </g>
        <g id="Grupo_87341" data-name="Grupo 87341" transform="translate(52.5 30)">
          <path id="Trazado_140882" data-name="Trazado 140882" d="M357.25,253.5h-37.5a3.75,3.75,0,0,1,0-7.5h37.5a3.75,3.75,0,0,1,0,7.5Z" transform="translate(-316 -246)" fill="#fab400"/>
        </g>
        <g id="Grupo_87342" data-name="Grupo 87342" transform="translate(15 45)">
          <path id="Trazado_140883" data-name="Trazado 140883" d="M292.25,273.5h-22.5a3.75,3.75,0,0,1,0-7.5h22.5a3.75,3.75,0,0,1,0,7.5Z" transform="translate(-266 -266)" fill="#c80a50"/>
        </g>
        <g id="Grupo_87343" data-name="Grupo 87343" transform="translate(0 67.5)">
          <path id="Trazado_140884" data-name="Trazado 140884" d="M302.25,303.5h-52.5a3.75,3.75,0,0,1,0-7.5h52.5a3.75,3.75,0,0,1,0,7.5Z" transform="translate(-246 -296)" fill="#00a0c8"/>
        </g>
        <g id="Grupo_87344" data-name="Grupo 87344" transform="translate(0 82.5)">
          <path id="Trazado_140885" data-name="Trazado 140885" d="M317.25,323.5h-67.5a3.75,3.75,0,0,1,0-7.5h67.5a3.75,3.75,0,0,1,0,7.5Z" transform="translate(-246 -316)" fill="#00a0c8"/>
        </g>
        <g id="Grupo_87345" data-name="Grupo 87345" transform="translate(67.5 67.5)">
          <path id="Trazado_140886" data-name="Trazado 140886" d="M362.25,303.5h-22.5a3.75,3.75,0,0,1,0-7.5h22.5a3.75,3.75,0,0,1,0,7.5Z" transform="translate(-336 -296)" fill="#00a0c8"/>
        </g>
        <g id="Grupo_87346" data-name="Grupo 87346" transform="translate(52.5 45)">
          <path id="Trazado_140887" data-name="Trazado 140887" d="M357.25,273.5h-37.5a3.75,3.75,0,0,1,0-7.5h37.5a3.75,3.75,0,0,1,0,7.5Z" transform="translate(-316 -266)" fill="#fab400"/>
        </g>
      </g>
      <g id="Grupo_87348" data-name="Grupo 87348" transform="translate(15 48.75)">
        <path id="Trazado_140888" data-name="Trazado 140888" d="M188.5,243.5h3.75a3.751,3.751,0,0,0,3.75-3.75v-15a3.751,3.751,0,0,0-3.75-3.75h-52.5a3.751,3.751,0,0,0-3.75,3.75v15a3.751,3.751,0,0,0,3.75,3.75h3.75V251h-3.75a3.751,3.751,0,0,0-3.75,3.75v15a3.751,3.751,0,0,0,3.75,3.75h3.75V281h-3.75a3.751,3.751,0,0,0-3.75,3.75v15a3.751,3.751,0,0,0,3.75,3.75h52.5a3.751,3.751,0,0,0,3.75-3.75v-15a3.751,3.751,0,0,0-3.75-3.75H188.5v-7.5h3.75a3.751,3.751,0,0,0,3.75-3.75v-15a3.751,3.751,0,0,0-3.75-3.75H188.5Z" transform="translate(-136 -221)" fill="#00143c"/>
      </g>
      <g id="Grupo_87358" data-name="Grupo 87358" transform="translate(15 45)">
        <g id="Grupo_87349" data-name="Grupo 87349">
          <path id="Trazado_140889" data-name="Trazado 140889" d="M192.25,238.5h-52.5a3.751,3.751,0,0,1-3.75-3.75v-15a3.751,3.751,0,0,1,3.75-3.75h52.5a3.751,3.751,0,0,1,3.75,3.75v15A3.751,3.751,0,0,1,192.25,238.5Z" transform="translate(-136 -216)" fill="#00a0c8"/>
        </g>
        <g id="Grupo_87350" data-name="Grupo 87350" transform="translate(7.5 7.5)">
          <path id="Trazado_140890" data-name="Trazado 140890" d="M172.25,233.5h-22.5a3.75,3.75,0,0,1,0-7.5h22.5a3.75,3.75,0,0,1,0,7.5Z" transform="translate(-146 -226)" fill="#00648c"/>
        </g>
        <g id="Grupo_87351" data-name="Grupo 87351" transform="translate(45 7.5)">
          <ellipse id="Elipse_4538" data-name="Elipse 4538" cx="4" cy="3.5" rx="4" ry="3.5" transform="translate(0 0.5)" fill="#fab400"/>
        </g>
        <g id="Grupo_87352" data-name="Grupo 87352" transform="translate(0 30)">
          <path id="Trazado_140891" data-name="Trazado 140891" d="M192.25,278.5h-52.5a3.751,3.751,0,0,1-3.75-3.75v-15a3.751,3.751,0,0,1,3.75-3.75h52.5a3.751,3.751,0,0,1,3.75,3.75v15A3.751,3.751,0,0,1,192.25,278.5Z" transform="translate(-136 -256)" fill="#00a0c8"/>
        </g>
        <g id="Grupo_87353" data-name="Grupo 87353" transform="translate(7.5 37.5)">
          <path id="Trazado_140892" data-name="Trazado 140892" d="M172.25,273.5h-22.5a3.75,3.75,0,0,1,0-7.5h22.5a3.75,3.75,0,0,1,0,7.5Z" transform="translate(-146 -266)" fill="#00648c"/>
        </g>
        <g id="Grupo_87354" data-name="Grupo 87354" transform="translate(45 37.5)">
          <ellipse id="Elipse_4539" data-name="Elipse 4539" cx="4" cy="3.5" rx="4" ry="3.5" transform="translate(0 0.5)" fill="#fab400"/>
        </g>
        <g id="Grupo_87355" data-name="Grupo 87355" transform="translate(0 60)">
          <path id="Trazado_140893" data-name="Trazado 140893" d="M192.25,318.5h-52.5a3.751,3.751,0,0,1-3.75-3.75v-15a3.751,3.751,0,0,1,3.75-3.75h52.5a3.751,3.751,0,0,1,3.75,3.75v15A3.751,3.751,0,0,1,192.25,318.5Z" transform="translate(-136 -296)" fill="#00a0c8"/>
        </g>
        <g id="Grupo_87356" data-name="Grupo 87356" transform="translate(7.5 67.5)">
          <path id="Trazado_140894" data-name="Trazado 140894" d="M172.25,313.5h-22.5a3.75,3.75,0,0,1,0-7.5h22.5a3.75,3.75,0,0,1,0,7.5Z" transform="translate(-146 -306)" fill="#00648c"/>
        </g>
        <g id="Grupo_87357" data-name="Grupo 87357" transform="translate(45 67.5)">
          <ellipse id="Elipse_4540" data-name="Elipse 4540" cx="4" cy="3.5" rx="4" ry="3.5" transform="translate(0 0.5)" fill="#fab400"/>
        </g>
      </g>
      <g id="Grupo_87359" data-name="Grupo 87359" transform="translate(22.5 67.5)">
        <path id="Trazado_140895" data-name="Trazado 140895" d="M146,246h45v7.5H146Z" transform="translate(-146 -246)" fill="#c80a50"/>
      </g>
      <g id="Grupo_87360" data-name="Grupo 87360" transform="translate(22.5 67.5)">
        <path id="Trazado_140896" data-name="Trazado 140896" d="M146,246h45v3.75H146Z" transform="translate(-146 -246)" fill="#a00028"/>
      </g>
      <g id="Grupo_87361" data-name="Grupo 87361" transform="translate(22.5 97.5)">
        <path id="Trazado_140897" data-name="Trazado 140897" d="M146,286h45v7.5H146Z" transform="translate(-146 -286)" fill="#c80a50"/>
      </g>
      <g id="Grupo_87362" data-name="Grupo 87362" transform="translate(22.5 97.5)">
        <path id="Trazado_140898" data-name="Trazado 140898" d="M146,286h45v3.75H146Z" transform="translate(-146 -286)" fill="#a00028"/>
      </g>
    </g>
  </g>
</svg>
