<svg xmlns="http://www.w3.org/2000/svg" xmlns:xlink="http://www.w3.org/1999/xlink" width="210" height="209.129" viewBox="0 0 210 209.129">
  <defs>
    <linearGradient id="linear-gradient" x1="1.051" y1="0.838" x2="-0.723" y2="-0.247" gradientUnits="objectBoundingBox">
      <stop offset="0" stop-color="#ff5f28"/>
      <stop offset="1" stop-color="#fbe46f"/>
    </linearGradient>
    <linearGradient id="linear-gradient-2" x1="0.585" y1="-0.016" x2="0.297" y2="1.725" xlink:href="#linear-gradient"/>
    <linearGradient id="linear-gradient-3" x1="-0.156" y1="-2.95" x2="0.803" y2="1.957" gradientUnits="objectBoundingBox">
      <stop offset="0" stop-color="#ffc444"/>
      <stop offset="0.996" stop-color="#f3593b"/>
    </linearGradient>
    <linearGradient id="linear-gradient-4" x1="0.191" y1="-1.063" x2="1.197" y2="4.368" xlink:href="#linear-gradient-3"/>
    <linearGradient id="linear-gradient-5" x1="0.304" y1="-0.525" x2="1.248" y2="4.878" xlink:href="#linear-gradient-3"/>
    <linearGradient id="linear-gradient-6" x1="-0.239" y1="-2.128" x2="1.167" y2="2.877" xlink:href="#linear-gradient-3"/>
    <linearGradient id="linear-gradient-7" x1="-0.434" y1="-2.808" x2="1.03" y2="2.188" xlink:href="#linear-gradient-3"/>
    <linearGradient id="linear-gradient-8" x1="-0.277" y1="-3.449" x2="0.707" y2="1.437" xlink:href="#linear-gradient-3"/>
    <linearGradient id="linear-gradient-9" x1="-0.111" y1="-1.879" x2="1.195" y2="3.382" xlink:href="#linear-gradient-3"/>
    <linearGradient id="linear-gradient-10" x1="-0.26" y1="-5.205" x2="0.666" y2="1.693" xlink:href="#linear-gradient-3"/>
    <linearGradient id="linear-gradient-11" x1="-0.34" y1="-5.415" x2="0.581" y2="1.403" xlink:href="#linear-gradient-3"/>
    <linearGradient id="linear-gradient-12" x1="0.402" y1="-0.604" x2="1.388" y2="6.946" xlink:href="#linear-gradient-3"/>
    <linearGradient id="linear-gradient-13" x1="0.069" y1="-1.18" x2="1.322" y2="4.091" xlink:href="#linear-gradient-3"/>
    <linearGradient id="linear-gradient-14" x1="0.298" y1="-0.829" x2="1.367" y2="6.515" xlink:href="#linear-gradient-3"/>
    <linearGradient id="linear-gradient-15" x1="0.586" y1="-0.02" x2="0.297" y2="1.731" xlink:href="#linear-gradient-3"/>
    <linearGradient id="linear-gradient-16" y1="0.5" x2="1" y2="0.5" gradientUnits="objectBoundingBox">
      <stop offset="0" stop-color="#13658c"/>
      <stop offset="0.996" stop-color="#06224f"/>
    </linearGradient>
    <linearGradient id="linear-gradient-17" x1="0.49" y1="2.208" x2="0.498" y2="1.016" gradientUnits="objectBoundingBox">
      <stop offset="0.004" stop-color="#40cfe3"/>
      <stop offset="1" stop-color="#54c4f6"/>
    </linearGradient>
    <linearGradient id="linear-gradient-19" x1="0" y1="0.5" x2="1" y2="0.5" xlink:href="#linear-gradient-17"/>
    <linearGradient id="linear-gradient-20" x1="0.25" y1="-0.207" x2="0.716" y2="1.162" xlink:href="#linear-gradient-16"/>
    <linearGradient id="linear-gradient-21" x1="0.394" y1="-6.047" x2="0.816" y2="19.969" xlink:href="#linear-gradient-17"/>
    <linearGradient id="linear-gradient-22" x1="0" y1="0.5" x2="1" y2="0.5" xlink:href="#linear-gradient"/>
    <linearGradient id="linear-gradient-25" x1="0.255" y1="-16.683" x2="0.687" y2="13.672" xlink:href="#linear-gradient-17"/>
    <linearGradient id="linear-gradient-30" x1="0.079" y1="-22.232" x2="0.392" y2="-5.321" xlink:href="#linear-gradient-17"/>
    <linearGradient id="linear-gradient-36" x1="0.141" y1="-22.92" x2="0.533" y2="2.635" xlink:href="#linear-gradient-17"/>
    <linearGradient id="linear-gradient-40" x1="0.181" y1="-17.686" x2="0.734" y2="13.893" xlink:href="#linear-gradient-17"/>
    <linearGradient id="linear-gradient-41" x1="-6.945" y1="-0.378" x2="-5.627" y2="2.004" gradientUnits="objectBoundingBox">
      <stop offset="0" stop-color="#ffcca5"/>
      <stop offset="0.996" stop-color="#f3d7c5"/>
    </linearGradient>
    <linearGradient id="linear-gradient-42" x1="-1.672" y1="0.95" x2="-1.402" y2="-0.004" xlink:href="#linear-gradient-3"/>
    <linearGradient id="linear-gradient-43" x1="-26.667" y1="-4.084" x2="-25.616" y2="-2.635" xlink:href="#linear-gradient-16"/>
    <linearGradient id="linear-gradient-44" x1="-88.065" y1="-0.449" x2="-88.065" y2="-1.801" xlink:href="#linear-gradient-41"/>
    <linearGradient id="linear-gradient-45" x1="-34.281" y1="-5.503" x2="-32.948" y2="-3.714" xlink:href="#linear-gradient-16"/>
    <linearGradient id="linear-gradient-46" x1="-18.118" y1="-0.515" x2="-17.023" y2="0.793" xlink:href="#linear-gradient-16"/>
    <linearGradient id="linear-gradient-47" x1="-97.318" y1="1.222" x2="-97.318" y2="-0.193" xlink:href="#linear-gradient-41"/>
    <linearGradient id="linear-gradient-48" x1="-2.167" y1="0.579" x2="-3.478" y2="0.416" xlink:href="#linear-gradient"/>
    <linearGradient id="linear-gradient-49" x1="-0.635" y1="0.91" x2="-2.265" y2="0.048" xlink:href="#linear-gradient-3"/>
    <linearGradient id="linear-gradient-50" x1="-23.011" y1="-1.298" x2="-21.651" y2="0.479" xlink:href="#linear-gradient-16"/>
    <linearGradient id="linear-gradient-51" x1="-7.858" y1="0.884" x2="-7.34" y2="-0.213" xlink:href="#linear-gradient-41"/>
    <linearGradient id="linear-gradient-52" x1="0.49" y1="0.185" x2="0.583" y2="2.5" gradientUnits="objectBoundingBox">
      <stop offset="0" stop-color="#ab5903"/>
      <stop offset="1" stop-color="#794948"/>
    </linearGradient>
    <linearGradient id="linear-gradient-53" x1="-51.833" y1="-2.784" x2="-35.83" y2="10.461" xlink:href="#linear-gradient-41"/>
    <linearGradient id="linear-gradient-54" x1="0.405" y1="-1.347" x2="0.689" y2="4.864" xlink:href="#linear-gradient-52"/>
    <linearGradient id="linear-gradient-55" x1="0.024" y1="1.522" x2="-1.642" y2="0.051" xlink:href="#linear-gradient-3"/>
    <linearGradient id="linear-gradient-56" y1="0.5" x2="1" y2="0.5" gradientUnits="objectBoundingBox">
      <stop offset="0" stop-color="#3c88f9"/>
      <stop offset="0.996" stop-color="#61a3d7"/>
    </linearGradient>
    <linearGradient id="linear-gradient-57" x1="0.548" y1="-0.248" x2="0.401" y2="2.086" xlink:href="#linear-gradient-56"/>
  </defs>
  <g id="Grupo_86906" data-name="Grupo 86906" transform="translate(-430.848 -1108.737)">
    <path id="Trazado_140467" data-name="Trazado 140467" d="M481.33,1121.307c-7.053,10.1,1.217,26.466-9.249,34.06-10.187,7.392-22.7-4.724-32.3,1.638-14.242,9.439-11.641,52.63,9.182,79.464,6.262,8.07,11.495,11.21,13.812,20.338,4.976,19.6-12.513,31.256-9.185,40.949,7.494,21.825,122.741,40.138,168.983-25.453,21.6-30.634,24.828-74.869,5.532-108.466C593.236,1103.128,497.156,1098.652,481.33,1121.307Z" fill="#f4f7fa"/>
    <g id="Grupo_86894" data-name="Grupo 86894" transform="translate(431.075 1116.509)">
      <path id="Trazado_140468" data-name="Trazado 140468" d="M521.218,1645.612l-3.352-.028a26.09,26.09,0,0,0-1.184-4.411l2.908-1.647a1.646,1.646,0,0,0,.607-2.258l-2.867-4.993a1.678,1.678,0,0,0-2.272-.636l-2.946,1.659a26.861,26.861,0,0,0-3.232-3.251l1.709-2.924a1.674,1.674,0,0,0-.611-2.28l-5-2.951a1.666,1.666,0,0,0-2.29.573l-1.72,2.933a26.735,26.735,0,0,0-4.438-1.234v-3.435a1.712,1.712,0,0,0-1.685-1.7l-5.834-.1a1.651,1.651,0,0,0-1.693,1.646v3.446a26.457,26.457,0,0,0-4.477,1.105l-1.742-3a1.732,1.732,0,0,0-2.325-.652l-5.1,2.823a1.653,1.653,0,0,0-.626,2.289l1.749,3.006a26.327,26.327,0,0,0-3.311,3.205l-3.03-1.758a1.72,1.72,0,0,0-2.344.587l-2.968,5.011a1.681,1.681,0,0,0,.63,2.312l3.008,1.735a25.8,25.8,0,0,0-1.223,4.462l-3.474-.029a1.689,1.689,0,0,0-1.723,1.675v5.835a1.717,1.717,0,0,0,1.723,1.7l3.447.019a26.048,26.048,0,0,0,1.206,4.5l-2.963,1.668a1.667,1.667,0,0,0-.63,2.3l2.968,5.052a1.734,1.734,0,0,0,2.344.62l2.941-1.666a26.872,26.872,0,0,0,3.341,3.3l-1.69,2.881a1.667,1.667,0,0,0,.626,2.3l5.1,2.894a1.718,1.718,0,0,0,2.325-.619l1.668-2.854a26.756,26.756,0,0,0,4.551,1.191v3.295a1.678,1.678,0,0,0,1.693,1.67l5.834-.017a1.684,1.684,0,0,0,1.685-1.675V1675.9a26.476,26.476,0,0,0,4.511-1.2l1.647,2.831a1.68,1.68,0,0,0,2.29.605l5-2.882a1.66,1.66,0,0,0,.611-2.272l-1.651-2.848a26.317,26.317,0,0,0,3.261-3.256l2.86,1.65a1.664,1.664,0,0,0,2.272-.6l2.867-4.954a1.66,1.66,0,0,0-.607-2.266l-2.864-1.662a25.77,25.77,0,0,0,1.167-4.42l3.326.018a1.645,1.645,0,0,0,1.657-1.647v-5.719A1.673,1.673,0,0,0,521.218,1645.612Zm-29.289-12.5a17.12,17.12,0,0,1,16.965,17.006,16.837,16.837,0,0,1-16.965,16.772,17.113,17.113,0,0,1-17.152-17.007A16.831,16.831,0,0,1,491.928,1633.113Z" transform="translate(-455.423 -1537.491)" fill="url(#linear-gradient)"/>
      <g id="Grupo_86893" data-name="Grupo 86893" transform="translate(27.47 0)">
        <path id="Trazado_140469" data-name="Trazado 140469" d="M756.159,1279.586l-3.034-.083a22.837,22.837,0,0,0-1.072-3.911l2.633-1.4a1.413,1.413,0,0,0,.55-1.979l-2.6-4.456a1.565,1.565,0,0,0-2.058-.606l-2.672,1.406a24.841,24.841,0,0,0-2.935-2.933l1.552-2.547a1.476,1.476,0,0,0-.555-2.025l-4.546-2.711a1.522,1.522,0,0,0-2.084.459l-1.566,2.557a25.378,25.378,0,0,0-4.045-1.183v-3.04a1.584,1.584,0,0,0-1.538-1.539l-5.331-.213a1.447,1.447,0,0,0-1.549,1.422v3.054a24.528,24.528,0,0,0-4.1.887l-1.6-2.7a1.643,1.643,0,0,0-2.133-.628l-4.688,2.4a1.422,1.422,0,0,0-.575,2.021l1.608,2.706a23.138,23.138,0,0,0-3.045,2.782l-2.79-1.623a1.6,1.6,0,0,0-2.16.475l-2.738,4.4a1.487,1.487,0,0,0,.581,2.07l2.774,1.6a21.966,21.966,0,0,0-1.128,3.947l-3.206-.088a1.5,1.5,0,0,0-1.591,1.461v5.2a1.594,1.594,0,0,0,1.591,1.541l3.18.073a22.813,22.813,0,0,0,1.112,4.026l-2.733,1.439a1.441,1.441,0,0,0-.581,2.04l2.738,4.539a1.646,1.646,0,0,0,2.16.584l2.708-1.439a24.9,24.9,0,0,0,3.072,2.981l-1.554,2.536a1.467,1.467,0,0,0,.575,2.05l4.688,2.636a1.592,1.592,0,0,0,2.133-.52l1.53-2.511a25.4,25.4,0,0,0,4.168,1.116v2.921a1.537,1.537,0,0,0,1.549,1.5l5.331.055a1.49,1.49,0,0,0,1.538-1.462v-2.907a24.481,24.481,0,0,0,4.112-1l1.5,2.524a1.567,1.567,0,0,0,2.084.564l4.546-2.482a1.431,1.431,0,0,0,.555-2l-1.5-2.537a23.063,23.063,0,0,0,2.961-2.828l2.593,1.5a1.517,1.517,0,0,0,2.058-.5l2.6-4.325a1.457,1.457,0,0,0-.55-2.006l-2.594-1.509a21.953,21.953,0,0,0,1.057-3.879l3.01.069a1.438,1.438,0,0,0,1.5-1.424v-5.038A1.529,1.529,0,0,0,756.159,1279.586ZM729.532,1268c8.568.285,15.456,7.155,15.456,15.346s-6.888,14.715-15.456,14.568c-8.648-.148-15.719-7.022-15.719-15.353S720.884,1267.717,729.532,1268Z" transform="translate(-681.066 -1237.51)" fill="url(#linear-gradient-2)"/>
        <g id="Grupo_86892" data-name="Grupo 86892">
          <path id="Trazado_140470" data-name="Trazado 140470" d="M637.705,1153.244c-26.457-1.315-48.466,18.414-48.466,44.1s22.01,46.526,48.466,46.545c25.721.018,46.052-19.755,46.052-44.162S663.426,1154.522,637.705,1153.244Zm0,79.808c-20.062-.132-36.647-15.986-36.647-35.409s16.585-34.441,36.647-33.562c19.636.861,35.25,16.691,35.25,35.374S657.341,1233.181,637.705,1233.052Z" transform="translate(-589.239 -1153.182)" fill="#fff" opacity="0.74"/>
          <g id="Grupo_86891" data-name="Grupo 86891" transform="translate(0 0.002)">
            <path id="Trazado_140471" data-name="Trazado 140471" d="M634.562,1503.8l-10.18,5.378a48.223,48.223,0,0,0,16.435,16.717l5.8-9.481A36.619,36.619,0,0,1,634.562,1503.8Z" transform="translate(-618.237 -1442.494)" fill="url(#linear-gradient-3)"/>
            <path id="Trazado_140472" data-name="Trazado 140472" d="M978.973,1213.651l9.462-4.986a48.439,48.439,0,0,0-15.215-14.532l-5.528,9.049A36.9,36.9,0,0,1,978.973,1213.651Z" transform="translate(-901.515 -1186.974)" fill="url(#linear-gradient-4)"/>
            <path id="Trazado_140473" data-name="Trazado 140473" d="M647.156,1201.217a34.389,34.389,0,0,1,11.875-9.835l-5.782-9.756a45.181,45.181,0,0,0-16.284,13.669Z" transform="translate(-628.62 -1176.654)" fill="url(#linear-gradient-5)"/>
            <path id="Trazado_140474" data-name="Trazado 140474" d="M601.058,1400.168c0-.415.018-.826.033-1.238l-11.834-.306q-.018.621-.018,1.246a44.423,44.423,0,0,0,5.107,20.644l10.224-5.388A33.753,33.753,0,0,1,601.058,1400.168Z" transform="translate(-589.239 -1355.708)" fill="url(#linear-gradient-6)"/>
            <path id="Trazado_140475" data-name="Trazado 140475" d="M1052.619,1412.189a32.654,32.654,0,0,1-3.26,14.273l9.428,5.479a42.914,42.914,0,0,0,4.635-19.48q0-.594-.016-1.185l-10.817-.28C1052.6,1411.394,1052.619,1411.79,1052.619,1412.189Z" transform="translate(-968.903 -1365.917)" opacity="0.25" fill="url(#linear-gradient-7)"/>
            <path id="Trazado_140476" data-name="Trazado 140476" d="M990.244,1509.695a33.907,33.907,0,0,1-11.4,11.968l5.522,9.33a44.613,44.613,0,0,0,15.288-15.843Z" transform="translate(-910.717 -1447.357)" opacity="0.25" fill="url(#linear-gradient-8)"/>
            <path id="Trazado_140477" data-name="Trazado 140477" d="M1038.753,1292.164a34.1,34.1,0,0,1,4.956,14.653l10.844.293a44.736,44.736,0,0,0-6.378-19.923Z" transform="translate(-960.152 -1263.756)" fill="url(#linear-gradient-9)"/>
            <path id="Trazado_140478" data-name="Trazado 140478" d="M752.045,1587.1a37.611,37.611,0,0,1-17.157-4.8l-5.781,9.463a49.464,49.464,0,0,0,22.939,6.2Z" transform="translate(-704.649 -1507.264)" opacity="0.25" fill="url(#linear-gradient-10)"/>
            <path id="Trazado_140479" data-name="Trazado 140479" d="M889.338,1584.171a36.134,36.134,0,0,1-16.806,4.489v10.845a47.518,47.518,0,0,0,22.332-6.009Z" transform="translate(-822.996 -1508.811)" opacity="0.25" fill="url(#linear-gradient-11)"/>
            <path id="Trazado_140480" data-name="Trazado 140480" d="M746.889,1167.019a36.46,36.46,0,0,1,15.063-2.949v-10.857a47.957,47.957,0,0,0-20.839,4.046Z" transform="translate(-714.556 -1153.192)" fill="url(#linear-gradient-12)"/>
            <path id="Trazado_140481" data-name="Trazado 140481" d="M601.843,1290.428a32.583,32.583,0,0,1,5.325-14.865l-10.175-5.9a42.83,42.83,0,0,0-7.011,20.445Z" transform="translate(-589.852 -1249.297)" fill="url(#linear-gradient-13)"/>
            <path id="Trazado_140482" data-name="Trazado 140482" d="M872.532,1164.76a37.643,37.643,0,0,1,14.787,4.2l5.546-9.066a49.5,49.5,0,0,0-20.333-5.975Z" transform="translate(-822.996 -1153.789)" fill="url(#linear-gradient-14)"/>
          </g>
        </g>
      </g>
      <path id="Trazado_140483" data-name="Trazado 140483" d="M458.881,1460.362l-1.48.012a10.639,10.639,0,0,0-.522-1.869l1.283-.723a.7.7,0,0,0,.268-.966l-1.265-2.1a.747.747,0,0,0-1-.254l-1.3.728a11.339,11.339,0,0,0-1.425-1.358l.753-1.257a.691.691,0,0,0-.269-.965l-2.2-1.215a.756.756,0,0,0-1.008.262l-.757,1.26a11.924,11.924,0,0,0-1.952-.489v-1.46a.724.724,0,0,0-.741-.708l-2.563.005a.73.73,0,0,0-.744.713v1.463a12.117,12.117,0,0,0-1.965.5l-.764-1.261a.765.765,0,0,0-1.02-.258l-2.236,1.239a.7.7,0,0,0-.274.976l.766,1.261a11.685,11.685,0,0,0-1.45,1.385l-1.327-.722a.774.774,0,0,0-1.026.267l-1.3,2.146a.694.694,0,0,0,.275.975l1.316.714a10.814,10.814,0,0,0-.535,1.9l-1.52.013a.742.742,0,0,0-.753.722v2.472a.726.726,0,0,0,.753.708l1.507-.016a10.651,10.651,0,0,0,.528,1.9l-1.3.727a.7.7,0,0,0-.275.98l1.3,2.122a.766.766,0,0,0,1.026.248l1.288-.725a11.345,11.345,0,0,0,1.463,1.379l-.74,1.232a.689.689,0,0,0,.274.971l2.236,1.2a.774.774,0,0,0,1.02-.277l.732-1.222a11.973,11.973,0,0,0,2,.478v1.4a.714.714,0,0,0,.744.7l2.563-.042a.74.74,0,0,0,.741-.722v-1.4a12.09,12.09,0,0,0,1.984-.536l.725,1.193a.748.748,0,0,0,1.008.244l2.2-1.256a.7.7,0,0,0,.269-.97l-.728-1.2a11.659,11.659,0,0,0,1.438-1.406l1.261.684a.756.756,0,0,0,1-.272l1.265-2.128a.687.687,0,0,0-.268-.961l-1.264-.688a10.807,10.807,0,0,0,.515-1.889l1.468-.015a.728.728,0,0,0,.732-.713v-2.436A.712.712,0,0,0,458.881,1460.362Zm-12.9-5.1a7.258,7.258,0,0,1,7.465,7.1,7.423,7.423,0,0,1-7.465,7.243,7.259,7.259,0,0,1-7.526-7.1A7.423,7.423,0,0,1,445.98,1455.263Z" transform="translate(-432.143 -1397.486)" fill="url(#linear-gradient-15)"/>
    </g>
    <g id="Grupo_86899" data-name="Grupo 86899" transform="translate(462.547 1165.201)">
      <g id="Grupo_86895" data-name="Grupo 86895" transform="translate(69.231 106.649)">
        <path id="Trazado_140484" data-name="Trazado 140484" d="M1053.885,2071.161a7.766,7.766,0,0,1-5.149-5.846l-3.827-18.94-32.736,1.162-4.029,19.732c-.564,2.763,1.694,5.536,4.3,6.553l13.7,5.359a17.805,17.805,0,0,0,8.007,1.161l28.945-2.476a1.8,1.8,0,0,0,1.623-1.591c.1-.854.691-1.812-.115-2.079Z" transform="translate(-1008.057 -2045.534)" fill="url(#linear-gradient-16)"/>
        <path id="Trazado_140485" data-name="Trazado 140485" d="M1059.417,2066.043a7.7,7.7,0,0,1-5.143-5.773l-3.823-18.7-31.938,1.149-4.025,19.483a5.7,5.7,0,0,0,3.526,6.47l13.682,5.292a17.981,17.981,0,0,0,8,1.146l28.916-2.445a1.784,1.784,0,0,0,.406-3.473Z" transform="translate(-1013.265 -2041.568)" fill="url(#linear-gradient-17)"/>
      </g>
      <g id="Grupo_86898" data-name="Grupo 86898" transform="translate(0 0)">
        <g id="Grupo_86896" data-name="Grupo 86896">
          <path id="Trazado_140486" data-name="Trazado 140486" d="M618.587,1551.729c-3.55.212-6.454-2.092-6.454-5.135V1436.9c0-3.044,2.9-5.394,6.454-5.24l164.887,11.415c2.606.113,4-1.991,4,.6v93.3a5.063,5.063,0,0,1-4.717,4.976Z" transform="translate(-612.133 -1431.65)" fill="url(#linear-gradient-16)"/>
          <path id="Trazado_140487" data-name="Trazado 140487" d="M627.025,1551.729c-3.55.212-6.454-2.092-6.454-5.135V1436.9c0-3.044,2.9-5.394,6.454-5.24l164.175,7.113a4.963,4.963,0,0,1,4.717,4.9v93.3a5.063,5.063,0,0,1-4.717,4.976Z" transform="translate(-619.096 -1431.65)" fill="url(#linear-gradient-19)"/>
          <path id="Trazado_140488" data-name="Trazado 140488" d="M805.421,1453.043l-164.175-6.754a3.069,3.069,0,0,0-3.441,2.8V1558.5a3.012,3.012,0,0,0,3.441,2.745l164.175-9.428a2.7,2.7,0,0,0,2.527-2.66v-93.5A2.649,2.649,0,0,0,805.421,1453.043Z" transform="translate(-633.316 -1443.726)" fill="#d8dee8" opacity="0.3" style="mix-blend-mode: multiply;isolation: isolate"/>
        </g>
        <g id="Grupo_86897" data-name="Grupo 86897" transform="translate(6.643 4.263)">
          <path id="Trazado_140489" data-name="Trazado 140489" d="M814.364,1551.966l-161.176,7.956a2.718,2.718,0,0,1-3.067-2.5v-98.859a2.758,2.758,0,0,1,3.067-2.535l161.176,5.983a2.39,2.39,0,0,1,2.288,2.368v85.189A2.427,2.427,0,0,1,814.364,1551.966Z" transform="translate(-650.121 -1456.028)" fill="url(#linear-gradient-20)"/>
          <path id="Trazado_140490" data-name="Trazado 140490" d="M723.9,1494.079,687.1,1493v-3.51l36.809,1.19Z" transform="translate(-680.631 -1483.636)" fill="#fff" opacity="0.6" style="mix-blend-mode: soft-light;isolation: isolate"/>
          <path id="Trazado_140491" data-name="Trazado 140491" d="M956.612,1500.584l-8.5-.257v-2.4l8.5.275Z" transform="translate(-896.003 -1490.602)" fill="#fff" opacity="0.36" style="mix-blend-mode: soft-light;isolation: isolate"/>
          <path id="Trazado_140492" data-name="Trazado 140492" d="M956.612,1519.611l-8.5-.233v-2.4l8.5.25Z" transform="translate(-896.003 -1506.323)" fill="#fff" opacity="0.36" style="mix-blend-mode: soft-light;isolation: isolate"/>
          <path id="Trazado_140493" data-name="Trazado 140493" d="M1083.406,1523.257l-32.989-.9v-2.36l32.989.971Z" transform="translate(-980.422 -1508.809)" fill="url(#linear-gradient-21)"/>
          <path id="Trazado_140494" data-name="Trazado 140494" d="M1115.89,1542.769l-32.661-.8v-2.349l32.661.868Z" transform="translate(-1007.497 -1525.004)" opacity="0.5" fill="url(#linear-gradient-22)"/>
          <path id="Trazado_140495" data-name="Trazado 140495" d="M1115.89,1561.336l-32.661-.705v-2.349l32.661.773Z" transform="translate(-1007.497 -1540.402)" opacity="0.5" fill="url(#linear-gradient-22)"/>
          <path id="Trazado_140496" data-name="Trazado 140496" d="M1115.89,1579.9l-32.661-.611v-2.349l32.661.679Z" transform="translate(-1007.497 -1555.8)" fill="#fff" opacity="0.6" style="mix-blend-mode: soft-light;isolation: isolate"/>
          <path id="Trazado_140497" data-name="Trazado 140497" d="M956.612,1538.638l-8.5-.208v-2.4l8.5.226Z" transform="translate(-896.003 -1522.043)" fill="#fff" opacity="0.36" style="mix-blend-mode: soft-light;isolation: isolate"/>
          <path id="Trazado_140498" data-name="Trazado 140498" d="M956.612,1557.665l-8.5-.184v-2.4l8.5.2Z" transform="translate(-896.003 -1537.763)" fill="#fff" opacity="0.36" style="mix-blend-mode: soft-light;isolation: isolate"/>
          <path id="Trazado_140499" data-name="Trazado 140499" d="M956.612,1576.693l-8.5-.159v-2.4l8.5.177Z" transform="translate(-896.003 -1553.484)" fill="#fff" opacity="0.36" style="mix-blend-mode: soft-light;isolation: isolate"/>
          <path id="Trazado_140500" data-name="Trazado 140500" d="M956.612,1595.72l-8.5-.134v-2.4l8.5.152Z" transform="translate(-896.003 -1569.204)" fill="#fff" opacity="0.36" style="mix-blend-mode: soft-light;isolation: isolate"/>
          <path id="Trazado_140501" data-name="Trazado 140501" d="M1028.279,1596.954l-20.93-.331v-2.376l20.93.374Z" transform="translate(-944.885 -1570.078)" fill="#fff" opacity="0.6" style="mix-blend-mode: soft-light;isolation: isolate"/>
          <path id="Trazado_140502" data-name="Trazado 140502" d="M956.612,1614.747l-8.5-.11v-2.4l8.5.128Z" transform="translate(-896.003 -1584.924)" fill="#fff" opacity="0.36" style="mix-blend-mode: soft-light;isolation: isolate"/>
          <path id="Trazado_140503" data-name="Trazado 140503" d="M956.612,1633.774l-8.5-.085v-2.4l8.5.1Z" transform="translate(-896.003 -1600.645)" fill="#fff" opacity="0.36" style="mix-blend-mode: soft-light;isolation: isolate"/>
          <path id="Trazado_140504" data-name="Trazado 140504" d="M956.612,1652.8l-8.5-.061v-2.4l8.5.078Z" transform="translate(-896.003 -1616.365)" fill="#fff" opacity="0.36" style="mix-blend-mode: soft-light;isolation: isolate"/>
          <path id="Trazado_140505" data-name="Trazado 140505" d="M1073.623,1616.434l-23.206-.3v-2.36l23.206.348Z" transform="translate(-980.422 -1586.19)" opacity="0.5" fill="url(#linear-gradient-22)"/>
          <path id="Trazado_140506" data-name="Trazado 140506" d="M1112.753,1635.571l-29.524-.3v-2.349l29.524.357Z" transform="translate(-1007.497 -1601.995)" fill="#fff" opacity="0.6" style="mix-blend-mode: soft-light;isolation: isolate"/>
          <path id="Trazado_140507" data-name="Trazado 140507" d="M1112.753,1654.147l-29.524-.211v-2.349l29.524.272Z" transform="translate(-1007.497 -1617.392)" fill="url(#linear-gradient-25)"/>
          <path id="Trazado_140508" data-name="Trazado 140508" d="M956.612,1671.828l-8.5-.036v-2.4l8.5.054Z" transform="translate(-896.003 -1632.086)" fill="#fff" opacity="0.36" style="mix-blend-mode: soft-light;isolation: isolate"/>
          <path id="Trazado_140509" data-name="Trazado 140509" d="M956.612,1690.856l-8.5-.011v-2.4l8.5.029Z" transform="translate(-896.003 -1647.806)" fill="#fff" opacity="0.36" style="mix-blend-mode: soft-light;isolation: isolate"/>
          <path id="Trazado_140510" data-name="Trazado 140510" d="M956.612,1709.883l-8.5.013v-2.4l8.5,0Z" transform="translate(-896.003 -1663.526)" fill="#fff" opacity="0.36" style="mix-blend-mode: soft-light;isolation: isolate"/>
          <path id="Trazado_140511" data-name="Trazado 140511" d="M956.612,1728.816l-8.5.038v-2.4l8.5-.02Z" transform="translate(-896.003 -1679.152)" fill="#fff" opacity="0.36" style="mix-blend-mode: soft-light;isolation: isolate"/>
          <path id="Trazado_140512" data-name="Trazado 140512" d="M956.612,1747.727l-8.5.062v-2.4l8.5-.045Z" transform="translate(-896.003 -1694.757)" fill="#fff" opacity="0.36" style="mix-blend-mode: soft-light;isolation: isolate"/>
          <path id="Trazado_140513" data-name="Trazado 140513" d="M956.612,1766.638l-8.5.087v-2.4l8.5-.069Z" transform="translate(-896.003 -1710.361)" fill="#fff" opacity="0.36" style="mix-blend-mode: soft-light;isolation: isolate"/>
          <path id="Trazado_140514" data-name="Trazado 140514" d="M956.612,1785.549l-8.5.111v-2.4l8.5-.094Z" transform="translate(-896.003 -1725.966)" fill="#fff" opacity="0.36" style="mix-blend-mode: soft-light;isolation: isolate"/>
          <path id="Trazado_140515" data-name="Trazado 140515" d="M956.612,1804.46l-8.5.136v-2.4l8.5-.118Z" transform="translate(-896.003 -1741.57)" fill="#fff" opacity="0.36" style="mix-blend-mode: soft-light;isolation: isolate"/>
          <path id="Trazado_140516" data-name="Trazado 140516" d="M956.612,1823.371l-8.5.161v-2.4l8.5-.143Z" transform="translate(-896.003 -1757.174)" fill="#fff" opacity="0.36" style="mix-blend-mode: soft-light;isolation: isolate"/>
          <path id="Trazado_140517" data-name="Trazado 140517" d="M956.612,1842.283l-8.5.185v-2.4l8.5-.167Z" transform="translate(-896.003 -1772.779)" fill="#fff" opacity="0.36" style="mix-blend-mode: soft-light;isolation: isolate"/>
          <path id="Trazado_140518" data-name="Trazado 140518" d="M956.612,1861.194l-8.5.21v-2.4l8.5-.192Z" transform="translate(-896.003 -1788.383)" fill="#fff" opacity="0.36" style="mix-blend-mode: soft-light;isolation: isolate"/>
          <path id="Trazado_140519" data-name="Trazado 140519" d="M956.612,1880.1l-8.5.234v-2.4l8.5-.217Z" transform="translate(-896.003 -1803.988)" fill="#fff" opacity="0.36" style="mix-blend-mode: soft-light;isolation: isolate"/>
          <path id="Trazado_140520" data-name="Trazado 140520" d="M956.612,1899.016l-8.5.259v-2.4l8.5-.241Z" transform="translate(-896.003 -1819.592)" fill="#fff" opacity="0.36" style="mix-blend-mode: soft-light;isolation: isolate"/>
          <path id="Trazado_140521" data-name="Trazado 140521" d="M956.612,1917.927l-8.5.283v-2.4l8.5-.266Z" transform="translate(-896.003 -1835.197)" fill="#fff" opacity="0.36" style="mix-blend-mode: soft-light;isolation: isolate"/>
          <path id="Trazado_140522" data-name="Trazado 140522" d="M956.612,1936.839l-8.5.308v-2.4l8.5-.29Z" transform="translate(-896.003 -1850.801)" fill="#fff" opacity="0.36" style="mix-blend-mode: soft-light;isolation: isolate"/>
          <path id="Trazado_140523" data-name="Trazado 140523" d="M956.612,1955.75l-8.5.333v-2.4l8.5-.315Z" transform="translate(-896.003 -1866.405)" fill="#fff" opacity="0.36" style="mix-blend-mode: soft-light;isolation: isolate"/>
          <path id="Trazado_140524" data-name="Trazado 140524" d="M956.612,1974.661l-8.5.357v-2.4l8.5-.34Z" transform="translate(-896.003 -1882.01)" fill="#fff" opacity="0.36" style="mix-blend-mode: soft-light;isolation: isolate"/>
          <path id="Trazado_140525" data-name="Trazado 140525" d="M956.612,1993.572l-8.5.382v-2.4l8.5-.364Z" transform="translate(-896.003 -1897.614)" fill="#fff" opacity="0.36" style="mix-blend-mode: soft-light;isolation: isolate"/>
          <path id="Trazado_140526" data-name="Trazado 140526" d="M1030.209,1502.912l-23.19-.7v-2.376l23.19.75Z" transform="translate(-944.612 -1492.174)" opacity="0.5" fill="url(#linear-gradient-22)"/>
          <path id="Trazado_140527" data-name="Trazado 140527" d="M1083.406,1892.053l-32.989,1v-2.36l32.989-.936Z" transform="translate(-980.422 -1813.919)" fill="#fff" opacity="0.6" style="mix-blend-mode: soft-light;isolation: isolate"/>
          <path id="Trazado_140528" data-name="Trazado 140528" d="M1115.89,1909.285l-32.661,1.089v-2.348L1115.89,1907Z" transform="translate(-1007.497 -1828.147)" opacity="0.5" fill="url(#linear-gradient-22)"/>
          <path id="Trazado_140529" data-name="Trazado 140529" d="M1115.89,1927.406l-32.661,1.183v-2.349l32.661-1.115Z" transform="translate(-1007.497 -1843.1)" opacity="0.5" fill="url(#linear-gradient-22)"/>
          <path id="Trazado_140530" data-name="Trazado 140530" d="M1200.37,1942.516l-31.815,1.245v-2.318l31.815-1.178Z" transform="translate(-1077.903 -1855.592)" opacity="0.5" fill="url(#linear-gradient-22)"/>
          <path id="Trazado_140531" data-name="Trazado 140531" d="M1200.37,1960.4l-31.815,1.337v-2.318l31.815-1.271Z" transform="translate(-1077.903 -1870.352)" fill="url(#linear-gradient-30)"/>
          <path id="Trazado_140532" data-name="Trazado 140532" d="M1200.37,1978.293l-31.815,1.429V1977.4l31.815-1.363Z" transform="translate(-1077.903 -1885.113)" fill="#fff" opacity="0.6" style="mix-blend-mode: soft-light;isolation: isolate"/>
          <path id="Trazado_140533" data-name="Trazado 140533" d="M1030.209,1876.412l-23.19.639v-2.376l23.19-.591Z" transform="translate(-944.612 -1800.983)" opacity="0.5" fill="url(#linear-gradient-22)"/>
          <path id="Trazado_140534" data-name="Trazado 140534" d="M1083.406,1691.2l-32.989-.045v-2.36l32.989.113Z" transform="translate(-980.422 -1648.096)" opacity="0.5" fill="url(#linear-gradient-22)"/>
          <path id="Trazado_140535" data-name="Trazado 140535" d="M1115.89,1709.869l-32.661.05v-2.349l32.661.018Z" transform="translate(-1007.497 -1663.587)" fill="#fff" opacity="0.6" style="mix-blend-mode: soft-light;isolation: isolate"/>
          <path id="Trazado_140536" data-name="Trazado 140536" d="M1115.89,1728.074l-32.661.145v-2.349l32.661-.077Z" transform="translate(-1007.497 -1678.622)" opacity="0.5" fill="url(#linear-gradient-22)"/>
          <path id="Trazado_140537" data-name="Trazado 140537" d="M1115.89,1746.195l-32.661.239v-2.349l32.661-.171Z" transform="translate(-1007.497 -1693.575)" opacity="0.5" fill="url(#linear-gradient-22)"/>
          <path id="Trazado_140538" data-name="Trazado 140538" d="M1028.279,1765.531l-20.93.214v-2.376l20.93-.17Z" transform="translate(-944.885 -1709.487)" opacity="0.5" fill="url(#linear-gradient-22)"/>
          <path id="Trazado_140539" data-name="Trazado 140539" d="M1073.623,1783.427l-23.206.3v-2.36l23.206-.256Z" transform="translate(-980.422 -1724.27)" fill="#fff" opacity="0.6" style="mix-blend-mode: soft-light;isolation: isolate"/>
          <path id="Trazado_140540" data-name="Trazado 140540" d="M1112.753,1800.814l-29.524.472v-2.349l29.524-.411Z" transform="translate(-1007.497 -1738.638)" fill="url(#linear-gradient-36)"/>
          <path id="Trazado_140541" data-name="Trazado 140541" d="M1112.753,1818.987l-29.524.558V1817.2l29.524-.5Z" transform="translate(-1007.497 -1753.634)" opacity="0.5" fill="url(#linear-gradient-22)"/>
          <path id="Trazado_140542" data-name="Trazado 140542" d="M1151.86,1836.409l-29.168.635v-2.334l29.168-.575Z" transform="translate(-1040.059 -1768.021)" opacity="0.5" fill="url(#linear-gradient-22)"/>
          <path id="Trazado_140543" data-name="Trazado 140543" d="M1151.86,1854.474l-29.168.72v-2.334l29.168-.659Z" transform="translate(-1040.059 -1782.926)" opacity="0.5" fill="url(#linear-gradient-22)"/>
          <path id="Trazado_140544" data-name="Trazado 140544" d="M1030.209,1672.242l-23.19-.1v-2.376l23.19.146Z" transform="translate(-944.612 -1632.393)" fill="url(#linear-gradient-40)"/>
          <path id="Trazado_140545" data-name="Trazado 140545" d="M798.182,1527.333l-21.069-.523v-3.463l21.069.585Z" transform="translate(-754.908 -1511.575)" fill="#fff" style="mix-blend-mode: soft-light;isolation: isolate"/>
          <path id="Trazado_140546" data-name="Trazado 140546" d="M745.949,1525.96l3.968.1v-3.468l-3.968-.11Z" transform="translate(-729.192 -1510.861)" fill="#fff" opacity="0.6" style="mix-blend-mode: soft-light;isolation: isolate"/>
          <path id="Trazado_140547" data-name="Trazado 140547" d="M798.182,1555.717l-21.069-.435v-3.463l21.069.5Z" transform="translate(-754.908 -1535.069)" fill="#fff" opacity="0.6" style="mix-blend-mode: soft-light;isolation: isolate"/>
          <path id="Trazado_140548" data-name="Trazado 140548" d="M745.949,1554.564l3.968.082v-3.468l-3.968-.094Z" transform="translate(-729.192 -1534.463)" fill="#fff" opacity="0.6" style="mix-blend-mode: soft-light;isolation: isolate"/>
          <path id="Trazado_140549" data-name="Trazado 140549" d="M798.182,1584.1l-21.069-.346v-3.463l21.069.407Z" transform="translate(-754.908 -1558.562)" fill="#fff" opacity="0.6" style="mix-blend-mode: soft-light;isolation: isolate"/>
          <path id="Trazado_140550" data-name="Trazado 140550" d="M745.949,1583.167l3.968.065v-3.468l-3.968-.077Z" transform="translate(-729.192 -1558.065)" fill="#fff" opacity="0.6" style="mix-blend-mode: soft-light;isolation: isolate"/>
          <path id="Trazado_140551" data-name="Trazado 140551" d="M723.9,1784.524l-36.809.5v-3.509l36.809-.388Z" transform="translate(-680.631 -1724.277)" fill="#fff" style="mix-blend-mode: soft-light;isolation: isolate"/>
          <path id="Trazado_140552" data-name="Trazado 140552" d="M798.182,1814.92l-21.069.38v-3.463l21.069-.319Z" transform="translate(-754.908 -1749.358)" fill="#fff" opacity="0.6" style="mix-blend-mode: soft-light;isolation: isolate"/>
          <path id="Trazado_140553" data-name="Trazado 140553" d="M745.949,1817.009l3.968-.072v-3.468l-3.968.06Z" transform="translate(-729.192 -1750.968)" fill="#fff" opacity="0.6" style="mix-blend-mode: soft-light;isolation: isolate"/>
          <path id="Trazado_140554" data-name="Trazado 140554" d="M798.182,1842.885l-21.069.469v-3.463l21.069-.407Z" transform="translate(-754.908 -1772.433)" fill="#fff" opacity="0.6" style="mix-blend-mode: soft-light;isolation: isolate"/>
          <path id="Trazado_140555" data-name="Trazado 140555" d="M745.949,1845.534l3.968-.088v-3.468l-3.968.077Z" transform="translate(-729.192 -1774.491)" fill="#fff" opacity="0.6" style="mix-blend-mode: soft-light;isolation: isolate"/>
          <path id="Trazado_140556" data-name="Trazado 140556" d="M798.182,1870.85l-21.069.558v-3.464l21.069-.5Z" transform="translate(-754.908 -1795.508)" fill="#fff" opacity="0.6" style="mix-blend-mode: soft-light;isolation: isolate"/>
          <path id="Trazado_140557" data-name="Trazado 140557" d="M745.949,1874.058l3.968-.105v-3.468l-3.968.093Z" transform="translate(-729.192 -1798.014)" fill="#fff" opacity="0.6" style="mix-blend-mode: soft-light;isolation: isolate"/>
          <path id="Trazado_140558" data-name="Trazado 140558" d="M723.9,1611.554l-36.809-.448V1607.6l36.809.556Z" transform="translate(-680.631 -1581.094)" fill="#fff" style="mix-blend-mode: soft-light;isolation: isolate"/>
          <path id="Trazado_140559" data-name="Trazado 140559" d="M798.182,1643.527l-21.069-.16V1639.9l21.069.222Z" transform="translate(-754.908 -1607.752)" fill="#fff" opacity="0.6" style="mix-blend-mode: soft-light;isolation: isolate"/>
          <path id="Trazado_140560" data-name="Trazado 140560" d="M745.949,1643.055l3.968.03v-3.468l-3.968-.042Z" transform="translate(-729.192 -1607.481)" fill="#fff" opacity="0.6" style="mix-blend-mode: soft-light;isolation: isolate"/>
          <path id="Trazado_140561" data-name="Trazado 140561" d="M798.182,1671.911l-21.069-.071v-3.463l21.069.133Z" transform="translate(-754.908 -1631.245)" fill="#fff" opacity="0.6" style="mix-blend-mode: soft-light;isolation: isolate"/>
          <path id="Trazado_140562" data-name="Trazado 140562" d="M745.949,1671.659l3.968.013V1668.2l-3.968-.025Z" transform="translate(-729.192 -1631.083)" fill="#fff" opacity="0.6" style="mix-blend-mode: soft-light;isolation: isolate"/>
          <path id="Trazado_140563" data-name="Trazado 140563" d="M798.182,1728.831l-21.069.107v-3.463l21.069-.046Z" transform="translate(-754.908 -1678.322)" fill="#fff" opacity="0.6" style="mix-blend-mode: soft-light;isolation: isolate"/>
          <path id="Trazado_140564" data-name="Trazado 140564" d="M745.949,1729.2l3.968-.02v-3.468l-3.968.009Z" transform="translate(-729.192 -1678.553)" fill="#fff" opacity="0.6" style="mix-blend-mode: soft-light;isolation: isolate"/>
          <path id="Trazado_140565" data-name="Trazado 140565" d="M798.182,1756.8l-21.069.2v-3.463l21.069-.134Z" transform="translate(-754.908 -1701.397)" fill="#fff" opacity="0.6" style="mix-blend-mode: soft-light;isolation: isolate"/>
          <path id="Trazado_140566" data-name="Trazado 140566" d="M745.949,1757.721l3.968-.037v-3.468l-3.968.025Z" transform="translate(-729.192 -1702.076)" fill="#fff" opacity="0.6" style="mix-blend-mode: soft-light;isolation: isolate"/>
          <path id="Trazado_140567" data-name="Trazado 140567" d="M798.182,1700.294l-21.069.018v-3.464l21.069.044Z" transform="translate(-754.908 -1654.739)" fill="#fff" opacity="0.6" style="mix-blend-mode: soft-light;isolation: isolate"/>
          <path id="Trazado_140568" data-name="Trazado 140568" d="M745.949,1700.262l3.968,0v-3.468l-3.968-.008Z" transform="translate(-729.192 -1654.685)" fill="#fff" opacity="0.6" style="mix-blend-mode: soft-light;isolation: isolate"/>
          <path id="Trazado_140569" data-name="Trazado 140569" d="M723.9,1898.805l-36.809,1.13v-3.51L723.9,1895.4Z" transform="translate(-680.631 -1818.575)" fill="#fff" style="mix-blend-mode: soft-light;isolation: isolate"/>
          <path id="Trazado_140570" data-name="Trazado 140570" d="M798.182,1929.2l-21.069.743v-3.463l21.069-.681Z" transform="translate(-754.908 -1843.656)" fill="#fff" opacity="0.6" style="mix-blend-mode: soft-light;isolation: isolate"/>
          <path id="Trazado_140571" data-name="Trazado 140571" d="M745.949,1933.578l3.968-.14v-3.468l-3.968.128Z" transform="translate(-729.192 -1847.098)" fill="#fff" opacity="0.6" style="mix-blend-mode: soft-light;isolation: isolate"/>
          <path id="Trazado_140572" data-name="Trazado 140572" d="M798.182,1957.167l-21.069.832v-3.463l21.069-.77Z" transform="translate(-754.908 -1866.731)" fill="#fff" opacity="0.6" style="mix-blend-mode: soft-light;isolation: isolate"/>
          <path id="Trazado_140573" data-name="Trazado 140573" d="M745.949,1962.1l3.968-.157v-3.468l-3.968.145Z" transform="translate(-729.192 -1870.621)" fill="#fff" opacity="0.6" style="mix-blend-mode: soft-light;isolation: isolate"/>
          <path id="Trazado_140574" data-name="Trazado 140574" d="M798.182,1985.131l-21.069.921v-3.463l21.069-.859Z" transform="translate(-754.908 -1889.806)" fill="#fff" opacity="0.6" style="mix-blend-mode: soft-light;isolation: isolate"/>
          <path id="Trazado_140575" data-name="Trazado 140575" d="M745.949,1990.627l3.968-.173v-3.468l-3.968.162Z" transform="translate(-729.192 -1894.144)" fill="#fff" opacity="0.6" style="mix-blend-mode: soft-light;isolation: isolate"/>
          <path id="Trazado_140576" data-name="Trazado 140576" d="M919.358,1584.96l-.811.036v-88.022l.811.026Z" transform="translate(-871.611 -1489.813)" fill="#fff" opacity="0.6" style="mix-blend-mode: soft-light;isolation: isolate"/>
        </g>
        <path id="Trazado_140577" data-name="Trazado 140577" d="M774.061,1535.152c-35.739.747-43.776,5.85-53.931-.264-13.954-8.4-7.6-23.347-21.195-31.187-17.093-9.856-36.8,8.195-45.72-.606-8.884-8.764,7.9-29.39-1.817-52.381a46.053,46.053,0,0,0-15.123-18.655l-9.251-.4c-3.55-.154-6.454,2.2-6.454,5.24v109.7c0,3.044,2.9,5.347,6.454,5.135l164.175-9.787a5.063,5.063,0,0,0,4.717-4.976v-1.659C791,1535.133,783.375,1534.957,774.061,1535.152Z" transform="translate(-619.096 -1431.651)" fill="#fff" opacity="0.6" style="mix-blend-mode: soft-light;isolation: isolate"/>
      </g>
    </g>
    <g id="Grupo_86902" data-name="Grupo 86902" transform="translate(561.321 1180.122)">
      <g id="Grupo_86901" data-name="Grupo 86901" transform="translate(0)">
        <path id="Trazado_140578" data-name="Trazado 140578" d="M1186.2,1694.194l-2.3-2.513a8.534,8.534,0,0,0-2.049-1.766c-1.853-1.137-4.4-1.694-4.785-1.045-.433.736,1.989,2.917,2.814,3.637l3.417,2.482Z" transform="translate(-1177.011 -1658.586)" fill="url(#linear-gradient-41)"/>
        <path id="Trazado_140579" data-name="Trazado 140579" d="M1425.529,1622.926c.626.237,10.166,4.031,12.127,13.989.158.8,1.691,9.36-4.11,15.4-6.506,6.777-19.034,6.609-24.006.943a10.162,10.162,0,0,1-2.114-4.016h0l1.31-3.481a8.531,8.531,0,0,1,4.938-2.674c2.866-.706,5.03.57,6.671-.812a4.319,4.319,0,0,0,1.25-2.848c.549-3.348-1.341-5.41-1.479-7.474-.1-1.544-.643-4.926,1.372-7.132A6.506,6.506,0,0,1,1425.529,1622.926Z" transform="translate(-1367.135 -1604.401)" fill="url(#linear-gradient-42)"/>
        <path id="Trazado_140580" data-name="Trazado 140580" d="M1532.2,2254.01c.111-.613,2.091-1.168,3.072-.347.487.408.822,1.234.54,1.607-.1.136.317.375-.085.379C1534.393,2255.665,1532.089,2254.619,1532.2,2254.01Z" transform="translate(-1470.089 -2124.506)" fill="url(#linear-gradient-43)"/>
        <path id="Trazado_140581" data-name="Trazado 140581" d="M1539.849,2235.088l2.036-.288c-.943-1.136-.769-4.752-.769-4.752l-2.165.483s.246.993.666,2.457A9.6,9.6,0,0,1,1539.849,2235.088Z" transform="translate(-1475.663 -2105.362)" fill="url(#linear-gradient-44)"/>
        <path id="Trazado_140582" data-name="Trazado 140582" d="M1542.887,2256.135s2.451-.565,2.716-.078.471,1.788-1.084,1.746S1542.749,2256.548,1542.887,2256.135Z" transform="translate(-1478.882 -2126.66)" fill="url(#linear-gradient-45)"/>
        <path id="Trazado_140583" data-name="Trazado 140583" d="M1372.393,2268.209c.2-.592,2.234-.864,3.09.086.425.472.641,1.337.31,1.667-.12.12.262.415-.137.364C1374.333,2270.155,1372.2,2268.8,1372.393,2268.209Z" transform="translate(-1338.219 -2136.407)" fill="url(#linear-gradient-46)"/>
        <path id="Trazado_140584" data-name="Trazado 140584" d="M1382.838,2250.954h2.056c-.775-1.257-.1-4.813-.1-4.813l-2.212.175s.105,1.018.316,2.526A9.61,9.61,0,0,1,1382.838,2250.954Z" transform="translate(-1346.64 -2118.641)" fill="url(#linear-gradient-47)"/>
        <path id="Trazado_140585" data-name="Trazado 140585" d="M1335.314,1821.09a95.146,95.146,0,0,0-3.189,14.592c-2.5,18.168,2.811,18.748,1.82,38.881-.316,6.427,5.568,21.245,6.086,21.572a6.366,6.366,0,0,0,.814.032,8.11,8.11,0,0,0,2.073-.345c.932-.161,4.292-9.263,3.514-14.674-.551-3.83-.391-7.941-.072-16.162.052-1.332,3.46-25.917,3.46-25.917h0c1.037,9.1,2.229,16.832,3.263,22.827,3.321,19.26,14.119,30.917,14.682,31.1a2.283,2.283,0,0,0,1.953-.133,1.347,1.347,0,0,0,.494-.557c.289-.226-.085-19.229-3.379-33.53-4.78-20.758-2.7-25.615-4.214-34.887C1361.308,1815.869,1335.314,1821.09,1335.314,1821.09Z" transform="translate(-1304.445 -1766.536)" fill="url(#linear-gradient-48)"/>
        <path id="Trazado_140586" data-name="Trazado 140586" d="M1362.281,1612.546c-3.174-.093-10.469-1.214-14.487,2.4-.07.063.753.5.348.977A26.285,26.285,0,0,0,1345.3,1620a27.36,27.36,0,0,0-2.384,5.9,50.651,50.651,0,0,0-1.882,10.29c-.734,9.66-.006,14.116.655,17.147a33.434,33.434,0,0,0,19.074,2.8,29.77,29.77,0,0,0,9.509-3.133c-2.286-6.922-.492-10.626.354-14.04,1.207-4.868,1.226-4.5,2.22-8.367,1.639-6.381,1.908-12.9.781-14.235C1370.595,1612.76,1365.123,1612.63,1362.281,1612.546Z" transform="translate(-1312.103 -1595.641)" fill="url(#linear-gradient-49)"/>
        <path id="Trazado_140587" data-name="Trazado 140587" d="M1382.815,2271.891s2.506-.216,2.7.3.216,1.836-1.318,1.577S1382.621,2272.28,1382.815,2271.891Z" transform="translate(-1346.761 -2139.852)" fill="url(#linear-gradient-50)"/>
        <g id="Grupo_86900" data-name="Grupo 86900" transform="translate(39.286)">
          <path id="Trazado_140588" data-name="Trazado 140588" d="M1403.643,1557.882a5.518,5.518,0,0,1-.446-3.971c.413-1.718.567-1.978.886-2.342l.451-.477s.028-.021.057-.041a6.466,6.466,0,0,1,1.737-.579c.807-.041,2.45,2.854,3.391,7.315q.115.239.227.483c.467,1.012.867,2.007,1.21,2.978,5.455.461,6.213,1.1,6.237,1.471.052.778-3.057,1.677-5.395,2.02-5.1.746-10.339-.6-10.315-1.549.01-.414,1.024-.953,5.345-1.519q-.152-1.073-.3-2.146C1406.375,1559.447,1404.367,1559.106,1403.643,1557.882Z" transform="translate(-1401.683 -1544.615)" fill="url(#linear-gradient-51)"/>
          <path id="Trazado_140589" data-name="Trazado 140589" d="M1406.213,1522.63a5.3,5.3,0,0,0,1.788,2.793,2.34,2.34,0,0,1,.637.407.715.715,0,0,1,.121.14c.528.779-.569,2.154-.2,2.468.266.228,1.094-.392,1.269-.181s-.482.874-.291,1.114c.144.181.568-.133.951.1.191.117.18.252.466.688a4.458,4.458,0,0,0,.506.648c.684.675,2.1.611,2.267.223.048-.108-.034-.167-.041-.486a2.479,2.479,0,0,1,.1-.668,6.421,6.421,0,0,1,1.275-1.7,4.57,4.57,0,0,0,1.173-2.368c.012-.1.016-.177.018-.231a5.243,5.243,0,0,0-1.029-3.354c-1.162-1.318-2.676-.142-4.475-1.276-2.075-1.308-1.748-3.939-2.693-3.968C1407.014,1516.949,1405.532,1520.112,1406.213,1522.63Z" transform="translate(-1405.278 -1516.981)" fill="url(#linear-gradient-52)"/>
          <path id="Trazado_140590" data-name="Trazado 140590" d="M1421.736,1578.532c.212-.548.914-.273,1.075.32a1.12,1.12,0,0,1-.839,1.4C1421.383,1580.278,1421.451,1579.269,1421.736,1578.532Z" transform="translate(-1418.054 -1567.525)" fill="url(#linear-gradient-53)"/>
        </g>
        <path id="Trazado_140591" data-name="Trazado 140591" d="M1503.069,1737.544a.074.074,0,0,1-.073-.066,19.309,19.309,0,0,1,.947-8.057c.152-.532.295-1.034.419-1.536.686-2.767.986-3.835,1.3-4.966.206-.734.42-1.494.75-2.762a.074.074,0,0,1,.143.038c-.331,1.27-.544,2.03-.751,2.765-.318,1.13-.617,2.2-1.3,4.961-.125.5-.269,1.008-.421,1.542a19.188,19.188,0,0,0-.942,8,.074.074,0,0,1-.065.082Z" transform="translate(-1445.906 -1684.584)" fill="#4d309b"/>
        <path id="Trazado_140592" data-name="Trazado 140592" d="M1410.257,1573.834l-.506,1.215s-.506,1.458-1.174.911c-.546-.447-.646-.407-.664-.377,0,.006,0,.013,0,.013s-.015-.291-.02-.547a4.7,4.7,0,0,0-.283,1.6,2.607,2.607,0,0,0,.526,1.943,2,2,0,0,0,1.377.587,5.287,5.287,0,0,0,1.458-.546,7.05,7.05,0,0,1-1.66-.83c-.22-.606.551-1.17.851-2.612A5.282,5.282,0,0,0,1410.257,1573.834Z" transform="translate(-1367.284 -1563.893)" fill="url(#linear-gradient-54)"/>
        <path id="Trazado_140593" data-name="Trazado 140593" d="M1212.443,1640.305a6.358,6.358,0,0,0-2.083,2.59,19.24,19.24,0,0,0,6.719,8.369,19.78,19.78,0,0,0,22.652-.474c7.925-6.055,9.249-17.665,5.92-22.638-.383-.573-1.643-2.454-3.6-2.67-1.235-.136-2.916.373-5.572,3.483-5.534,6.48-3.579,10.526-6.849,12.422C1224.728,1644.229,1217.442,1636.807,1212.443,1640.305Z" transform="translate(-1204.529 -1606.493)" fill="url(#linear-gradient-55)"/>
        <path id="Trazado_140594" data-name="Trazado 140594" d="M1349.51,1731.458a.074.074,0,0,1-.016-.146c.077-.017,7.766-1.788,11.229-11.34a.074.074,0,1,1,.139.05,18.911,18.911,0,0,1-6.988,9.369,13.811,13.811,0,0,1-4.348,2.065Z" transform="translate(-1319.286 -1684.437)" fill="#4d309b"/>
      </g>
    </g>
    <g id="Grupo_86905" data-name="Grupo 86905" transform="translate(532.714 1128.37)">
      <path id="Trazado_140595" data-name="Trazado 140595" d="M1113.087,1225.84l-91.991-4.813a7.166,7.166,0,0,0-7.687,7.154v21.807a7.957,7.957,0,0,0,7.688,7.824l91.991,3.2a6.785,6.785,0,0,0,6.976-6.931v-20.7A7.538,7.538,0,0,0,1113.087,1225.84Z" transform="translate(-1013.408 -1221.016)" fill="url(#linear-gradient-56)"/>
      <path id="Trazado_140596" data-name="Trazado 140596" d="M1031.184,1265.594a5.757,5.757,0,0,1-5.549-5.653v-21.785a5.184,5.184,0,0,1,5.549-5.17l91.992,4.721a5.453,5.453,0,0,1,5.046,5.448v20.72a4.908,4.908,0,0,1-5.046,5.008Z" transform="translate(-1023.497 -1230.886)" fill="#fff" opacity="0.6" style="mix-blend-mode: soft-light;isolation: isolate"/>
      <g id="Grupo_86903" data-name="Grupo 86903" transform="translate(13.582 8.865)">
        <path id="Trazado_140597" data-name="Trazado 140597" d="M1106.264,1290.832l-3.823-.15v-7.9l-7.495-.323v7.924l-3.864-.152v-18.522l3.864.186v7.492l7.495.334v-7.465l3.823.184Z" transform="translate(-1091.083 -1271.712)" fill="#fff"/>
        <path id="Trazado_140598" data-name="Trazado 140598" d="M1203.243,1280.165l-5.6-.262v15.236l-3.781-.149v-15.264l-5.571-.26V1276.4l14.948.721Z" transform="translate(-1171.297 -1275.58)" fill="#fff"/>
        <path id="Trazado_140599" data-name="Trazado 140599" d="M1290.892,1281.349l4.638,13.377,4.592-12.932,4.841.234v18.052l-3.7-.145v-4.943l.369-8.516-4.845,13.283-2.549-.1-4.867-13.734.373,8.586v4.971l-3.739-.147v-18.22Z" transform="translate(-1251.925 -1279.469)" fill="#fff"/>
        <path id="Trazado_140600" data-name="Trazado 140600" d="M1416.4,1302.414l7.726.315v2.967l-11.385-.448v-18.024l3.659.176Z" transform="translate(-1356.497 -1284.512)" fill="#fff"/>
        <path id="Trazado_140601" data-name="Trazado 140601" d="M1488.447,1300.307l1.012-9.05,9.78.472v2.947l-6.93-.324-.432,3.822a5.249,5.249,0,0,1,2.628-.557,5.2,5.2,0,0,1,3.9,1.755,6.647,6.647,0,0,1,1.408,4.476,6.418,6.418,0,0,1-.709,3.058,4.791,4.791,0,0,1-2.036,2.035,6.1,6.1,0,0,1-3.137.63,6.851,6.851,0,0,1-2.942-.772,5.573,5.573,0,0,1-2.149-1.935,5.286,5.286,0,0,1-.838-2.752l3.444.144a2.766,2.766,0,0,0,.763,1.769,2.479,2.479,0,0,0,1.71.689,2.022,2.022,0,0,0,1.809-.79,3.948,3.948,0,0,0,.634-2.417,3.484,3.484,0,0,0-.73-2.359,2.771,2.771,0,0,0-2.073-.9,2.855,2.855,0,0,0-2.005.575l-.337.3Z" transform="translate(-1418.597 -1287.839)" fill="#fff"/>
      </g>
      <g id="Grupo_86904" data-name="Grupo 86904" transform="translate(0 1.147)" opacity="0.3" style="mix-blend-mode: multiply;isolation: isolate">
        <path id="Trazado_140602" data-name="Trazado 140602" d="M1071.045,1258.717c-13.958-4.037-14.638-17.234-30.384-25.7a48.583,48.583,0,0,0-23.978-5.433,7.072,7.072,0,0,0-3.275,6.012V1255.4a7.957,7.957,0,0,0,7.688,7.824l91.991,3.2a6.685,6.685,0,0,0,6.465-4.249,27.9,27.9,0,0,0-13.123-7.788C1092.473,1250.991,1085.418,1262.874,1071.045,1258.717Z" transform="translate(-1013.408 -1227.573)" fill="url(#linear-gradient-57)"/>
      </g>
    </g>
  </g>
</svg>
