<svg xmlns="http://www.w3.org/2000/svg" xmlns:xlink="http://www.w3.org/1999/xlink" width="363.851" height="215.867" viewBox="0 0 363.851 215.867">
  <defs>
    <linearGradient id="linear-gradient" y1="0.5" x2="1" y2="0.5" gradientUnits="objectBoundingBox">
      <stop offset="0" stop-color="#7c94ff"/>
      <stop offset="1" stop-color="#82a6f8"/>
    </linearGradient>
    <linearGradient id="linear-gradient-3" x1="-7.803" y1="1.572" x2="-6.896" y2="0.068" xlink:href="#linear-gradient"/>
    <linearGradient id="linear-gradient-4" x1="0.478" y1="0.454" x2="0.258" y2="-0.012" gradientUnits="objectBoundingBox">
      <stop offset="0" stop-color="#2160d5"/>
      <stop offset="1" stop-color="#70b2ef"/>
    </linearGradient>
    <linearGradient id="linear-gradient-6" x1="0.387" y1="0.417" x2="1.045" y2="1.226" gradientUnits="objectBoundingBox">
      <stop offset="0" stop-color="#2b3582"/>
      <stop offset="1" stop-color="#150e42"/>
    </linearGradient>
    <linearGradient id="linear-gradient-7" x1="0.48" y1="0.741" x2="0.745" y2="-0.499" gradientUnits="objectBoundingBox">
      <stop offset="0" stop-color="#53d8ff"/>
      <stop offset="1" stop-color="#3840f7"/>
    </linearGradient>
    <linearGradient id="linear-gradient-8" x1="0.336" y1="0.26" x2="1.697" y2="1.995" xlink:href="#linear-gradient-6"/>
    <linearGradient id="linear-gradient-9" x1="0.535" y1="0.274" x2="1.32" y2="-4.136" xlink:href="#linear-gradient-6"/>
    <linearGradient id="linear-gradient-10" x1="1.064" y1="-4.477" x2="2.086" y2="-13.259" xlink:href="#linear-gradient-6"/>
    <linearGradient id="linear-gradient-11" x1="1.026" y1="0.224" x2="0.336" y2="0.657" xlink:href="#linear-gradient-7"/>
    <linearGradient id="linear-gradient-12" x1="0.721" y1="0.212" x2="0.27" y2="0.899" gradientUnits="objectBoundingBox">
      <stop offset="0" stop-color="#f9b776"/>
      <stop offset="1" stop-color="#f47960"/>
    </linearGradient>
    <linearGradient id="linear-gradient-13" x1="0.967" y1="0.057" x2="-1.086" y2="2.132" gradientUnits="objectBoundingBox">
      <stop offset="0" stop-color="#fdf53f"/>
      <stop offset="1" stop-color="#d9a02c"/>
    </linearGradient>
    <linearGradient id="linear-gradient-14" x1="0.461" y1="0.791" x2="1.158" y2="-1.379" xlink:href="#linear-gradient-12"/>
    <linearGradient id="linear-gradient-15" x1="0.443" y1="1.062" x2="0.553" y2="0.1" xlink:href="#linear-gradient-12"/>
    <linearGradient id="linear-gradient-16" x1="0.619" y1="0.82" x2="0.308" y2="-0.114" xlink:href="#linear-gradient-12"/>
    <linearGradient id="linear-gradient-17" x1="0.39" y1="-0.467" x2="0.567" y2="0.954" xlink:href="#linear-gradient-6"/>
    <linearGradient id="linear-gradient-18" x1="1.286" y1="2.058" x2="-0.186" y2="-0.895" xlink:href="#linear-gradient-12"/>
    <linearGradient id="linear-gradient-19" x1="0" y1="0.5" x2="1" y2="0.5" xlink:href="#linear-gradient-6"/>
    <linearGradient id="linear-gradient-20" x1="1.018" y1="-0.604" x2="0.278" y2="0.972" xlink:href="#linear-gradient-6"/>
    <linearGradient id="linear-gradient-21" x1="7.277" y1="-1.741" x2="-4.857" y2="2.272" xlink:href="#linear-gradient-13"/>
    <linearGradient id="linear-gradient-22" x1="3.264" y1="-2.519" x2="-0.575" y2="1.675" xlink:href="#linear-gradient-13"/>
    <linearGradient id="linear-gradient-23" x1="2.506" y1="-3.159" x2="0.376" y2="0.672" xlink:href="#linear-gradient-13"/>
    <linearGradient id="linear-gradient-24" x1="0.504" y1="0.262" x2="0.394" y2="1.808" xlink:href="#linear-gradient-7"/>
    <linearGradient id="linear-gradient-25" x1="1.482" y1="-3.333" x2="-0.948" y2="5.987" xlink:href="#linear-gradient-7"/>
    <linearGradient id="linear-gradient-26" x1="0.145" y1="0.289" x2="1.136" y2="0.959" xlink:href="#linear-gradient-13"/>
    <linearGradient id="linear-gradient-27" x1="-16.431" y1="-164.73" x2="-16.781" y2="-165.741" xlink:href="#linear-gradient-4"/>
    <linearGradient id="linear-gradient-28" x1="5184.107" y1="0.954" x2="5186.269" y2="-0.303" gradientUnits="objectBoundingBox">
      <stop offset="0" stop-color="#2785cb"/>
      <stop offset="1" stop-color="#243a6d"/>
    </linearGradient>
    <linearGradient id="linear-gradient-29" x1="592.431" y1="0.088" x2="592.682" y2="-21.196" xlink:href="#linear-gradient-28"/>
    <linearGradient id="linear-gradient-30" x1="443.32" y1="4.039" x2="443.516" y2="-0.315" xlink:href="#linear-gradient-13"/>
    <linearGradient id="linear-gradient-31" x1="-104.506" y1="-3.644" x2="-104.916" y2="-2.525" xlink:href="#linear-gradient-6"/>
    <linearGradient id="linear-gradient-32" x1="-42.301" y1="-0.204" x2="-41.609" y2="-1.116" gradientUnits="objectBoundingBox">
      <stop offset="0" stop-color="#2b3582"/>
      <stop offset="0.231" stop-color="#242a70"/>
      <stop offset="0.728" stop-color="#19154e"/>
      <stop offset="1" stop-color="#150e42"/>
    </linearGradient>
    <linearGradient id="linear-gradient-33" x1="-91.367" y1="-4.034" x2="-92.608" y2="-0.562" xlink:href="#linear-gradient-6"/>
    <linearGradient id="linear-gradient-34" x1="-89.508" y1="-6.097" x2="-88.574" y2="-6.097" xlink:href="#linear-gradient-7"/>
    <linearGradient id="linear-gradient-35" x1="-34.52" y1="0.234" x2="-34.49" y2="-0.744" xlink:href="#linear-gradient-6"/>
    <linearGradient id="linear-gradient-36" x1="14.588" y1="7.58" x2="15.211" y2="7.022" xlink:href="#linear-gradient-28"/>
    <linearGradient id="linear-gradient-37" x1="0.219" y1="-0.14" x2="1.183" y2="1.276" xlink:href="#linear-gradient-28"/>
    <linearGradient id="linear-gradient-38" x1="-0.327" y1="-0.484" x2="1.3" y2="1.466" xlink:href="#linear-gradient-28"/>
    <linearGradient id="linear-gradient-39" x1="-32.211" y1="-1.604" x2="-33.454" y2="5.213" xlink:href="#linear-gradient-12"/>
    <linearGradient id="linear-gradient-40" x1="-376.248" y1="-203.512" x2="-377.646" y2="-202.176" xlink:href="#linear-gradient-12"/>
    <linearGradient id="linear-gradient-41" x1="-257.957" y1="-291.091" x2="-256.95" y2="-291.091" xlink:href="#linear-gradient-6"/>
    <linearGradient id="linear-gradient-42" x1="509.612" y1="391.482" x2="508.872" y2="393.919" xlink:href="#linear-gradient-6"/>
    <linearGradient id="linear-gradient-43" x1="391.365" y1="0.134" x2="390.965" y2="0.8" xlink:href="#linear-gradient-6"/>
    <linearGradient id="linear-gradient-44" x1="577.818" y1="0.5" x2="578.818" y2="0.5" gradientUnits="objectBoundingBox">
      <stop offset="0" stop-color="#9cfffb"/>
      <stop offset="1" stop-color="#9bfffa"/>
    </linearGradient>
    <linearGradient id="linear-gradient-45" x1="577.818" y1="0.5" x2="578.818" y2="0.5" xlink:href="#linear-gradient-44"/>
    <linearGradient id="linear-gradient-46" x1="577.798" y1="0.5" x2="578.798" y2="0.5" xlink:href="#linear-gradient-44"/>
    <linearGradient id="linear-gradient-47" x1="577.802" y1="0.5" x2="578.802" y2="0.5" xlink:href="#linear-gradient-44"/>
    <linearGradient id="linear-gradient-48" x1="136.228" y1="0.5" x2="137.228" y2="0.5" xlink:href="#linear-gradient-44"/>
    <linearGradient id="linear-gradient-49" x1="-78.964" y1="10.225" x2="-78.878" y2="8.895" gradientUnits="objectBoundingBox">
      <stop offset="0" stop-color="#fdf53f"/>
      <stop offset="0.665" stop-color="#e57a58"/>
      <stop offset="1" stop-color="#d9a02c"/>
    </linearGradient>
    <linearGradient id="linear-gradient-50" x1="-1495.692" y1="-434.348" x2="-1502.082" y2="-437.03" xlink:href="#linear-gradient-7"/>
    <linearGradient id="linear-gradient-51" x1="-194.139" y1="-138.021" x2="-195.087" y2="-139.724" xlink:href="#linear-gradient-7"/>
    <linearGradient id="linear-gradient-52" x1="-229.405" y1="-374.982" x2="-230.32" y2="-377.147" xlink:href="#linear-gradient-7"/>
    <linearGradient id="linear-gradient-53" x1="367.577" y1="-720.805" x2="370.751" y2="-721.83" xlink:href="#linear-gradient-7"/>
    <linearGradient id="linear-gradient-54" x1="-42.518" y1="0.015" x2="-42.943" y2="0.481" xlink:href="#linear-gradient-6"/>
    <linearGradient id="linear-gradient-55" x1="396.496" y1="7.858" x2="396.325" y2="4.755" xlink:href="#linear-gradient-28"/>
    <linearGradient id="linear-gradient-56" x1="-1359.484" y1="131.632" x2="-1361.143" y2="133.947" xlink:href="#linear-gradient-6"/>
    <linearGradient id="linear-gradient-57" x1="340.969" y1="1.661" x2="342.37" y2="0.525" xlink:href="#linear-gradient-12"/>
    <linearGradient id="linear-gradient-58" x1="829.547" y1="1.894" x2="830.542" y2="1.894" xlink:href="#linear-gradient-6"/>
    <linearGradient id="linear-gradient-59" x1="694.113" y1="2.139" x2="695.105" y2="2.139" xlink:href="#linear-gradient-6"/>
    <linearGradient id="linear-gradient-60" x1="302.026" y1="0.47" x2="300.995" y2="2.09" xlink:href="#linear-gradient-6"/>
    <linearGradient id="linear-gradient-61" x1="68.157" y1="0.5" x2="69.157" y2="0.5" xlink:href="#linear-gradient-12"/>
    <linearGradient id="linear-gradient-62" x1="-1466.253" y1="-82.295" x2="-1466.667" y2="-81.885" xlink:href="#linear-gradient-6"/>
    <linearGradient id="linear-gradient-63" x1="0.143" y1="-0.646" x2="1.217" y2="2.77" gradientUnits="objectBoundingBox">
      <stop offset="0" stop-color="#30689f"/>
      <stop offset="1" stop-color="#202278"/>
    </linearGradient>
    <linearGradient id="linear-gradient-64" x1="0.143" y1="-0.646" x2="1.217" y2="2.77" gradientUnits="objectBoundingBox">
      <stop offset="0" stop-color="#f9c200"/>
      <stop offset="0.996" stop-color="#9b8524"/>
    </linearGradient>
    <linearGradient id="linear-gradient-65" x1="0.143" y1="-0.646" x2="1.217" y2="2.77" gradientUnits="objectBoundingBox">
      <stop offset="0" stop-color="#2c50ff"/>
      <stop offset="0.996" stop-color="#1a1b80"/>
    </linearGradient>
    <linearGradient id="linear-gradient-68" x1="0.143" y1="-0.646" x2="1.217" y2="2.77" xlink:href="#linear-gradient-64"/>
  </defs>
  <g id="Grupo_54827" data-name="Grupo 54827" transform="translate(-431.447 -300)">
    <g id="Grupo_54779" data-name="Grupo 54779" transform="translate(431.447 300)">
      <path id="Trazado_101871" data-name="Trazado 101871" d="M771.592,418.739c-5.739-5.824-12.525-11.5-14.294-19.413-3.062-13.683,10.031-25.35,14.317-38.716a32.515,32.515,0,0,0-4.043-27.825,33.884,33.884,0,0,0-24.64-14.389c-16.938-1.522-33.515,9.661-50.2,6.423-13.36-2.594-23.918-14.035-37.48-15.26-15.958-1.442-29.2,11.466-44.439,16.326-18.228,5.813-37.991-.262-55.912-6.928s-36.777-14.106-55.668-10.914c-21.028,3.551-38.658,21.5-41.47,42.231-2.787,20.54,20.588,37.028.691,61.691-6.219,7.708-10.355,18.438-7.606,27.887,2.671,9.18,14.037,14.987,14.12,24.532.065,7.536-7.186,13.532-7.77,21.046-.5,6.449,4.232,12.412,10.051,15.469s12.568,3.8,19.13,4.5h0a1.3,1.3,0,0,0-.264,1.425,1.484,1.484,0,0,0,1.254.86c32.1,2.622,64.378,1.994,96.585,1.363l157-3.074c5.378-.106,10.887-.235,15.9-2.151s9.506-6.019,10.269-11.237c1.3-8.881-8.174-16.587-7.3-25.517,1.118-11.4,17.5-15.8,20.623-26.842C782.652,432.422,777.331,424.563,771.592,418.739Z" transform="translate(-429.977 -299.423)" opacity="0.5" fill="url(#linear-gradient)"/>
      <g id="Grupo_54778" data-name="Grupo 54778" opacity="0.26">
        <path id="Trazado_101872" data-name="Trazado 101872" d="M783.86,404.641c-6.933-8.222-16.664-14.509-21.734-23.823-7.742-14.226-2.719-31.744-8.018-46.9-4.542-12.989-16.5-23-30.106-28.262s-28.743-6.227-43.461-5.391a184.727,184.727,0,0,0-85.926,26.757c-12.529,7.727-23.972,16.954-36.976,23.979s-28.205,11.807-43.045,9.463-27.24-11.351-40.828-17.323a62.332,62.332,0,0,0-17.228-4.84c-13.011-1.588-24.654,7.651-25.061,19.8a51.414,51.414,0,0,0,8.23,29.683c7.247,11.135,18.545,19.443,27.393,29.539s15.371,23.735,10.582,35.955c-4.085,10.424-15.84,18.4-15.511,29.481.345,11.6,13.617,18.8,25.52,22.429A181.187,181.187,0,0,0,596.336,503.8c19.963-6.648,39.153-16.943,60.351-17.72,22.272-.817,43.511,9.055,65.77,10.147,24.354,1.195,49.518-9.306,62.942-28.157S798.867,422.439,783.86,404.641Z" transform="translate(-431.447 -300)" fill="url(#linear-gradient)"/>
      </g>
    </g>
    <g id="Grupo_54780" data-name="Grupo 54780" transform="translate(592.819 303.787)">
      <path id="Trazado_101873" data-name="Trazado 101873" d="M601.159,506.514s-23.619-32.354-19.78-62.939,23.007-26.937,31.536-8.851,16.2,15.6,11.128-1.4-11.417-28.071-.917-45,11.588-24.119,5.688-39.222-13.307-36.5,10.167-44.141,46.859,15.824,41.385,46.529-8.762,34.049-1.223,45.423,4.4,16.044,3.33,23.448,10.45,9.137,10.205-1.291-14.9-35.038-4.9-46.52,29.6-11.606,34.623,14.942-11.064,38.478-10.263,48.08,9.44-4.957,16.964,4.831-2.607,17.477-10.062,22.781-18.7,14.811-8,21.714,20.824.3,14.272,21.614Z" transform="translate(-580.957 -303.509)" fill="url(#linear-gradient-3)"/>
      <path id="Trazado_101874" data-name="Trazado 101874" d="M644.894,325.37a12.333,12.333,0,0,1,2.107,1.6,17.185,17.185,0,0,1,1.825,1.977,22.525,22.525,0,0,1,2.881,4.683,31.544,31.544,0,0,1,2.688,10.91c.05.472.064.943.085,1.416s.042.946.031,1.417L654.5,348.8l-.063,1.413-.036.707-.064.7-.13,1.406c-.13.927-.219,1.867-.383,2.787s-.31,1.848-.514,2.757l-.289,1.37-.3,1.324-1.207,5.287c-1.6,7.045-3.135,14.088-4.345,21.167a112.625,112.625,0,0,0-1.807,21.292c.042,1.765.15,3.523.358,5.257a42.337,42.337,0,0,0,.885,5.13,35.3,35.3,0,0,0,1.527,4.888,39.419,39.419,0,0,1,1.676,5.453,94.516,94.516,0,0,1,1.648,11c.353,3.657.627,7.3.845,10.939.458,7.27.851,14.518,1.812,21.666.122.893.25,1.784.4,2.669.135.891.312,1.769.479,2.651s.378,1.751.563,2.629c.1.434.224.863.336,1.3s.22.868.361,1.289l.4,1.276c.133.426.3.834.45,1.253.286.844.663,1.638,1.006,2.456a22.594,22.594,0,0,0,2.764,4.446l-.268.289a22.822,22.822,0,0,1-3.158-4.33,35.142,35.142,0,0,1-2.226-4.982,67.122,67.122,0,0,1-2.765-10.622c-1.357-7.206-2-14.5-2.733-21.737-.371-3.616-.7-7.227-1.157-10.8a91.1,91.1,0,0,0-1.861-10.5,37.988,37.988,0,0,0-1.59-4.865,38.916,38.916,0,0,1-1.791-5.406,46.107,46.107,0,0,1-1.059-5.578c-.256-1.872-.4-3.751-.477-5.624A113.423,113.423,0,0,1,643.513,387c1.175-7.256,2.763-14.389,4.539-21.436.449-1.76.9-3.52,1.364-5.273l.352-1.312.321-1.28c.229-.85.4-1.712.587-2.571s.323-1.727.49-2.591l.185-1.3c.065-.435.122-.871.163-1.307a44.485,44.485,0,0,0,.291-5.249,32.615,32.615,0,0,0-.4-5.224,30.139,30.139,0,0,0-1.239-5.07,25.845,25.845,0,0,0-.988-2.407,20.756,20.756,0,0,0-1.224-2.288,17.217,17.217,0,0,0-3.252-3.964Z" transform="translate(-576.135 -301.774)" fill="#fff" opacity="0.62"/>
      <path id="Trazado_101875" data-name="Trazado 101875" d="M598.1,426.908c.7,5.726,1.706,11.4,2.929,17q.924,4.2,2.043,8.336c.178.692.39,1.372.582,2.058s.4,1.368.611,2.049c.4,1.367.849,2.716,1.289,4.067.473,1.338.931,2.682,1.447,4,.477,1.335,1.025,2.637,1.554,3.946,1.112,2.594,2.284,5.154,3.588,7.636s2.734,4.882,4.262,7.214a77.985,77.985,0,0,0,5.055,6.633l-.255.3a47.942,47.942,0,0,1-5.762-6.1,66.17,66.17,0,0,1-4.77-7.084,82.528,82.528,0,0,1-3.857-7.715c-.555-1.332-1.128-2.658-1.629-4.015-.521-1.348-.976-2.724-1.448-4.092-.437-1.382-.886-2.759-1.281-4.154-.207-.694-.4-1.394-.577-2.1s-.379-1.4-.543-2.107c-.713-2.813-1.3-5.66-1.806-8.52a114.89,114.89,0,0,1-1.808-17.329Z" transform="translate(-579.626 -293.719)" fill="#fff" opacity="0.62"/>
    </g>
    <g id="Grupo_54782" data-name="Grupo 54782" transform="translate(516.625 331.086)">
      <ellipse id="Elipse_4218" data-name="Elipse 4218" cx="86.212" cy="93.057" rx="86.212" ry="93.057" transform="translate(0 172.257) rotate(-87.486)" fill="url(#linear-gradient-4)"/>
      <ellipse id="Elipse_4219" data-name="Elipse 4219" cx="73.021" cy="68.981" rx="73.021" ry="68.981" transform="translate(18.691 15.008)" opacity="0.26" fill="url(#linear-gradient)"/>
      <g id="Grupo_54781" data-name="Grupo 54781" transform="translate(12.1 6.209)" opacity="0.68">
        <path id="Trazado_101876" data-name="Trazado 101876" d="M625.6,418.936c-.008,7.607-.286,15.215-.876,22.8-.607,7.584-1.534,15.147-2.88,22.641-.68,3.745-1.469,7.472-2.408,11.165a107.46,107.46,0,0,1-3.36,10.926,51.88,51.88,0,0,1-5.013,10.3,20.616,20.616,0,0,1-3.765,4.386,10.785,10.785,0,0,1-2.467,1.589,7.415,7.415,0,0,1-2.884.678,7.292,7.292,0,0,1-2.916-.535,10.072,10.072,0,0,1-2.525-1.5,19.528,19.528,0,0,1-3.847-4.318,50.181,50.181,0,0,1-5.085-10.267,105.082,105.082,0,0,1-3.4-10.915c-.949-3.689-1.745-7.415-2.431-11.159-1.37-7.49-2.3-15.051-2.936-22.634s-.943-15.192-.985-22.8c-.021-3.8.089-7.607.226-11.408s.356-7.6.639-11.392c.568-7.586,1.413-15.155,2.667-22.661.629-3.752,1.363-7.488,2.244-11.192a107.85,107.85,0,0,1,3.184-10.968,49.656,49.656,0,0,1,4.873-10.339,18.771,18.771,0,0,1,3.76-4.342,9.576,9.576,0,0,1,2.488-1.488A7.015,7.015,0,0,1,600.77,335a7.6,7.6,0,0,1,2.828.661,11.028,11.028,0,0,1,2.456,1.53,20.942,20.942,0,0,1,3.841,4.267,51.432,51.432,0,0,1,5.267,10.141,104.261,104.261,0,0,1,3.611,10.837c1.018,3.669,1.879,7.378,2.626,11.111a215.657,215.657,0,0,1,3.192,22.595C625.257,403.718,625.579,411.327,625.6,418.936Zm-1.261,0q.024-11.361-.9-22.7a218.782,218.782,0,0,0-2.95-22.518c-.7-3.722-1.509-7.422-2.476-11.082a103.434,103.434,0,0,0-3.455-10.8,50.854,50.854,0,0,0-5.083-10.092,20.525,20.525,0,0,0-3.7-4.217,10.623,10.623,0,0,0-2.344-1.5,7,7,0,0,0-2.676-.654,6.564,6.564,0,0,0-2.7.509,9.2,9.2,0,0,0-2.361,1.454,18.327,18.327,0,0,0-3.611,4.277,49.123,49.123,0,0,0-4.688,10.276,106.892,106.892,0,0,0-3.029,10.933c-.831,3.692-1.515,7.419-2.1,11.161a292.783,292.783,0,0,0-3,45.312q-.036,11.361.786,22.705c.563,7.552,1.429,15.086,2.726,22.545.65,3.729,1.41,7.44,2.321,11.111a104.107,104.107,0,0,0,3.273,10.851,49.359,49.359,0,0,0,4.911,10.141,18.86,18.86,0,0,0,3.661,4.189,9.418,9.418,0,0,0,2.338,1.419,6.434,6.434,0,0,0,2.641.5,6.715,6.715,0,0,0,2.614-.641,10.042,10.042,0,0,0,2.29-1.507,19.869,19.869,0,0,0,3.587-4.26,51.043,51.043,0,0,0,4.839-10.18,106.866,106.866,0,0,0,3.234-10.862c.9-3.674,1.65-7.386,2.294-11.115,1.29-7.461,2.145-15,2.713-22.548S624.343,426.512,624.339,418.936Z" transform="translate(-517.111 -334.518)" fill="#fff" style="mix-blend-mode: soft-light;isolation: isolate"/>
        <path id="Trazado_101877" data-name="Trazado 101877" d="M667.149,418.97a110.937,110.937,0,0,1-3.941,29.05,93.507,93.507,0,0,1-12.168,26.633,70.611,70.611,0,0,1-20.721,20.557,55.058,55.058,0,0,1-13.334,6.094,49.955,49.955,0,0,1-29,.015,55.115,55.115,0,0,1-13.347-6.084,70.673,70.673,0,0,1-20.758-20.546,93.637,93.637,0,0,1-12.2-26.643,105.531,105.531,0,0,1-2.955-14.4,108.039,108.039,0,0,1,.011-29.339,105.223,105.223,0,0,1,2.966-14.4,93.6,93.6,0,0,1,12.222-26.624,70.568,70.568,0,0,1,20.756-20.514,55.354,55.354,0,0,1,13.335-6.058,49.565,49.565,0,0,1,28.944.013,55.334,55.334,0,0,1,13.323,6.07A70.5,70.5,0,0,1,651,363.314a93.455,93.455,0,0,1,12.187,26.612A110.942,110.942,0,0,1,667.149,418.97Zm-1.445,0a109.483,109.483,0,0,0-3.763-28.7,93.02,93.02,0,0,0-11.736-26.43,75.783,75.783,0,0,0-9.055-11.326,63.24,63.24,0,0,0-11.2-9.2,54.093,54.093,0,0,0-13.145-6.081,48.168,48.168,0,0,0-28.621.013,54.109,54.109,0,0,0-13.133,6.093,63.221,63.221,0,0,0-11.186,9.206,75.729,75.729,0,0,0-9.034,11.328,92.89,92.89,0,0,0-11.7,26.419,106.145,106.145,0,0,0-2.812,14.214,110.783,110.783,0,0,0,.011,28.918,106.159,106.159,0,0,0,2.822,14.21,92.806,92.806,0,0,0,11.718,26.4A75.757,75.757,0,0,0,563.9,485.35a62.953,62.953,0,0,0,11.183,9.187,54.355,54.355,0,0,0,13.121,6.068,47.813,47.813,0,0,0,28.571.014,54.368,54.368,0,0,0,13.133-6.057,63.045,63.045,0,0,0,11.2-9.179,75.693,75.693,0,0,0,9.056-11.311,93,93,0,0,0,11.755-26.409A109.526,109.526,0,0,0,665.7,418.97Z" transform="translate(-520.292 -334.553)" fill="#fff" style="mix-blend-mode: soft-light;isolation: isolate"/>
        <path id="Trazado_101878" data-name="Trazado 101878" d="M527.913,381.819l19.395-.175,19.395-.1c6.465-.043,12.931-.039,19.4-.052l19.395-.029,38.79.088,19.395.109,19.395.189a.064.064,0,0,1,0,.127l-19.395.19-19.395.108-38.79.089-19.395-.029c-6.465-.013-12.931-.009-19.4-.051l-19.395-.1-19.395-.176a.095.095,0,0,1,0-.19Z" transform="translate(-521.079 -330.831)" fill="#fff" style="mix-blend-mode: soft-light;isolation: isolate"/>
        <path id="Trazado_101879" data-name="Trazado 101879" d="M548.759,351.722c4.59-.081,9.18-.117,13.77-.176l13.77-.1c4.589-.042,9.18-.038,13.769-.051l13.77-.029,13.77.033c4.589.021,9.18.01,13.769.055l13.77.108c4.59.065,9.18.1,13.77.19a.064.064,0,0,1,0,.127c-4.59.087-9.18.125-13.77.19l-13.77.108c-4.589.045-9.18.035-13.769.055l-13.77.033-13.77-.029c-4.589-.013-9.18-.009-13.769-.051l-13.77-.1c-4.59-.059-9.18-.1-13.77-.176a.095.095,0,0,1,0-.19Z" transform="translate(-519.424 -333.219)" fill="#fff" style="mix-blend-mode: soft-light;isolation: isolate"/>
        <path id="Trazado_101880" data-name="Trazado 101880" d="M521.668,411.916l21.081-.175,21.079-.1,42.16-.081,42.16.088,21.08.109,21.081.189a.064.064,0,0,1,0,.127l-21.081.19-21.08.108-42.16.088-42.16-.08-21.079-.1-21.081-.176a.1.1,0,0,1,0-.19Z" transform="translate(-521.574 -328.443)" fill="#fff" style="mix-blend-mode: soft-light;isolation: isolate"/>
        <path id="Trazado_101881" data-name="Trazado 101881" d="M527.913,442.013l19.395-.175,19.395-.1c6.465-.043,12.931-.038,19.4-.051l19.395-.03,38.79.089,19.395.109,19.395.189a.064.064,0,1,1,0,.127l-19.395.19-19.395.108-38.79.089-19.395-.029c-6.465-.013-12.931-.009-19.4-.051l-19.395-.1-19.395-.176a.095.095,0,0,1,0-.19Z" transform="translate(-521.079 -326.055)" fill="#fff" style="mix-blend-mode: soft-light;isolation: isolate"/>
        <path id="Trazado_101882" data-name="Trazado 101882" d="M661.507,472.53H551.348a.333.333,0,1,1,0-.666H661.507a.333.333,0,0,1,0,.666Z" transform="translate(-519.238 -323.659)" fill="#fff" style="mix-blend-mode: soft-light;isolation: isolate"/>
      </g>
    </g>
    <g id="Grupo_54784" data-name="Grupo 54784" transform="translate(623.096 307.674)">
      <path id="Trazado_101883" data-name="Trazado 101883" d="M653.771,351.989s-2.215.118-2.487,4.676a26.33,26.33,0,0,0,12.078,5.7c.521.082-.729-3.556-.916-4.05C661.552,355.972,658.738,354.461,653.771,351.989Z" transform="translate(-605.654 -303.549)" fill="url(#linear-gradient-6)"/>
      <path id="Trazado_101884" data-name="Trazado 101884" d="M630.5,348.306h4.676s14.351-15.849,23.764-17.449c0,0,6.552,8.364-.35,23.99a2.28,2.28,0,0,1-3.265,1.076,1.873,1.873,0,0,1-.747-.889l.555-13.343s-12.241,10.706-14.369,12.773S627.82,355.271,630.5,348.306Z" transform="translate(-607.337 -305.226)" fill="url(#linear-gradient-7)"/>
      <path id="Trazado_101885" data-name="Trazado 101885" d="M673.168,378.162a17.582,17.582,0,0,0-9.589-4.2l-1.524.933a16.634,16.634,0,0,0,2.748,2.948,19.158,19.158,0,0,0,6.241,2.509C673.074,380.627,673.374,379.4,673.168,378.162Z" transform="translate(-604.8 -301.806)" fill="url(#linear-gradient-8)"/>
      <path id="Trazado_101886" data-name="Trazado 101886" d="M662.445,358.025c-1.207.391-1.738,2.1-4.8.97a27.119,27.119,0,0,1-6.3-3.319c-.026.22-.048.45-.062.7,0,0,5.417,5.153,12.357,6.249a.691.691,0,0,0,.746-.931A17.416,17.416,0,0,0,662.445,358.025Z" transform="translate(-605.654 -303.257)" fill="url(#linear-gradient-9)"/>
      <path id="Trazado_101887" data-name="Trazado 101887" d="M674.441,379.343a16.049,16.049,0,0,0-1.475-1.466c.206,1.237-.094,2.464-2.124,2.193a19.157,19.157,0,0,1-6.241-2.509,13.488,13.488,0,0,0,9.085,3.487A1.03,1.03,0,0,0,674.441,379.343Z" transform="translate(-604.598 -301.521)" fill="url(#linear-gradient-10)"/>
      <path id="Trazado_101888" data-name="Trazado 101888" d="M631.319,350.157l21.9.237s12.5,10.345,14.773,26.121c0,0,.376,1.16-1.885,1.359a43.41,43.41,0,0,1-12.489-13.668c-6.044-10.7-15.768-6.883-15.768-6.883-11.8,4.021-15.835-1.949-15.933-3.362Z" transform="translate(-607.984 -303.695)" fill="url(#linear-gradient-11)"/>
      <path id="Trazado_101889" data-name="Trazado 101889" d="M631.391,333.816s2.357,11.812,13.906,16.486l4.108-.484.969,1.546-9.636.307a26.357,26.357,0,0,1-12.6-12.152C627.993,339.223,625.59,334.262,631.391,333.816Z" transform="translate(-607.539 -304.991)" fill="url(#linear-gradient-12)"/>
      <path id="Trazado_101890" data-name="Trazado 101890" d="M634.123,352.095a63.12,63.12,0,0,1-3.256-14.367,31.056,31.056,0,0,1,3.186-2.412.885.885,0,0,0,.346-1.148c-.9-1.867-6.351-9.2-6.759-9.3-2.219-.554-11.319-4.881-17.728,3.886-2.75,3.763.546,15.344,13.024,27.337l.414.08a6.315,6.315,0,0,0,4.11-.6Z" transform="translate(-609.008 -305.824)" fill="url(#linear-gradient-13)"/>
      <path id="Trazado_101891" data-name="Trazado 101891" d="M623,338.148s7.446,8.817,16.968,10.107c0,0,2.461-2.244,4.29-1.443s4.339,4.337,4.339,4.337H636.371s-11.56-.408-17.336-7.417C619.5,341.279,620.893,339.813,623,338.148Z" transform="translate(-608.213 -304.647)" fill="url(#linear-gradient-14)"/>
      <path id="Trazado_101892" data-name="Trazado 101892" d="M618.8,319.023l-1.629,5.436a.6.6,0,0,0,.232.665,6.069,6.069,0,0,0,5.647.568.885.885,0,0,0,.57-.761l.386-4.735Z" transform="translate(-608.362 -306.165)" fill="url(#linear-gradient-15)"/>
      <g id="Grupo_54783" data-name="Grupo 54783" transform="translate(6.032)">
        <path id="Trazado_101893" data-name="Trazado 101893" d="M628.314,315.219s-.8,5.633-2.965,7.365-6.38.428-7.8-3.819l2.838-7.262Z" transform="translate(-614.363 -306.761)" fill="url(#linear-gradient-16)"/>
        <path id="Trazado_101894" data-name="Trazado 101894" d="M620.3,316.552a.279.279,0,0,0,.363-.223,7.26,7.26,0,0,1,.668-2.25s-.206-.739,1.868.377,5.19,2.758,7.024,1.781c1.789-.953,3.6-5.745-1.127-4.857a.279.279,0,0,1-.331-.293,2.875,2.875,0,0,0-1.855-3.181,2.639,2.639,0,0,0-3.045.7.277.277,0,0,1-.434-.007,3.216,3.216,0,0,0-3.968-1.195c-1.695.747-1.958,1.79-1.93,2.44a.277.277,0,0,1-.4.264,1.674,1.674,0,0,0-2.152.639c-1.105,1.385.474,2.585.948,2.9a.278.278,0,0,1,.126.23c0,.72.117,3.861,1.691,5.633a.281.281,0,0,0,.467-.081l1.212-2.888a.28.28,0,0,1,.344-.158Z" transform="translate(-614.596 -307.11)" fill="url(#linear-gradient-17)"/>
        <path id="Trazado_101895" data-name="Trazado 101895" d="M620.068,316.565s-.74-3.015-1.865-2.036.294,3.132,1.581,3.543Z" transform="translate(-614.343 -306.537)" fill="url(#linear-gradient-18)"/>
      </g>
      <path id="Trazado_101896" data-name="Trazado 101896" d="M645.853,352.308,651.343,334a1.871,1.871,0,0,1,1.665-1.33l7.411-.507a1.051,1.051,0,0,1,1.063,1.4l-6.136,17.482a1.54,1.54,0,0,1-1.3,1.021l-7.3.811Z" transform="translate(-606.085 -305.122)" fill="url(#linear-gradient-19)"/>
      <path id="Trazado_101897" data-name="Trazado 101897" d="M647.879,351.513h-.036l-15.551-.786a.7.7,0,0,1,.071-1.392l15.55.786a.7.7,0,0,1-.034,1.393Z" transform="translate(-607.213 -303.76)" fill="url(#linear-gradient-20)"/>
      <path id="Trazado_101898" data-name="Trazado 101898" d="M629.363,337.38h0a.139.139,0,0,1-.138-.14,33.078,33.078,0,0,0-1.255-7.6.14.14,0,0,1,.094-.174.138.138,0,0,1,.173.095,33.25,33.25,0,0,1,1.267,7.68A.14.14,0,0,1,629.363,337.38Z" transform="translate(-607.504 -305.337)" fill="url(#linear-gradient-21)"/>
      <path id="Trazado_101899" data-name="Trazado 101899" d="M623.055,338.834a.142.142,0,0,1-.11-.053,39.321,39.321,0,0,1-4.607-7.334.139.139,0,1,1,.259-.1,39.135,39.135,0,0,0,4.567,7.264.139.139,0,0,1-.109.226Z" transform="translate(-608.269 -305.194)" fill="url(#linear-gradient-22)"/>
      <path id="Trazado_101900" data-name="Trazado 101900" d="M618.876,345.015l-.1-.044c-4.925-2.109-7.967-7.989-8-8.048a.139.139,0,1,1,.248-.127c.029.058,2.984,5.767,7.756,7.874l.5-.706a.139.139,0,1,1,.228.161Z" transform="translate(-608.869 -304.761)" fill="url(#linear-gradient-23)"/>
    </g>
    <g id="Grupo_54787" data-name="Grupo 54787" transform="translate(532.378 399.6)">
      <path id="Trazado_101901" data-name="Trazado 101901" d="M540.153,436.552a14.182,14.182,0,0,1-13.835-13.009l-1.312-16.394a13.882,13.882,0,0,1,3.526-10.512,12.684,12.684,0,0,1,9.408-4.123l128.005-.235a12.459,12.459,0,0,1,9.885,4.509,13.242,13.242,0,0,1,2.516,11.1l-3.5,17.2A16.547,16.547,0,0,1,659,437.829Z" transform="translate(-524.959 -392.279)" fill="url(#linear-gradient-24)"/>
      <path id="Trazado_101902" data-name="Trazado 101902" d="M665.705,395.363,537.7,395.6c-5.806.011-10.1,5.045-9.62,11.041l1.311,16.4a10.9,10.9,0,0,0,10.553,9.946l118.682,1.275a13.149,13.149,0,0,0,12.709-10.081l3.5-17.195C676.121,400.686,672.048,395.351,665.705,395.363Z" transform="translate(-524.715 -392.034)" fill="url(#linear-gradient-25)"/>
      <g id="Grupo_54786" data-name="Grupo 54786" transform="translate(14.213 6.669)">
        <g id="Grupo_54785" data-name="Grupo 54785" transform="translate(0 5.012)">
          <path id="Trazado_101903" data-name="Trazado 101903" d="M566.62,406.568l-5.908,18.049h-.023a2.5,2.5,0,0,1-1.744,1.7h-.024c-.024,0-.07.024-.093.024h-.046c-.024,0-.046.023-.07.023h-.558c-.024,0-.046-.023-.07-.023h-.046c-.023,0-.07-.024-.093-.024h-.024a2.574,2.574,0,0,1-1.767-1.7l-3.721-11.373-3.722,11.373a2.5,2.5,0,0,1-1.744,1.7h-.024c-.046,0-.07.024-.093.024H546.8c-.024,0-.046.023-.07.023h-.558c-.024,0-.046-.023-.07-.023h-.046c-.046,0-.069-.024-.093-.024h-.023a2.532,2.532,0,0,1-1.768-1.7l-5.908-18.049v-.046a2.784,2.784,0,0,1-.139-.86,2.543,2.543,0,0,1,1.6-2.419,1.933,1.933,0,0,1,.721-.117,2.432,2.432,0,0,1,2.28,1.791c.023.046,2.046,6.211,3.721,11.327,1.674-5.116,3.7-11.28,3.7-11.327a2.6,2.6,0,0,1,1.442-1.628l.023-.024c.024,0,.047-.023.07-.023h.024c.023,0,.023-.024.046-.024h.046a.085.085,0,0,1,.069-.023l.024-.024c.046,0,.07,0,.093-.024h.024c.047,0,.069,0,.093-.023h.139c.046,0,.07,0,.093-.024h.209a.086.086,0,0,0,.07.024h.139a.217.217,0,0,0,.117.023.173.173,0,0,0,.093.024c.024,0,.024,0,.024.024.046,0,.07,0,.093.023h.046a.083.083,0,0,0,.046.024h.024c.023,0,.046.023.069.023l.024.024a2.6,2.6,0,0,1,1.442,1.628c0,.046,2.024,6.211,3.7,11.327,1.675-5.116,3.7-11.28,3.7-11.327a2.478,2.478,0,0,1,2.3-1.791,1.933,1.933,0,0,1,.721.117,2.543,2.543,0,0,1,1.6,2.419,2.784,2.784,0,0,1-.139.86Z" transform="translate(-538.128 -403.102)" fill="#fff"/>
          <path id="Trazado_101904" data-name="Trazado 101904" d="M594.226,406.568l-5.908,18.049H588.3a2.5,2.5,0,0,1-1.744,1.7h-.024c-.023,0-.069.024-.093.024h-.047c-.024,0-.046.023-.07.023h-.558c-.023,0-.046-.023-.07-.023h-.046c-.023,0-.069-.024-.093-.024h-.023a2.575,2.575,0,0,1-1.768-1.7l-3.722-11.373-3.722,11.373a2.5,2.5,0,0,1-1.744,1.7h-.024c-.046,0-.069.024-.093.024h-.046c-.023,0-.046.023-.07.023h-.558c-.023,0-.046-.023-.069-.023h-.046c-.047,0-.07-.024-.094-.024h-.023a2.532,2.532,0,0,1-1.768-1.7l-5.907-18.049v-.046a2.754,2.754,0,0,1-.14-.86,2.543,2.543,0,0,1,1.6-2.419,1.939,1.939,0,0,1,.721-.117,2.431,2.431,0,0,1,2.28,1.791c.024.046,2.046,6.211,3.722,11.327,1.674-5.116,3.7-11.28,3.7-11.327a2.6,2.6,0,0,1,1.442-1.628l.024-.024c.023,0,.047-.023.069-.023h.024c.024,0,.024-.024.046-.024h.047a.087.087,0,0,1,.07-.023l.023-.024c.047,0,.07,0,.094-.024h.023c.046,0,.07,0,.093-.023h.14c.046,0,.069,0,.093-.024h.209a.083.083,0,0,0,.069.024h.14a.212.212,0,0,0,.115.023.176.176,0,0,0,.094.024c.023,0,.023,0,.023.024.046,0,.07,0,.093.023h.046a.083.083,0,0,0,.047.024h.023c.024,0,.047.023.07.023l.023.024a2.6,2.6,0,0,1,1.442,1.628c0,.046,2.024,6.211,3.7,11.327,1.674-5.116,3.7-11.28,3.7-11.327a2.479,2.479,0,0,1,2.3-1.791,1.932,1.932,0,0,1,.721.117,2.543,2.543,0,0,1,1.6,2.419,2.784,2.784,0,0,1-.139.86Z" transform="translate(-535.938 -403.102)" fill="#fff"/>
          <path id="Trazado_101905" data-name="Trazado 101905" d="M621.832,406.568l-5.907,18.049H615.9a2.5,2.5,0,0,1-1.744,1.7h-.023c-.024,0-.07.024-.094.024h-.046c-.023,0-.047.023-.069.023h-.559c-.023,0-.046-.023-.069-.023h-.046c-.024,0-.07-.024-.094-.024h-.023a2.575,2.575,0,0,1-1.768-1.7l-3.722-11.373-3.721,11.373a2.5,2.5,0,0,1-1.744,1.7h-.023c-.046,0-.07.024-.094.024h-.046c-.023,0-.046.023-.069.023h-.559c-.023,0-.046-.023-.069-.023h-.046c-.046,0-.07-.024-.093-.024h-.024a2.532,2.532,0,0,1-1.768-1.7l-5.907-18.049v-.046a2.784,2.784,0,0,1-.139-.86,2.542,2.542,0,0,1,1.6-2.419,1.94,1.94,0,0,1,.721-.117,2.43,2.43,0,0,1,2.279,1.791c.024.046,2.048,6.211,3.722,11.327,1.675-5.116,3.7-11.28,3.7-11.327a2.6,2.6,0,0,1,1.442-1.628l.024-.024c.024,0,.047-.023.07-.023h.023c.024,0,.024-.024.046-.024h.046a.088.088,0,0,1,.07-.023l.024-.024c.046,0,.069,0,.093-.024h.023c.046,0,.07,0,.094-.023h.139c.046,0,.069,0,.093-.024h.209a.085.085,0,0,0,.07.024h.139a.215.215,0,0,0,.117.023.171.171,0,0,0,.093.024c.023,0,.023,0,.023.024.047,0,.07,0,.094.023h.046a.078.078,0,0,0,.046.024h.023c.024,0,.047.023.07.023l.024.024a2.6,2.6,0,0,1,1.442,1.628c0,.046,2.023,6.211,3.7,11.327,1.675-5.116,3.7-11.28,3.7-11.327a2.48,2.48,0,0,1,2.3-1.791,1.939,1.939,0,0,1,.721.117,2.542,2.542,0,0,1,1.6,2.419,2.785,2.785,0,0,1-.139.86Z" transform="translate(-533.747 -403.102)" fill="#fff"/>
        </g>
        <path id="Trazado_101906" data-name="Trazado 101906" d="M625.746,427.086a1,1,0,0,1-1,1h0a1,1,0,0,1-1-1v-27.63a1,1,0,0,1,1-1h0a1,1,0,0,1,1,1Z" transform="translate(-531.335 -398.458)" fill="#fff"/>
      </g>
      <path id="Trazado_101907" data-name="Trazado 101907" d="M677.515,449.86l-14.9-18.174a.539.539,0,0,1,.291-.866l13.157-3.158a1.368,1.368,0,0,0,.411-2.486l-37.54-23.725a1.367,1.367,0,0,0-2.08,1.378l7.8,47.131a1.367,1.367,0,0,0,2.523.476l7.283-12.225a.539.539,0,0,1,.888-.056l13.874,17.794a2.453,2.453,0,0,0,3.314.52L677,453.443a2.453,2.453,0,0,0,.517-3.583Z" transform="translate(-516.083 -391.568)" fill="#fff"/>
    </g>
    <g id="Grupo_54790" data-name="Grupo 54790" transform="translate(520.007 436.797)">
      <g id="Grupo_54788" data-name="Grupo 54788" transform="translate(5.406)">
        <path id="Trazado_101908" data-name="Trazado 101908" d="M519.322,477.186a26.726,26.726,0,0,1,1.6-17.808,18.952,18.952,0,0,0,1.05-14.2q-.241-.737-.426-1.511c-1.865-7.811,1.407-15.287,7.311-16.7s12.2,3.779,14.068,11.59a18.784,18.784,0,0,1,.521,4.7,19.034,19.034,0,0,0,4.854,13.181,27.921,27.921,0,0,1,6.354,12.3c1.736,7.262.619,14.362-2.528,19.5a18.676,18.676,0,0,0-2.439,6.332c-.69,3.721-3.03,6.689-6.344,7.481-3.576.854-7.284-1.064-9.561-4.543a19.918,19.918,0,0,0-4.839-5.061A26.658,26.658,0,0,1,519.322,477.186Z" transform="translate(-518.506 -426.742)" fill="url(#linear-gradient-26)"/>
        <path id="Trazado_101909" data-name="Trazado 101909" d="M528.02,435.114c.462,5.346,1.094,10.674,1.784,15.995.172,1.33.364,2.657.553,3.985l.284,1.992.3,1.989c.205,1.325.392,2.654.612,3.977l.66,3.97c.474,2.641.925,5.285,1.448,7.918.259,1.316.493,2.637.78,3.948l.841,3.936c1.173,5.237,2.48,10.447,4.047,15.58l.221-.066-1.026-3.886-.258-.97-.234-.977-.465-1.955L537.1,488.6c-.158-.651-.292-1.307-.437-1.96-.285-1.309-.58-2.615-.855-3.927-1.069-5.25-2.068-10.514-2.958-15.8-.425-2.645-.873-5.287-1.28-7.935l-.311-1.986L530.964,455c-.2-1.324-.394-2.65-.576-3.977q-.584-3.976-1.108-7.963c-.363-2.655-.7-5.315-1.03-7.974Z" transform="translate(-517.751 -426.079)" fill="#fff" opacity="0.57"/>
      </g>
      <g id="Grupo_54789" data-name="Grupo 54789" transform="translate(0 38.38)">
        <path id="Trazado_101910" data-name="Trazado 101910" d="M521.5,491.227a14.988,14.988,0,0,1-3.009-9.549,10.629,10.629,0,0,0-2.514-7.564q-.284-.33-.546-.69c-2.644-3.638-2.565-8.2.179-10.2s7.111-.662,9.755,2.977a10.525,10.525,0,0,1,1.28,2.318,10.685,10.685,0,0,0,5.343,5.773,15.68,15.68,0,0,1,5.928,5,14.63,14.63,0,0,1,2.894,10.623,10.468,10.468,0,0,0,.1,3.8,5,5,0,0,1-1.663,5.226,5.128,5.128,0,0,1-5.912-.3,11.16,11.16,0,0,0-3.587-1.579A14.955,14.955,0,0,1,521.5,491.227Z" transform="translate(-513.497 -462.301)" fill="url(#linear-gradient-27)"/>
        <path id="Trazado_101911" data-name="Trazado 101911" d="M517.169,467.4c1.39,2.665,2.864,5.283,4.365,7.887.374.651.76,1.3,1.143,1.942l.575.969.583.964c.392.641.774,1.288,1.172,1.924l1.2,1.91c.813,1.264,1.616,2.534,2.452,3.783.417.625.822,1.257,1.252,1.874l1.281,1.855c1.733,2.456,3.529,4.869,5.443,7.186l.1-.081-1.365-1.789-.343-.447-.331-.454-.66-.911-.662-.91c-.221-.3-.432-.613-.649-.92-.428-.615-.861-1.228-1.286-1.847q-2.522-3.727-4.928-7.532c-.789-1.277-1.589-2.546-2.369-3.828l-.587-.96-.58-.965c-.388-.643-.774-1.287-1.154-1.933q-1.158-1.93-2.286-3.879t-2.248-3.9Z" transform="translate(-513.205 -461.901)" fill="#fff" opacity="0.57"/>
      </g>
    </g>
    <g id="Grupo_54797" data-name="Grupo 54797" transform="translate(693.823 434.536)">
      <g id="Grupo_54791" data-name="Grupo 54791" transform="translate(37.28 47.4)">
        <rect id="Rect치ngulo_5305" data-name="Rect치ngulo 5305" width="2.183" height="23.612" transform="translate(11.283 5.623)" fill="url(#linear-gradient-28)"/>
        <path id="Trazado_101912" data-name="Trazado 101912" d="M730.806,496.173H711.683v-.6a.82.82,0,0,1,.82-.82h17.418a.884.884,0,0,1,.884.884Z" transform="translate(-708.87 -466.484)" fill="url(#linear-gradient-29)"/>
        <rect id="Rect치ngulo_5306" data-name="Rect치ngulo 5306" width="25.552" height="7.247" rx="2.312" fill="url(#linear-gradient-30)"/>
      </g>
      <g id="Grupo_54793" data-name="Grupo 54793" transform="translate(17.303)">
        <path id="Trazado_101913" data-name="Trazado 101913" d="M703.1,489.045s-7.059,3.04-6.654,6.222c0,0,7.3-1.4,8.6-3.485s.586-3.293.586-3.293Z" transform="translate(-690.103 -419.582)" fill="url(#linear-gradient-31)"/>
        <path id="Trazado_101914" data-name="Trazado 101914" d="M704.434,485.785l.358,3.1a1.024,1.024,0,0,1-.648,1.088,2.686,2.686,0,0,1-.895.137,1.194,1.194,0,0,1-1.159-.871l-.694-2.505Z" transform="translate(-689.709 -419.796)" fill="#f1bf8e"/>
        <path id="Trazado_101915" data-name="Trazado 101915" d="M720.132,463.778s-12.983-.6-19.443,3.167.327,21.848.327,21.848a6.565,6.565,0,0,0,4.118-.935s-3.468-13.237,2.556-15.539a34.67,34.67,0,0,1,13.777-1.959l-1.3-6.173Z" transform="translate(-689.986 -421.545)" fill="url(#linear-gradient-32)"/>
        <path id="Trazado_101916" data-name="Trazado 101916" d="M697.951,493.63c1.477-.324,5.854-2.137,6.519-2.113s1.606,1.021,1.606,1.021a1.766,1.766,0,0,1-.313,1.326,12.256,12.256,0,0,1-6.382,2.671,4.742,4.742,0,0,1-4.044-1.5A5.781,5.781,0,0,1,697.951,493.63Z" transform="translate(-690.19 -419.341)" fill="url(#linear-gradient-33)"/>
        <path id="Trazado_101917" data-name="Trazado 101917" d="M699.428,496.363a12.257,12.257,0,0,0,6.382-2.671,5.523,5.523,0,0,1-2.084,1.815,13.967,13.967,0,0,1-8.508,1.015c-.75-.291-.518-.991.166-1.658A4.742,4.742,0,0,0,699.428,496.363Z" transform="translate(-690.236 -419.169)" fill="url(#linear-gradient-34)"/>
        <path id="Trazado_101918" data-name="Trazado 101918" d="M707.017,491.083a10.512,10.512,0,0,1-1.728,2.076,1.176,1.176,0,0,1-1.093.329,3.023,3.023,0,0,1-.784-.275.763.763,0,0,1-.295-1.038l1.511-2.749Z" transform="translate(-689.58 -419.507)" fill="#f1bf8e"/>
        <path id="Trazado_101919" data-name="Trazado 101919" d="M732.552,462.766s1.133,8.04-2.144,9.683-10.463,2.719-12.938,6.888-6.922,12.354-10.967,14.706c0,0-2.311-.751-2.985-1.888,0,0,4.8-12.624,6.805-15.693,1.734-2.657,4.272-6.486,7.876-8.141,1.032-.474,1.113-1.568.931-2.69l-.331-2.041Z" transform="translate(-689.541 -421.622)" fill="url(#linear-gradient-35)"/>
        <path id="Trazado_101920" data-name="Trazado 101920" d="M702.353,455.2c4.594,1.311,6.65-11.617,6.632-11.931l7.043,8.234s-4.2,7.385-10.533,8.171a7.483,7.483,0,0,1-4.11-.6A6.588,6.588,0,0,0,702.353,455.2Z" transform="translate(-689.71 -423.169)" fill="url(#linear-gradient-36)"/>
        <path id="Trazado_101921" data-name="Trazado 101921" d="M694.705,450.419a3.687,3.687,0,0,1,3.7.819c1.984,2.031,3.558,3.057,4.806,3.413a6.587,6.587,0,0,1-.969,3.872,10.245,10.245,0,0,1-4.513-4.571.859.859,0,0,0-1.133-.383c-.424.205-.861.518-.889.943-.054.839-1.051.887-1.058.577a12.456,12.456,0,0,1,.773-1.965s-2.3,1.475-3.2,2.04a1.319,1.319,0,0,1-1.658-.367S692.7,451.242,694.705,450.419Z" transform="translate(-690.568 -422.62)" fill="#f9b776"/>
        <path id="Trazado_101922" data-name="Trazado 101922" d="M730.4,438.425s-6.173-4.212-21.082,3.405a4.853,4.853,0,0,0-.816,4.14c.719,2.194,9.572,14.069,9.915,19.643a15.85,15.85,0,0,0,13.906.031S734.96,450.925,730.4,438.425Z" transform="translate(-689.16 -423.646)" fill="url(#linear-gradient-37)"/>
        <path id="Trazado_101923" data-name="Trazado 101923" d="M715.715,432.229l3.95,5.991a1.358,1.358,0,0,1-.14,1.466,3.883,3.883,0,0,1-4.467,1.244,2.1,2.1,0,0,1-1.429-1.521l-1.264-5.336Z" transform="translate(-688.839 -424.045)" fill="#f9b776"/>
        <path id="Trazado_101924" data-name="Trazado 101924" d="M733.548,455.032c.418-2.906-7.261-8.538-7.261-8.538l2.689-8.154s14.653,10.457,11.572,19a5.967,5.967,0,0,1-1.9,2.748A9.548,9.548,0,0,0,733.548,455.032Z" transform="translate(-687.734 -423.56)" fill="url(#linear-gradient-38)"/>
        <path id="Trazado_101925" data-name="Trazado 101925" d="M723.568,454.611s8.685,2.426,10.488-.218a1.378,1.378,0,0,0,.224-.588,9.547,9.547,0,0,1,5.1,5.051c-4.124,3.245-12.076-.392-14.236-1.482a1.521,1.521,0,0,0-1.144-.1,10.426,10.426,0,0,1-2.842.571c-1.086-.059-2.25,3.863-4.1,2.87C717.056,460.719,717.895,454.018,723.568,454.611Z" transform="translate(-688.466 -422.333)" fill="url(#linear-gradient-39)"/>
        <g id="Grupo_54792" data-name="Grupo 54792" transform="translate(15.499)">
          <path id="Trazado_101926" data-name="Trazado 101926" d="M707.116,428.789c-.005.1,1.793,6.324,2.71,9.493a1.685,1.685,0,0,0,2.271,1.085l.711-.3c.973-.408,2.674-1.663,2.769-2.713l-.324-7.515S707.244,426.491,707.116,428.789Z" transform="translate(-704.755 -424.398)" fill="url(#linear-gradient-40)"/>
          <path id="Trazado_101927" data-name="Trazado 101927" d="M715.372,427.005a1.667,1.667,0,0,0-1.132-2.215,2.352,2.352,0,0,0-2.738.919.643.643,0,0,1-.807.167.51.51,0,0,0-.574.07.633.633,0,0,1-.916-.192,1.918,1.918,0,0,0-2.316-.912c-2.227.585-2.263,3.112-1.539,4.527s3.1.644,4.255-.2a2.748,2.748,0,0,1,2.679.11.636.636,0,0,1,.34.435l.623,2.792c.692.068,1.372.192,2.052.326-.011-.207-.016-.384-.012-.516.026-.926,1.1-1.574,1.575-1.813a.63.63,0,0,0,.318-.382,1.664,1.664,0,0,0-1.328-2.321A.643.643,0,0,1,715.372,427.005Z" transform="translate(-704.928 -424.647)" fill="url(#linear-gradient-41)"/>
          <path id="Trazado_101928" data-name="Trazado 101928" d="M714.889,433.534s-1.157-2.52-.258-3.24,2.341-.514,2.2,1.4C716.644,434.071,714.889,433.534,714.889,433.534Z" transform="translate(-704.185 -424.229)" fill="#f9b776"/>
        </g>
      </g>
      <g id="Grupo_54794" data-name="Grupo 54794" transform="translate(1.381 19.384)">
        <path id="Trazado_101929" data-name="Trazado 101929" d="M714.375,459.811h-.046l-20.293-.022a.908.908,0,1,1,0-1.817L714.33,458a.908.908,0,0,1,.044,1.815Z" transform="translate(-674.443 -441.387)" fill="url(#linear-gradient-42)"/>
        <path id="Trazado_101930" data-name="Trazado 101930" d="M677.167,442.606h16.9a3.22,3.22,0,0,1,2.913,1.848l7.813,16.566h-21a1.959,1.959,0,0,1-1.821-1.238l-6.058-15.33A1.35,1.35,0,0,1,677.167,442.606Z" transform="translate(-675.816 -442.606)" fill="url(#linear-gradient-43)"/>
      </g>
      <g id="Grupo_54796" data-name="Grupo 54796" transform="translate(0 37.615)">
        <g id="Grupo_54795" data-name="Grupo 54795" transform="translate(4.62 1.816)">
          <path id="Trazado_101931" data-name="Trazado 101931" d="M679.67,503.08a.86.86,0,0,1-.337-.068.815.815,0,0,1-.447-1.084l17.885-40.25a.862.862,0,0,1,1.119-.432.815.815,0,0,1,.447,1.084l-17.884,40.25A.854.854,0,0,1,679.67,503.08Z" transform="translate(-678.817 -461.179)" fill="url(#linear-gradient-44)"/>
          <path id="Trazado_101932" data-name="Trazado 101932" d="M699.65,503.08a.854.854,0,0,1-.785-.5l-17.884-40.25a.815.815,0,0,1,.447-1.084.864.864,0,0,1,1.12.432l17.883,40.25a.815.815,0,0,1-.447,1.084A.854.854,0,0,1,699.65,503.08Z" transform="translate(-678.65 -461.179)" fill="url(#linear-gradient-45)"/>
          <path id="Trazado_101933" data-name="Trazado 101933" d="M730.959,503.08a.863.863,0,0,1-.337-.068.815.815,0,0,1-.447-1.084l17.885-40.25a.863.863,0,0,1,1.12-.432.814.814,0,0,1,.446,1.084l-17.884,40.25A.854.854,0,0,1,730.959,503.08Z" transform="translate(-674.748 -461.179)" fill="url(#linear-gradient-46)"/>
          <path id="Trazado_101934" data-name="Trazado 101934" d="M750.939,503.08a.853.853,0,0,1-.784-.5l-17.885-40.25a.815.815,0,0,1,.447-1.084.864.864,0,0,1,1.12.432l17.883,40.25a.814.814,0,0,1-.446,1.084A.863.863,0,0,1,750.939,503.08Z" transform="translate(-674.581 -461.179)" fill="url(#linear-gradient-47)"/>
        </g>
        <path id="Trazado_101935" data-name="Trazado 101935" d="M757.612,460.57a.981.981,0,0,0-.169-.745.773.773,0,0,0-.621-.328H675.463a.907.907,0,0,0-.78.478,1.144,1.144,0,0,0-.06.994l.882,2.136a1.235,1.235,0,0,0,1.12.8h79.639a.969.969,0,0,0,.917-.848Z" transform="translate(-674.537 -459.497)" fill="url(#linear-gradient-48)"/>
      </g>
    </g>
    <g id="Grupo_54799" data-name="Grupo 54799" transform="translate(489.561 358.76)">
      <path id="Trazado_101936" data-name="Trazado 101936" d="M512.843,354.441c10.5.428,22.313,6.03,24.42,17.239,1.791,9.532-7.909,15.546-14,18.516a7.747,7.747,0,0,0-3.762,4c-1.735,4.18-5.944,11.56-13.609,9.922a.548.548,0,0,1-.024-1.063c1.754-.474,4.134-1.492,5.3-3.643a4.652,4.652,0,0,0-3.763-6.794c-6.283-.525-18.73-3.407-21.744-17.822C481.579,355.3,512.843,354.441,512.843,354.441Z" transform="translate(-485.289 -354.441)" fill="url(#linear-gradient-49)"/>
      <path id="Trazado_101937" data-name="Trazado 101937" d="M510.969,370.463s-1.5-6.474-7.858-4.379c-6.026,1.985-2.733,10.139,6.816,14.172A3.461,3.461,0,0,0,513.1,380c3.573-2.22,11.76-8.261,5.843-13.969C515.12,362.35,510.969,370.463,510.969,370.463Z" transform="translate(-484.116 -353.597)" fill="#fff"/>
      <g id="Grupo_54798" data-name="Grupo 54798" transform="translate(23.179 1.768)">
        <path id="Trazado_101938" data-name="Trazado 101938" d="M529.3,364.753a.5.5,0,0,1-.38-.176c-3.2-3.757-9.544-8.1-21.633-7.433a.51.51,0,0,1-.527-.472.5.5,0,0,1,.472-.526c6.9-.378,16.393.666,22.449,7.783a.5.5,0,0,1-.381.824Z" transform="translate(-506.764 -356.079)" fill="#fff"/>
        <path id="Trazado_101939" data-name="Trazado 101939" d="M531.477,371.81a.5.5,0,0,1-.492-.42,14.076,14.076,0,0,0-.876-2.8.5.5,0,1,1,.922-.383,14.7,14.7,0,0,1,.94,3.029.5.5,0,0,1-.413.572A.684.684,0,0,1,531.477,371.81Z" transform="translate(-504.915 -355.141)" fill="#fff"/>
      </g>
    </g>
    <g id="Grupo_54803" data-name="Grupo 54803" transform="translate(487.861 322.088)">
      <g id="Grupo_54800" data-name="Grupo 54800" transform="translate(0 12.017)">
        <path id="Trazado_101940" data-name="Trazado 101940" d="M516.66,332.143l-.908.407,0,0a.286.286,0,1,1-.233-.521h0l.92-.407a.283.283,0,1,1,.23.518Z" transform="translate(-481.204 -331.598)" fill="#fff"/>
        <path id="Trazado_101941" data-name="Trazado 101941" d="M513.885,333.458l-.88.46,0,0a.292.292,0,1,1-.271-.518h0l.89-.462a.29.29,0,1,1,.268.515Z" transform="translate(-481.424 -331.494)" fill="#fff"/>
        <path id="Trazado_101942" data-name="Trazado 101942" d="M511.2,334.937l-.851.512,0,0a.3.3,0,0,1-.308-.511h0l.861-.514a.3.3,0,0,1,.3.509Z" transform="translate(-481.637 -331.377)" fill="#fff"/>
        <path id="Trazado_101943" data-name="Trazado 101943" d="M508.6,336.571l-.819.561,0,0a.3.3,0,1,1-.344-.5h0l.83-.563a.3.3,0,1,1,.34.5Z" transform="translate(-481.843 -331.248)" fill="#fff"/>
        <path id="Trazado_101944" data-name="Trazado 101944" d="M506.107,338.353l-.786.607,0,0a.311.311,0,0,1-.38-.493h0l.8-.61a.309.309,0,1,1,.376.49Z" transform="translate(-482.04 -331.107)" fill="#fff"/>
        <path id="Trazado_101945" data-name="Trazado 101945" d="M503.717,340.274l-.751.65,0,0a.318.318,0,0,1-.415-.48h0l.761-.654a.315.315,0,0,1,.411.478Z" transform="translate(-482.229 -330.954)" fill="#fff"/>
        <path id="Trazado_101946" data-name="Trazado 101946" d="M501.437,342.327l-.714.692,0,0a.324.324,0,1,1-.45-.465h0l.723-.7a.322.322,0,1,1,.447.464Z" transform="translate(-482.408 -330.791)" fill="#fff"/>
        <path id="Trazado_101947" data-name="Trazado 101947" d="M499.275,344.5l-.675.73,0,0a.33.33,0,0,1-.486-.448h0l.684-.735a.328.328,0,1,1,.48.447Z" transform="translate(-482.579 -330.618)" fill="#fff"/>
        <path id="Trazado_101948" data-name="Trazado 101948" d="M497.236,346.8l-.634.766,0,0a.337.337,0,1,1-.519-.428h0l.643-.773a.334.334,0,0,1,.514.428Z" transform="translate(-482.739 -330.436)" fill="#fff"/>
        <path id="Trazado_101949" data-name="Trazado 101949" d="M495.325,349.2l-.589.8,0,0a.343.343,0,0,1-.552-.407h0l.6-.806a.341.341,0,1,1,.547.407Z" transform="translate(-482.889 -330.245)" fill="#fff"/>
        <path id="Trazado_101950" data-name="Trazado 101950" d="M493.55,351.7l-.544.831,0,0a.349.349,0,0,1-.584-.382v0l.555-.838a.347.347,0,1,1,.58.383Z" transform="translate(-483.028 -330.046)" fill="#fff"/>
        <path id="Trazado_101951" data-name="Trazado 101951" d="M491.917,354.3l-.5.859,0,.005a.355.355,0,0,1-.615-.356v0l.507-.868a.354.354,0,0,1,.611.357Z" transform="translate(-483.156 -329.84)" fill="#fff"/>
        <path id="Trazado_101952" data-name="Trazado 101952" d="M490.429,356.983l-.449.885,0,.005a.362.362,0,1,1-.645-.327h0l.458-.895a.36.36,0,1,1,.64.328Z" transform="translate(-483.271 -329.626)" fill="#fff"/>
        <path id="Trazado_101953" data-name="Trazado 101953" d="M489.094,359.743l-.4.909,0,.005a.368.368,0,1,1-.673-.295v0l.407-.919a.366.366,0,0,1,.669.3Z" transform="translate(-483.375 -329.407)" fill="#fff"/>
        <path id="Trazado_101954" data-name="Trazado 101954" d="M487.92,362.572l-.345.93,0,.005a.374.374,0,1,1-.7-.26h0l.354-.941a.372.372,0,0,1,.7.262Z" transform="translate(-483.465 -329.181)" fill="#fff"/>
        <path id="Trazado_101955" data-name="Trazado 101955" d="M486.911,365.463l-.29.949,0,.005a.381.381,0,1,1-.729-.222h0l.3-.96a.379.379,0,1,1,.723.225Z" transform="translate(-483.543 -328.951)" fill="#fff"/>
        <path id="Trazado_101956" data-name="Trazado 101956" d="M486.073,368.408l-.233.963,0,.006a.387.387,0,1,1-.752-.181v0l.241-.976a.385.385,0,0,1,.748.185Z" transform="translate(-483.606 -328.716)" fill="#fff"/>
        <path id="Trazado_101957" data-name="Trazado 101957" d="M485.412,371.4l-.174.977v.007a.394.394,0,1,1-.775-.138h0l.181-.99a.391.391,0,1,1,.77.14Z" transform="translate(-483.655 -328.478)" fill="#fff"/>
        <path id="Trazado_101958" data-name="Trazado 101958" d="M484.936,374.42l-.116.985v.006a.4.4,0,1,1-.794-.092v0l.12-1a.4.4,0,1,1,.79.095Z" transform="translate(-483.689 -328.237)" fill="#fff"/>
        <path id="Trazado_101959" data-name="Trazado 101959" d="M484.643,377.467l-.055.99v.006a.406.406,0,1,1-.811-.045h0l.06-1a.4.4,0,1,1,.806.049Z" transform="translate(-483.709 -327.993)" fill="#fff"/>
        <path id="Trazado_101960" data-name="Trazado 101960" d="M484.529,380.523v1a.408.408,0,0,1-.816,0h0v-1a.407.407,0,1,1,.815,0Z" transform="translate(-483.714 -327.75)" fill="#fff"/>
        <path id="Trazado_101961" data-name="Trazado 101961" d="M484.6,383.582l.058.99v.006a.41.41,0,0,1-.819.05h0l-.058-1a.409.409,0,1,1,.817-.049Z" transform="translate(-483.709 -327.505)" fill="#fff"/>
        <path id="Trazado_101962" data-name="Trazado 101962" d="M484.838,386.631l.116.985v.007a.413.413,0,0,1-.82.1h0l-.114-1a.412.412,0,1,1,.818-.095Z" transform="translate(-483.69 -327.261)" fill="#fff"/>
        <path id="Trazado_101963" data-name="Trazado 101963" d="M485.253,389.664l.171.977v.008a.415.415,0,1,1-.817.141h0l-.172-.991a.414.414,0,1,1,.816-.141Z" transform="translate(-483.657 -327.019)" fill="#fff"/>
        <path id="Trazado_101964" data-name="Trazado 101964" d="M485.838,392.669l.224.966v.008a.417.417,0,1,1-.812.188h0l-.227-.98a.416.416,0,0,1,.812-.187Z" transform="translate(-483.611 -326.779)" fill="#fff"/>
        <path id="Trazado_101965" data-name="Trazado 101965" d="M486.587,395.639l.277.953v.007a.419.419,0,0,1-.8.234h0l-.281-.966a.419.419,0,1,1,.8-.233Z" transform="translate(-483.551 -326.542)" fill="#fff"/>
        <path id="Trazado_101966" data-name="Trazado 101966" d="M487.5,398.561l.329.937,0,.006a.421.421,0,0,1-.794.28h0l-.332-.95a.421.421,0,0,1,.794-.277Z" transform="translate(-483.479 -326.308)" fill="#fff"/>
        <path id="Trazado_101967" data-name="Trazado 101967" d="M488.57,401.43l.38.917,0,.006a.423.423,0,0,1-.782.324h0l-.384-.93a.423.423,0,0,1,.781-.324Z" transform="translate(-483.393 -326.079)" fill="#fff"/>
        <path id="Trazado_101968" data-name="Trazado 101968" d="M489.8,404.234l.43.895,0,.006a.426.426,0,0,1-.767.369h0l-.435-.908a.425.425,0,0,1,.766-.367Z" transform="translate(-483.296 -325.855)" fill="#fff"/>
        <path id="Trazado_101969" data-name="Trazado 101969" d="M491.178,406.968l.479.869,0,.005a.428.428,0,1,1-.749.413h0l-.485-.882a.427.427,0,1,1,.748-.411Z" transform="translate(-483.186 -325.637)" fill="#fff"/>
        <path id="Trazado_101970" data-name="Trazado 101970" d="M492.709,409.618l.528.84,0,.006a.43.43,0,0,1-.729.457h0l-.533-.853a.429.429,0,1,1,.727-.455Z" transform="translate(-483.064 -325.425)" fill="#fff"/>
        <path id="Trazado_101971" data-name="Trazado 101971" d="M494.386,412.177l.574.808,0,.005a.432.432,0,1,1-.7.5h0l-.582-.82a.432.432,0,0,1,.7-.5Z" transform="translate(-482.93 -325.22)" fill="#fff"/>
        <path id="Trazado_101972" data-name="Trazado 101972" d="M496.207,414.634l.618.773.005.005a.434.434,0,1,1-.678.543h0l-.627-.786a.434.434,0,1,1,.678-.542Z" transform="translate(-482.784 -325.024)" fill="#fff"/>
        <path id="Trazado_101973" data-name="Trazado 101973" d="M498.166,416.98l.664.735.005.005a.436.436,0,0,1-.648.585h0l-.672-.748a.436.436,0,1,1,.647-.583Z" transform="translate(-482.628 -324.836)" fill="#fff"/>
        <path id="Trazado_101974" data-name="Trazado 101974" d="M500.262,419.2l.707.694.005.005a.438.438,0,1,1-.614.626h0l-.717-.706a.438.438,0,1,1,.614-.625Z" transform="translate(-482.461 -324.658)" fill="#fff"/>
        <path id="Trazado_101975" data-name="Trazado 101975" d="M502.489,421.3l.747.65.005.005a.441.441,0,1,1-.58.665h0l-.757-.662a.44.44,0,1,1,.578-.663Z" transform="translate(-482.283 -324.49)" fill="#fff"/>
        <path id="Trazado_101976" data-name="Trazado 101976" d="M504.835,423.26l.784.608.005,0a.443.443,0,0,1-.543.7h0l-.794-.617a.443.443,0,0,1,.543-.7Z" transform="translate(-482.095 -324.334)" fill="#fff"/>
        <path id="Trazado_101977" data-name="Trazado 101977" d="M507.29,425.087l.816.562.005,0a.445.445,0,1,1-.505.733h0l-.827-.572a.445.445,0,1,1,.505-.732Z" transform="translate(-481.899 -324.188)" fill="#fff"/>
        <path id="Trazado_101978" data-name="Trazado 101978" d="M509.84,426.776l.846.518.005,0a.447.447,0,1,1-.467.763h0l-.856-.527a.447.447,0,1,1,.467-.761Z" transform="translate(-481.696 -324.053)" fill="#fff"/>
        <path id="Trazado_101979" data-name="Trazado 101979" d="M512.479,428.327l.871.473.006,0a.45.45,0,0,1-.43.79h0l-.883-.481a.449.449,0,1,1,.43-.788Z" transform="translate(-481.485 -323.928)" fill="#fff"/>
        <path id="Trazado_101980" data-name="Trazado 101980" d="M515.195,429.739l.895.43.005,0a.452.452,0,1,1-.391.815h0l-.907-.436a.451.451,0,0,1,.392-.813Z" transform="translate(-481.268 -323.816)" fill="#fff"/>
        <path id="Trazado_101981" data-name="Trazado 101981" d="M517.979,431.016l.914.384.006,0a.454.454,0,0,1-.353.838h0l-.926-.391a.453.453,0,1,1,.353-.835Z" transform="translate(-481.046 -323.714)" fill="#fff"/>
        <path id="Trazado_101982" data-name="Trazado 101982" d="M520.82,432.155l.932.341.005,0a.456.456,0,0,1-.313.857h0l-.943-.347a.456.456,0,0,1,.314-.856Z" transform="translate(-480.819 -323.623)" fill="#fff"/>
        <path id="Trazado_101983" data-name="Trazado 101983" d="M523.714,433.161l.945.3.006,0a.458.458,0,0,1-.275.874h0l-.956-.3a.458.458,0,0,1,.275-.873Z" transform="translate(-480.588 -323.542)" fill="#fff"/>
        <path id="Trazado_101984" data-name="Trazado 101984" d="M526.65,434.032l.96.256h.005a.461.461,0,1,1-.236.89h0l-.97-.26a.46.46,0,1,1,.237-.888Z" transform="translate(-480.354 -323.473)" fill="#fff"/>
        <path id="Trazado_101985" data-name="Trazado 101985" d="M529.624,434.774l.97.213.005,0a.463.463,0,1,1-.2.9h0l-.982-.217a.462.462,0,1,1,.2-.9Z" transform="translate(-480.117 -323.413)" fill="#fff"/>
        <path id="Trazado_101986" data-name="Trazado 101986" d="M532.626,435.386l.979.172h.007a.465.465,0,1,1-.161.915h0l-.991-.175a.464.464,0,0,1,.161-.914Z" transform="translate(-479.877 -323.365)" fill="#fff"/>
        <path id="Trazado_101987" data-name="Trazado 101987" d="M535.654,435.869l.986.131h.005a.467.467,0,1,1-.122.926h0l-1-.133a.467.467,0,0,1,.123-.925Z" transform="translate(-479.635 -323.326)" fill="#fff"/>
        <path id="Trazado_101988" data-name="Trazado 101988" d="M538.7,436.226l.991.089h.005a.469.469,0,0,1-.084.935h0l-1-.092a.469.469,0,0,1,.085-.934Z" transform="translate(-479.392 -323.297)" fill="#fff"/>
        <path id="Trazado_101989" data-name="Trazado 101989" d="M541.759,436.456l.992.049h.005a.472.472,0,0,1-.045.942h0l-1-.051a.471.471,0,1,1,.047-.94Z" transform="translate(-479.148 -323.279)" fill="#fff"/>
        <path id="Trazado_101990" data-name="Trazado 101990" d="M544.821,436.561l.993.01h.005a.473.473,0,1,1-.009.947h0l-1-.01a.473.473,0,0,1,.01-.947Z" transform="translate(-478.904 -323.271)" fill="#fff"/>
        <path id="Trazado_101991" data-name="Trazado 101991" d="M547.887,436.55l.993-.028h.005a.476.476,0,0,1,.027.952h0l-1,.027a.475.475,0,0,1-.026-.95Z" transform="translate(-478.66 -323.274)" fill="#fff"/>
        <path id="Trazado_101992" data-name="Trazado 101992" d="M550.952,436.427l.991-.064h.005a.478.478,0,0,1,.062.954h0l-1,.063a.477.477,0,0,1-.061-.952Z" transform="translate(-478.415 -323.286)" fill="#fff"/>
        <path id="Trazado_101993" data-name="Trazado 101993" d="M554.01,436.194l.989-.1H555a.48.48,0,1,1,.095.955h0l-1,.1a.479.479,0,1,1-.094-.954Z" transform="translate(-478.171 -323.308)" fill="#fff"/>
        <path id="Trazado_101994" data-name="Trazado 101994" d="M557.059,435.858l.985-.132h.005a.482.482,0,0,1,.127.956h0l-1,.131a.482.482,0,0,1-.125-.955Z" transform="translate(-477.928 -323.337)" fill="#fff"/>
        <path id="Trazado_101995" data-name="Trazado 101995" d="M560.1,435.42l.981-.163h0a.484.484,0,1,1,.159.955h0l-.991.162a.483.483,0,1,1-.157-.954Z" transform="translate(-477.686 -323.375)" fill="#fff"/>
        <path id="Trazado_101996" data-name="Trazado 101996" d="M563.119,434.888l.975-.193h0a.486.486,0,1,1,.189.954h0l-.984.192a.486.486,0,1,1-.188-.953Z" transform="translate(-477.445 -323.419)" fill="#fff"/>
        <path id="Trazado_101997" data-name="Trazado 101997" d="M566.124,434.264l.968-.221h0a.489.489,0,0,1,.217.954h0l-.976.221a.489.489,0,0,1-.216-.953Z" transform="translate(-477.206 -323.471)" fill="#fff"/>
        <path id="Trazado_101998" data-name="Trazado 101998" d="M569.109,433.553l.963-.247h0a.491.491,0,0,1,.245.951h0l-.97.249a.491.491,0,0,1-.244-.951Z" transform="translate(-476.968 -323.53)" fill="#fff"/>
        <path id="Trazado_101999" data-name="Trazado 101999" d="M572.074,432.762l.956-.274h0a.493.493,0,0,1,.272.948h0l-.964.275a.493.493,0,1,1-.27-.948Z" transform="translate(-476.732 -323.595)" fill="#fff"/>
        <path id="Trazado_102000" data-name="Trazado 102000" d="M575.02,431.892l.95-.3h0a.5.5,0,0,1,.3.946h0l-.956.3a.495.495,0,1,1-.3-.944Z" transform="translate(-476.498 -323.667)" fill="#fff"/>
        <path id="Trazado_102001" data-name="Trazado 102001" d="M577.944,430.947l.943-.322h0a.5.5,0,0,1,.321.942h0l-.95.323a.5.5,0,0,1-.319-.941Z" transform="translate(-476.265 -323.744)" fill="#fff"/>
        <path id="Trazado_102002" data-name="Trazado 102002" d="M580.845,429.933l.935-.343h0a.5.5,0,1,1,.344.938h0l-.942.344a.5.5,0,0,1-.343-.937Z" transform="translate(-476.034 -323.826)" fill="#fff"/>
        <path id="Trazado_102003" data-name="Trazado 102003" d="M583.723,428.852l.927-.365h0a.5.5,0,0,1,.366.935h0l-.934.366a.5.5,0,0,1-.366-.934Z" transform="translate(-475.805 -323.914)" fill="#fff"/>
        <path id="Trazado_102004" data-name="Trazado 102004" d="M586.577,427.709l.919-.383,0,0a.5.5,0,0,1,.388.931h0l-.926.384a.5.5,0,0,1-.386-.929Z" transform="translate(-475.578 -324.007)" fill="#fff"/>
        <path id="Trazado_102005" data-name="Trazado 102005" d="M589.405,426.507l.912-.4h0a.506.506,0,1,1,.408.927h0l-.916.4a.506.506,0,1,1-.406-.926Z" transform="translate(-475.353 -324.104)" fill="#fff"/>
        <path id="Trazado_102006" data-name="Trazado 102006" d="M592.213,425.253l.906-.417h0a.509.509,0,1,1,.425.924h0l-.91.417a.508.508,0,0,1-.423-.924Z" transform="translate(-475.129 -324.205)" fill="#fff"/>
        <path id="Trazado_102007" data-name="Trazado 102007" d="M595,423.954l.9-.428h0a.511.511,0,1,1,.439.922h0l-.9.43a.51.51,0,0,1-.437-.922Z" transform="translate(-474.908 -324.309)" fill="#fff"/>
        <path id="Trazado_102008" data-name="Trazado 102008" d="M597.776,422.619l.9-.439a.513.513,0,1,1,.454.92h0l-.9.439a.512.512,0,0,1-.449-.921Z" transform="translate(-474.687 -324.416)" fill="#fff"/>
        <path id="Trazado_102009" data-name="Trazado 102009" d="M600.539,421.255l.894-.447a.515.515,0,0,1,.462.921h0l-.895.447a.515.515,0,1,1-.46-.921Z" transform="translate(-474.468 -324.525)" fill="#fff"/>
        <path id="Trazado_102010" data-name="Trazado 102010" d="M603.293,419.87l.89-.452a.518.518,0,1,1,.47.923h0l-.893.451a.516.516,0,1,1-.466-.922Z" transform="translate(-474.249 -324.635)" fill="#fff"/>
        <path id="Trazado_102011" data-name="Trazado 102011" d="M606.042,418.473l.89-.454a.519.519,0,1,1,.472.925h0l-.892.453a.519.519,0,0,1-.471-.925Z" transform="translate(-474.031 -324.746)" fill="#fff"/>
        <path id="Trazado_102012" data-name="Trazado 102012" d="M608.789,417.07l.891-.454a.522.522,0,0,1,.474.929h0l-.89.453a.521.521,0,0,1-.474-.928Z" transform="translate(-473.813 -324.858)" fill="#fff"/>
        <path id="Trazado_102013" data-name="Trazado 102013" d="M611.54,415.669l.893-.452a.524.524,0,1,1,.473.935h0l-.892.45a.523.523,0,1,1-.473-.933Z" transform="translate(-473.595 -324.969)" fill="#fff"/>
        <path id="Trazado_102014" data-name="Trazado 102014" d="M614.3,414.278l.895-.447a.526.526,0,0,1,.471.941h0l-.894.445a.525.525,0,1,1-.47-.94Z" transform="translate(-473.377 -325.078)" fill="#fff"/>
        <path id="Trazado_102015" data-name="Trazado 102015" d="M617.065,412.905l.9-.439a.528.528,0,0,1,.464.948h0l-.9.437a.527.527,0,1,1-.464-.947Z" transform="translate(-473.158 -325.187)" fill="#fff"/>
        <path id="Trazado_102016" data-name="Trazado 102016" d="M619.849,411.561l.906-.427a.523.523,0,0,1,.447.945h0l-.9.429h0a.525.525,0,0,1-.451-.948Z" transform="translate(-472.937 -325.292)" fill="#fff"/>
        <path id="Trazado_102017" data-name="Trazado 102017" d="M622.651,410.253l.911-.416a.518.518,0,0,1,.429.943h0l-.906.415h0a.52.52,0,0,1-.434-.944Z" transform="translate(-472.715 -325.395)" fill="#fff"/>
        <path id="Trazado_102018" data-name="Trazado 102018" d="M625.473,408.986l.917-.4a.513.513,0,1,1,.41.941h0l-.911.4,0,0a.515.515,0,0,1-.413-.943Z" transform="translate(-472.492 -325.493)" fill="#fff"/>
        <path id="Trazado_102019" data-name="Trazado 102019" d="M628.316,407.77l.926-.382a.508.508,0,0,1,.387.94h0l-.92.382h0a.51.51,0,0,1-.391-.942Z" transform="translate(-472.266 -325.588)" fill="#fff"/>
        <path id="Trazado_102020" data-name="Trazado 102020" d="M631.187,406.611l.935-.361a.5.5,0,0,1,.363.939h0l-.927.362h0a.5.5,0,1,1-.366-.941Z" transform="translate(-472.039 -325.678)" fill="#fff"/>
        <path id="Trazado_102021" data-name="Trazado 102021" d="M634.087,405.521l.944-.336a.5.5,0,1,1,.333.94h0l-.936.335,0,0a.5.5,0,0,1-.338-.942Z" transform="translate(-471.81 -325.762)" fill="#fff"/>
        <path id="Trazado_102022" data-name="Trazado 102022" d="M637.017,404.512l.954-.307a.493.493,0,1,1,.3.939h0l-.945.307h0a.5.5,0,0,1-.307-.942Z" transform="translate(-471.578 -325.84)" fill="#fff"/>
        <path id="Trazado_102023" data-name="Trazado 102023" d="M639.977,403.594l.965-.277a.489.489,0,0,1,.27.94h0l-.954.276-.005,0a.491.491,0,1,1-.273-.942Z" transform="translate(-471.344 -325.91)" fill="#fff"/>
        <path id="Trazado_102024" data-name="Trazado 102024" d="M642.967,402.77l.972-.245a.484.484,0,1,1,.236.939h0l-.963.245H643.2a.486.486,0,0,1-.24-.941Z" transform="translate(-471.108 -325.972)" fill="#fff"/>
        <path id="Trazado_102025" data-name="Trazado 102025" d="M645.983,402.048l.981-.21a.479.479,0,1,1,.2.937h0l-.971.21h0a.48.48,0,1,1-.2-.939Z" transform="translate(-470.87 -326.026)" fill="#fff"/>
        <path id="Trazado_102026" data-name="Trazado 102026" d="M649.024,401.435l.99-.173a.474.474,0,0,1,.163.935h0l-.978.175h-.005a.476.476,0,0,1-.166-.938Z" transform="translate(-470.63 -326.072)" fill="#fff"/>
        <path id="Trazado_102027" data-name="Trazado 102027" d="M652.087,400.94l1-.133a.469.469,0,1,1,.124.93h0l-.983.134h-.006a.471.471,0,0,1-.127-.934Z" transform="translate(-470.388 -326.108)" fill="#fff"/>
        <path id="Trazado_102028" data-name="Trazado 102028" d="M655.169,400.572l1-.091a.465.465,0,0,1,.083.926h-.005l-.988.092h-.007a.466.466,0,1,1-.086-.928Z" transform="translate(-470.144 -326.133)" fill="#fff"/>
        <path id="Trazado_102029" data-name="Trazado 102029" d="M658.265,400.338l1-.044a.46.46,0,0,1,.04.92H659.3l-.991.046h-.006a.461.461,0,1,1-.043-.922Z" transform="translate(-469.9 -326.148)" fill="#fff"/>
        <path id="Trazado_102030" data-name="Trazado 102030" d="M661.371,400.252l1.006.005a.455.455,0,0,1-.005.91h-.005l-.992,0h-.007a.457.457,0,1,1,0-.913Z" transform="translate(-469.655 -326.151)" fill="#fff"/>
        <path id="Trazado_102031" data-name="Trazado 102031" d="M664.477,400.325l1,.058a.45.45,0,0,1-.052.9h-.007l-.99-.055h-.007a.452.452,0,1,1,.05-.9Z" transform="translate(-469.41 -326.146)" fill="#fff"/>
        <path id="Trazado_102032" data-name="Trazado 102032" d="M667.576,400.566l1,.114a.445.445,0,1,1-.1.884h-.007l-.985-.11h-.007a.447.447,0,0,1,.1-.888Z" transform="translate(-469.166 -326.127)" fill="#fff"/>
        <path id="Trazado_102033" data-name="Trazado 102033" d="M670.658,400.983l.992.174a.441.441,0,1,1-.152.868h-.006l-.976-.168h-.009a.442.442,0,0,1,.15-.871Z" transform="translate(-468.923 -326.094)" fill="#fff"/>
        <path id="Trazado_102034" data-name="Trazado 102034" d="M673.71,401.587l.98.235a.436.436,0,0,1-.2.847l-.008,0-.963-.229h-.009a.437.437,0,0,1,.2-.85Z" transform="translate(-468.683 -326.046)" fill="#fff"/>
        <path id="Trazado_102035" data-name="Trazado 102035" d="M676.718,402.383l.962.3a.431.431,0,0,1-.256.822l-.008,0-.945-.291-.009,0a.432.432,0,1,1,.255-.826Z" transform="translate(-468.446 -325.984)" fill="#fff"/>
        <path id="Trazado_102036" data-name="Trazado 102036" d="M679.668,403.378l.939.363a.426.426,0,1,1-.307.794l-.008,0-.924-.355-.009,0a.427.427,0,0,1,.307-.8Z" transform="translate(-468.213 -325.906)" fill="#fff"/>
        <path id="Trazado_102037" data-name="Trazado 102037" d="M682.542,404.578l.91.437a.421.421,0,1,1-.365.759l-.009,0-.892-.425-.01-.005a.422.422,0,1,1,.364-.762Z" transform="translate(-467.987 -325.811)" fill="#fff"/>
        <path id="Trazado_102038" data-name="Trazado 102038" d="M685.312,406.015l.868.518a.416.416,0,0,1-.426.715l-.01-.005-.848-.5-.011-.006a.417.417,0,0,1,.426-.718Z" transform="translate(-467.769 -325.699)" fill="#fff"/>
        <path id="Trazado_102039" data-name="Trazado 102039" d="M687.938,407.709l.812.6a.411.411,0,1,1-.492.659l-.01-.008-.791-.586-.011-.008a.413.413,0,0,1,.491-.664Z" transform="translate(-467.563 -325.566)" fill="#fff"/>
        <path id="Trazado_102040" data-name="Trazado 102040" d="M690.371,409.68l.735.7a.406.406,0,0,1-.56.588l-.011-.01-.714-.676-.011-.011a.408.408,0,0,1,.56-.593Z" transform="translate(-467.373 -325.412)" fill="#fff"/>
        <path id="Trazado_102041" data-name="Trazado 102041" d="M692.535,411.951l.629.8a.393.393,0,0,1-.615.49l-.011-.014-.614-.764-.011-.014a.4.4,0,0,1,.62-.5Z" transform="translate(-467.203 -325.235)" fill="#fff"/>
        <path id="Trazado_102042" data-name="Trazado 102042" d="M694.344,414.519l.5.888a.379.379,0,0,1-.661.372l-.01-.016-.485-.852-.009-.016a.383.383,0,1,1,.666-.38Z" transform="translate(-467.06 -325.035)" fill="#fff"/>
        <path id="Trazado_102043" data-name="Trazado 102043" d="M695.7,417.358l.322.97a.365.365,0,0,1-.692.232l-.008-.022-.314-.923-.008-.023a.369.369,0,1,1,.7-.238Z" transform="translate(-466.952 -324.814)" fill="#fff"/>
        <path id="Trazado_102044" data-name="Trazado 102044" d="M696.477,420.413l.12,1.012a.351.351,0,0,1-.7.086l0-.02-.124-.97,0-.02a.355.355,0,1,1,.7-.09Z" transform="translate(-466.89 -324.577)" fill="#fff"/>
        <path id="Trazado_102045" data-name="Trazado 102045" d="M696.639,423.556l-.077,1.016a.337.337,0,0,1-.671-.047v-.02l.065-.977,0-.019a.341.341,0,0,1,.68.045Z" transform="translate(-466.88 -324.332)" fill="#fff"/>
        <path id="Trazado_102046" data-name="Trazado 102046" d="M696.2,426.669l-.279.98a.323.323,0,0,1-.622-.174l.005-.021.26-.943.005-.019a.327.327,0,1,1,.63.174Z" transform="translate(-466.928 -324.089)" fill="#fff"/>
        <path id="Trazado_102047" data-name="Trazado 102047" d="M695.117,429.62l-.494.894a.309.309,0,0,1-.542-.3l.011-.021.465-.858.011-.019a.313.313,0,1,1,.55.3Z" transform="translate(-467.027 -323.858)" fill="#fff"/>
        <path id="Trazado_102048" data-name="Trazado 102048" d="M693.362,432.232l-.711.735a.294.294,0,0,1-.425-.407l.017-.018.671-.706.017-.018a.3.3,0,0,1,.433.412Z" transform="translate(-467.177 -323.654)" fill="#fff"/>
        <path id="Trazado_102049" data-name="Trazado 102049" d="M690.914,434.267l-.255.153a.284.284,0,0,1-.295-.485l.007,0,.241-.147.005,0a.285.285,0,1,1,.3.486Z" transform="translate(-467.329 -323.495)" fill="#fff"/>
      </g>
      <g id="Grupo_54802" data-name="Grupo 54802" transform="translate(36.008)">
        <g id="Grupo_54801" data-name="Grupo 54801">
          <path id="Trazado_102050" data-name="Trazado 102050" d="M520.831,326.03l-.174,4.886,3.384-1.983Z" transform="translate(-516.791 -320.023)" fill="url(#linear-gradient-50)"/>
          <path id="Trazado_102051" data-name="Trazado 102051" d="M543.188,324.449,529.58,335.554a1.236,1.236,0,0,1-1.769-.214l-10.636-14.081a.5.5,0,0,1,.472-.789Z" transform="translate(-517.075 -320.464)" fill="url(#linear-gradient-51)"/>
          <path id="Trazado_102052" data-name="Trazado 102052" d="M520.82,326.18l22.071-2.024-20.361,4.3-.106,1.353Z" transform="translate(-516.778 -320.172)" fill="url(#linear-gradient-52)"/>
          <path id="Trazado_102053" data-name="Trazado 102053" d="M523.566,329.484l-2.908,1.265,1.885-2.608Z" transform="translate(-516.791 -319.855)" fill="url(#linear-gradient-53)"/>
        </g>
      </g>
    </g>
    <g id="Grupo_54806" data-name="Grupo 54806" transform="translate(465.798 407.845)">
      <path id="Trazado_102054" data-name="Trazado 102054" d="M499.734,401.91c3.261,2.174,6.249,7.063.272,14.942-5.361,7.067-10.868,11.683-10.053,16.029s-5.54,15.306-18.474,8.151c-12.77-7.064-10.325-20.648,5.161-25.81C485.706,412.2,487.8,393.952,499.734,401.91Z" transform="translate(-463.273 -399.918)" fill="url(#linear-gradient-54)"/>
      <path id="Trazado_102055" data-name="Trazado 102055" d="M507.555,426.932s-5.059,6.058-10.152,1.139l-1.969,4.563s7.439,5.76,13.082-3.3Z" transform="translate(-460.721 -397.775)" fill="#f9b776"/>
      <path id="Trazado_102056" data-name="Trazado 102056" d="M495.835,416.54a9.583,9.583,0,0,0-9.382,2.391,2.409,2.409,0,0,0-.694,2.4c1.045,3.846,3.8,15.208,1.384,20.123,0,0,4.259,4.7,8.9.911,0,0,2.085-9.085,4.815-13.073,1.886-2.753-3.006-10.34-4.243-12.173A1.452,1.452,0,0,0,495.835,416.54Z" transform="translate(-461.495 -398.629)" fill="url(#linear-gradient-55)"/>
      <path id="Trazado_102057" data-name="Trazado 102057" d="M493.318,409.72s-2.833,5.549-3.331,8.1a4.441,4.441,0,0,0,4.514-.124,65.2,65.2,0,0,1,1.464-6.785Z" transform="translate(-461.153 -399.14)" fill="#f9b776"/>
      <g id="Grupo_54804" data-name="Grupo 54804" transform="translate(29.329 3.257)">
        <path id="Trazado_102058" data-name="Trazado 102058" d="M499.524,406.954s.528,9.328-3.4,9.458-4.3-6.5-4.3-6.5,1.158-4.19,3.026-4.679S499.524,406.954,499.524,406.954Z" transform="translate(-490.336 -402.759)" fill="#f9b776"/>
        <path id="Trazado_102059" data-name="Trazado 102059" d="M498.388,404.251s1.793,1.834,1.485,2.975-4.154-.052-5.1-.591l-3.178,3.382s.1-5.009,2.289-6.552S498.388,404.251,498.388,404.251Z" transform="translate(-490.355 -402.936)" fill="url(#linear-gradient-56)"/>
        <path id="Trazado_102060" data-name="Trazado 102060" d="M493.121,409.826s-.478-3.2-2.042-2.3.114,3.379,1.336,3.224Z" transform="translate(-490.446 -402.584)" fill="#f9b776"/>
      </g>
      <path id="Trazado_102061" data-name="Trazado 102061" d="M501.539,458.111c-.016.412.708,3.684,1.1,5.429a2.874,2.874,0,0,1-.309,2.062l-13.648,22.971a3.147,3.147,0,0,0-.358.894,19.693,19.693,0,0,0-.5,6.123l.707,1.467-3.055-.694-.664-8.2.865-.527a4.108,4.108,0,0,0,1.661-1.945c1.234-3,4.3-10.629,5.089-14.348.9-4.227,5.591-7.66,5.591-7.66l-.825-1.949Z" transform="translate(-461.563 -395.301)" fill="url(#linear-gradient-57)"/>
      <path id="Trazado_102062" data-name="Trazado 102062" d="M482.287,491.377a18.647,18.647,0,0,0,1.844-3.632c.194-1.018.734-2.815,1.751-2.273a59.673,59.673,0,0,1,.314,6.874c-.165,1.932,2.184,1.869,2.184,1.869a2.2,2.2,0,0,1,1.121.566.549.549,0,0,1-.369.924,13.24,13.24,0,0,1-3.271-.185,1,1,0,0,1-.807-.924l-.338-5.689-2.08,2.627Z" transform="translate(-461.764 -393.138)" fill="url(#linear-gradient-58)"/>
      <path id="Trazado_102063" data-name="Trazado 102063" d="M493.255,461.542s-.481,20.547-.546,23.466.461,9.385,3.386,11.318l-1.272.942a17.021,17.021,0,0,1-3.145-3.955,24.073,24.073,0,0,0-2.274-3.457l.58-1.186a2.61,2.61,0,0,0,.212-1.673c-.631-3.06-2.74-13.237-3.316-15.429a9.871,9.871,0,0,1,1.635-8.934C490.876,459.742,493.255,461.542,493.255,461.542Z" transform="translate(-461.432 -395.073)" fill="#f9b776"/>
      <path id="Trazado_102064" data-name="Trazado 102064" d="M490.387,496.108a.179.179,0,0,1-.18-.154,26.575,26.575,0,0,0-.834-4.142c-.38-.814-1.621-4.242,0-4.532,0,0,4.031,5.889,4.8,6.683a1.517,1.517,0,0,0,1.751.277,2.913,2.913,0,0,1,1.323.949.534.534,0,0,1-.421.858l-2.716.026a1.911,1.911,0,0,1-1.791-1.2,10.217,10.217,0,0,0-2.256-3.722l.5,4.761a.182.182,0,0,1-.179.2Z" transform="translate(-461.266 -392.987)" fill="url(#linear-gradient-59)"/>
      <path id="Trazado_102065" data-name="Trazado 102065" d="M496.918,438.427a9.637,9.637,0,0,0,.328,5.162l5.831,20.363a.631.631,0,0,1-.394.767,38.9,38.9,0,0,1-15.3,1.855.89.89,0,0,1-.811-.692c-.516-2.322-2.275-10.242-2.638-11.869-1.38-6.2-2.717-12.1,4.064-16.142A13,13,0,0,0,496.918,438.427Z" transform="translate(-461.723 -396.907)" fill="url(#linear-gradient-60)"/>
      <path id="Trazado_102066" data-name="Trazado 102066" d="M489.715,421.447s-1.174,16.774,9.663,8.349a7.377,7.377,0,0,1,2.757-1.7c.622-.1,1.324-.165,1.84-.205a.232.232,0,0,1,.152.421,3.08,3.08,0,0,1-1.283.587c-.818.084.054.684-.837,2.249a1.683,1.683,0,0,1-2.162.975s-12.418,12.717-14.9-9.461C484.86,418.539,488.831,418.759,489.715,421.447Z" transform="translate(-461.553 -398.365)" fill="url(#linear-gradient-61)"/>
      <g id="Grupo_54805" data-name="Grupo 54805" transform="translate(42.672 24.49)">
        <path id="Trazado_102067" data-name="Trazado 102067" d="M510.3,423.106l-3.687-.486a1.168,1.168,0,0,0-1.166.661l-2.425,5.361c-.457.8-.132,1.864.608,1.986l2.961.38a.724.724,0,0,0,.734-.451l3.28-6.546C510.791,423.631,510.632,423.161,510.3,423.106Z" transform="translate(-502.808 -422.608)" fill="url(#linear-gradient-62)"/>
      </g>
      <path id="Trazado_102068" data-name="Trazado 102068" d="M507.52,430.157s2.479-3.607,2.191-4.052-2.461-1.08-2.971-1.23S505.27,428,507.52,430.157Z" transform="translate(-459.875 -397.939)" fill="#f9b776"/>
      <path id="Trazado_102069" data-name="Trazado 102069" d="M472.848,437.436a.136.136,0,0,0,.051-.262,9.014,9.014,0,0,1-4.53-12.785c1.764-3.143,5.143-4.9,8.411-6.6l.394-.205c3.534-1.84,6.978-4.032,8.242-7.58a.136.136,0,1,0-.256-.092c-1.233,3.459-4.627,5.616-8.111,7.431l-.394.2c-3.3,1.717-6.72,3.493-8.522,6.707a9.285,9.285,0,0,0,4.666,13.17A.136.136,0,0,0,472.848,437.436Z" transform="translate(-462.98 -399.132)" fill="#fff" opacity="0.75"/>
      <path id="Trazado_102070" data-name="Trazado 102070" d="M476.319,435.157a.136.136,0,0,0,.033-.268,9.385,9.385,0,0,1-6.141-4.6,6.431,6.431,0,0,1,.933-7.294.136.136,0,0,0-.192-.192,6.71,6.71,0,0,0-.983,7.608,9.66,9.66,0,0,0,6.317,4.74A.12.12,0,0,0,476.319,435.157Z" transform="translate(-462.8 -398.105)" fill="#fff" opacity="0.75"/>
    </g>
    <g id="Grupo_54808" data-name="Grupo 54808" transform="translate(654.266 304.686)">
      <path id="Trazado_102071" data-name="Trazado 102071" d="M658.959,305.3l-18.41-.958a2.5,2.5,0,0,0-2.661,2.61l.476,16.931a2.482,2.482,0,0,0,2.656,2.37l17.483-.863a2.4,2.4,0,0,0,2.2-2.354l.426-15.167A2.421,2.421,0,0,0,658.959,305.3Z" transform="translate(-637.887 -304.342)" fill="url(#linear-gradient-63)"/>
      <g id="Grupo_54807" data-name="Grupo 54807" transform="translate(4.378 3.964)">
        <path id="Trazado_102072" data-name="Trazado 102072" d="M648.878,321.883a6.935,6.935,0,1,1,6.934-6.935A6.942,6.942,0,0,1,648.878,321.883Zm0-12.707a5.772,5.772,0,1,0,5.772,5.772A5.779,5.779,0,0,0,648.878,309.176Z" transform="translate(-641.943 -308.014)" fill="#fff"/>
        <path id="Trazado_102073" data-name="Trazado 102073" d="M646.355,317.33v-4.985a.687.687,0,0,1,1.038-.59l4.2,2.492a.688.688,0,0,1,0,1.182l-4.2,2.493A.687.687,0,0,1,646.355,317.33Z" transform="translate(-641.593 -307.725)" fill="#fff" fill-rule="evenodd"/>
      </g>
    </g>
    <g id="Grupo_54812" data-name="Grupo 54812" transform="translate(472.12 327.628)">
      <path id="Trazado_102074" data-name="Trazado 102074" d="M490.2,326.559l-18.411-.957a2.5,2.5,0,0,0-2.661,2.609l.476,16.932a2.483,2.483,0,0,0,2.656,2.37l17.483-.863a2.4,2.4,0,0,0,2.2-2.355l.426-15.166A2.422,2.422,0,0,0,490.2,326.559Z" transform="translate(-469.13 -325.598)" fill="url(#linear-gradient-64)"/>
      <g id="Grupo_54811" data-name="Grupo 54811" transform="translate(0.838 4.408)">
        <path id="Trazado_102075" data-name="Trazado 102075" d="M486.825,341.665h-9.819a.834.834,0,0,1-.8-.6l-2.776-9.364-2.8-.366a.832.832,0,1,1,.215-1.65l3.337.435a.836.836,0,0,1,.691.589L477.626,340h8.51l1.257-6.649a.833.833,0,0,1,1.636.31l-1.387,7.326A.833.833,0,0,1,486.825,341.665Z" transform="translate(-469.906 -329.681)" fill="#fff"/>
        <path id="Trazado_102076" data-name="Trazado 102076" d="M487.517,333.812H474.535a.832.832,0,1,1,0-1.664h12.982a.832.832,0,1,1,0,1.664Z" transform="translate(-469.605 -329.486)" fill="#fff"/>
        <g id="Grupo_54809" data-name="Grupo 54809" transform="translate(8.591 2.829)">
          <path id="Trazado_102077" data-name="Trazado 102077" d="M478.7,340.625a.833.833,0,0,1-.833-.832v-6.658a.833.833,0,0,1,1.665,0v6.658A.833.833,0,0,1,478.7,340.625Z" transform="translate(-477.866 -332.302)" fill="#fff"/>
          <path id="Trazado_102078" data-name="Trazado 102078" d="M483.016,340.625a.832.832,0,0,1-.832-.832v-6.658a.832.832,0,0,1,1.664,0v6.658A.832.832,0,0,1,483.016,340.625Z" transform="translate(-477.523 -332.302)" fill="#fff"/>
        </g>
        <path id="Trazado_102079" data-name="Trazado 102079" d="M486.778,337.205H475.46a.832.832,0,1,1,0-1.664h11.318a.832.832,0,0,1,0,1.664Z" transform="translate(-469.532 -329.216)" fill="#fff"/>
        <g id="Grupo_54810" data-name="Grupo 54810" transform="translate(7.532 12.789)">
          <path id="Trazado_102080" data-name="Trazado 102080" d="M479.207,342.691a1.161,1.161,0,1,1-1.161-1.161A1.161,1.161,0,0,1,479.207,342.691Z" transform="translate(-476.885 -341.53)" fill="#fff"/>
          <path id="Trazado_102081" data-name="Trazado 102081" d="M485.761,342.691a1.16,1.16,0,1,1-1.16-1.161A1.16,1.16,0,0,1,485.761,342.691Z" transform="translate(-476.365 -341.53)" fill="#fff"/>
        </g>
      </g>
    </g>
    <g id="Grupo_54814" data-name="Grupo 54814" transform="translate(712.085 372.014)">
      <path id="Trazado_102082" data-name="Trazado 102082" d="M712.528,367.682l-18.41-.957a2.5,2.5,0,0,0-2.661,2.609l.476,16.93a2.484,2.484,0,0,0,2.656,2.371l17.482-.863a2.4,2.4,0,0,0,2.2-2.355l.426-15.166A2.42,2.42,0,0,0,712.528,367.682Z" transform="translate(-691.456 -366.72)" fill="url(#linear-gradient-65)"/>
      <g id="Grupo_54813" data-name="Grupo 54813" transform="translate(3.152 3.963)">
        <path id="Trazado_102083" data-name="Trazado 102083" d="M709.345,383.708H696.384a2.01,2.01,0,0,1-2.008-2.009v-9.3a2.009,2.009,0,0,1,2.008-2.008h12.962a2.009,2.009,0,0,1,2.007,2.008v9.3A2.01,2.01,0,0,1,709.345,383.708Zm-12.962-11.652a.344.344,0,0,0-.343.343v9.3a.343.343,0,0,0,.343.343h12.962a.343.343,0,0,0,.343-.343v-9.3a.343.343,0,0,0-.343-.343Z" transform="translate(-694.376 -370.392)" fill="#fff"/>
        <path id="Trazado_102084" data-name="Trazado 102084" d="M702.719,377.894a.83.83,0,0,1-.481-.153l-7.227-5.126a.832.832,0,0,1,.963-1.358l6.746,4.784,6.656-4.727a.832.832,0,1,1,.964,1.357l-7.138,5.07A.833.833,0,0,1,702.719,377.894Z" transform="translate(-694.354 -370.336)" fill="#fff"/>
        <path id="Trazado_102085" data-name="Trazado 102085" d="M695.618,383.514l-.259-1.644.123.823-.7-.448c.149-.242,2.746-4.785,4.455-7.779a.832.832,0,1,1,1.445.825s-1.115,1.954-2.232,3.907c-.559.977-1.118,1.954-1.539,2.688C696.013,383.448,696.013,383.448,695.618,383.514Z" transform="translate(-694.344 -370.102)" fill="#fff"/>
        <path id="Trazado_102086" data-name="Trazado 102086" d="M709.042,383.514c-.4-.064-.4-.064-1.3-1.629-.421-.733-.98-1.711-1.539-2.688-1.117-1.954-2.232-3.907-2.232-3.907a.832.832,0,1,1,1.445-.825c1.71,3,4.308,7.538,4.456,7.779l-.7.448Z" transform="translate(-693.623 -370.102)" fill="#fff"/>
      </g>
    </g>
    <g id="Grupo_54815" data-name="Grupo 54815" transform="translate(451.363 394.464)">
      <path id="Trazado_102087" data-name="Trazado 102087" d="M470.971,388.482l-18.41-.957a2.5,2.5,0,0,0-2.661,2.609l.476,16.932a2.483,2.483,0,0,0,2.656,2.37l17.482-.863a2.4,2.4,0,0,0,2.2-2.355l.426-15.166A2.42,2.42,0,0,0,470.971,388.482Z" transform="translate(-449.899 -387.521)" fill="url(#linear-gradient-65)"/>
      <path id="Trazado_102088" data-name="Trazado 102088" d="M462.377,391.353a.471.471,0,0,0-.627.445v8.448a3.981,3.981,0,0,0-2.526-.855c-1.946,0-3.524,1.262-3.524,2.819s1.578,2.819,3.524,2.819,3.525-1.262,3.525-2.819c0-.014,0-.027,0-.04h0v-8.4a4.395,4.395,0,0,1,2.9,2.137.418.418,0,0,0,.77-.251C466.28,393.04,463.617,391.793,462.377,391.353Z" transform="translate(-449.439 -387.219)" fill="#fff"/>
    </g>
    <g id="Grupo_54818" data-name="Grupo 54818" transform="translate(746.197 415.244)">
      <path id="Trazado_102089" data-name="Trazado 102089" d="M744.134,407.734l-18.411-.957a2.5,2.5,0,0,0-2.661,2.609l.476,16.932a2.483,2.483,0,0,0,2.657,2.37l17.482-.863a2.4,2.4,0,0,0,2.2-2.355L746.3,410.3A2.422,2.422,0,0,0,744.134,407.734Z" transform="translate(-723.061 -406.772)" fill="url(#linear-gradient-63)"/>
      <g id="Grupo_54817" data-name="Grupo 54817" transform="translate(5.377 3.734)">
        <path id="Trazado_102090" data-name="Trazado 102090" d="M730.166,423.932a2.124,2.124,0,1,1,2.124-2.124A2.126,2.126,0,0,1,730.166,423.932Zm0-3.4a1.281,1.281,0,1,0,1.281,1.28A1.282,1.282,0,0,0,730.166,420.528Z" transform="translate(-728.043 -409.482)" fill="#fff"/>
        <g id="Grupo_54816" data-name="Grupo 54816" transform="translate(0.04)">
          <path id="Trazado_102091" data-name="Trazado 102091" d="M730.083,417.548a4.536,4.536,0,0,1,4.531,4.53,4.28,4.28,0,0,1-.025.459.308.308,0,0,0,.351.342l.659-.1a.31.31,0,0,0,.262-.286c.011-.137.016-.276.016-.417a5.8,5.8,0,0,0-5.795-5.794,5.584,5.584,0,0,0-.715.045.309.309,0,0,0-.268.358l.109.641a.305.305,0,0,0,.34.253A4.361,4.361,0,0,1,730.083,417.548Z" transform="translate(-727.999 -409.752)" fill="#fff"/>
          <path id="Trazado_102092" data-name="Trazado 102092" d="M730.123,414.522a7.8,7.8,0,0,1,7.8,7.8v0a.306.306,0,0,0,.351.305l.647-.1.267-.31a9.051,9.051,0,0,0-10.336-8.872.306.306,0,0,0-.255.356l.109.639a.305.305,0,0,0,.342.254A7.745,7.745,0,0,1,730.123,414.522Z" transform="translate(-728.04 -409.992)" fill="#fff"/>
          <path id="Trazado_102093" data-name="Trazado 102093" d="M730.163,411.5a11.074,11.074,0,0,1,11.05,10.589.31.31,0,0,0,.353.3l.642-.1a.309.309,0,0,0,.263-.318,12.306,12.306,0,0,0-14.132-11.6.309.309,0,0,0-.256.357l.109.638a.308.308,0,0,0,.352.251A11.114,11.114,0,0,1,730.163,411.5Z" transform="translate(-728.08 -410.232)" fill="#fff"/>
        </g>
      </g>
    </g>
    <g id="Grupo_54819" data-name="Grupo 54819" transform="translate(741.927 341.676)">
      <path id="Trazado_102094" data-name="Trazado 102094" d="M736.3,339.4l-15.028-.781a2.041,2.041,0,0,0-2.172,2.13l.389,13.82a2.025,2.025,0,0,0,2.168,1.934l14.27-.7a1.961,1.961,0,0,0,1.794-1.921l.349-12.379A1.977,1.977,0,0,0,736.3,339.4Z" transform="translate(-719.104 -338.612)" fill="url(#linear-gradient-68)"/>
      <path id="Trazado_102095" data-name="Trazado 102095" d="M734.168,340.784H723.545c-.984,0-2.337.733-2.337,1.747v5.909c0,.974,1.362,1.663,2.337,1.663h7.307c.251,0,.343.584.343.835v.873c0,.359.381.492.558.552a.756.756,0,0,0,.418.149.525.525,0,0,0,.392-.174l1.568-1.857c.993-.022,1.391-1.069,1.391-2.042v-5.909C735.522,341.565,735.135,340.784,734.168,340.784Zm.356,7.657c0,.457.013,1-.356,1h-.4l-1.909,1.84V350c0-.251.186-.557-.066-.557h-8.25c-.453,0-1.337-.546-1.337-1v-5.665c0-.661.88-.661,1.337-.661h10.623c.45,0,.356-.032.356.417Z" transform="translate(-718.937 -338.44)" fill="#fff"/>
      <path id="Trazado_102096" data-name="Trazado 102096" d="M733.379,343.584a.333.333,0,0,1-.334.332h-9.654a.333.333,0,0,1-.332-.332h0a.333.333,0,0,1,.332-.334h9.654a.333.333,0,0,1,.334.334Z" transform="translate(-718.79 -338.244)" fill="#fff"/>
      <path id="Trazado_102097" data-name="Trazado 102097" d="M733.379,345.126a.333.333,0,0,1-.334.332h-9.654a.333.333,0,0,1-.332-.332h0a.333.333,0,0,1,.332-.333h9.654a.333.333,0,0,1,.334.333Z" transform="translate(-718.79 -338.122)" fill="#fff"/>
      <path id="Trazado_102098" data-name="Trazado 102098" d="M733.379,347.285a.333.333,0,0,1-.334.332h-9.654a.333.333,0,0,1-.332-.332h0a.333.333,0,0,1,.332-.333h9.654a.333.333,0,0,1,.334.333Z" transform="translate(-718.79 -337.951)" fill="#fff"/>
    </g>
    <g id="Grupo_54820" data-name="Grupo 54820" transform="translate(706.832 333.058)">
      <path id="Trazado_102099" data-name="Trazado 102099" d="M695.9,343.235l-8.134-.423a1.1,1.1,0,0,0-1.175,1.152l.21,7.48a1.1,1.1,0,0,0,1.174,1.047l7.723-.381a1.063,1.063,0,0,0,.971-1.04l.188-6.7A1.068,1.068,0,0,0,695.9,343.235Z" transform="translate(-686.59 -329.661)" fill="#fff"/>
      <path id="Trazado_102100" data-name="Trazado 102100" d="M707.869,330.923l-5.657-.294a.769.769,0,0,0-.818.8l.147,5.2a.763.763,0,0,0,.816.729l5.373-.266a.738.738,0,0,0,.675-.723l.132-4.661A.745.745,0,0,0,707.869,330.923Z" transform="translate(-685.415 -330.628)" fill="#fff"/>
    </g>
    <g id="Grupo_54821" data-name="Grupo 54821" transform="translate(743.45 395.141)">
      <path id="Trazado_102101" data-name="Trazado 102101" d="M728.111,388.494l-6.636-.345a.9.9,0,0,0-.96.94l.172,6.1a.9.9,0,0,0,.957.855l6.3-.311a.868.868,0,0,0,.792-.849l.153-5.466A.871.871,0,0,0,728.111,388.494Z" transform="translate(-720.516 -388.148)" fill="#fff"/>
      <path id="Trazado_102102" data-name="Trazado 102102" d="M746.172,399.727l-3.284-.171a.446.446,0,0,0-.474.465l.084,3.02a.444.444,0,0,0,.474.423l3.119-.154a.429.429,0,0,0,.392-.42l.076-2.7A.432.432,0,0,0,746.172,399.727Z" transform="translate(-718.778 -387.243)" fill="#fff"/>
    </g>
    <g id="Grupo_54822" data-name="Grupo 54822" transform="translate(449.178 318.963)">
      <path id="Trazado_102103" data-name="Trazado 102103" d="M455.47,358.886l-6.637-.345a.9.9,0,0,0-.958.94l.172,6.1a.9.9,0,0,0,.957.855l6.3-.311a.868.868,0,0,0,.793-.849l.153-5.467A.872.872,0,0,0,455.47,358.886Z" transform="translate(-447.875 -314.318)" fill="#fff"/>
      <path id="Trazado_102104" data-name="Trazado 102104" d="M473.531,370.119l-3.284-.171a.446.446,0,0,0-.475.465l.085,3.02a.442.442,0,0,0,.474.423l3.118-.154a.427.427,0,0,0,.392-.42l.077-2.7A.433.433,0,0,0,473.531,370.119Z" transform="translate(-446.137 -313.413)" fill="#fff"/>
      <path id="Trazado_102105" data-name="Trazado 102105" d="M507.053,317.836l-5.093-.266a.692.692,0,0,0-.736.722l.132,4.684a.687.687,0,0,0,.735.655l4.837-.239a.665.665,0,0,0,.608-.651l.119-4.2A.67.67,0,0,0,507.053,317.836Z" transform="translate(-443.642 -317.569)" fill="#fff"/>
    </g>
    <g id="Grupo_54826" data-name="Grupo 54826" transform="translate(565.94 468.324)">
      <g id="Grupo_54825" data-name="Grupo 54825" transform="translate(0)">
        <g id="Grupo_54823" data-name="Grupo 54823">
          <path id="Trazado_102106" data-name="Trazado 102106" d="M566.123,483.466a.7.7,0,0,1-.272-.055l-2.881-1.186a.712.712,0,0,1-.439-.7l.136-2.322a11.8,11.8,0,0,1-2.324-2.313l-2.319.146a.705.705,0,0,1-.7-.437l-1.2-2.876a.715.715,0,0,1,.185-.807l1.737-1.543a11.782,11.782,0,0,1,0-3.278l-1.744-1.539a.712.712,0,0,1-.188-.806l1.186-2.88a.7.7,0,0,1,.7-.44l2.323.137a11.763,11.763,0,0,1,2.312-2.324l-.145-2.319a.712.712,0,0,1,.438-.7l2.875-1.2a.71.71,0,0,1,.805.183l1.546,1.738a11.781,11.781,0,0,1,3.278-.005l1.538-1.744a.717.717,0,0,1,.806-.188l2.881,1.187a.712.712,0,0,1,.44.7l-.137,2.322a11.765,11.765,0,0,1,2.324,2.313l2.32-.146a.713.713,0,0,1,.7.437l1.2,2.876a.715.715,0,0,1-.185.807l-1.737,1.544a11.784,11.784,0,0,1,.005,3.278l1.743,1.539a.708.708,0,0,1,.188.805l-1.186,2.881a.7.7,0,0,1-.7.44l-2.321-.136a11.784,11.784,0,0,1-2.313,2.323l.145,2.321a.71.71,0,0,1-.436.7l-2.877,1.2a.715.715,0,0,1-.807-.184l-1.543-1.738a11.791,11.791,0,0,1-3.279.005l-1.538,1.744A.714.714,0,0,1,566.123,483.466Zm.108-.978h0Zm7.21-.014h0Zm-9.9-1.094,2.5,1.031,1.766-2,.272.044a10.778,10.778,0,0,0,3.5-.005l.272-.045,1.772,1.994,2.5-1.04-.166-2.663.223-.161a10.8,10.8,0,0,0,2.472-2.484l.161-.225,2.664.156,1.032-2.5-2-1.766.044-.272a10.822,10.822,0,0,0-.005-3.5l-.045-.272,1.994-1.772-1.042-2.5-2.662.167-.162-.223a10.793,10.793,0,0,0-2.482-2.472l-.225-.161.157-2.665-2.5-1.031-1.766,2-.272-.044a10.778,10.778,0,0,0-3.5.005l-.272.045-1.772-1.994-2.5,1.04.167,2.663-.223.161a10.822,10.822,0,0,0-2.473,2.484l-.16.225-2.665-.157-1.032,2.5,2,1.766-.044.272a10.813,10.813,0,0,0,.005,3.5l.045.273-1.994,1.772,1.042,2.5,2.662-.167.162.223a10.775,10.775,0,0,0,2.484,2.472l.223.161Zm12.6.178h0Zm5.543-5.566h0ZM563.307,458.14h0Zm2.875-1.2h0Zm-.193-.461h0Zm3.892,21.274a8.02,8.02,0,0,1-7.946-9.172.5.5,0,1,1,.989.145,7,7,0,1,0,2.936-4.751.5.5,0,1,1-.569-.82,8.018,8.018,0,1,1,7.662,13.983A7.967,7.967,0,0,1,569.881,477.755Z" transform="translate(-556.054 -455.951)" fill="#fff"/>
          <path id="Trazado_102107" data-name="Trazado 102107" d="M569.034,472.2a3.266,3.266,0,0,1-.473-6.5h0a3.265,3.265,0,1,1,.473,6.5Zm-.326-5.509a2.267,2.267,0,1,0,1.683.421,2.27,2.27,0,0,0-1.683-.421Z" transform="translate(-555.283 -455.18)" fill="#fff"/>
        </g>
        <g id="Grupo_54824" data-name="Grupo 54824" transform="translate(27.702 18.282)">
          <path id="Trazado_102108" data-name="Trazado 102108" d="M588.743,487.132a.6.6,0,0,1-.547-.349l-.411-.892a5.929,5.929,0,0,1-1.311-.4l-.835.516a.6.6,0,0,1-.7-.045l-1.161-.95a.6.6,0,0,1-.184-.675l.34-.921a5.855,5.855,0,0,1-.649-1.207l-.955-.226a.6.6,0,0,1-.46-.526l-.15-1.492a.6.6,0,0,1,.349-.608l.889-.409a5.959,5.959,0,0,1,.4-1.312l-.516-.835a.6.6,0,0,1,.047-.7l.948-1.159a.6.6,0,0,1,.675-.184l.92.339a5.971,5.971,0,0,1,1.208-.649l.226-.954a.6.6,0,0,1,.523-.461l1.492-.149a.6.6,0,0,1,.609.348l.41.889a5.957,5.957,0,0,1,1.312.4l.834-.516a.6.6,0,0,1,.7.045l1.161.95a.6.6,0,0,1,.184.673l-.34.922a5.97,5.97,0,0,1,.649,1.208l.954.224a.6.6,0,0,1,.461.526l.149,1.492a.6.6,0,0,1-.345.607l-.893.411a5.873,5.873,0,0,1-.4,1.311l.515.835a.6.6,0,0,1-.046.7l-.948,1.158a.6.6,0,0,1-.674.186l-.922-.341a5.9,5.9,0,0,1-1.208.649l-.226.954a.6.6,0,0,1-.527.461l-1.489.149A.569.569,0,0,1,588.743,487.132Zm-2.333-2.772.247.121a4.92,4.92,0,0,0,1.533.463l.274.036.519,1.128.928-.094.286-1.208.26-.088a4.954,4.954,0,0,0,1.411-.759l.219-.167,1.165.43.59-.722-.652-1.057.121-.247a4.945,4.945,0,0,0,.463-1.534l.036-.273,1.127-.519-.093-.928-1.208-.286-.09-.26a4.912,4.912,0,0,0-.758-1.411l-.168-.219.431-1.166-.722-.59-1.057.653-.248-.121a4.946,4.946,0,0,0-1.533-.463l-.273-.036-.52-1.127-.928.093-.285,1.208-.261.089a4.939,4.939,0,0,0-1.411.759l-.218.168-1.166-.431-.59.722.652,1.057-.121.247a4.921,4.921,0,0,0-.462,1.534l-.037.273-1.127.52.093.927,1.209.286.089.261a4.976,4.976,0,0,0,.758,1.411l.168.218-.43,1.166.722.59Zm3.783,1.626h0Zm2.881-1.547,0,0Zm.948-1.159h0Zm-11.532-3.009h0Zm1.171-3.529h0Zm.028-.46,0,0Zm9.58-.5h0Zm-9.105-.076h0Zm8.406-.843h0Zm-3.99-1.2h0Zm.351-.269h0Zm-.075,10.759a4.118,4.118,0,0,1-3.717-5.866.5.5,0,1,1,.9.426,3.115,3.115,0,1,0,1.861-1.641.5.5,0,0,1-.307-.951,4.177,4.177,0,0,1,.857-.178,4.115,4.115,0,1,1,.821,8.188A3.9,3.9,0,0,1,588.857,484.149Z" transform="translate(-581.72 -472.889)" fill="#fff"/>
        </g>
      </g>
    </g>
  </g>
</svg>
