<svg xmlns="http://www.w3.org/2000/svg" width="191.165" height="179.018" viewBox="0 0 191.165 179.018">
  <g id="Grupo_81638" data-name="Grupo 81638" transform="translate(385.063 -36.987)">
    <g id="Grupo_81580" data-name="Grupo 81580" transform="translate(-362.22 58.294)">
      <path id="Trazado_102142" data-name="Trazado 102142" d="M-330.931,267.778l-1.83.449c.205.836.43,1.686.669,2.524l1.813-.516C-330.512,269.418-330.731,268.592-330.931,267.778Z" transform="translate(334.865 -179.728)" fill="#4ab7ce"/>
      <path id="Trazado_102143" data-name="Trazado 102143" d="M-334.618,213.95l-1.872-.215c-.1.866-.184,1.74-.252,2.6l1.879.149C-334.8,215.645-334.715,214.794-334.618,213.95Z" transform="translate(336.97 -151.144)" fill="#4ab7ce"/>
      <path id="Trazado_102144" data-name="Trazado 102144" d="M-335.294,235.746l-1.883.05c.023.864.062,1.742.115,2.607l1.881-.116C-335.233,237.443-335.271,236.588-335.294,235.746Z" transform="translate(337.201 -162.786)" fill="#4ab7ce"/>
      <path id="Trazado_102145" data-name="Trazado 102145" d="M-333.159,257.213l-1.858.317c.147.856.31,1.719.486,2.565l1.845-.383C-332.858,258.888-333.017,258.047-333.159,257.213Z" transform="translate(336.058 -174.14)" fill="#4ab7ce"/>
      <path id="Trazado_102146" data-name="Trazado 102146" d="M-334.614,246.518l-1.875.184c.084.865.186,1.736.3,2.592l1.868-.25C-334.433,248.21-334.531,247.36-334.614,246.518Z" transform="translate(336.837 -168.483)" fill="#4ab7ce"/>
      <path id="Trazado_102147" data-name="Trazado 102147" d="M-335.276,224.858l-1.882-.082c-.038.866-.061,1.743-.068,2.608l1.884.016C-335.335,226.558-335.313,225.7-335.276,224.858Z" transform="translate(337.227 -156.983)" fill="#4ab7ce"/>
      <path id="Trazado_102148" data-name="Trazado 102148" d="M-333.183,203.131l-1.852-.349c-.16.848-.307,1.714-.438,2.573l1.863.283C-333.483,204.8-333.339,203.958-333.183,203.131Z" transform="translate(336.299 -145.35)" fill="#4ab7ce"/>
      <path id="Trazado_102149" data-name="Trazado 102149" d="M-331.532,192.31l-1.264-.334c-.221.839-.431,1.692-.621,2.534l1.837.416c.186-.818.388-1.645.6-2.459Q-331.258,192.4-331.532,192.31Z" transform="translate(335.212 -139.635)" fill="#4ab7ce"/>
      <path id="Trazado_102150" data-name="Trazado 102150" d="M-294.227,334.2a6.486,6.486,0,0,1-1.114,1.568c.412.439.83.877,1.254,1.308l1.343-1.322C-293.248,335.238-293.744,334.717-294.227,334.2Z" transform="translate(315.073 -214.858)" fill="#4ab7ce"/>
      <path id="Trazado_102151" data-name="Trazado 102151" d="M-288.718,342.637c.629.595,1.279,1.187,1.929,1.759l1.245-1.415c-.634-.557-1.266-1.133-1.88-1.713Z" transform="translate(311.57 -218.598)" fill="#4ab7ce"/>
      <path id="Trazado_102152" data-name="Trazado 102152" d="M-280.4,349.854c.669.547,1.359,1.091,2.051,1.617l1.14-1.5c-.674-.513-1.346-1.043-2-1.576Z" transform="translate(307.169 -222.369)" fill="#4ab7ce"/>
      <path id="Trazado_102153" data-name="Trazado 102153" d="M-327.517,279.406q-.215-.623-.418-1.249l-1.792.58c.114.351.233.7.352,1.055A5.845,5.845,0,0,1-327.517,279.406Z" transform="translate(333.26 -185.218)" fill="#4ab7ce"/>
      <path id="Trazado_102154" data-name="Trazado 102154" d="M-32.634,215l1.877-.166c-.076-.857-.169-1.731-.277-2.6l-1.869.234C-32.8,213.318-32.708,214.168-32.634,215Z" transform="translate(176.264 -150.354)" fill="#4ab7ce"/>
      <path id="Trazado_102155" data-name="Trazado 102155" d="M-31.857,225.917l1.884-.033c-.015-.861-.046-1.738-.093-2.608l-1.881.1C-31.9,224.223-31.872,225.078-31.857,225.917Z" transform="translate(175.758 -156.19)" fill="#4ab7ce"/>
      <path id="Trazado_102156" data-name="Trazado 102156" d="M-271.573,356.472c.708.5,1.435.993,2.162,1.467l1.03-1.578c-.708-.462-1.417-.943-2.106-1.429Z" transform="translate(302.501 -225.826)" fill="#4ab7ce"/>
      <path id="Trazado_102157" data-name="Trazado 102157" d="M-36.483,193.486l1.833-.432c-.2-.834-.414-1.685-.646-2.53l-1.817.5C-36.886,191.847-36.674,192.675-36.483,193.486Z" transform="translate(178.49 -138.867)" fill="#4ab7ce"/>
      <path id="Trazado_102158" data-name="Trazado 102158" d="M-34.178,204.175l1.86-.3c-.139-.858-.294-1.722-.463-2.569l-1.849.367C-34.465,202.5-34.313,203.34-34.178,204.175Z" transform="translate(177.177 -144.57)" fill="#4ab7ce"/>
      <path id="Trazado_102159" data-name="Trazado 102159" d="M-270.568,105.044l-1.058-1.559c-.717.486-1.433.991-2.131,1.5l1.112,1.521C-271.965,106.01-271.266,105.518-270.568,105.044Z" transform="translate(303.656 -92.83)" fill="#4ab7ce"/>
      <path id="Trazado_102160" data-name="Trazado 102160" d="M-295.153,126.217l-1.364-1.3c-.6.628-1.193,1.275-1.767,1.922l1.409,1.25C-296.315,127.459-295.736,126.83-295.153,126.217Z" transform="translate(316.629 -104.166)" fill="#4ab7ce"/>
      <path id="Trazado_102161" data-name="Trazado 102161" d="M-287.475,118.568l-1.269-1.393c-.643.585-1.281,1.187-1.9,1.79l1.317,1.348C-288.724,119.725-288.1,119.138-287.475,118.568Z" transform="translate(312.587 -100.071)" fill="#4ab7ce"/>
      <path id="Trazado_102162" data-name="Trazado 102162" d="M-87.095,110.844c-.667-.555-1.352-1.105-2.036-1.635l-1.154,1.49c.666.515,1.334,1.051,1.983,1.593Z" transform="translate(206.614 -95.858)" fill="#4ab7ce"/>
      <path id="Trazado_102163" data-name="Trazado 102163" d="M-279.267,111.5l-1.167-1.48c-.683.538-1.362,1.093-2.019,1.65l1.218,1.438C-280.595,112.565-279.933,112.024-279.267,111.5Z" transform="translate(308.256 -96.287)" fill="#4ab7ce"/>
      <path id="Trazado_102164" data-name="Trazado 102164" d="M-78.816,118.077c-.626-.6-1.269-1.2-1.913-1.775l-1.257,1.4c.627.562,1.255,1.143,1.865,1.729Z" transform="translate(202.225 -99.609)" fill="#4ab7ce"/>
      <path id="Trazado_102165" data-name="Trazado 102165" d="M-72.862,126.131h1.521l.273-.246c-.58-.643-1.18-1.284-1.783-1.906L-74.2,125.29c.452.466.9.945,1.341,1.426Z" transform="translate(198.108 -103.67)" fill="#4ab7ce"/>
      <path id="Trazado_102166" data-name="Trazado 102166" d="M-105.967,360.078l.958,1.623c.747-.441,1.494-.9,2.22-1.365l-1.015-1.588C-104.512,359.2-105.239,359.649-105.967,360.078Z" transform="translate(214.909 -227.845)" fill="#4ab7ce"/>
      <path id="Trazado_102167" data-name="Trazado 102167" d="M-95.863,104.226c-.7-.5-1.423-1-2.149-1.486l-1.044,1.568c.707.471,1.411.958,2.093,1.448Z" transform="translate(211.253 -92.436)" fill="#4ab7ce"/>
      <path id="Trazado_102168" data-name="Trazado 102168" d="M-88.242,347.5l1.18,1.47c.677-.544,1.352-1.1,2-1.667l-1.23-1.427C-86.923,346.421-87.581,346.968-88.242,347.5Z" transform="translate(205.534 -221.034)" fill="#4ab7ce"/>
      <path id="Trazado_102169" data-name="Trazado 102169" d="M-79.738,341.6c-.112.105-.221.214-.333.318l1.28,1.382c.208-.192.409-.392.614-.587A5.994,5.994,0,0,1-79.738,341.6Z" transform="translate(201.212 -218.776)" fill="#4ab7ce"/>
      <path id="Trazado_102170" data-name="Trazado 102170" d="M-96.888,354.1l1.072,1.55c.71-.491,1.423-1,2.117-1.52l-1.125-1.511C-95.5,353.126-96.2,353.623-96.888,354.1Z" transform="translate(210.107 -224.603)" fill="#4ab7ce"/>
      <path id="Trazado_102171" data-name="Trazado 102171" d="M-114.7,92.971c-.769-.4-1.556-.791-2.341-1.165l-.809,1.7c.765.363,1.531.745,2.28,1.135Z" transform="translate(221.195 -86.653)" fill="#4ab7ce"/>
      <path id="Trazado_102172" data-name="Trazado 102172" d="M-105.081,98.257c-.735-.453-1.492-.9-2.25-1.329l-.929,1.639c.739.418,1.475.854,2.191,1.295Z" transform="translate(216.122 -89.362)" fill="#4ab7ce"/>
      <path id="Trazado_102173" data-name="Trazado 102173" d="M-125.234,370.025l.716,1.743c.8-.328,1.6-.676,2.389-1.033l-.778-1.716C-123.674,369.368-124.457,369.706-125.234,370.025Z" transform="translate(225.099 -233.277)" fill="#4ab7ce"/>
      <path id="Trazado_102174" data-name="Trazado 102174" d="M-115.433,365.4l.839,1.687c.776-.386,1.553-.79,2.31-1.2l-.9-1.656C-113.92,364.625-114.677,365.019-115.433,365.4Z" transform="translate(219.915 -230.741)" fill="#4ab7ce"/>
      <path id="Trazado_102175" data-name="Trazado 102175" d="M-34.113,255.679l1.855.333c.152-.849.292-1.716.415-2.576l-1.865-.267C-33.828,254.008-33.965,254.852-34.113,255.679Z" transform="translate(176.904 -172.001)" fill="#4ab7ce"/>
      <path id="Trazado_102176" data-name="Trazado 102176" d="M-36.4,266.264l1.825.465c.214-.839.415-1.694.6-2.54l-1.841-.4C-36,264.613-36.193,265.446-36.4,266.264Z" transform="translate(178.114 -177.619)" fill="#4ab7ce"/>
      <path id="Trazado_102177" data-name="Trazado 102177" d="M-32.587,244.971l1.874.2c.091-.866.169-1.741.229-2.6l-1.88-.133C-32.422,243.275-32.5,244.127-32.587,244.971Z" transform="translate(176.097 -166.325)" fill="#4ab7ce"/>
      <path id="Trazado_102178" data-name="Trazado 102178" d="M-31.78,231.651c0,.843-.016,1.7-.045,2.543l1.883.065c.03-.866.046-1.743.046-2.608Z" transform="translate(175.693 -160.62)" fill="#4ab7ce"/>
      <path id="Trazado_102179" data-name="Trazado 102179" d="M-124.678,88.4c-.8-.344-1.612-.679-2.42-.993l-.684,1.755c.787.307,1.58.633,2.357.968Z" transform="translate(226.447 -84.325)" fill="#4ab7ce"/>
      <path id="Trazado_102180" data-name="Trazado 102180" d="M-39.446,276.672l1.788.6c.275-.824.537-1.662.781-2.49l-1.808-.532C-38.923,275.051-39.178,275.868-39.446,276.672Z" transform="translate(179.724 -183.149)" fill="#4ab7ce"/>
      <path id="Trazado_102181" data-name="Trazado 102181" d="M-232.128,376.263c.816.277,1.653.543,2.487.792l.539-1.805c-.813-.244-1.628-.5-2.422-.772Z" transform="translate(281.638 -236.165)" fill="#4ab7ce"/>
      <path id="Trazado_102182" data-name="Trazado 102182" d="M-242.516,372.378c.8.336,1.615.663,2.43.973l.668-1.762c-.793-.3-1.589-.619-2.366-.946Z" transform="translate(287.132 -234.135)" fill="#4ab7ce"/>
      <path id="Trazado_102183" data-name="Trazado 102183" d="M-262.368,97.607c-.749.433-1.5.886-2.232,1.345l1,1.6c.713-.447,1.444-.888,2.174-1.311Z" transform="translate(298.813 -89.721)" fill="#4ab7ce"/>
      <path id="Trazado_102184" data-name="Trazado 102184" d="M-219.134,378.025c-.636-.146-1.275-.295-1.9-.458l-.474,1.824c.663.172,1.337.334,2.01.489A5.188,5.188,0,0,1-219.134,378.025Z" transform="translate(276.022 -237.798)" fill="#4ab7ce"/>
      <path id="Trazado_102185" data-name="Trazado 102185" d="M-221.738,81.211c-.845.2-1.694.425-2.525.658l.508,1.815c.809-.226,1.637-.442,2.46-.641Z" transform="translate(277.478 -81.049)" fill="#4ab7ce"/>
      <path id="Trazado_102186" data-name="Trazado 102186" d="M-232.345,84.2c-.826.263-1.658.546-2.472.838l.637,1.773c.793-.285,1.6-.56,2.407-.816Z" transform="translate(283.06 -82.628)" fill="#4ab7ce"/>
      <path id="Trazado_102187" data-name="Trazado 102187" d="M-252.7,92.417c-.776.377-1.556.775-2.32,1.181l.884,1.664c.745-.4,1.505-.783,2.261-1.15Z" transform="translate(293.749 -86.976)" fill="#4ab7ce"/>
      <path id="Trazado_102188" data-name="Trazado 102188" d="M-262.287,362.453c.74.447,1.5.887,2.262,1.31l.914-1.647c-.741-.412-1.482-.84-2.2-1.276Z" transform="translate(297.59 -228.951)" fill="#4ab7ce"/>
      <path id="Trazado_102189" data-name="Trazado 102189" d="M-135.358,373.952l.589,1.79c.826-.272,1.655-.562,2.464-.86l-.652-1.767C-133.745,373.406-134.553,373.687-135.358,373.952Z" transform="translate(230.454 -235.443)" fill="#4ab7ce"/>
      <path id="Trazado_102190" data-name="Trazado 102190" d="M-242.69,87.942c-.8.323-1.612.663-2.4,1.011l.763,1.723c.766-.339,1.552-.671,2.336-.985Z" transform="translate(288.493 -84.609)" fill="#4ab7ce"/>
      <path id="Trazado_102191" data-name="Trazado 102191" d="M-252.583,367.765c.772.393,1.563.778,2.351,1.145l.794-1.709c-.768-.357-1.539-.732-2.291-1.115Z" transform="translate(292.457 -231.725)" fill="#4ab7ce"/>
      <path id="Trazado_102192" data-name="Trazado 102192" d="M-145.465,81.5c-.838-.226-1.689-.439-2.532-.633l-.424,1.836c.821.189,1.651.4,2.466.616Z" transform="translate(237.364 -80.867)" fill="#4ab7ce"/>
      <path id="Trazado_102193" data-name="Trazado 102193" d="M-145.723,377.147l.457,1.827c.838-.21,1.686-.439,2.52-.679l-.524-1.81C-144.081,376.72-144.907,376.942-145.723,377.147Z" transform="translate(235.937 -237.226)" fill="#4ab7ce"/>
      <path id="Trazado_102194" data-name="Trazado 102194" d="M-134.959,84.564c-.819-.285-1.656-.56-2.487-.816l-.556,1.8c.811.25,1.626.518,2.423.8Z" transform="translate(231.853 -82.391)" fill="#4ab7ce"/>
    </g>
    <circle id="Elipse_4221" data-name="Elipse 4221" cx="44.533" cy="44.533" r="44.533" transform="translate(-347.508 105.225) rotate(-22.5)" fill="none" stroke="#4ab7ce" stroke-miterlimit="10" stroke-width="4" stroke-dasharray="6"/>
    <g id="Grupo_81586" data-name="Grupo 81586" transform="translate(-369.785 152.129)">
      <path id="Trazado_102195" data-name="Trazado 102195" d="M-320.751,296.325a16.267,16.267,0,0,1-16.267,16.267,16.267,16.267,0,0,1-16.268-16.267,16.267,16.267,0,0,1,16.268-16.267A16.267,16.267,0,0,1-320.751,296.325Z" transform="translate(353.286 -280.058)" fill="none" stroke="#4ab7ce" stroke-miterlimit="10" stroke-width="2"/>
      <g id="Grupo_81585" data-name="Grupo 81585" transform="translate(2.184 8.268)">
        <g id="Grupo_81582" data-name="Grupo 81582" transform="translate(6.23)">
          <g id="Grupo_81581" data-name="Grupo 81581">
            <path id="Trazado_102196" data-name="Trazado 102196" d="M-320.318,311.371a2.218,2.218,0,0,0-1.724-1.443l-3-.86-.019.033-1.025-.953,0,0V307.4a2.53,2.53,0,0,0,1.244-1.456c.028-.112.056-.218.082-.32h0s.093-.335.2-.786c.682.1.705-1.6.705-1.6a.329.329,0,0,0-.377-.225c0-.048.006-.1.006-.139,0,0,1.3-5.435-3.633-5.262,0,0-1.8.26-1.972,1.256a1.4,1.4,0,0,0-.986,1.062,14.644,14.644,0,0,0-.109,3.1.348.348,0,0,0-.471.2s.074,1.706.768,1.6c.053.195.114.387.184.575.041.164.087.34.136.532a2.524,2.524,0,0,0,1.245,1.456v.7l-.008,0-1.162,1.082-2.866.749a2.216,2.216,0,0,0-1.723,1.443l-.6,2.236h15.707Z" transform="translate(335.425 -297.609)" fill="#4ab7ce"/>
          </g>
        </g>
        <g id="Grupo_81583" data-name="Grupo 81583" transform="translate(0 1.712)">
          <path id="Trazado_102197" data-name="Trazado 102197" d="M-340.145,311.626l2.232-.582c-.073-.019-.119-.026-.119-.026l-2.378-.683-.016.027-.813-.757,0,0v-.594a2,2,0,0,0,.987-1.155c.023-.088.044-.173.065-.254h0s.073-.266.159-.624c.541.076.559-1.269.559-1.269a.261.261,0,0,0-.3-.179c0-.039,0-.076,0-.11,0,0,1.034-4.312-2.882-4.175,0,0-1.426.206-1.564,1a1.111,1.111,0,0,0-.784.842,11.633,11.633,0,0,0-.086,2.463.275.275,0,0,0-.373.163s.059,1.353.609,1.268c.043.155.09.307.145.456.034.131.07.27.109.422a2,2,0,0,0,.988,1.155v.555l-.007,0-.922.858-2.274.594a1.759,1.759,0,0,0-1.367,1.145l-.475,1.773h6.42l.188-.7A2.421,2.421,0,0,1-340.145,311.626Z" transform="translate(348.65 -301.244)" fill="#4ab7ce"/>
        </g>
        <g id="Grupo_81584" data-name="Grupo 81584" transform="translate(17.544 1.712)">
          <path id="Trazado_102198" data-name="Trazado 102198" d="M-307.042,313.935h6.258l-.477-1.773a1.759,1.759,0,0,0-1.367-1.145l-2.378-.683-.016.027-.812-.757,0,0v-.594a2.006,2.006,0,0,0,.987-1.155c.024-.088.044-.173.065-.254h0s.074-.266.159-.624c.541.076.56-1.269.56-1.269a.261.261,0,0,0-.3-.179c0-.039,0-.076,0-.11,0,0,1.033-4.312-2.882-4.175,0,0-1.427.206-1.564,1a1.111,1.111,0,0,0-.783.842,11.6,11.6,0,0,0-.086,2.463.274.274,0,0,0-.373.163s.059,1.353.609,1.268c.042.155.09.307.145.456l.109.422a2,2,0,0,0,.986,1.155v.555l-.006,0-.922.858-2.273.594h-.005l2.121.609a2.414,2.414,0,0,1,1.892,1.6l.19.7h.163Z" transform="translate(311.407 -301.244)" fill="#4ab7ce"/>
        </g>
      </g>
    </g>
    <g id="Grupo_81588" data-name="Grupo 81588" transform="translate(-305.59 182.091)">
      <path id="Trazado_102199" data-name="Trazado 102199" d="M-184.48,359.927a16.267,16.267,0,0,1-16.267,16.267,16.268,16.268,0,0,1-16.267-16.267,16.267,16.267,0,0,1,16.267-16.267A16.267,16.267,0,0,1-184.48,359.927Z" transform="translate(217.014 -343.66)" fill="none" stroke="#4ab7ce" stroke-miterlimit="10" stroke-width="2"/>
      <g id="Grupo_81587" data-name="Grupo 81587" transform="translate(6.334 9.348)">
        <path id="Trazado_102200" data-name="Trazado 102200" d="M-189.664,379.5l-2.88,2.517-2.866-2.636-6.076,6.359h18a.874.874,0,0,0,.294-.052Z" transform="translate(202.467 -371.903)" fill="#4ab7ce"/>
        <path id="Trazado_102201" data-name="Trazado 102201" d="M-174.264,371.827l6.061,5.793V366.528Z" transform="translate(188.068 -365.103)" fill="#4ab7ce"/>
        <path id="Trazado_102202" data-name="Trazado 102202" d="M-192.854,372.038l9.566-8.361a.88.88,0,0,0-.525-.174h-18.1a.864.864,0,0,0-.2.022Z" transform="translate(202.795 -363.503)" fill="#4ab7ce"/>
        <path id="Trazado_102203" data-name="Trazado 102203" d="M-203.567,365.605v11.957l6.081-6.363Z" transform="translate(203.567 -364.615)" fill="#4ab7ce"/>
      </g>
    </g>
    <g id="Grupo_81590" data-name="Grupo 81590" transform="translate(-246.17 79.148)">
      <path id="Trazado_102204" data-name="Trazado 102204" d="M-58.342,141.4a16.267,16.267,0,0,1-16.267,16.266A16.267,16.267,0,0,1-90.877,141.4a16.267,16.267,0,0,1,16.268-16.267A16.267,16.267,0,0,1-58.342,141.4Z" transform="translate(90.877 -125.134)" fill="none" stroke="#4ab7ce" stroke-miterlimit="10" stroke-width="2"/>
      <g id="Grupo_81589" data-name="Grupo 81589" transform="translate(3.731 7.255)">
        <path id="Trazado_102205" data-name="Trazado 102205" d="M-58.693,140.535H-76.382a.8.8,0,0,0-.8.8v12.355a.8.8,0,0,0,.8.8h17.689a.8.8,0,0,0,.8-.8V141.331A.8.8,0,0,0-58.693,140.535Zm-.626,12.488H-75.756v-11.3h16.437Z" transform="translate(79.9 -140.535)" fill="#4ab7ce"/>
        <rect id="Rectángulo_14934" data-name="Rectángulo 14934" width="15.038" height="10.115" transform="translate(4.843 1.782)" fill="#4ab7ce"/>
        <rect id="Rectángulo_14935" data-name="Rectángulo 14935" width="25.074" height="0.59" transform="translate(0 17.433)" fill="#4ab7ce"/>
        <path id="Trazado_102206" data-name="Trazado 102206" d="M-60.954,171.338h-19.28l-2.722,2.444h25.074ZM-80,171.675h19l1.084.885h-21Zm6.383,1.776.533-.7H-67.8l.579.7Z" transform="translate(82.957 -156.827)" fill="#4ab7ce"/>
      </g>
    </g>
    <g id="Grupo_81591" data-name="Grupo 81591" transform="translate(-308.892 38.19)">
      <circle id="Elipse_4222" data-name="Elipse 4222" cx="16.267" cy="16.267" r="16.267" transform="matrix(0.23, -0.973, 0.973, 0.23, 0, 31.664)" fill="none" stroke="#4ab7ce" stroke-miterlimit="10" stroke-width="2"/>
      <path id="Trazado_102207" data-name="Trazado 102207" d="M-184.257,59.726H-193.9a1.054,1.054,0,0,0-1.053,1.054V77.52a1.053,1.053,0,0,0,1.053,1.054h9.643A1.054,1.054,0,0,0-183.2,77.52V60.78A1.054,1.054,0,0,0-184.257,59.726Zm-3.426,18h-2.793a.342.342,0,0,1-.342-.342.342.342,0,0,1,.342-.343h2.793a.343.343,0,0,1,.343.343A.343.343,0,0,1-187.682,77.73Zm2.516-2.366h-7.824V61.446h7.824Zm.756.787h-9.336V60.771h9.336Z" transform="translate(208.648 -49.581)" fill="#4ab7ce"/>
    </g>
    <g id="Grupo_81593" data-name="Grupo 81593" transform="translate(-369.785 79.148)">
      <path id="Trazado_102208" data-name="Trazado 102208" d="M-320.751,141.4a16.267,16.267,0,0,1-16.267,16.266A16.267,16.267,0,0,1-353.285,141.4a16.267,16.267,0,0,1,16.267-16.267A16.267,16.267,0,0,1-320.751,141.4Z" transform="translate(353.285 -125.134)" fill="none" stroke="#4ab7ce" stroke-miterlimit="10" stroke-width="2"/>
      <g id="Grupo_81592" data-name="Grupo 81592" transform="translate(7.762 6.712)">
        <path id="Trazado_102209" data-name="Trazado 102209" d="M-322.541,154.459h2.742l-.253.319a9.678,9.678,0,0,1-3.527,2.755,10.287,10.287,0,0,1-4.365.958,8.581,8.581,0,0,1-6.321-2.541,9.084,9.084,0,0,1-2.542-6.72,10.581,10.581,0,0,1,2.37-7,8.1,8.1,0,0,1,6.588-2.848,7.8,7.8,0,0,1,4.125.971,7.668,7.668,0,0,1,3.74,7.026,8.485,8.485,0,0,1-1.491,4.871,5.013,5.013,0,0,1-4.259,2.475,1.714,1.714,0,0,1-1.783-1.1,5.128,5.128,0,0,1-1.1.812,3.032,3.032,0,0,1-1.371.293,3.269,3.269,0,0,1-2.888-1.517,5.761,5.761,0,0,1-.878-3.287,9.357,9.357,0,0,1,1.169-4.6,4.162,4.162,0,0,1,3.693-2.529,2.888,2.888,0,0,1,2.391,1.236l.141-.889h2.519l-1.45,9.169c0,.151.066.226.2.226a2.244,2.244,0,0,0,1.57-.838,5.829,5.829,0,0,0,1.011-1.517,6.558,6.558,0,0,0,.546-2.795,6,6,0,0,0-1.59-4.332,5.619,5.619,0,0,0-4.251-1.657,6.616,6.616,0,0,0-5.036,2.1,7.88,7.88,0,0,0-1.977,5.636,7.624,7.624,0,0,0,1.8,5.256,6.435,6.435,0,0,0,5.07,2.116,8.3,8.3,0,0,0,5.363-1.983Zm-5.123-4.365a12.59,12.59,0,0,0,.453-3.234,2.806,2.806,0,0,0-.279-1.317,1.128,1.128,0,0,0-1.065-.678q-1.358,0-2.063,2.289a11.281,11.281,0,0,0-.506,3.38,3.3,3.3,0,0,0,.293,1.437,1.21,1.21,0,0,0,1.118.8,1.617,1.617,0,0,0,1.423-.945A7.657,7.657,0,0,0-327.664,150.094Z" transform="translate(336.807 -139.382)" fill="#4ab7ce"/>
      </g>
    </g>
    <g id="Grupo_81600" data-name="Grupo 81600" transform="translate(-246.169 152.129)">
      <path id="Trazado_102210" data-name="Trazado 102210" d="M-58.342,296.325a16.267,16.267,0,0,1-16.267,16.267,16.267,16.267,0,0,1-16.266-16.267,16.267,16.267,0,0,1,16.266-16.267A16.267,16.267,0,0,1-58.342,296.325Z" transform="translate(90.875 -280.058)" fill="none" stroke="#4ab7ce" stroke-miterlimit="10" stroke-width="2"/>
      <g id="Grupo_81599" data-name="Grupo 81599" transform="translate(6.063 6.064)">
        <g id="Grupo_81594" data-name="Grupo 81594" transform="translate(0 7.722)">
          <path id="Trazado_102211" data-name="Trazado 102211" d="M-67.8,314.285c-3.528,0-10.2-.518-10.2-2.481s6.674-2.48,10.2-2.48,10.2.519,10.2,2.48S-64.272,314.285-67.8,314.285Zm0-4.14a34.746,34.746,0,0,0-6.84.6c-2.111.446-2.542.952-2.542,1.062s.432.616,2.542,1.063a34.753,34.753,0,0,0,6.84.6,34.751,34.751,0,0,0,6.84-.6c2.111-.447,2.543-.952,2.543-1.063s-.432-.616-2.542-1.062A34.75,34.75,0,0,0-67.8,310.145Z" transform="translate(78.004 -309.324)" fill="#4ab7ce"/>
        </g>
        <g id="Grupo_81595" data-name="Grupo 81595" transform="translate(0 3.511)">
          <path id="Trazado_102212" data-name="Trazado 102212" d="M-67.8,313.767c-5.625,0-10.2-3-10.2-6.692s4.577-6.692,10.2-6.692,10.2,3,10.2,6.692S-62.174,313.767-67.8,313.767Zm0-12.563c-5.173,0-9.382,2.634-9.382,5.871s4.209,5.872,9.382,5.872,9.383-2.634,9.383-5.872S-62.627,301.2-67.8,301.2Z" transform="translate(78.004 -300.384)" fill="#4ab7ce"/>
        </g>
        <g id="Grupo_81596" data-name="Grupo 81596" transform="translate(7.569)">
          <path id="Trazado_102213" data-name="Trazado 102213" d="M-59.3,313.337c-2.083,0-2.634-6.674-2.634-10.2s.551-10.2,2.634-10.2,2.635,6.674,2.635,10.2S-57.219,313.337-59.3,313.337Zm0-19.586c-.614,0-1.813,3.311-1.813,9.382s1.2,9.383,1.813,9.383,1.814-3.312,1.814-9.383S-58.687,293.752-59.3,293.752Z" transform="translate(61.937 -292.931)" fill="#4ab7ce"/>
        </g>
        <g id="Grupo_81597" data-name="Grupo 81597" transform="translate(3.512)">
          <path id="Trazado_102214" data-name="Trazado 102214" d="M-63.858,313.337c-3.689,0-6.691-4.577-6.691-10.2s3-10.2,6.691-10.2,6.692,4.577,6.692,10.2S-60.168,313.337-63.858,313.337Zm0-19.586c-3.237,0-5.87,4.209-5.87,9.382s2.633,9.383,5.87,9.383,5.871-4.21,5.871-9.383S-60.621,293.752-63.858,293.752Z" transform="translate(70.549 -292.931)" fill="#4ab7ce"/>
        </g>
        <g id="Grupo_81598" data-name="Grupo 81598">
          <path id="Trazado_102215" data-name="Trazado 102215" d="M-67.8,313.337a10.215,10.215,0,0,1-10.2-10.2,10.215,10.215,0,0,1,10.2-10.2,10.215,10.215,0,0,1,10.2,10.2A10.215,10.215,0,0,1-67.8,313.337Zm0-19.586a9.393,9.393,0,0,0-9.382,9.382,9.394,9.394,0,0,0,9.382,9.383,9.393,9.393,0,0,0,9.383-9.383A9.392,9.392,0,0,0-67.8,293.752Z" transform="translate(78.004 -292.931)" fill="#4ab7ce"/>
        </g>
      </g>
    </g>
    <g id="Grupo_81607" data-name="Grupo 81607" transform="translate(-213.635 125.096)">
      <g id="Grupo_81601" data-name="Grupo 81601" transform="translate(0)">
        <path id="Trazado_102216" data-name="Trazado 102216" d="M-2.658,232.25a9.578,9.578,0,0,1-9.578,9.577,9.577,9.577,0,0,1-9.577-9.577,9.577,9.577,0,0,1,9.577-9.577A9.578,9.578,0,0,1-2.658,232.25Z" transform="translate(21.813 -222.673)" fill="none" stroke="#4ab7ce" stroke-miterlimit="10" stroke-width="1.165" stroke-dasharray="2.365 2.365"/>
      </g>
      <g id="Grupo_81606" data-name="Grupo 81606" transform="translate(1.286 4.869)">
        <g id="Grupo_81603" data-name="Grupo 81603" transform="translate(3.668)">
          <g id="Grupo_81602" data-name="Grupo 81602">
            <path id="Trazado_102217" data-name="Trazado 102217" d="M-2.4,241.11a1.3,1.3,0,0,0-1.013-.85l-1.766-.506-.012.02-.6-.561h0v-.441a1.493,1.493,0,0,0,.733-.857l.048-.189h0s.055-.2.119-.463c.4.057.415-.941.415-.941a.194.194,0,0,0-.222-.133c0-.029,0-.056,0-.081,0,0,.767-3.2-2.139-3.1,0,0-1.058.153-1.161.739a.826.826,0,0,0-.581.625A8.677,8.677,0,0,0-8.65,236.2a.2.2,0,0,0-.276.122s.044,1,.452.941c.033.115.066.228.108.339.024.1.051.2.08.313a1.488,1.488,0,0,0,.733.857v.412l0,0-.685.637-1.687.44a1.306,1.306,0,0,0-1.014.85l-.353,1.316h9.248Z" transform="translate(11.297 -233.008)" fill="#4ab7ce"/>
          </g>
        </g>
        <g id="Grupo_81604" data-name="Grupo 81604" transform="translate(0 1.008)">
          <path id="Trazado_102218" data-name="Trazado 102218" d="M-14.076,241.259l1.314-.343c-.043-.011-.071-.016-.071-.016l-1.4-.4-.009.016-.479-.445h0v-.35a1.181,1.181,0,0,0,.582-.68l.038-.15h0s.043-.157.094-.367c.319.045.33-.747.33-.747a.153.153,0,0,0-.176-.106c0-.023,0-.045,0-.065,0,0,.61-2.539-1.7-2.458,0,0-.84.121-.921.586a.655.655,0,0,0-.462.5,6.824,6.824,0,0,0-.05,1.45.162.162,0,0,0-.22.1s.034.8.358.746c.025.091.053.181.087.269s.04.159.062.249a1.181,1.181,0,0,0,.583.68v.327l0,0-.543.5L-18,240.9a1.033,1.033,0,0,0-.8.675l-.281,1.044h3.78l.111-.413A1.422,1.422,0,0,1-14.076,241.259Z" transform="translate(19.084 -235.147)" fill="#4ab7ce"/>
        </g>
        <g id="Grupo_81605" data-name="Grupo 81605" transform="translate(10.329 1.008)">
          <path id="Trazado_102219" data-name="Trazado 102219" d="M5.413,242.619H9.1l-.28-1.044a1.036,1.036,0,0,0-.805-.675l-1.4-.4-.009.016-.479-.445h0v-.35a1.182,1.182,0,0,0,.581-.68l.039-.15h0s.043-.157.094-.367c.318.045.329-.747.329-.747a.153.153,0,0,0-.175-.106c0-.023,0-.045,0-.065,0,0,.609-2.539-1.7-2.458,0,0-.84.121-.921.586a.654.654,0,0,0-.461.5,6.841,6.841,0,0,0-.05,1.45.163.163,0,0,0-.221.1s.035.8.36.746c.024.091.053.181.085.269s.04.159.063.249a1.183,1.183,0,0,0,.581.68v.327l0,0-.542.5-1.339.35h0l1.249.358a1.422,1.422,0,0,1,1.114.945l.111.415h.1Z" transform="translate(-2.843 -235.147)" fill="#4ab7ce"/>
        </g>
      </g>
    </g>
    <g id="Grupo_81609" data-name="Grupo 81609" transform="translate(-333.856 166.818)">
      <g id="Grupo_81608" data-name="Grupo 81608" transform="translate(0)">
        <path id="Trazado_102220" data-name="Trazado 102220" d="M-257.861,320.816a9.578,9.578,0,0,1-9.578,9.578,9.577,9.577,0,0,1-9.577-9.578,9.577,9.577,0,0,1,9.577-9.577A9.578,9.578,0,0,1-257.861,320.816Z" transform="translate(277.016 -311.239)" fill="none" stroke="#4ab7ce" stroke-miterlimit="10" stroke-width="1.165" stroke-dasharray="2.365 2.365"/>
      </g>
      <path id="Trazado_102221" data-name="Trazado 102221" d="M-257.719,321.784h-9.817a.383.383,0,0,0-.383.383v6.374a.383.383,0,0,0,.383.383h6.13a1.766,1.766,0,0,1,.468,2.079s1.894-.717,2.229-2.079h.991a.383.383,0,0,0,.383-.383v-6.374A.382.382,0,0,0-257.719,321.784Zm-.942,5.134h-7.932a.182.182,0,0,1-.182-.181.182.182,0,0,1,.182-.182h7.932a.182.182,0,0,1,.181.182A.181.181,0,0,1-258.661,326.918Zm0-1.383h-7.932a.182.182,0,0,1-.182-.181.182.182,0,0,1,.182-.181h7.932a.181.181,0,0,1,.181.181A.181.181,0,0,1-258.661,325.535Zm0-1.383h-7.932a.182.182,0,0,1-.182-.181.182.182,0,0,1,.182-.181h7.932a.181.181,0,0,1,.181.181A.181.181,0,0,1-258.661,324.153Z" transform="translate(272.204 -316.816)" fill="#4ab7ce"/>
    </g>
    <g id="Grupo_81612" data-name="Grupo 81612" transform="translate(-384.48 126.657)">
      <g id="Grupo_81610" data-name="Grupo 81610">
        <path id="Trazado_102222" data-name="Trazado 102222" d="M-365.326,235.564a9.577,9.577,0,0,1-9.577,9.577,9.576,9.576,0,0,1-9.577-9.577,9.577,9.577,0,0,1,9.577-9.577A9.577,9.577,0,0,1-365.326,235.564Z" transform="translate(384.48 -225.987)" fill="none" stroke="#4ab7ce" stroke-miterlimit="10" stroke-width="1.165" stroke-dasharray="2.365 2.365"/>
      </g>
      <g id="Grupo_81611" data-name="Grupo 81611" transform="translate(3.729 5.503)">
        <path id="Trazado_102223" data-name="Trazado 102223" d="M-368.379,247.089l-1.7,1.482-1.687-1.552-3.577,3.744h10.6a.5.5,0,0,0,.173-.031Z" transform="translate(375.916 -242.614)" fill="#4ab7ce"/>
        <path id="Trazado_102224" data-name="Trazado 102224" d="M-359.315,242.57l3.569,3.41v-6.53Z" transform="translate(367.441 -238.611)" fill="#4ab7ce"/>
        <path id="Trazado_102225" data-name="Trazado 102225" d="M-370.258,242.694l5.631-4.923a.515.515,0,0,0-.309-.1h-10.655a.516.516,0,0,0-.115.013Z" transform="translate(376.11 -237.669)" fill="#4ab7ce"/>
        <path id="Trazado_102226" data-name="Trazado 102226" d="M-376.565,238.907v7.039l3.58-3.747Z" transform="translate(376.565 -238.324)" fill="#4ab7ce"/>
      </g>
    </g>
    <g id="Grupo_81618" data-name="Grupo 81618" transform="translate(-242.114 122.583)">
      <g id="Grupo_81613" data-name="Grupo 81613" transform="translate(0)">
        <circle id="Elipse_4223" data-name="Elipse 4223" cx="9.577" cy="9.577" r="9.577" fill="none" stroke="#4ab7ce" stroke-miterlimit="10" stroke-width="1.165" stroke-dasharray="2.365 2.365"/>
      </g>
      <g id="Grupo_81617" data-name="Grupo 81617" transform="translate(3.167 4.455)">
        <g id="Grupo_81614" data-name="Grupo 81614">
          <path id="Trazado_102227" data-name="Trazado 102227" d="M-62.938,230.526a.68.68,0,0,1-.961-.031,7.437,7.437,0,0,0-10.5-.334.678.678,0,0,1-.961-.03.679.679,0,0,1,.03-.961,8.8,8.8,0,0,1,12.421.394A.68.68,0,0,1-62.938,230.526Z" transform="translate(75.543 -226.795)" fill="#4ab7ce"/>
        </g>
        <g id="Grupo_81615" data-name="Grupo 81615" transform="translate(1.379 2.275)">
          <path id="Trazado_102228" data-name="Trazado 102228" d="M-62.859,234.72a.68.68,0,0,1-.961-.03,5.419,5.419,0,0,0-7.651-.243.68.68,0,0,1-.961-.03.681.681,0,0,1,.03-.961,6.781,6.781,0,0,1,9.573.3A.68.68,0,0,1-62.859,234.72Z" transform="translate(72.616 -231.625)" fill="#4ab7ce"/>
        </g>
        <g id="Grupo_81616" data-name="Grupo 81616" transform="translate(2.681 4.697)">
          <path id="Trazado_102229" data-name="Trazado 102229" d="M-62.784,239.261a.68.68,0,0,1-.962-.03,3.515,3.515,0,0,0-4.961-.157.678.678,0,0,1-.961-.031.679.679,0,0,1,.031-.961,4.875,4.875,0,0,1,6.883.219A.68.68,0,0,1-62.784,239.261Z" transform="translate(69.852 -236.765)" fill="#4ab7ce"/>
        </g>
        <path id="Trazado_102230" data-name="Trazado 102230" d="M-62.722,242.561a1.522,1.522,0,0,1-.067,2.152,1.522,1.522,0,0,1-2.152-.069,1.522,1.522,0,0,1,.068-2.151A1.522,1.522,0,0,1-62.722,242.561Z" transform="translate(70.154 -234.88)" fill="#4ab7ce"/>
      </g>
    </g>
    <g id="Grupo_81626" data-name="Grupo 81626" transform="translate(-346.828 194.808)">
      <g id="Grupo_81619" data-name="Grupo 81619">
        <path id="Trazado_102231" data-name="Trazado 102231" d="M-285.4,380.234a9.577,9.577,0,0,1-9.577,9.577,9.577,9.577,0,0,1-9.577-9.577,9.577,9.577,0,0,1,9.577-9.577A9.577,9.577,0,0,1-285.4,380.234Z" transform="translate(304.553 -370.657)" fill="none" stroke="#4ab7ce" stroke-miterlimit="10" stroke-width="1.165" stroke-dasharray="2.365 2.365"/>
      </g>
      <g id="Grupo_81625" data-name="Grupo 81625" transform="translate(3.569 3.57)">
        <g id="Grupo_81620" data-name="Grupo 81620" transform="translate(0 4.547)">
          <path id="Trazado_102232" data-name="Trazado 102232" d="M-290.969,390.808c-2.078,0-6.008-.305-6.008-1.46s3.93-1.46,6.008-1.46,6.007.3,6.007,1.46S-288.892,390.808-290.969,390.808Zm0-2.437a20.49,20.49,0,0,0-4.027.351c-1.243.263-1.5.561-1.5.626s.254.363,1.5.625a20.447,20.447,0,0,0,4.027.352,20.439,20.439,0,0,0,4.027-.352c1.243-.262,1.5-.56,1.5-.625s-.254-.362-1.5-.626A20.482,20.482,0,0,0-290.969,388.371Z" transform="translate(296.977 -387.888)" fill="#4ab7ce"/>
        </g>
        <g id="Grupo_81621" data-name="Grupo 81621" transform="translate(0 2.068)">
          <path id="Trazado_102233" data-name="Trazado 102233" d="M-290.969,390.5c-3.312,0-6.008-1.767-6.008-3.94s2.7-3.94,6.008-3.94,6.007,1.767,6.007,3.94S-287.657,390.5-290.969,390.5Zm0-7.4c-3.046,0-5.524,1.551-5.524,3.457s2.478,3.457,5.524,3.457,5.524-1.551,5.524-3.457S-287.924,383.107-290.969,383.107Z" transform="translate(296.977 -382.624)" fill="#4ab7ce"/>
        </g>
        <g id="Grupo_81622" data-name="Grupo 81622" transform="translate(4.457)">
          <path id="Trazado_102234" data-name="Trazado 102234" d="M-285.965,390.249c-1.226,0-1.551-3.93-1.551-6.007s.325-6.007,1.551-6.007,1.55,3.93,1.55,6.007S-284.738,390.249-285.965,390.249Zm0-11.531c-.362,0-1.067,1.949-1.067,5.524s.705,5.524,1.067,5.524,1.067-1.95,1.067-5.524S-285.6,378.718-285.965,378.718Z" transform="translate(287.516 -378.235)" fill="#4ab7ce"/>
        </g>
        <g id="Grupo_81623" data-name="Grupo 81623" transform="translate(2.068)">
          <path id="Trazado_102235" data-name="Trazado 102235" d="M-288.648,390.249c-2.172,0-3.94-2.7-3.94-6.007s1.768-6.007,3.94-6.007,3.939,2.7,3.939,6.007S-286.476,390.249-288.648,390.249Zm0-11.531c-1.906,0-3.457,2.478-3.457,5.524s1.551,5.524,3.457,5.524,3.456-2.479,3.456-5.524S-286.743,378.718-288.648,378.718Z" transform="translate(292.588 -378.235)" fill="#4ab7ce"/>
        </g>
        <g id="Grupo_81624" data-name="Grupo 81624">
          <path id="Trazado_102236" data-name="Trazado 102236" d="M-290.969,390.249a6.015,6.015,0,0,1-6.008-6.007,6.015,6.015,0,0,1,6.008-6.007,6.014,6.014,0,0,1,6.007,6.007A6.014,6.014,0,0,1-290.969,390.249Zm0-11.531a5.531,5.531,0,0,0-5.524,5.524,5.531,5.531,0,0,0,5.524,5.524,5.531,5.531,0,0,0,5.524-5.524A5.531,5.531,0,0,0-290.969,378.718Z" transform="translate(296.977 -378.235)" fill="#4ab7ce"/>
        </g>
      </g>
    </g>
    <g id="Grupo_81628" data-name="Grupo 81628" transform="translate(-249.683 47.791)">
      <g id="Grupo_81627" data-name="Grupo 81627">
        <path id="Trazado_102237" data-name="Trazado 102237" d="M-79.18,68.148a9.577,9.577,0,0,1-9.577,9.577,9.578,9.578,0,0,1-9.578-9.577,9.578,9.578,0,0,1,9.578-9.577A9.577,9.577,0,0,1-79.18,68.148Z" transform="translate(98.334 -58.571)" fill="none" stroke="#4ab7ce" stroke-miterlimit="10" stroke-width="1.165" stroke-dasharray="2.365 2.365"/>
      </g>
      <path id="Trazado_102238" data-name="Trazado 102238" d="M-79.05,67.124h-5.676a.62.62,0,0,0-.62.62V77.6a.62.62,0,0,0,.62.62h5.676a.62.62,0,0,0,.62-.62V67.744A.62.62,0,0,0-79.05,67.124Zm-2.016,10.6h-1.644a.2.2,0,0,1-.2-.2.2.2,0,0,1,.2-.2h1.644a.2.2,0,0,1,.2.2A.2.2,0,0,1-81.065,77.723Zm1.482-1.393h-4.607V68.136h4.607Zm.444.463h-5.5V67.739h5.5Z" transform="translate(91.464 -63.095)" fill="#4ab7ce"/>
    </g>
    <g id="Grupo_81631" data-name="Grupo 81631" transform="translate(-255.747 196.269)">
      <g id="Grupo_81629" data-name="Grupo 81629">
        <path id="Trazado_102239" data-name="Trazado 102239" d="M-92.053,383.334a9.577,9.577,0,0,1-9.577,9.577,9.577,9.577,0,0,1-9.577-9.577,9.577,9.577,0,0,1,9.577-9.577A9.577,9.577,0,0,1-92.053,383.334Z" transform="translate(111.208 -373.757)" fill="none" stroke="#4ab7ce" stroke-miterlimit="10" stroke-width="1.165" stroke-dasharray="2.365 2.365"/>
      </g>
      <g id="Grupo_81630" data-name="Grupo 81630" transform="translate(4.57 3.951)">
        <path id="Trazado_102240" data-name="Trazado 102240" d="M-93.107,391.022h1.614l-.148.188a5.711,5.711,0,0,1-2.077,1.621,6.055,6.055,0,0,1-2.57.564,5.049,5.049,0,0,1-3.722-1.5,5.349,5.349,0,0,1-1.5-3.956,6.225,6.225,0,0,1,1.395-4.121,4.769,4.769,0,0,1,3.878-1.677,4.6,4.6,0,0,1,2.429.572,4.514,4.514,0,0,1,2.2,4.137,4.983,4.983,0,0,1-.878,2.867,2.947,2.947,0,0,1-2.506,1.458,1.008,1.008,0,0,1-1.05-.65,3.047,3.047,0,0,1-.651.478,1.785,1.785,0,0,1-.807.172,1.925,1.925,0,0,1-1.7-.893,3.39,3.39,0,0,1-.517-1.936,5.51,5.51,0,0,1,.689-2.711,2.451,2.451,0,0,1,2.174-1.489,1.7,1.7,0,0,1,1.408.728l.083-.524h1.483l-.854,5.4c0,.089.039.133.118.133a1.325,1.325,0,0,0,.924-.494,3.388,3.388,0,0,0,.594-.893,3.858,3.858,0,0,0,.322-1.645,3.531,3.531,0,0,0-.937-2.551,3.311,3.311,0,0,0-2.5-.975,3.9,3.9,0,0,0-2.965,1.234,4.641,4.641,0,0,0-1.164,3.318,4.485,4.485,0,0,0,1.058,3.1,3.789,3.789,0,0,0,2.985,1.246,4.89,4.89,0,0,0,3.158-1.167Zm-3.016-2.57a7.42,7.42,0,0,0,.266-1.9,1.658,1.658,0,0,0-.163-.775.664.664,0,0,0-.627-.4q-.8,0-1.215,1.347a6.663,6.663,0,0,0-.3,1.99,1.927,1.927,0,0,0,.173.846.712.712,0,0,0,.658.47.952.952,0,0,0,.838-.556A4.576,4.576,0,0,0-96.123,388.452Z" transform="translate(101.506 -382.145)" fill="#4ab7ce"/>
      </g>
    </g>
    <g id="Grupo_81634" data-name="Grupo 81634" transform="translate(-333.856 72.583)">
      <g id="Grupo_81632" data-name="Grupo 81632" transform="translate(0)">
        <path id="Trazado_102241" data-name="Trazado 102241" d="M-257.861,120.776a9.578,9.578,0,0,1-9.578,9.577,9.577,9.577,0,0,1-9.577-9.577,9.577,9.577,0,0,1,9.577-9.577A9.578,9.578,0,0,1-257.861,120.776Z" transform="translate(277.016 -111.199)" fill="none" stroke="#4ab7ce" stroke-miterlimit="10" stroke-width="1.165" stroke-dasharray="2.365 2.365"/>
      </g>
      <g id="Grupo_81633" data-name="Grupo 81633" transform="translate(2.196 4.272)">
        <path id="Trazado_102242" data-name="Trazado 102242" d="M-258.068,120.267h-10.414a.468.468,0,0,0-.469.468v7.274a.468.468,0,0,0,.469.468h10.414a.469.469,0,0,0,.469-.468v-7.274A.469.469,0,0,0-258.068,120.267Zm-.368,7.352h-9.677v-6.65h9.677Z" transform="translate(270.554 -120.267)" fill="#4ab7ce"/>
        <rect id="Rectángulo_14936" data-name="Rectángulo 14936" width="8.854" height="5.955" transform="translate(2.852 1.05)" fill="#4ab7ce"/>
        <rect id="Rectángulo_14937" data-name="Rectángulo 14937" width="14.762" height="0.348" transform="translate(0 10.263)" fill="#4ab7ce"/>
        <path id="Trazado_102243" data-name="Trazado 102243" d="M-259.4,138.4h-11.352l-1.6,1.439h14.762Zm-11.213.2h11.184l.639.521h-12.367Zm3.757,1.046.313-.413h3.11l.342.413Z" transform="translate(272.354 -129.858)" fill="#4ab7ce"/>
      </g>
    </g>
    <g id="Grupo_81637" data-name="Grupo 81637" transform="translate(-359.634 47.791)">
      <g id="Grupo_81635" data-name="Grupo 81635">
        <path id="Trazado_102244" data-name="Trazado 102244" d="M-312.582,68.148a9.577,9.577,0,0,1-9.578,9.577,9.577,9.577,0,0,1-9.577-9.577,9.577,9.577,0,0,1,9.577-9.577A9.578,9.578,0,0,1-312.582,68.148Z" transform="translate(331.737 -58.571)" fill="none" stroke="#4ab7ce" stroke-miterlimit="10" stroke-width="1.165" stroke-dasharray="2.365 2.365"/>
      </g>
      <g id="Grupo_81636" data-name="Grupo 81636" transform="translate(3.665 4.272)">
        <path id="Trazado_102245" data-name="Trazado 102245" d="M-314.543,74.682a2.793,2.793,0,0,0-2.793,2.793,2.793,2.793,0,0,0,2.793,2.793,2.793,2.793,0,0,0,2.793-2.793A2.793,2.793,0,0,0-314.543,74.682Zm1.218,4.443a2.089,2.089,0,0,0,.528-1.39,2.1,2.1,0,0,0-2.1-2.095,2.086,2.086,0,0,0-1.206.382,2.09,2.09,0,0,1,1.567-.705,2.1,2.1,0,0,1,2.1,2.1A2.092,2.092,0,0,1-313.325,79.125Z" transform="translate(320.455 -71.365)" fill="#4ab7ce"/>
        <path id="Trazado_102246" data-name="Trazado 102246" d="M-312.641,71.058H-323.45a.507.507,0,0,0-.507.507v7.987a.507.507,0,0,0,.507.507h10.809a.508.508,0,0,0,.508-.507V71.565A.507.507,0,0,0-312.641,71.058Zm-5.4,8.223a3.723,3.723,0,0,1-3.723-3.722,3.723,3.723,0,0,1,3.723-3.723,3.723,3.723,0,0,1,3.722,3.723A3.723,3.723,0,0,1-318.045,79.281Zm5.324-6.777h-2.532v-.761h2.532Z" transform="translate(323.957 -69.448)" fill="#4ab7ce"/>
        <path id="Trazado_102247" data-name="Trazado 102247" d="M-313.082,67.64h-4.586l-1.455,1.394h7.269Zm-.1.38h-4.411v-.177h4.411Z" transform="translate(321.4 -67.64)" fill="#4ab7ce"/>
      </g>
    </g>
  </g>
</svg>
