<svg xmlns="http://www.w3.org/2000/svg" xmlns:xlink="http://www.w3.org/1999/xlink" width="275.84" height="234.921" viewBox="0 0 275.84 234.921">
  <defs>
    <linearGradient id="linear-gradient" x1="1.13" y1="1.295" x2="0.236" y2="0.19" gradientUnits="objectBoundingBox">
      <stop offset="0" stop-color="#ffbc7c"/>
      <stop offset="1" stop-color="#f8e195"/>
    </linearGradient>
    <linearGradient id="linear-gradient-2" x1="0.52" y1="1.509" x2="0.468" y2="0.18" gradientUnits="objectBoundingBox">
      <stop offset="0" stop-color="#2b3582"/>
      <stop offset="1" stop-color="#150e42"/>
    </linearGradient>
    <linearGradient id="linear-gradient-3" x1="0.525" y1="0.297" x2="0.225" y2="5.135" xlink:href="#linear-gradient-2"/>
    <linearGradient id="linear-gradient-4" x1="0" y1="0.5" x2="1" y2="0.5" xlink:href="#linear-gradient-2"/>
    <linearGradient id="linear-gradient-5" x1="0.061" y1="-0.121" x2="1.252" y2="1.567" gradientUnits="objectBoundingBox">
      <stop offset="0" stop-color="#53d8ff"/>
      <stop offset="1" stop-color="#3840f7"/>
    </linearGradient>
    <linearGradient id="linear-gradient-6" y1="0.5" x2="1" y2="0.5" gradientUnits="objectBoundingBox">
      <stop offset="0" stop-color="#ff887c"/>
      <stop offset="1" stop-color="#f8c195"/>
    </linearGradient>
    <linearGradient id="linear-gradient-7" x1="0" y1="0.5" x2="1" y2="0.5" xlink:href="#linear-gradient-6"/>
    <linearGradient id="linear-gradient-8" x1="0" y1="0.5" x2="1" y2="0.5" xlink:href="#linear-gradient-6"/>
    <linearGradient id="linear-gradient-9" x1="0" y1="0.5" x2="1" y2="0.5" xlink:href="#linear-gradient-6"/>
    <linearGradient id="linear-gradient-11" x1="0" y1="0.5" x2="1" y2="0.5" xlink:href="#linear-gradient-6"/>
    <linearGradient id="linear-gradient-12" x1="0.681" y1="-0.275" x2="0.309" y2="1.315" gradientUnits="objectBoundingBox">
      <stop offset="0" stop-color="#d55f37"/>
      <stop offset="1" stop-color="#efb449"/>
    </linearGradient>
    <linearGradient id="linear-gradient-13" x1="0" y1="0.5" x2="1" y2="0.5" xlink:href="#linear-gradient-6"/>
    <linearGradient id="linear-gradient-16" x1="0.001" y1="0.5" x2="1" y2="0.5" xlink:href="#linear-gradient-6"/>
    <linearGradient id="linear-gradient-18" x1="0" y1="0.5" x2="1" y2="0.5" xlink:href="#linear-gradient-6"/>
    <linearGradient id="linear-gradient-19" x1="0.724" y1="-0.451" x2="0.375" y2="1.031" xlink:href="#linear-gradient-12"/>
    <linearGradient id="linear-gradient-20" x1="0.799" y1="-0.181" x2="-0.228" y2="2.16" gradientUnits="objectBoundingBox">
      <stop offset="0" stop-color="#405fe2"/>
      <stop offset="1" stop-color="#4f72ff"/>
    </linearGradient>
    <linearGradient id="linear-gradient-21" y1="0.5" x2="1" y2="0.5" gradientUnits="objectBoundingBox">
      <stop offset="0" stop-color="#daeffe"/>
      <stop offset="1" stop-color="#e9f5fd"/>
    </linearGradient>
    <linearGradient id="linear-gradient-22" x1="0" y1="0.5" x2="1" y2="0.5" xlink:href="#linear-gradient-21"/>
    <linearGradient id="linear-gradient-23" x1="0" y1="0.5" x2="1" y2="0.5" xlink:href="#linear-gradient-21"/>
    <linearGradient id="linear-gradient-25" x1="1.988" y1="-2.841" x2="-0.479" y2="2.65" xlink:href="#linear-gradient-20"/>
    <linearGradient id="linear-gradient-26" x1="205.257" y1="185.281" x2="206.257" y2="185.281" gradientUnits="objectBoundingBox">
      <stop offset="0" stop-color="#53ffef"/>
      <stop offset="1" stop-color="#3862f7"/>
    </linearGradient>
    <linearGradient id="linear-gradient-27" x1="1.257" y1="-1.365" x2="-0.581" y2="3.163" xlink:href="#linear-gradient-20"/>
    <linearGradient id="linear-gradient-28" x1="0" y1="0.5" x2="1" y2="0.5" xlink:href="#linear-gradient-20"/>
    <linearGradient id="linear-gradient-33" x1="0" y1="0.5" x2="1" y2="0.5" xlink:href="#linear-gradient-21"/>
    <linearGradient id="linear-gradient-35" x1="203.496" y1="187.417" x2="204.496" y2="187.417" xlink:href="#linear-gradient-26"/>
    <linearGradient id="linear-gradient-37" x1="0" y1="0.5" x2="1" y2="0.5" xlink:href="#linear-gradient-21"/>
    <linearGradient id="linear-gradient-39" x1="0" y1="0.5" x2="1" y2="0.5" xlink:href="#linear-gradient-21"/>
    <linearGradient id="linear-gradient-42" x1="0" y1="0.5" x2="1" y2="0.5" xlink:href="#linear-gradient-20"/>
    <linearGradient id="linear-gradient-47" x1="0" y1="0.5" x2="1" y2="0.5" xlink:href="#linear-gradient-21"/>
    <linearGradient id="linear-gradient-48" x1="0" y1="0.5" x2="1" y2="0.5" xlink:href="#linear-gradient-21"/>
    <linearGradient id="linear-gradient-49" x1="0" y1="0.5" x2="1" y2="0.5" xlink:href="#linear-gradient-21"/>
    <linearGradient id="linear-gradient-50" x1="1.988" y1="-2.841" x2="-0.479" y2="2.65" xlink:href="#linear-gradient-20"/>
    <linearGradient id="linear-gradient-51" x1="201.752" y1="188.646" x2="202.755" y2="188.646" xlink:href="#linear-gradient-26"/>
    <linearGradient id="linear-gradient-53" x1="0.803" y1="-0.18" x2="-0.238" y2="2.158" xlink:href="#linear-gradient-20"/>
    <linearGradient id="linear-gradient-57" x1="0" y1="0.5" x2="1" y2="0.5" xlink:href="#linear-gradient-21"/>
    <linearGradient id="linear-gradient-59" x1="0" y1="0.5" x2="1" y2="0.5" xlink:href="#linear-gradient-21"/>
    <linearGradient id="linear-gradient-60" x1="1.988" y1="-2.841" x2="-0.479" y2="2.65" xlink:href="#linear-gradient-20"/>
    <linearGradient id="linear-gradient-61" x1="199.028" y1="192.138" x2="200.028" y2="192.138" xlink:href="#linear-gradient-26"/>
    <linearGradient id="linear-gradient-68" x1="0" y1="0.5" x2="1" y2="0.5" xlink:href="#linear-gradient-21"/>
    <linearGradient id="linear-gradient-69" x1="1.988" y1="-2.841" x2="-0.479" y2="2.65" xlink:href="#linear-gradient-26"/>
    <linearGradient id="linear-gradient-70" x1="197.1" y1="194.584" x2="198.104" y2="194.584" xlink:href="#linear-gradient-26"/>
    <linearGradient id="linear-gradient-71" x1="1.257" y1="-1.365" x2="-0.581" y2="3.163" xlink:href="#linear-gradient-26"/>
    <linearGradient id="linear-gradient-75" x1="0" y1="0.5" x2="1" y2="0.5" xlink:href="#linear-gradient-21"/>
    <linearGradient id="linear-gradient-76" x1="0.562" y1="-0.429" x2="0.505" y2="0.65" gradientUnits="objectBoundingBox">
      <stop offset="0" stop-color="#5ab6ff"/>
      <stop offset="1" stop-color="#2f68e3"/>
    </linearGradient>
    <linearGradient id="linear-gradient-77" x1="0.548" y1="0.417" x2="0.384" y2="1.597" xlink:href="#linear-gradient-5"/>
    <linearGradient id="linear-gradient-78" x1="-523.382" y1="0.5" x2="-522.382" y2="0.5" xlink:href="#linear-gradient-5"/>
    <linearGradient id="linear-gradient-79" x1="-538.541" y1="0.5" x2="-537.541" y2="0.5" xlink:href="#linear-gradient-2"/>
    <linearGradient id="linear-gradient-80" x1="-1858.108" y1="0.5" x2="-1857.108" y2="0.5" gradientUnits="objectBoundingBox">
      <stop offset="0" stop-color="#f9b776"/>
      <stop offset="1" stop-color="#f47960"/>
    </linearGradient>
    <linearGradient id="linear-gradient-81" x1="-1365.778" y1="0.5" x2="-1364.778" y2="0.5" xlink:href="#linear-gradient-5"/>
    <linearGradient id="linear-gradient-82" x1="-930.529" y1="0.5" x2="-929.529" y2="0.5" xlink:href="#linear-gradient-2"/>
    <linearGradient id="linear-gradient-83" x1="-1554.682" y1="0.5" x2="-1553.682" y2="0.5" xlink:href="#linear-gradient-80"/>
    <linearGradient id="linear-gradient-84" x1="-209.421" y1="0.066" x2="-210.577" y2="1.243" gradientUnits="objectBoundingBox">
      <stop offset="0" stop-color="#cb236d"/>
      <stop offset="1" stop-color="#4c246d"/>
    </linearGradient>
    <linearGradient id="linear-gradient-85" x1="1.21" y1="-19.619" x2="0.741" y2="-6.323" xlink:href="#linear-gradient-84"/>
    <linearGradient id="linear-gradient-86" x1="-341.287" y1="0.308" x2="-342.158" y2="1.354" xlink:href="#linear-gradient-80"/>
    <linearGradient id="linear-gradient-87" x1="0.564" y1="0.086" x2="-0.072" y2="1.841" gradientUnits="objectBoundingBox">
      <stop offset="0" stop-color="#fdf53f"/>
      <stop offset="1" stop-color="#d93c65"/>
    </linearGradient>
    <linearGradient id="linear-gradient-88" x1="20.464" y1="-11.623" x2="-12.148" y2="8.18" xlink:href="#linear-gradient-87"/>
    <linearGradient id="linear-gradient-89" x1="-977.423" y1="1.478" x2="-977.151" y2="0.434" xlink:href="#linear-gradient-80"/>
    <linearGradient id="linear-gradient-90" x1="-698.484" y1="0.35" x2="-699.596" y2="1.106" xlink:href="#linear-gradient-80"/>
    <linearGradient id="linear-gradient-91" x1="-506.045" y1="0.152" x2="-505.295" y2="1.129" xlink:href="#linear-gradient-2"/>
    <linearGradient id="linear-gradient-92" x1="-2859.118" y1="-0.685" x2="-2863.668" y2="1.784" xlink:href="#linear-gradient-80"/>
    <linearGradient id="linear-gradient-93" x1="-386.413" y1="-0.752" x2="-386.766" y2="0.28" xlink:href="#linear-gradient-80"/>
    <linearGradient id="linear-gradient-94" x1="48.726" y1="-4.334" x2="48.154" y2="-1.249" xlink:href="#linear-gradient-80"/>
    <linearGradient id="linear-gradient-95" x1="59.369" y1="102.494" x2="58.63" y2="104.957" xlink:href="#linear-gradient-2"/>
    <linearGradient id="linear-gradient-96" x1="45.753" y1="0.133" x2="45.355" y2="0.802" xlink:href="#linear-gradient-2"/>
    <linearGradient id="linear-gradient-97" x1="455.435" y1="-0.305" x2="453.613" y2="1.584" xlink:href="#linear-gradient-5"/>
  </defs>
  <g id="Grupo_85861" data-name="Grupo 85861" transform="translate(-1860.436 -1731.055)">
    <g id="Grupo_85819" data-name="Grupo 85819" transform="translate(1871.255 1731.195)">
      <path id="Trazado_138572" data-name="Trazado 138572" d="M2075.893,1932.927a84.315,84.315,0,0,1-12.9,10.864c-42.1,30.2-91.906,21.4-102.491,19.25-15.633-3.175-45.849-9.312-67.7-35-33.051-38.868-27.9-100.1-2.267-140.525,4.689-7.394,29.46-48.432,79.806-55.014,30.469-3.983,65.987,4.05,91.707,25.6C2116.037,1803.332,2112.194,1894.71,2075.893,1932.927Z" transform="translate(-1869.647 -1731.114)" opacity="0.3" fill="url(#linear-gradient)"/>
      <g id="Grupo_85809" data-name="Grupo 85809" transform="translate(6.128 44.912)">
        <g id="Grupo_85805" data-name="Grupo 85805">
          <path id="Trazado_138573" data-name="Trazado 138573" d="M1945.429,1873.07l-5.627,50.469h65.288l-8.5-50.469Z" transform="translate(-1863.526 -1751.311)" fill="url(#linear-gradient-2)"/>
          <path id="Trazado_138574" data-name="Trazado 138574" d="M2022.175,1926.932h-95.554c-2.6,0-4.546-1.847-4.044-3.833l1.227-4.85a3.952,3.952,0,0,1,3.879-2.588l92.117-2.874c1.991-.062,3.754.994,4.188,2.51l2.211,7.723C2026.771,1925.027,2024.812,1926.932,2022.175,1926.932Z" transform="translate(-1866.547 -1744.377)" fill="url(#linear-gradient-3)"/>
          <path id="Trazado_138575" data-name="Trazado 138575" d="M1874.864,1782.3v115.588a17.535,17.535,0,0,0,17.083,17.53c42.218,1.088,150.957,3.728,191.145,3.135a12.9,12.9,0,0,0,12.7-12.534c.775-26.853,2.034-91.424-2.624-121.4a13.276,13.276,0,0,0-12.7-11.239c-35.373-1.131-152.981-4.725-193.151-3.822A12.745,12.745,0,0,0,1874.864,1782.3Z" transform="translate(-1874.864 -1769.41)" fill="url(#linear-gradient-4)"/>
          <path id="Trazado_138576" data-name="Trazado 138576" d="M1881.039,1781.069v109.816a10.16,10.16,0,0,0,10.008,10.159l185.186,2.769a9.888,9.888,0,0,0,10.035-9.85l.376-108.835a7.23,7.23,0,0,0-7.056-7.255l-190.524-4.636A7.835,7.835,0,0,0,1881.039,1781.069Z" transform="translate(-1873.786 -1768.743)" fill="url(#linear-gradient-5)"/>
          <path id="Trazado_138577" data-name="Trazado 138577" d="M2088,1888.921h-.006l-206.917-4.189a.287.287,0,1,1,.012-.573L2088,1888.348a.287.287,0,0,1,0,.573Z" transform="translate(-1873.828 -1749.375)" fill="#fff" opacity="0.65"/>
          <path id="Trazado_138578" data-name="Trazado 138578" d="M1969.843,1916.425a.287.287,0,0,1,0-.573l3.948-.058h0a.287.287,0,0,1,0,.573l-3.947.058Z" transform="translate(-1858.331 -1743.851)" fill="#fff"/>
          <path id="Trazado_138579" data-name="Trazado 138579" d="M1925.619,1923.687a.32.32,0,0,1-.046,0,.287.287,0,0,1-.237-.328l.563-3.527a3.908,3.908,0,0,1,3.81-3.3l41.868-.613a.3.3,0,0,1,.29.283.286.286,0,0,1-.282.29l-41.867.613a3.337,3.337,0,0,0-3.253,2.816l-.563,3.526A.287.287,0,0,1,1925.619,1923.687Z" transform="translate(-1866.052 -1743.83)" fill="#fff"/>
        </g>
        <circle id="Elipse_4421" data-name="Elipse 4421" cx="3.466" cy="3.466" r="3.466" transform="translate(27.577 18.803)" fill="#fff"/>
        <circle id="Elipse_4422" data-name="Elipse 4422" cx="3.466" cy="3.466" r="3.466" transform="translate(27.577 37.143)" fill="#fff"/>
        <circle id="Elipse_4423" data-name="Elipse 4423" cx="3.466" cy="3.466" r="3.466" transform="translate(27.577 55.483)" fill="#fff"/>
        <circle id="Elipse_4424" data-name="Elipse 4424" cx="3.466" cy="3.466" r="3.466" transform="translate(27.577 73.823)" fill="#fff"/>
        <circle id="Elipse_4425" data-name="Elipse 4425" cx="3.466" cy="3.466" r="3.466" transform="translate(27.577 94.169)" fill="#fff"/>
        <circle id="Elipse_4426" data-name="Elipse 4426" cx="3.466" cy="3.466" r="3.466" transform="translate(27.577 112.509)" fill="#fff"/>
        <rect id="Rectángulo_15617" data-name="Rectángulo 15617" width="4.012" height="122.362" rx="1.708" transform="translate(43.051 8.719)" fill="#fff" opacity="0.7"/>
        <g id="Grupo_85806" data-name="Grupo 85806" transform="translate(52.794 31.071)" opacity="0.6">
          <rect id="Rectángulo_15618" data-name="Rectángulo 15618" width="102.302" height="4.012" rx="1.708" fill="#fff"/>
          <rect id="Rectángulo_15619" data-name="Rectángulo 15619" width="37.922" height="4.012" rx="1.708" transform="translate(0 13.005)" fill="#fff"/>
          <rect id="Rectángulo_15620" data-name="Rectángulo 15620" width="37.922" height="4.012" rx="1.708" transform="translate(108.893 38.71)" fill="#fff"/>
          <rect id="Rectángulo_15621" data-name="Rectángulo 15621" width="37.922" height="4.012" rx="1.708" transform="translate(58.431 51.472)" fill="#fff"/>
          <rect id="Rectángulo_15622" data-name="Rectángulo 15622" width="23.402" height="4.012" rx="1.708" transform="translate(44.13 63.098)" fill="#fff"/>
          <rect id="Rectángulo_15623" data-name="Rectángulo 15623" width="23.402" height="4.012" rx="1.708" transform="translate(1.433 73.701)" fill="#fff"/>
          <rect id="Rectángulo_15624" data-name="Rectángulo 15624" width="37.922" height="4.012" rx="1.708" transform="translate(1.433 63.098)" fill="#fff"/>
          <rect id="Rectángulo_15625" data-name="Rectángulo 15625" width="62.661" height="4.012" rx="1.708" transform="translate(72.691 63.098)" fill="#fff"/>
          <rect id="Rectángulo_15626" data-name="Rectángulo 15626" width="54.924" height="4.012" rx="1.708" transform="translate(87.114 25.873)" fill="#fff"/>
          <rect id="Rectángulo_15627" data-name="Rectángulo 15627" width="54.924" height="4.012" rx="1.708" transform="translate(0 51.472)" fill="#fff"/>
          <rect id="Rectángulo_15628" data-name="Rectángulo 15628" width="82.052" height="4.012" rx="1.708" transform="translate(42.984 13.005)" fill="#fff"/>
          <rect id="Rectángulo_15629" data-name="Rectángulo 15629" width="82.052" height="4.012" rx="1.708" transform="translate(0 25.873)" fill="#fff"/>
          <rect id="Rectángulo_15630" data-name="Rectángulo 15630" width="102.302" height="4.012" rx="1.708" transform="translate(0 38.71)" fill="#fff"/>
        </g>
        <g id="Grupo_85807" data-name="Grupo 85807" transform="translate(59.281 16.563)">
          <path id="Trazado_138580" data-name="Trazado 138580" d="M1929.6,1791l-4.271-3.167.083-1,4.74-2.394-.121,1.438-3.268,1.573,2.958,2.109Z" transform="translate(-1925.333 -1783.349)" fill="#fff"/>
          <path id="Trazado_138581" data-name="Trazado 138581" d="M1935.45,1783.65l-4.271,9.05-1.636-.137,4.271-9.052Z" transform="translate(-1924.598 -1783.511)" fill="#fff"/>
          <path id="Trazado_138582" data-name="Trazado 138582" d="M1934.761,1790.038l3.287-1.583-2.977-2.1.121-1.438,4.272,3.154-.083,1-4.74,2.407Z" transform="translate(-1923.708 -1783.265)" fill="#fff"/>
        </g>
        <g id="Grupo_85808" data-name="Grupo 85808" transform="translate(55.606 114.846)">
          <path id="Trazado_138583" data-name="Trazado 138583" d="M1926.475,1874.672l-4.271-3.167.083-1,4.741-2.394-.122,1.438-3.267,1.573,2.956,2.11Z" transform="translate(-1922.204 -1867.023)" fill="#fff"/>
          <path id="Trazado_138584" data-name="Trazado 138584" d="M1932.321,1867.323l-4.271,9.05-1.636-.137,4.271-9.051Z" transform="translate(-1921.469 -1867.185)" fill="#fff"/>
          <path id="Trazado_138585" data-name="Trazado 138585" d="M1931.631,1873.712l3.289-1.584-2.978-2.1.121-1.438,4.272,3.154-.083,1-4.742,2.407Z" transform="translate(-1920.579 -1866.939)" fill="#fff"/>
        </g>
      </g>
      <g id="Grupo_85818" data-name="Grupo 85818" transform="translate(127.019)">
        <g id="Grupo_85813" data-name="Grupo 85813" transform="translate(32.47 17.675)">
          <g id="Grupo_85810" data-name="Grupo 85810" transform="translate(0 25.701)" opacity="0.24">
            <path id="Trazado_138586" data-name="Trazado 138586" d="M2007.352,1768.1a.56.56,0,0,0-.54.4q-.132.434-.253.873a.559.559,0,1,0,1.078.3q.116-.424.245-.845a.56.56,0,0,0-.373-.7A.553.553,0,0,0,2007.352,1768.1Z" transform="translate(-2005.234 -1768.102)" fill="url(#linear-gradient-6)"/>
            <path id="Trazado_138587" data-name="Trazado 138587" d="M2006.735,1771.252a.56.56,0,0,1,.444.655c-.109.572-.207,1.157-.288,1.737a.56.56,0,0,1-1.109-.156c.085-.6.184-1.2.3-1.792a.559.559,0,0,1,.553-.453A.592.592,0,0,1,2006.735,1771.252Zm-.653,4.649a.559.559,0,0,1,.525.591c-.034.584-.055,1.176-.061,1.761a.561.561,0,0,1-.565.554h0a.559.559,0,0,1-.553-.565c.006-.6.027-1.215.063-1.816a.56.56,0,0,1,.564-.526Zm.549,5.213c.041.585.1,1.175.164,1.754a.559.559,0,0,1-1.111.131c-.071-.6-.127-1.205-.169-1.808a.56.56,0,0,1,.519-.6h.045A.559.559,0,0,1,2006.631,1781.114Zm.613,4.58c.115.572.245,1.15.389,1.717a.56.56,0,0,1-1.085.274c-.148-.586-.282-1.181-.4-1.771a.559.559,0,0,1,.439-.658.566.566,0,0,1,.115-.012A.559.559,0,0,1,2007.244,1785.694Zm1.2,4.461c.188.553.392,1.109.608,1.653a.56.56,0,0,1-1.041.412c-.222-.56-.433-1.135-.627-1.7a.56.56,0,1,1,1.059-.36Zm1.77,4.268c.259.525.535,1.05.82,1.562a.559.559,0,1,1-.977.544c-.3-.527-.579-1.07-.846-1.61a.559.559,0,0,1,1-.5Zm2.312,4.005c.325.486.666.97,1.015,1.441a.559.559,0,0,1-.9.666c-.359-.485-.712-.986-1.047-1.486a.559.559,0,1,1,.93-.621Zm2.811,3.671c.385.441.786.877,1.191,1.3a.559.559,0,0,1-.8.776c-.418-.433-.832-.885-1.229-1.339a.559.559,0,0,1,.842-.735Zm3.258,3.277c.439.388.893.77,1.348,1.133a.56.56,0,0,1-.7.874c-.47-.376-.938-.769-1.391-1.169a.56.56,0,0,1,.741-.839Zm3.652,2.831c.485.328.983.647,1.481.95a.559.559,0,1,1-.58.956c-.514-.311-1.028-.641-1.528-.98a.56.56,0,1,1,.627-.927Zm37.578,2.125a.559.559,0,0,1-.228.757c-.533.286-1.08.561-1.623.818a.559.559,0,1,1-.478-1.01c.526-.25,1.055-.517,1.572-.794a.576.576,0,0,1,.27-.067A.559.559,0,0,1,2059.823,1810.332Zm-33.593.211c.522.262,1.057.515,1.59.75a.559.559,0,0,1-.452,1.023c-.55-.243-1.1-.5-1.641-.774a.559.559,0,1,1,.5-1Zm29.351,1.8a.558.558,0,0,1-.324.721c-.563.214-1.141.416-1.716.6a.56.56,0,0,1-.343-1.065c.558-.18,1.117-.376,1.662-.582a.546.546,0,0,1,.2-.036A.556.556,0,0,1,2055.581,1812.342Zm-25.1,0c.552.193,1.115.374,1.673.537a.56.56,0,1,1-.316,1.073c-.574-.169-1.156-.356-1.726-.554a.56.56,0,0,1,.189-1.088A.57.57,0,0,1,2030.481,1812.345Zm20.632,1.439a.558.558,0,0,1-.416.673c-.588.139-1.187.264-1.78.372a.559.559,0,0,1-.2-1.1c.574-.106,1.155-.228,1.726-.362a.586.586,0,0,1,.134-.015A.559.559,0,0,1,2051.113,1813.783Zm-16.184-.205c.568.119,1.153.224,1.731.316a.559.559,0,0,1-.173,1.105c-.6-.094-1.2-.2-1.788-.327a.559.559,0,0,1,.119-1.106A.5.5,0,0,1,2034.929,1813.578Zm11.566,1.056a.561.561,0,0,1-.5.613c-.525.054-1.058.1-1.583.128l-.229.013a.559.559,0,1,1-.058-1.117l.22-.013c.51-.031,1.026-.073,1.537-.124a.508.508,0,0,1,.062,0A.56.56,0,0,1,2046.5,1814.634Zm-6.992-.412c.583.045,1.175.074,1.759.089a.559.559,0,1,1-.028,1.118c-.6-.015-1.213-.046-1.815-.092a.559.559,0,0,1,.047-1.117Z" transform="translate(-2005.428 -1767.554)" fill="url(#linear-gradient-7)"/>
            <path id="Trazado_138588" data-name="Trazado 138588" d="M2054.3,1802.581a.558.558,0,0,0-.32.1c-.242.165-.487.328-.733.486a.56.56,0,0,0,.606.941q.382-.247.758-.5a.56.56,0,0,0-.311-1.022Z" transform="translate(-1997.123 -1762.082)" fill="url(#linear-gradient-8)"/>
          </g>
          <g id="Grupo_85811" data-name="Grupo 85811" transform="translate(14.486)" opacity="0.24">
            <path id="Trazado_138589" data-name="Trazado 138589" d="M2067.19,1782.765a.559.559,0,0,0-.555.456q-.081.434-.172.865a.56.56,0,0,0,1.095.232c.063-.3.122-.593.177-.892a.558.558,0,0,0-.446-.652A.459.459,0,0,0,2067.19,1782.765Z" transform="translate(-2009.259 -1739.841)" fill="url(#linear-gradient-9)"/>
            <path id="Trazado_138590" data-name="Trazado 138590" d="M2040.319,1746.228a.559.559,0,0,1-.015,1.118h0l-.323,0c-.467,0-.941,0-1.412.015a.559.559,0,0,1-.033-1.118c.485-.015.975-.02,1.457-.015Zm2.9.167c.591.059,1.187.131,1.773.217a.56.56,0,0,1-.162,1.108c-.569-.084-1.148-.155-1.721-.211a.559.559,0,0,1,.059-1.116Zm-6.97.538a.559.559,0,0,1-.5.615c-.572.062-1.151.139-1.721.228a.559.559,0,1,1-.173-1.105c.587-.093,1.184-.17,1.774-.235a.4.4,0,0,1,.066,0A.558.558,0,0,1,2036.249,1746.933Zm11.6.216c.579.133,1.161.282,1.732.443a.559.559,0,1,1-.3,1.076c-.552-.155-1.117-.3-1.679-.429a.559.559,0,0,1,.131-1.1A.537.537,0,0,1,2047.847,1747.149Zm-16.164.5a.561.561,0,0,1-.415.674c-.562.134-1.125.283-1.676.444a.56.56,0,0,1-.312-1.075c.569-.166,1.15-.319,1.729-.458a.6.6,0,0,1,.135-.015A.561.561,0,0,1,2031.683,1747.648Zm20.656.841c.555.2,1.113.427,1.659.659a.559.559,0,0,1-.438,1.029c-.53-.226-1.07-.441-1.608-.639a.559.559,0,0,1,.2-1.084A.533.533,0,0,1,2052.339,1748.489Zm-25.094.45a.558.558,0,0,1-.324.721c-.539.205-1.079.425-1.6.655a.56.56,0,1,1-.449-1.026c.543-.237,1.1-.464,1.656-.675a.542.542,0,0,1,.2-.036A.556.556,0,0,1,2027.246,1748.939Zm29.376,1.452c.524.274,1.049.564,1.563.866a.559.559,0,1,1-.566.964c-.5-.291-1.007-.573-1.514-.839a.559.559,0,1,1,.518-.991Zm-33.611.4a.56.56,0,0,1-.229.758c-.506.271-1.014.559-1.508.855a.559.559,0,0,1-.575-.96c.51-.305,1.033-.6,1.555-.882a.561.561,0,0,1,.757.229Zm37.619,2.034c.486.339.97.694,1.44,1.057a.559.559,0,1,1-.683.886c-.456-.351-.926-.7-1.4-1.026a.559.559,0,1,1,.64-.917Zm3.668,2.92c.439.4.875.813,1.3,1.232a.559.559,0,1,1-.79.792c-.407-.406-.83-.808-1.257-1.195a.56.56,0,0,1,.752-.829Zm3.27,3.363c.386.451.767.917,1.13,1.386a.56.56,0,0,1-.884.686c-.352-.455-.721-.907-1.1-1.345a.559.559,0,1,1,.851-.727Zm2.819,3.751c.325.5.644,1.008.944,1.52a.559.559,0,0,1-.964.567c-.291-.5-.6-.991-.916-1.474a.559.559,0,0,1,.936-.613Zm2.319,4.081c.259.534.51,1.083.743,1.63a.559.559,0,1,1-1.029.439c-.227-.53-.469-1.062-.721-1.58a.56.56,0,0,1,1.007-.49Zm1.776,4.345c.189.56.366,1.135.527,1.708a.559.559,0,1,1-1.076.3c-.157-.556-.329-1.112-.512-1.656a.561.561,0,0,1,.352-.708.594.594,0,0,1,.183-.029A.559.559,0,0,1,2074.482,1771.281Zm1.205,4.531c.115.582.219,1.175.305,1.762a.559.559,0,1,1-1.106.163c-.085-.568-.185-1.143-.3-1.708a.559.559,0,0,1,.439-.658.653.653,0,0,1,.115-.01A.56.56,0,0,1,2075.687,1775.812Zm.619,4.648c.008.121.016.243.023.364.028.473.047.951.058,1.421a.56.56,0,1,1-1.119.025c-.01-.457-.028-.921-.055-1.379-.007-.119-.015-.236-.023-.354a.56.56,0,0,1,.52-.6h.045A.559.559,0,0,1,2076.306,1780.46Zm-.5,4.1a.559.559,0,0,1,.526.591c-.033.593-.082,1.193-.145,1.782a.559.559,0,1,1-1.112-.118c.06-.571.108-1.152.14-1.728a.559.559,0,0,1,.564-.528Z" transform="translate(-2017.295 -1746.221)" fill="url(#linear-gradient-7)"/>
            <path id="Trazado_138591" data-name="Trazado 138591" d="M2019.047,1751.942a.552.552,0,0,0-.33.1q-.37.264-.733.537a.56.56,0,1,0,.672.9c.235-.176.471-.35.711-.52a.559.559,0,0,0-.32-1.015Z" transform="translate(-2017.76 -1745.223)" fill="url(#linear-gradient-11)"/>
          </g>
          <g id="Grupo_85812" data-name="Grupo 85812" transform="translate(8.762 9.029)">
            <path id="Trazado_138592" data-name="Trazado 138592" d="M2017.479,1766.571a.435.435,0,0,0-.038.5l2.743,4.527a23.1,23.1,0,0,0-2.219,7.132l-4.822,2.174a.436.436,0,0,0-.255.437l.58,6.322a.436.436,0,0,0,.33.383l5.137,1.26a23.093,23.093,0,0,0,3.479,6.611l-1.874,4.95a.435.435,0,0,0,.129.489l4.881,4.06a.435.435,0,0,0,.5.038l4.527-2.744a23.044,23.044,0,0,0,7.133,2.219l2.174,4.823a.434.434,0,0,0,.436.254l6.323-.58a.435.435,0,0,0,.383-.329l1.26-5.138a23.051,23.051,0,0,0,6.61-3.479l4.951,1.874a.435.435,0,0,0,.487-.128l4.061-4.88a.435.435,0,0,0,.038-.5l-2.742-4.527a23.09,23.09,0,0,0,2.219-7.133l4.822-2.173a.437.437,0,0,0,.255-.437l-.581-6.322a.434.434,0,0,0-.329-.383l-5.138-1.26a23.067,23.067,0,0,0-3.479-6.61l1.874-4.95a.434.434,0,0,0-.129-.489l-4.88-4.061a.434.434,0,0,0-.5-.038l-4.527,2.744a23.03,23.03,0,0,0-7.133-2.219l-2.174-4.823a.433.433,0,0,0-.436-.254l-6.323.579a.434.434,0,0,0-.382.33l-1.26,5.138a23.038,23.038,0,0,0-6.611,3.479l-4.949-1.875a.438.438,0,0,0-.489.129Z" transform="translate(-2012.887 -1753.908)" fill="url(#linear-gradient-12)"/>
            <path id="Trazado_138593" data-name="Trazado 138593" d="M2038.618,1772.683a6.071,6.071,0,1,1-.9-.074A6.05,6.05,0,0,1,2038.618,1772.683Zm2.112,10.206a5.189,5.189,0,0,0-2.25-9.322h0a5.19,5.19,0,1,0-1.61,10.254,5.274,5.274,0,0,0,.767.063A5.147,5.147,0,0,0,2040.73,1782.889Z" transform="translate(-2009.622 -1750.643)" fill="#fff"/>
            <path id="Trazado_138594" data-name="Trazado 138594" d="M2039.321,1764.637a15.544,15.544,0,0,0-1.579.066h0c-.211.019-.423.042-.633.071a15.748,15.748,0,0,0-2.184.45l-.061.018c-.123.035-.246.072-.368.11a.223.223,0,1,0,.134.426,15.193,15.193,0,0,1,3.152-.63h0a15.109,15.109,0,0,1,16.339,13c.03.215.054.432.074.65q.07.78.064,1.553a15.1,15.1,0,0,1-30.13,1.205,15.108,15.108,0,0,1,1.422-7.914.208.208,0,0,0,.022-.094.224.224,0,0,0-.425-.1,15.5,15.5,0,0,0-1.529,6.572q-.007.788.064,1.578a15.544,15.544,0,0,0,31.023-1.242,15.8,15.8,0,0,0-.066-1.6A15.567,15.567,0,0,0,2039.321,1764.637Z" transform="translate(-2011.014 -1752.035)" fill="#fff"/>
          </g>
        </g>
        <g id="Grupo_85817" data-name="Grupo 85817">
          <g id="Grupo_85814" data-name="Grupo 85814" transform="translate(0 15.521)" opacity="0.3">
            <path id="Trazado_138595" data-name="Trazado 138595" d="M1978.931,1744.388a.311.311,0,0,0-.3.221c-.076.251-.149.5-.216.761a.312.312,0,0,0,.6.16q.1-.372.21-.739a.312.312,0,0,0-.208-.39A.321.321,0,0,0,1978.931,1744.388Z" transform="translate(-1977.677 -1744.388)" fill="url(#linear-gradient-13)"/>
            <path id="Trazado_138596" data-name="Trazado 138596" d="M1978.531,1746.349a.312.312,0,0,1,.249.364c-.1.51-.174,1.03-.233,1.547a.312.312,0,1,1-.62-.07c.06-.531.141-1.067.24-1.591a.311.311,0,0,1,.309-.254A.294.294,0,0,1,1978.531,1746.349Zm-.4,3.146a.314.314,0,0,1,.3.325q-.014.337-.018.677c0,.295,0,.59.009.887a.311.311,0,0,1-.3.322.315.315,0,0,1-.322-.3c-.009-.3-.013-.609-.009-.911q0-.349.018-.7a.312.312,0,0,1,.315-.3Zm.4,3.45c.053.517.125,1.038.215,1.548a.312.312,0,0,1-.614.109c-.093-.525-.167-1.062-.222-1.594a.311.311,0,0,1,.278-.342.172.172,0,0,1,.035,0A.311.311,0,0,1,1978.524,1752.944Zm.541,3.077c.127.5.274,1.009.437,1.5a.312.312,0,1,1-.592.2c-.168-.506-.32-1.026-.45-1.545a.312.312,0,0,1,.226-.379.362.362,0,0,1,.079-.01A.312.312,0,0,1,1979.065,1756.021Zm.982,2.967c.2.479.418.958.652,1.424a.312.312,0,0,1-.558.28c-.24-.478-.465-.97-.671-1.465a.313.313,0,0,1,.169-.408.306.306,0,0,1,.122-.023A.31.31,0,0,1,1980.047,1758.989Zm1.4,2.794c.266.445.552.887.85,1.313a.312.312,0,1,1-.511.357c-.307-.438-.6-.893-.875-1.351a.312.312,0,1,1,.536-.32Zm1.795,2.561c.326.4.673.8,1.031,1.176a.312.312,0,0,1-.455.429c-.369-.391-.725-.8-1.061-1.211a.312.312,0,1,1,.484-.394Zm2.144,2.275c.38.35.781.692,1.189,1.016a.312.312,0,0,1-.387.489c-.421-.333-.832-.686-1.223-1.046a.312.312,0,0,1-.019-.44.307.307,0,0,1,.233-.1A.314.314,0,0,1,1985.39,1766.619Zm2.448,1.944c.427.29.872.571,1.323.834a.312.312,0,1,1-.313.539c-.464-.27-.922-.559-1.36-.859a.311.311,0,1,1,.351-.514Zm22.711,1.354a.312.312,0,0,1-.129.423c-.471.252-.958.488-1.447.7a.312.312,0,0,1-.253-.571c.475-.209.948-.439,1.407-.684a.3.3,0,0,1,.149-.036A.31.31,0,0,1,2010.549,1769.917Zm-20.009.215c.466.228.947.442,1.427.634a.312.312,0,1,1-.232.579c-.494-.2-.989-.418-1.47-.653a.312.312,0,0,1,.141-.592A.321.321,0,0,1,1990.54,1770.132Zm17.127,1.11a.311.311,0,0,1-.189.4c-.5.18-1.017.343-1.534.486a.312.312,0,0,1-.167-.6c.5-.14,1-.3,1.492-.472a.28.28,0,0,1,.107-.018A.31.31,0,0,1,2007.667,1771.242Zm-14.229.053c.5.158,1,.3,1.506.42a.312.312,0,0,1-.146.607c-.518-.125-1.04-.27-1.549-.433a.312.312,0,0,1,.189-.594Zm11.184.837a.311.311,0,0,1-.246.366c-.524.106-1.058.193-1.588.26a.313.313,0,0,1-.078-.62c.515-.065,1.035-.149,1.543-.251a.413.413,0,0,1,.065-.006A.312.312,0,0,1,2004.622,1772.132Zm-8.146-.108c.511.085,1.032.152,1.55.2a.312.312,0,1,1-.057.621c-.532-.047-1.068-.115-1.6-.2a.312.312,0,0,1,.054-.62A.333.333,0,0,1,1996.476,1772.024Zm5,.548a.312.312,0,0,1-.294.329c-.472.025-.951.035-1.425.031l-.185,0a.312.312,0,0,1,.009-.624h0l.178,0c.461,0,.926-.006,1.385-.031h.02A.31.31,0,0,1,2001.48,1772.573Z" transform="translate(-1977.785 -1744.046)" fill="url(#linear-gradient-7)"/>
            <path id="Trazado_138597" data-name="Trazado 138597" d="M2007.324,1765.224a.308.308,0,0,0-.177.054q-.318.217-.644.422a.312.312,0,0,0,.333.529c.223-.141.443-.287.661-.435a.312.312,0,0,0-.174-.57Z" transform="translate(-1972.796 -1740.75)" fill="url(#linear-gradient-7)"/>
          </g>
          <g id="Grupo_85815" data-name="Grupo 85815" transform="translate(8.756)" opacity="0.3">
            <path id="Trazado_138598" data-name="Trazado 138598" d="M2015.127,1753.048a.313.313,0,0,0-.31.259c-.043.252-.093.5-.147.754a.312.312,0,0,0,.611.13c.055-.257.106-.517.151-.776a.313.313,0,0,0-.254-.362A.256.256,0,0,0,2015.127,1753.048Z" transform="translate(-1980.101 -1727.354)" fill="url(#linear-gradient-16)"/>
            <path id="Trazado_138599" data-name="Trazado 138599" d="M1999.169,1731.174c.527.019,1.058.055,1.579.11a.312.312,0,1,1-.065.62c-.506-.053-1.023-.089-1.535-.106a.313.313,0,0,1,.013-.625Zm-1.26.3a.311.311,0,0,1-.3.323c-.163.007-.327.014-.491.025-.348.021-.7.049-1.044.087a.312.312,0,1,1-.067-.62c.356-.039.716-.068,1.074-.09.169-.01.338-.018.506-.025h.015A.313.313,0,0,1,1997.908,1731.478Zm4.407.027c.519.093,1.039.206,1.547.333a.312.312,0,1,1-.153.6c-.494-.125-1-.234-1.5-.324a.312.312,0,0,1,.057-.619A.391.391,0,0,1,2002.316,1731.505Zm-7.515.264a.312.312,0,0,1-.251.363c-.5.09-1.01.2-1.5.327a.312.312,0,1,1-.154-.6c.509-.129,1.029-.242,1.548-.336a.308.308,0,0,1,.058,0A.312.312,0,0,1,1994.8,1731.769Zm10.581.512c.5.166,1,.351,1.482.552a.312.312,0,1,1-.237.577c-.473-.2-.958-.376-1.441-.536a.312.312,0,0,1,.1-.608A.339.339,0,0,1,2005.381,1732.281Zm-13.616.216a.312.312,0,0,1-.2.395c-.486.161-.971.343-1.442.538a.312.312,0,1,1-.239-.576c.484-.2.983-.389,1.484-.554a.305.305,0,0,1,.1-.016A.311.311,0,0,1,1991.765,1732.5Zm16.539.99c.47.234.937.489,1.391.758a.312.312,0,0,1-.318.537c-.44-.261-.9-.509-1.351-.735a.312.312,0,0,1,.142-.592A.335.335,0,0,1,2008.3,1733.488Zm-19.439.165a.311.311,0,0,1-.139.418c-.457.23-.911.478-1.351.74a.312.312,0,1,1-.318-.537c.451-.269.918-.525,1.388-.761a.326.326,0,0,1,.143-.033A.313.313,0,0,1,1988.865,1733.652Zm22.161,1.446c.433.3.861.619,1.27.947a.312.312,0,0,1-.391.487c-.4-.319-.812-.628-1.233-.921a.312.312,0,0,1,.355-.513Zm2.468,1.98c.387.359.765.734,1.123,1.117a.312.312,0,0,1-.455.427c-.349-.371-.715-.737-1.092-1.085a.313.313,0,0,1,.215-.542A.318.318,0,0,1,2013.494,1737.079Zm2.165,2.309c.331.41.652.835.954,1.265a.313.313,0,0,1-.512.358c-.292-.418-.6-.832-.927-1.23a.313.313,0,0,1,.246-.509A.317.317,0,0,1,2015.659,1739.388Zm1.815,2.595c.27.452.527.92.765,1.388a.312.312,0,0,1-.558.281c-.229-.456-.479-.909-.742-1.348a.314.314,0,0,1,.107-.429.308.308,0,0,1,.163-.044A.313.313,0,0,1,2017.474,1741.983Zm1.427,2.827c.2.486.391.984.558,1.482a.312.312,0,0,1-.592.2c-.162-.484-.344-.968-.542-1.44a.311.311,0,0,1,.168-.408.3.3,0,0,1,.122-.025A.311.311,0,0,1,2018.9,1744.81Zm1.006,3c.132.509.246,1.029.341,1.546a.312.312,0,0,1-.614.112c-.092-.5-.2-1.008-.33-1.5a.311.311,0,0,1,.224-.379.318.318,0,0,1,.081-.011A.312.312,0,0,1,2019.908,1747.811Zm.568,3.112c.041.375.074.753.1,1.127.008.15.017.3.022.451a.314.314,0,0,1-.3.324.31.31,0,0,1-.324-.3c-.006-.147-.013-.292-.023-.438-.021-.364-.053-.733-.093-1.1a.313.313,0,0,1,.276-.345h.038A.311.311,0,0,1,2020.476,1750.923Zm-.177,2.84a.313.313,0,0,1,.3.322c-.016.526-.052,1.058-.106,1.58a.312.312,0,0,1-.62-.063c.052-.507.086-1.024.1-1.536a.313.313,0,0,1,.315-.3Z" transform="translate(-1984.948 -1731.174)" fill="url(#linear-gradient-7)"/>
            <path id="Trazado_138600" data-name="Trazado 138600" d="M1986.184,1734.5a.3.3,0,0,0-.181.057c-.216.15-.43.305-.64.463a.312.312,0,1,0,.375.5c.206-.154.412-.3.622-.451a.311.311,0,0,0-.176-.568Z" transform="translate(-1985.239 -1730.592)" fill="url(#linear-gradient-18)"/>
          </g>
          <g id="Grupo_85816" data-name="Grupo 85816" transform="translate(5.271 5.419)">
            <path id="Trazado_138601" data-name="Trazado 138601" d="M1985.046,1743.441a.261.261,0,0,0-.022.3l1.657,2.736a13.922,13.922,0,0,0-1.34,4.311l-2.914,1.313a.263.263,0,0,0-.154.264l.35,3.82a.261.261,0,0,0,.2.232l3.1.762a13.968,13.968,0,0,0,2.1,3.995l-1.132,2.992a.263.263,0,0,0,.078.295l2.949,2.454a.262.262,0,0,0,.3.022l2.736-1.657a13.95,13.95,0,0,0,4.311,1.342l1.314,2.914a.261.261,0,0,0,.263.153l3.821-.35a.264.264,0,0,0,.231-.2l.761-3.106a13.9,13.9,0,0,0,3.995-2.1l2.992,1.132a.261.261,0,0,0,.295-.078l2.454-2.949a.263.263,0,0,0,.023-.3l-1.659-2.736a13.936,13.936,0,0,0,1.342-4.311l2.914-1.313a.264.264,0,0,0,.154-.264l-.351-3.821a.261.261,0,0,0-.2-.231l-3.1-.761a13.951,13.951,0,0,0-2.1-3.995l1.132-2.992a.262.262,0,0,0-.077-.295l-2.95-2.454a.266.266,0,0,0-.305-.023l-2.736,1.659a13.931,13.931,0,0,0-4.31-1.341l-1.314-2.914a.264.264,0,0,0-.263-.154l-3.821.351a.261.261,0,0,0-.231.2l-.762,3.1a13.936,13.936,0,0,0-3.995,2.1l-2.991-1.134a.265.265,0,0,0-.3.079Z" transform="translate(-1982.272 -1735.787)" fill="url(#linear-gradient-19)"/>
            <path id="Trazado_138602" data-name="Trazado 138602" d="M1997.835,1747.1a3.7,3.7,0,1,1-.551-.046A3.967,3.967,0,0,1,1997.835,1747.1Zm1.245,6.175a3.095,3.095,0,0,0-1.342-5.558h0a3.095,3.095,0,0,0-.96,6.115,3.16,3.16,0,0,0,.457.037A3.075,3.075,0,0,0,1999.08,1753.274Z" transform="translate(-1980.305 -1733.82)" fill="#fff" opacity="0.56"/>
            <path id="Trazado_138603" data-name="Trazado 138603" d="M1998.274,1742.121a9.712,9.712,0,0,0-.971.04h0l-.045,0a9.658,9.658,0,0,0-1.92.385l-.034.011a.314.314,0,0,0-.22.294.307.307,0,0,0,.015.1.312.312,0,0,0,.391.2,9.049,9.049,0,0,1,1.868-.373h.007a8.948,8.948,0,0,1,9.719,8.093,8.781,8.781,0,0,1,.038.91,8.946,8.946,0,0,1-17.854.724,8.667,8.667,0,0,1-.038-.908,8.906,8.906,0,0,1,.88-3.782.306.306,0,0,0,.03-.131.312.312,0,0,0-.593-.139,9.571,9.571,0,1,0,18.2,4.243q0-.483-.04-.974A9.586,9.586,0,0,0,1998.274,1742.121Z" transform="translate(-1981.166 -1734.681)" fill="#fff" opacity="0.56"/>
          </g>
        </g>
      </g>
    </g>
    <g id="Grupo_85825" data-name="Grupo 85825" transform="translate(1860.437 1734.161)">
      <g id="Grupo_85820" data-name="Grupo 85820">
        <rect id="Rectángulo_15631" data-name="Rectángulo 15631" width="89.808" height="93.35" rx="38.229" fill="url(#linear-gradient-20)"/>
        <rect id="Rectángulo_15632" data-name="Rectángulo 15632" width="81.311" height="88.142" rx="5.726" transform="translate(4.326 2.735)" fill="#bde4fb"/>
      </g>
      <rect id="Rectángulo_15633" data-name="Rectángulo 15633" width="53.66" height="5.593" rx="2.381" transform="translate(7.06 5.209)" fill="url(#linear-gradient-21)"/>
      <g id="Grupo_85821" data-name="Grupo 85821" transform="translate(63.366 5.926)">
        <path id="Trazado_138604" data-name="Trazado 138604" d="M1916.672,1743.058a2.16,2.16,0,1,1,2.289-2.156A2.229,2.229,0,0,1,1916.672,1743.058Zm0-3.713a1.562,1.562,0,1,0,1.689,1.557A1.628,1.628,0,0,0,1916.672,1739.345Z" transform="translate(-1914.383 -1738.745)" fill="url(#linear-gradient-22)"/>
        <path id="Trazado_138605" data-name="Trazado 138605" d="M1923.268,1743.058a2.16,2.16,0,1,1,2.288-2.156A2.229,2.229,0,0,1,1923.268,1743.058Zm0-3.713a1.562,1.562,0,1,0,1.689,1.557A1.628,1.628,0,0,0,1923.268,1739.345Z" transform="translate(-1913.231 -1738.745)" fill="url(#linear-gradient-23)"/>
        <path id="Trazado_138606" data-name="Trazado 138606" d="M1929.863,1743.058a2.16,2.16,0,1,1,2.29-2.156A2.228,2.228,0,0,1,1929.863,1743.058Zm0-3.713a1.562,1.562,0,1,0,1.691,1.557A1.628,1.628,0,0,0,1929.863,1739.345Z" transform="translate(-1912.08 -1738.745)" fill="url(#linear-gradient-21)"/>
      </g>
      <path id="Trazado_138607" data-name="Trazado 138607" d="M1916.851,1741.912h-47.625a1.176,1.176,0,1,1,0-2.353h47.625a1.176,1.176,0,1,1,0,2.353Z" transform="translate(-1859.107 -1732.676)" fill="#fff" opacity="0.43"/>
      <g id="Grupo_85822" data-name="Grupo 85822" transform="translate(4.33 3.414)">
        <path id="Trazado_138608" data-name="Trazado 138608" d="M1869.664,1743.032l-5.383,5.481a.553.553,0,0,0,.039.81l.041.034a.514.514,0,0,0,.726-.066l4.928-5.945Z" transform="translate(-1864.123 -1735.484)" fill="url(#linear-gradient-25)"/>
        <ellipse id="Elipse_4427" data-name="Elipse 4427" cx="3.563" cy="3.499" rx="3.563" ry="3.499" transform="translate(3.132 3.07) rotate(-25.513)" opacity="0.2" fill="url(#linear-gradient-26)"/>
        <path id="Trazado_138609" data-name="Trazado 138609" d="M1869.721,1737.669a3.894,3.894,0,1,0,5.255,1.805A3.931,3.931,0,0,0,1869.721,1737.669Zm3.108,6.511a3.322,3.322,0,1,1,1.622-4.454A3.352,3.352,0,0,1,1872.829,1744.179Z" transform="translate(-1863.543 -1736.49)" fill="url(#linear-gradient-27)"/>
      </g>
      <path id="Trazado_138610" data-name="Trazado 138610" d="M1937.048,1755.8H1870.92a1.374,1.374,0,0,1,0-2.749h66.128a1.374,1.374,0,0,1,0,2.749Z" transform="translate(-1858.846 -1730.321)" fill="url(#linear-gradient-28)"/>
      <path id="Trazado_138611" data-name="Trazado 138611" d="M1925.105,1751.178h-46.021a1.374,1.374,0,1,1,0-2.748h46.021a1.374,1.374,0,1,1,0,2.748Z" transform="translate(-1857.421 -1731.128)" fill="url(#linear-gradient-28)"/>
      <g id="Grupo_85824" data-name="Grupo 85824" transform="translate(12.23 29.912)">
        <rect id="Rectángulo_15634" data-name="Rectángulo 15634" width="66.119" height="55.197" rx="3.319" fill="#91d5fa"/>
        <g id="Grupo_85823" data-name="Grupo 85823" transform="translate(4.234 2.597)">
          <path id="Trazado_138612" data-name="Trazado 138612" d="M1930.451,1764.124h-54.557a1.374,1.374,0,0,1,0-2.749h54.557a1.374,1.374,0,1,1,0,2.749Z" transform="translate(-1874.441 -1761.376)" fill="#bde4fb" opacity="0.43"/>
          <path id="Trazado_138613" data-name="Trazado 138613" d="M1930.408,1768.59h-54.557a1.374,1.374,0,0,1,0-2.747h54.557a1.374,1.374,0,1,1,0,2.747Z" transform="translate(-1874.449 -1760.596)" fill="#bde4fb" opacity="0.43"/>
          <path id="Trazado_138614" data-name="Trazado 138614" d="M1930.542,1773.339h-54.557a1.374,1.374,0,0,1,0-2.749h54.557a1.374,1.374,0,0,1,0,2.749Z" transform="translate(-1874.425 -1759.767)" fill="#bde4fb" opacity="0.43"/>
          <path id="Trazado_138615" data-name="Trazado 138615" d="M1930.5,1777.807h-54.557a1.374,1.374,0,1,1,0-2.749H1930.5a1.374,1.374,0,0,1,0,2.749Z" transform="translate(-1874.432 -1758.987)" fill="#bde4fb" opacity="0.43"/>
          <path id="Trazado_138616" data-name="Trazado 138616" d="M1930.428,1781.89h-54.557a1.374,1.374,0,1,1,0-2.748h54.557a1.374,1.374,0,1,1,0,2.748Z" transform="translate(-1874.445 -1758.274)" fill="#bde4fb" opacity="0.43"/>
          <path id="Trazado_138617" data-name="Trazado 138617" d="M1930.386,1786.356h-54.557a1.374,1.374,0,1,1,0-2.747h54.557a1.374,1.374,0,0,1,0,2.747Z" transform="translate(-1874.452 -1757.494)" fill="#bde4fb" opacity="0.43"/>
          <path id="Trazado_138618" data-name="Trazado 138618" d="M1930.519,1791.105h-54.556a1.374,1.374,0,1,1,0-2.748h54.556a1.374,1.374,0,1,1,0,2.748Z" transform="translate(-1874.429 -1756.665)" fill="#bde4fb" opacity="0.43"/>
          <path id="Trazado_138619" data-name="Trazado 138619" d="M1930.477,1795.572H1875.92a1.374,1.374,0,1,1,0-2.749h54.557a1.374,1.374,0,1,1,0,2.749Z" transform="translate(-1874.437 -1755.885)" fill="#bde4fb" opacity="0.43"/>
          <path id="Trazado_138620" data-name="Trazado 138620" d="M1930.384,1799.793h-54.557a1.374,1.374,0,1,1,0-2.749h54.557a1.374,1.374,0,1,1,0,2.749Z" transform="translate(-1874.453 -1755.148)" fill="#bde4fb" opacity="0.43"/>
          <path id="Trazado_138621" data-name="Trazado 138621" d="M1930.518,1804.543h-54.557a1.374,1.374,0,0,1,0-2.749h54.557a1.374,1.374,0,0,1,0,2.749Z" transform="translate(-1874.429 -1754.319)" fill="#bde4fb" opacity="0.43"/>
        </g>
      </g>
    </g>
    <g id="Grupo_85831" data-name="Grupo 85831" transform="translate(1899.712 1754.399)">
      <g id="Grupo_85826" data-name="Grupo 85826">
        <rect id="Rectángulo_15635" data-name="Rectángulo 15635" width="89.808" height="93.35" rx="38.229" fill="url(#linear-gradient-20)"/>
        <rect id="Rectángulo_15636" data-name="Rectángulo 15636" width="81.311" height="88.142" rx="5.726" transform="translate(4.326 2.735)" fill="#91d5fa"/>
      </g>
      <rect id="Rectángulo_15637" data-name="Rectángulo 15637" width="53.66" height="5.593" rx="2.183" transform="translate(7.06 5.21)" fill="#bde4fb"/>
      <g id="Grupo_85827" data-name="Grupo 85827" transform="translate(63.366 5.926)">
        <path id="Trazado_138622" data-name="Trazado 138622" d="M1950.109,1760.287a2.16,2.16,0,1,1,2.289-2.156A2.228,2.228,0,0,1,1950.109,1760.287Zm0-3.714a1.563,1.563,0,1,0,1.689,1.557A1.629,1.629,0,0,0,1950.109,1756.573Z" transform="translate(-1947.82 -1755.974)" fill="url(#linear-gradient-22)"/>
        <path id="Trazado_138623" data-name="Trazado 138623" d="M1956.705,1760.287a2.16,2.16,0,1,1,2.288-2.156A2.228,2.228,0,0,1,1956.705,1760.287Zm0-3.714a1.563,1.563,0,1,0,1.689,1.557A1.63,1.63,0,0,0,1956.705,1756.573Z" transform="translate(-1946.668 -1755.974)" fill="url(#linear-gradient-23)"/>
        <path id="Trazado_138624" data-name="Trazado 138624" d="M1963.3,1760.287a2.16,2.16,0,1,1,2.289-2.156A2.228,2.228,0,0,1,1963.3,1760.287Zm0-3.714a1.563,1.563,0,1,0,1.69,1.557A1.629,1.629,0,0,0,1963.3,1756.573Z" transform="translate(-1945.516 -1755.974)" fill="url(#linear-gradient-33)"/>
      </g>
      <path id="Trazado_138625" data-name="Trazado 138625" d="M1950.288,1759.142h-47.625a1.176,1.176,0,1,1,0-2.353h47.625a1.176,1.176,0,1,1,0,2.353Z" transform="translate(-1892.544 -1749.905)" fill="#fff" opacity="0.43"/>
      <g id="Grupo_85828" data-name="Grupo 85828" transform="translate(4.33 3.414)">
        <path id="Trazado_138626" data-name="Trazado 138626" d="M1903.1,1760.261l-5.383,5.481a.553.553,0,0,0,.039.811l.041.034a.514.514,0,0,0,.726-.066l4.929-5.945Z" transform="translate(-1897.56 -1752.713)" fill="url(#linear-gradient-25)"/>
        <ellipse id="Elipse_4428" data-name="Elipse 4428" cx="3.563" cy="3.499" rx="3.563" ry="3.499" transform="matrix(0.902, -0.431, 0.431, 0.902, 3.132, 3.07)" opacity="0.2" fill="url(#linear-gradient-35)"/>
        <path id="Trazado_138627" data-name="Trazado 138627" d="M1903.158,1754.9a3.894,3.894,0,1,0,5.255,1.805A3.931,3.931,0,0,0,1903.158,1754.9Zm3.108,6.511a3.322,3.322,0,1,1,1.623-4.454A3.352,3.352,0,0,1,1906.266,1761.408Z" transform="translate(-1896.98 -1753.719)" fill="url(#linear-gradient-27)"/>
      </g>
      <rect id="Rectángulo_15638" data-name="Rectángulo 15638" width="51.041" height="29.085" rx="3.319" transform="translate(8.724 58.576)" fill="#7dbaf4"/>
      <g id="Grupo_85829" data-name="Grupo 85829" transform="translate(11.637 61.196)">
        <path id="Trazado_138628" data-name="Trazado 138628" d="M1949.213,1805.776H1905.19a1.374,1.374,0,0,1,0-2.749h44.023a1.374,1.374,0,1,1,0,2.749Z" transform="translate(-1903.775 -1803.028)" opacity="0.43" fill="url(#linear-gradient-37)"/>
        <path id="Trazado_138629" data-name="Trazado 138629" d="M1949.178,1810.243h-44.023a1.374,1.374,0,1,1,0-2.748h44.023a1.374,1.374,0,1,1,0,2.748Z" transform="translate(-1903.781 -1802.248)" opacity="0.43" fill="url(#linear-gradient-21)"/>
        <path id="Trazado_138630" data-name="Trazado 138630" d="M1949.287,1814.992h-44.023a1.374,1.374,0,1,1,0-2.749h44.023a1.374,1.374,0,1,1,0,2.749Z" transform="translate(-1903.762 -1801.418)" opacity="0.43" fill="url(#linear-gradient-39)"/>
        <path id="Trazado_138631" data-name="Trazado 138631" d="M1949.253,1819.458h-44.024a1.374,1.374,0,1,1,0-2.747h44.024a1.374,1.374,0,1,1,0,2.747Z" transform="translate(-1903.768 -1800.639)" opacity="0.43" fill="url(#linear-gradient-39)"/>
        <path id="Trazado_138632" data-name="Trazado 138632" d="M1949.194,1823.542h-44.023a1.374,1.374,0,0,1,0-2.749h44.023a1.374,1.374,0,0,1,0,2.749Z" transform="translate(-1903.778 -1799.926)" opacity="0.43" fill="url(#linear-gradient-37)"/>
      </g>
      <rect id="Rectángulo_15639" data-name="Rectángulo 15639" width="21.505" height="29.169" rx="2.655" transform="translate(61.496 14.923)" fill="#bde4fb"/>
      <rect id="Rectángulo_15640" data-name="Rectángulo 15640" width="21.505" height="40.986" rx="2.655" transform="translate(61.496 46.675)" fill="#bde4fb"/>
      <path id="Trazado_138633" data-name="Trazado 138633" d="M1948.737,1799.652h-43.753a1.374,1.374,0,1,1,0-2.747h43.753a1.374,1.374,0,1,1,0,2.747Z" transform="translate(-1892.173 -1742.901)" fill="url(#linear-gradient-42)"/>
      <g id="Grupo_85830" data-name="Grupo 85830" transform="translate(10.687 14.923)">
        <rect id="Rectángulo_15641" data-name="Rectángulo 15641" width="47.251" height="36.724" rx="15.633" fill="url(#linear-gradient-42)"/>
        <path id="Trazado_138634" data-name="Trazado 138634" d="M1909.572,1793.527h29.509a1.187,1.187,0,0,0,1.023-1.789l-11.683-19.86a1.188,1.188,0,0,0-2.1.109l-5.64,12.36a1.188,1.188,0,0,1-1.883.382l-2.282-2.092a1.188,1.188,0,0,0-1.777.2l-6.138,8.827A1.188,1.188,0,0,0,1909.572,1793.527Z" transform="translate(-1902.026 -1762.296)" fill="url(#linear-gradient-21)"/>
        <circle id="Elipse_4429" data-name="Elipse 4429" cx="4.242" cy="4.242" r="4.242" transform="translate(32.411 4.74)" fill="url(#linear-gradient-21)"/>
      </g>
    </g>
    <g id="Grupo_85839" data-name="Grupo 85839" transform="translate(1937.787 1784.829)">
      <g id="Grupo_85832" data-name="Grupo 85832">
        <rect id="Rectángulo_15642" data-name="Rectángulo 15642" width="89.808" height="93.35" rx="38.229" fill="url(#linear-gradient-20)"/>
        <rect id="Rectángulo_15643" data-name="Rectángulo 15643" width="81.311" height="88.142" rx="5.726" transform="translate(4.326 2.735)" fill="#bde4fb"/>
      </g>
      <rect id="Rectángulo_15644" data-name="Rectángulo 15644" width="53.66" height="5.593" rx="2.381" transform="translate(7.06 5.21)" fill="#fff" opacity="0.43"/>
      <g id="Grupo_85833" data-name="Grupo 85833" transform="translate(63.366 5.926)">
        <path id="Trazado_138635" data-name="Trazado 138635" d="M1982.525,1786.194a2.16,2.16,0,1,1,2.289-2.156A2.228,2.228,0,0,1,1982.525,1786.194Zm0-3.713a1.562,1.562,0,1,0,1.689,1.557A1.628,1.628,0,0,0,1982.525,1782.481Z" transform="translate(-1980.236 -1781.881)" fill="url(#linear-gradient-47)"/>
        <path id="Trazado_138636" data-name="Trazado 138636" d="M1989.121,1786.194a2.16,2.16,0,1,1,2.288-2.156A2.228,2.228,0,0,1,1989.121,1786.194Zm0-3.713a1.562,1.562,0,1,0,1.689,1.557A1.63,1.63,0,0,0,1989.121,1782.481Z" transform="translate(-1979.084 -1781.881)" fill="url(#linear-gradient-48)"/>
        <path id="Trazado_138637" data-name="Trazado 138637" d="M1995.716,1786.194a2.16,2.16,0,1,1,2.289-2.156A2.228,2.228,0,0,1,1995.716,1786.194Zm0-3.713a1.562,1.562,0,1,0,1.69,1.557A1.628,1.628,0,0,0,1995.716,1782.481Z" transform="translate(-1977.933 -1781.881)" fill="url(#linear-gradient-49)"/>
      </g>
      <path id="Trazado_138638" data-name="Trazado 138638" d="M1982.7,1785.05h-47.625a1.177,1.177,0,1,1,0-2.354H1982.7a1.177,1.177,0,1,1,0,2.354Z" transform="translate(-1924.96 -1775.813)" fill="#fff" opacity="0.43"/>
      <g id="Grupo_85834" data-name="Grupo 85834" transform="translate(4.33 4.199)">
        <path id="Trazado_138639" data-name="Trazado 138639" d="M1935.518,1786.168l-5.383,5.481a.553.553,0,0,0,.039.81l.041.034a.514.514,0,0,0,.726-.066l4.929-5.945Z" transform="translate(-1929.976 -1779.405)" fill="url(#linear-gradient-50)"/>
        <path id="Trazado_138640" data-name="Trazado 138640" d="M1940.408,1782.725a3.564,3.564,0,1,1-4.723-1.623A3.533,3.533,0,0,1,1940.408,1782.725Z" transform="translate(-1929.336 -1780.352)" opacity="0.2" fill="url(#linear-gradient-51)"/>
        <path id="Trazado_138641" data-name="Trazado 138641" d="M1935.574,1780.8a3.894,3.894,0,1,0,5.255,1.807A3.931,3.931,0,0,0,1935.574,1780.8Zm3.108,6.512a3.322,3.322,0,1,1,1.622-4.455A3.353,3.353,0,0,1,1938.682,1787.316Z" transform="translate(-1929.396 -1780.411)" fill="url(#linear-gradient-27)"/>
      </g>
      <path id="Trazado_138642" data-name="Trazado 138642" d="M1998.616,1799.652h-58.9a1.374,1.374,0,0,1,0-2.747h58.9a1.374,1.374,0,0,1,0,2.747Z" transform="translate(-1924.184 -1773.332)" fill="#7dbaf4"/>
      <path id="Trazado_138643" data-name="Trazado 138643" d="M1990.758,1795.169h-46.021a1.374,1.374,0,1,1,0-2.749h46.021a1.374,1.374,0,0,1,0,2.749Z" transform="translate(-1923.308 -1774.115)" fill="#7dbaf4"/>
      <g id="Grupo_85836" data-name="Grupo 85836" transform="translate(8.633 29.912)">
        <rect id="Rectángulo_15645" data-name="Rectángulo 15645" width="34.794" height="55.197" rx="3.319" fill="#91d5fa"/>
        <g id="Grupo_85835" data-name="Grupo 85835" transform="translate(1.779 2.597)">
          <path id="Trazado_138644" data-name="Trazado 138644" d="M1964.78,1807.26h-28.217a1.374,1.374,0,1,1,0-2.748h28.217a1.374,1.374,0,1,1,0,2.748Z" transform="translate(-1935.146 -1804.512)" fill="#bde4fb" opacity="0.43"/>
          <path id="Trazado_138645" data-name="Trazado 138645" d="M1964.758,1811.727H1936.54a1.374,1.374,0,1,1,0-2.748h28.218a1.374,1.374,0,0,1,0,2.748Z" transform="translate(-1935.15 -1803.732)" fill="#bde4fb" opacity="0.43"/>
          <path id="Trazado_138646" data-name="Trazado 138646" d="M1964.83,1816.475h-28.218a1.374,1.374,0,1,1,0-2.747h28.218a1.374,1.374,0,1,1,0,2.747Z" transform="translate(-1935.138 -1802.903)" fill="#bde4fb" opacity="0.43"/>
          <path id="Trazado_138647" data-name="Trazado 138647" d="M1964.808,1820.942h-28.219a1.374,1.374,0,1,1,0-2.749h28.219a1.374,1.374,0,0,1,0,2.749Z" transform="translate(-1935.142 -1802.123)" fill="#bde4fb" opacity="0.43"/>
          <path id="Trazado_138648" data-name="Trazado 138648" d="M1964.769,1825.027H1936.55a1.374,1.374,0,0,1,0-2.749h28.219a1.374,1.374,0,1,1,0,2.749Z" transform="translate(-1935.149 -1801.41)" fill="#bde4fb" opacity="0.43"/>
          <path id="Trazado_138649" data-name="Trazado 138649" d="M1964.746,1829.494h-28.219a1.374,1.374,0,1,1,0-2.749h28.219a1.374,1.374,0,0,1,0,2.749Z" transform="translate(-1935.153 -1800.63)" fill="#bde4fb" opacity="0.43"/>
          <path id="Trazado_138650" data-name="Trazado 138650" d="M1964.818,1834.241H1936.6a1.374,1.374,0,0,1,0-2.747h28.219a1.374,1.374,0,1,1,0,2.747Z" transform="translate(-1935.14 -1799.801)" fill="#bde4fb" opacity="0.43"/>
          <path id="Trazado_138651" data-name="Trazado 138651" d="M1964.795,1838.709h-28.217a1.374,1.374,0,0,1,0-2.749h28.217a1.374,1.374,0,1,1,0,2.749Z" transform="translate(-1935.144 -1799.021)" fill="#bde4fb" opacity="0.43"/>
          <path id="Trazado_138652" data-name="Trazado 138652" d="M1964.745,1842.93h-28.218a1.374,1.374,0,1,1,0-2.749h28.218a1.374,1.374,0,0,1,0,2.749Z" transform="translate(-1935.153 -1798.284)" fill="#bde4fb" opacity="0.43"/>
          <path id="Trazado_138653" data-name="Trazado 138653" d="M1964.817,1847.678H1936.6a1.374,1.374,0,1,1,0-2.749h28.217a1.374,1.374,0,1,1,0,2.749Z" transform="translate(-1935.14 -1797.455)" fill="#bde4fb" opacity="0.43"/>
        </g>
      </g>
      <g id="Grupo_85838" data-name="Grupo 85838" transform="translate(46.409 29.612)">
        <rect id="Rectángulo_15646" data-name="Rectángulo 15646" width="34.794" height="55.197" rx="3.319" fill="#91d5fa"/>
        <g id="Grupo_85837" data-name="Grupo 85837" transform="translate(1.778 2.597)" opacity="0.43">
          <path id="Trazado_138654" data-name="Trazado 138654" d="M1996.942,1807.006h-28.219a1.374,1.374,0,0,1,0-2.749h28.219a1.374,1.374,0,1,1,0,2.749Z" transform="translate(-1967.307 -1804.257)" fill="#bde4fb" opacity="0.43"/>
          <path id="Trazado_138655" data-name="Trazado 138655" d="M1996.918,1811.471H1968.7a1.374,1.374,0,0,1,0-2.747h28.219a1.374,1.374,0,1,1,0,2.747Z" transform="translate(-1967.31 -1803.477)" fill="#bde4fb" opacity="0.43"/>
          <path id="Trazado_138656" data-name="Trazado 138656" d="M1996.991,1816.22h-28.218a1.374,1.374,0,0,1,0-2.749h28.218a1.374,1.374,0,0,1,0,2.749Z" transform="translate(-1967.298 -1802.648)" fill="#bde4fb" opacity="0.43"/>
          <path id="Trazado_138657" data-name="Trazado 138657" d="M1996.968,1820.688H1968.75a1.374,1.374,0,1,1,0-2.749h28.218a1.374,1.374,0,1,1,0,2.749Z" transform="translate(-1967.302 -1801.868)" fill="#bde4fb" opacity="0.43"/>
          <path id="Trazado_138658" data-name="Trazado 138658" d="M1996.93,1824.772h-28.219a1.374,1.374,0,0,1,0-2.749h28.219a1.374,1.374,0,0,1,0,2.749Z" transform="translate(-1967.309 -1801.155)" fill="#bde4fb" opacity="0.43"/>
          <path id="Trazado_138659" data-name="Trazado 138659" d="M1996.907,1829.237h-28.219a1.374,1.374,0,1,1,0-2.747h28.219a1.374,1.374,0,1,1,0,2.747Z" transform="translate(-1967.313 -1800.375)" fill="#bde4fb" opacity="0.43"/>
          <path id="Trazado_138660" data-name="Trazado 138660" d="M1996.979,1833.986H1968.76a1.374,1.374,0,1,1,0-2.748h28.219a1.374,1.374,0,1,1,0,2.748Z" transform="translate(-1967.3 -1799.546)" fill="#bde4fb" opacity="0.43"/>
          <path id="Trazado_138661" data-name="Trazado 138661" d="M1996.956,1838.453h-28.219a1.374,1.374,0,0,1,0-2.749h28.219a1.374,1.374,0,1,1,0,2.749Z" transform="translate(-1967.304 -1798.766)" fill="#bde4fb" opacity="0.43"/>
          <path id="Trazado_138662" data-name="Trazado 138662" d="M1996.906,1842.674h-28.219a1.374,1.374,0,0,1,0-2.748h28.219a1.374,1.374,0,1,1,0,2.748Z" transform="translate(-1967.313 -1798.029)" fill="#bde4fb" opacity="0.43"/>
          <path id="Trazado_138663" data-name="Trazado 138663" d="M1996.978,1847.423h-28.219a1.374,1.374,0,1,1,0-2.748h28.219a1.374,1.374,0,1,1,0,2.748Z" transform="translate(-1967.3 -1797.2)" fill="#bde4fb" opacity="0.43"/>
        </g>
      </g>
    </g>
    <g id="Grupo_85845" data-name="Grupo 85845" transform="translate(1988.605 1808.214)">
      <g id="Grupo_85840" data-name="Grupo 85840">
        <rect id="Rectángulo_15647" data-name="Rectángulo 15647" width="89.808" height="94.78" rx="38.229" fill="url(#linear-gradient-53)"/>
        <rect id="Rectángulo_15648" data-name="Rectángulo 15648" width="81.311" height="89.493" rx="5.726" transform="translate(4.326 2.777)" fill="#91d5fa"/>
      </g>
      <g id="Grupo_85844" data-name="Grupo 85844" transform="translate(4.331 3.414)">
        <g id="Grupo_85841" data-name="Grupo 85841" transform="translate(5.975 14.807)">
          <rect id="Rectángulo_15649" data-name="Rectángulo 15649" width="47.251" height="36.724" rx="15.633" fill="url(#linear-gradient-42)"/>
          <path id="Trazado_138664" data-name="Trazado 138664" d="M1984.928,1842.151h29.508a1.187,1.187,0,0,0,1.024-1.789l-11.683-19.86a1.187,1.187,0,0,0-2.1.109l-5.641,12.359a1.189,1.189,0,0,1-1.884.383l-2.281-2.092a1.19,1.19,0,0,0-1.778.2l-6.137,8.827A1.188,1.188,0,0,0,1984.928,1842.151Z" transform="translate(-1977.382 -1810.92)" fill="url(#linear-gradient-21)"/>
          <circle id="Elipse_4430" data-name="Elipse 4430" cx="4.242" cy="4.242" r="4.242" transform="translate(32.411 4.74)" fill="url(#linear-gradient-21)"/>
        </g>
        <rect id="Rectángulo_15650" data-name="Rectángulo 15650" width="53.66" height="5.593" rx="2.381" transform="translate(2.73 1.795)" fill="#fff" opacity="0.43"/>
        <g id="Grupo_85842" data-name="Grupo 85842" transform="translate(59.035 2.512)">
          <path id="Trazado_138665" data-name="Trazado 138665" d="M2025.789,1806.1a2.16,2.16,0,1,1,2.289-2.157A2.228,2.228,0,0,1,2025.789,1806.1Zm0-3.713a1.562,1.562,0,1,0,1.689,1.556A1.628,1.628,0,0,0,2025.789,1802.39Z" transform="translate(-2023.5 -1801.79)" fill="url(#linear-gradient-57)"/>
          <path id="Trazado_138666" data-name="Trazado 138666" d="M2032.384,1806.1a2.16,2.16,0,1,1,2.29-2.157A2.227,2.227,0,0,1,2032.384,1806.1Zm0-3.713a1.562,1.562,0,1,0,1.691,1.556A1.628,1.628,0,0,0,2032.384,1802.39Z" transform="translate(-2022.348 -1801.79)" fill="url(#linear-gradient-49)"/>
          <path id="Trazado_138667" data-name="Trazado 138667" d="M2038.98,1806.1a2.16,2.16,0,1,1,2.289-2.157A2.229,2.229,0,0,1,2038.98,1806.1Zm0-3.713a1.562,1.562,0,1,0,1.689,1.556A1.628,1.628,0,0,0,2038.98,1802.39Z" transform="translate(-2021.197 -1801.79)" fill="url(#linear-gradient-59)"/>
        </g>
        <path id="Trazado_138668" data-name="Trazado 138668" d="M2025.968,1804.959h-47.625a1.177,1.177,0,1,1,0-2.354h47.625a1.177,1.177,0,0,1,0,2.354Z" transform="translate(-1972.555 -1799.136)" fill="#fff" opacity="0.43"/>
        <g id="Grupo_85843" data-name="Grupo 85843" transform="translate(0 0)">
          <path id="Trazado_138669" data-name="Trazado 138669" d="M1978.782,1806.077l-5.383,5.481a.553.553,0,0,0,.039.81l.041.034a.514.514,0,0,0,.726-.066l4.928-5.945Z" transform="translate(-1973.24 -1798.529)" fill="url(#linear-gradient-60)"/>
          <ellipse id="Elipse_4431" data-name="Elipse 4431" cx="3.563" cy="3.499" rx="3.563" ry="3.499" transform="matrix(0.902, -0.431, 0.431, 0.902, 3.132, 3.07)" opacity="0.2" fill="url(#linear-gradient-61)"/>
          <path id="Trazado_138670" data-name="Trazado 138670" d="M1978.838,1800.714a3.894,3.894,0,1,0,5.255,1.806A3.929,3.929,0,0,0,1978.838,1800.714Zm3.108,6.512a3.322,3.322,0,1,1,1.622-4.455A3.353,3.353,0,0,1,1981.946,1807.225Z" transform="translate(-1972.66 -1799.535)" fill="url(#linear-gradient-27)"/>
        </g>
        <path id="Trazado_138671" data-name="Trazado 138671" d="M2024.2,1849.446h-44.5a1.374,1.374,0,1,1,0-2.748h44.5a1.374,1.374,0,0,1,0,2.748Z" transform="translate(-1972.352 -1791.437)" fill="#7dbaf4"/>
        <path id="Trazado_138672" data-name="Trazado 138672" d="M2024.169,1853.913h-44.5a1.374,1.374,0,1,1,0-2.748h44.5a1.374,1.374,0,0,1,0,2.748Z" transform="translate(-1972.358 -1790.657)" fill="#7dbaf4"/>
        <rect id="Rectángulo_15651" data-name="Rectángulo 15651" width="47.251" height="20.087" rx="2.655" transform="translate(5.934 66.105)" fill="#bde4fb"/>
        <rect id="Rectángulo_15652" data-name="Rectángulo 15652" width="22.613" height="24.165" rx="9.626" transform="translate(56.195 14.807)" fill="#fff" opacity="0.43"/>
        <rect id="Rectángulo_15653" data-name="Rectángulo 15653" width="22.613" height="24.165" rx="9.626" transform="translate(56.195 44.473)" fill="#fff" opacity="0.43"/>
        <rect id="Rectángulo_15654" data-name="Rectángulo 15654" width="22.613" height="15.74" rx="6.7" transform="translate(56.195 70.452)" fill="#fff" opacity="0.43"/>
        <path id="Trazado_138673" data-name="Trazado 138673" d="M2042.531,1836.443h-20.286a1.163,1.163,0,1,1,0-2.327h20.286a1.163,1.163,0,1,1,0,2.327Z" transform="translate(-1964.887 -1793.634)" fill="#fff" opacity="0.43"/>
      </g>
    </g>
    <g id="Grupo_85852" data-name="Grupo 85852" transform="translate(2046.469 1837.146)">
      <g id="Grupo_85846" data-name="Grupo 85846">
        <rect id="Rectángulo_15655" data-name="Rectángulo 15655" width="89.808" height="94.78" rx="38.229" fill="url(#linear-gradient-53)"/>
        <rect id="Rectángulo_15656" data-name="Rectángulo 15656" width="81.311" height="89.493" rx="5.726" transform="translate(4.326 2.777)" fill="#bde4fb"/>
      </g>
      <rect id="Rectángulo_15657" data-name="Rectángulo 15657" width="65.085" height="36.724" rx="15.633" transform="translate(12.855 18.221)" fill="url(#linear-gradient-42)"/>
      <rect id="Rectángulo_15658" data-name="Rectángulo 15658" width="53.66" height="5.593" rx="2.381" transform="translate(7.06 5.21)" fill="url(#linear-gradient-21)"/>
      <g id="Grupo_85847" data-name="Grupo 85847" transform="translate(63.366 5.926)">
        <path id="Trazado_138674" data-name="Trazado 138674" d="M2075.051,1830.734a2.16,2.16,0,1,1,2.289-2.157A2.228,2.228,0,0,1,2075.051,1830.734Zm0-3.713a1.562,1.562,0,1,0,1.689,1.556A1.628,1.628,0,0,0,2075.051,1827.021Z" transform="translate(-2072.762 -1826.421)" fill="url(#linear-gradient-57)"/>
        <path id="Trazado_138675" data-name="Trazado 138675" d="M2081.647,1830.734a2.16,2.16,0,1,1,2.288-2.157A2.228,2.228,0,0,1,2081.647,1830.734Zm0-3.713a1.562,1.562,0,1,0,1.689,1.556A1.629,1.629,0,0,0,2081.647,1827.021Z" transform="translate(-2071.61 -1826.421)" fill="url(#linear-gradient-48)"/>
        <path id="Trazado_138676" data-name="Trazado 138676" d="M2088.242,1830.734a2.16,2.16,0,1,1,2.289-2.157A2.227,2.227,0,0,1,2088.242,1830.734Zm0-3.713a1.562,1.562,0,1,0,1.689,1.556A1.628,1.628,0,0,0,2088.242,1827.021Z" transform="translate(-2070.458 -1826.421)" fill="url(#linear-gradient-68)"/>
      </g>
      <path id="Trazado_138677" data-name="Trazado 138677" d="M2075.23,1829.59H2027.6a1.177,1.177,0,1,1,0-2.354h47.625a1.177,1.177,0,1,1,0,2.354Z" transform="translate(-2017.486 -1820.353)" fill="#fff" opacity="0.43"/>
      <g id="Grupo_85848" data-name="Grupo 85848" transform="translate(4.331 4.199)">
        <path id="Trazado_138678" data-name="Trazado 138678" d="M2028.044,1830.708l-5.383,5.481a.553.553,0,0,0,.039.81l.041.034a.514.514,0,0,0,.726-.066l4.928-5.944Z" transform="translate(-2022.502 -1823.946)" fill="url(#linear-gradient-69)"/>
        <path id="Trazado_138679" data-name="Trazado 138679" d="M2032.933,1827.265a3.564,3.564,0,1,1-4.722-1.623A3.531,3.531,0,0,1,2032.933,1827.265Z" transform="translate(-2021.863 -1824.892)" opacity="0.2" fill="url(#linear-gradient-70)"/>
        <path id="Trazado_138680" data-name="Trazado 138680" d="M2028.1,1825.345a3.894,3.894,0,1,0,5.255,1.806A3.929,3.929,0,0,0,2028.1,1825.345Zm3.108,6.512a3.322,3.322,0,1,1,1.622-4.455A3.353,3.353,0,0,1,2031.208,1831.856Z" transform="translate(-2021.922 -1824.951)" fill="url(#linear-gradient-71)"/>
      </g>
      <path id="Trazado_138681" data-name="Trazado 138681" d="M2095.491,1874.077h-66.129a1.374,1.374,0,1,1,0-2.748h66.129a1.374,1.374,0,1,1,0,2.748Z" transform="translate(-2017.214 -1812.654)" fill="#7dbaf4"/>
      <path id="Trazado_138682" data-name="Trazado 138682" d="M2095.44,1878.544h-66.129a1.374,1.374,0,1,1,0-2.749h66.129a1.374,1.374,0,1,1,0,2.749Z" transform="translate(-2017.222 -1811.874)" fill="#7dbaf4"/>
      <rect id="Rectángulo_15659" data-name="Rectángulo 15659" width="47.251" height="20.087" rx="8.551" transform="translate(8.466 69.519)" fill="url(#linear-gradient-21)"/>
      <rect id="Rectángulo_15660" data-name="Rectángulo 15660" width="22.613" height="20.087" rx="8.551" transform="translate(58.727 69.519)" fill="url(#linear-gradient-21)"/>
      <g id="Grupo_85851" data-name="Grupo 85851" transform="translate(38.148 28.831)">
        <g id="Grupo_85849" data-name="Grupo 85849">
          <path id="Trazado_138683" data-name="Trazado 138683" d="M2066.8,1853.673a7.753,7.753,0,1,1-7.752-7.752A7.753,7.753,0,0,1,2066.8,1853.673Zm-.47,0a7.283,7.283,0,1,0-7.282,7.284A7.283,7.283,0,0,0,2066.329,1853.673Z" transform="translate(-2051.292 -1845.921)" fill="url(#linear-gradient-21)"/>
        </g>
        <g id="Grupo_85850" data-name="Grupo 85850" transform="translate(4.968 3.825)">
          <path id="Trazado_138684" data-name="Trazado 138684" d="M2056.109,1857.1a.4.4,0,0,1-.4-.391l-.185-6.864a.648.648,0,0,1,.924-.605l6.781,3.172a.648.648,0,0,1,.031,1.159l-5.986,3.191a.4.4,0,0,1-.379-.711l5.71-3.043-6.268-2.932.177,6.612a.4.4,0,0,1-.391.412Z" transform="translate(-2055.523 -1849.177)" fill="url(#linear-gradient-75)"/>
        </g>
      </g>
    </g>
    <g id="Grupo_85856" data-name="Grupo 85856" transform="translate(1921.687 1731.055)">
      <g id="Grupo_85853" data-name="Grupo 85853">
        <path id="Trazado_138685" data-name="Trazado 138685" d="M1967.305,1748.927a.438.438,0,0,1-.426-.434c-.043-2.43-.793-14.493-11.286-17.014-11.682-2.806-17.028,9.222-17.028,9.222s-14.455-5.613-17.227,9.421c-9.063,2.2-11.417,14.186-5.523,20.041a5.034,5.034,0,0,0,3.5,1.468l56.759.518a3.743,3.743,0,0,0,3.616-2.706C1981.467,1763.385,1983.792,1749.318,1967.305,1748.927Z" transform="translate(-1912.583 -1731.055)" fill="url(#linear-gradient-76)"/>
        <path id="Trazado_138686" data-name="Trazado 138686" d="M1965.762,1748.971a.441.441,0,0,1-.426-.434c-.047-2.33-.788-13.516-10.671-15.86-11.046-2.621-16.1,8.611-16.1,8.611s-13.668-5.241-16.288,8.8c-8.488,2.037-10.753,13.033-5.38,18.556a5.039,5.039,0,0,0,3.566,1.531l53.432.482a3.745,3.745,0,0,0,3.619-2.717C1979.176,1762.185,1981.154,1749.343,1965.762,1748.971Z" transform="translate(-1912.336 -1730.841)" fill="url(#linear-gradient-77)"/>
      </g>
      <g id="Grupo_85854" data-name="Grupo 85854" transform="translate(26.707 13.369)">
        <path id="Trazado_138687" data-name="Trazado 138687" d="M1941.745,1757.2l-5.051.2-.583-14.442a.333.333,0,0,1,.32-.346l4.363-.176a.356.356,0,0,1,.37.341Z" transform="translate(-1935.181 -1742.437)" fill="#fff"/>
        <path id="Trazado_138688" data-name="Trazado 138688" d="M1935.365,1755.114s3.09,5.476,4.134,7.134a.327.327,0,0,0,.574-.039l3.424-7.381c.123-.217.009-.559-.183-.552l-7.786.315C1935.352,1754.6,1935.259,1754.9,1935.365,1755.114Z" transform="translate(-1935.32 -1740.369)" fill="#fff"/>
      </g>
      <g id="Grupo_85855" data-name="Grupo 85855" transform="translate(35.552 13.406)">
        <path id="Rectángulo_15661" data-name="Rectángulo 15661" d="M2.082,0h.751A2.221,2.221,0,0,1,5.055,2.221V14.787a0,0,0,0,1,0,0H0a0,0,0,0,1,0,0V2.082A2.082,2.082,0,0,1,2.082,0Z" transform="matrix(-1, 0.015, -0.015, -1, 6.948, 21.925)" fill="#fff"/>
        <path id="Trazado_138689" data-name="Trazado 138689" d="M1951.044,1749.865s-2.95-5.553-3.95-7.239a.327.327,0,0,0-.574.023l-3.613,7.292c-.128.214-.023.559.169.555l7.792-.114C1951.043,1750.381,1951.144,1750.084,1951.044,1749.865Z" transform="translate(-1942.85 -1742.467)" fill="#fff"/>
      </g>
    </g>
    <g id="Grupo_85860" data-name="Grupo 85860" transform="translate(1874.387 1805.688)">
      <path id="Trazado_138690" data-name="Trazado 138690" d="M1916.311,1923.93c-3.026.262-8.276.686-12.416.868a11.947,11.947,0,0,1-4.746-.464c0,.093,0,.181.008.263a.856.856,0,0,0,.813.808,145.179,145.179,0,0,0,16.256.016.61.61,0,0,0,.5-.916A4.925,4.925,0,0,0,1916.311,1923.93Z" transform="translate(-1867.628 -1772.012)" fill="url(#linear-gradient-78)"/>
      <path id="Trazado_138691" data-name="Trazado 138691" d="M1903.9,1925.706c4.139-.182,9.39-.606,12.416-.868-2.975-3.65-12.416-6.109-12.416-6.109h-2.667a11.186,11.186,0,0,0-2.079,6.513A11.947,11.947,0,0,0,1903.9,1925.706Z" transform="translate(-1867.628 -1772.92)" fill="url(#linear-gradient-79)"/>
      <path id="Trazado_138692" data-name="Trazado 138692" d="M1900.537,1915.023l.25,4.938a1.127,1.127,0,0,0,.962,1.061,4.4,4.4,0,0,0,2-.166,1.334,1.334,0,0,0,.9-1.027l.862-4.806Z" transform="translate(-1867.385 -1773.567)" fill="url(#linear-gradient-80)"/>
      <g id="Grupo_85857" data-name="Grupo 85857" transform="translate(0 142.976)">
        <path id="Trazado_138693" data-name="Trazado 138693" d="M1874.517,1929.086a2.6,2.6,0,0,1-2.154-2.059l-.006.025a2.348,2.348,0,0,0,1.15,2.513,5.974,5.974,0,0,0,3.181.643,2.942,2.942,0,0,0,2.385-1.421l.007-.013C1878.093,1929.405,1876.706,1929.479,1874.517,1929.086Z" transform="translate(-1872.313 -1914.447)" fill="url(#linear-gradient-81)"/>
        <path id="Trazado_138694" data-name="Trazado 138694" d="M1880.7,1916.318h-2.2c-3.35-.088-5.452,9.042-6.141,12.579a2.6,2.6,0,0,0,2.154,2.059c2.188.393,3.576.319,4.563-.312,1.81-3.078,2.708-7.586,3.139-10.215A3.817,3.817,0,0,0,1880.7,1916.318Z" transform="translate(-1872.306 -1916.318)" fill="url(#linear-gradient-82)"/>
      </g>
      <path id="Trazado_138695" data-name="Trazado 138695" d="M1878.012,1912.416l-1.221,4.857a1.319,1.319,0,0,0,.686,1.494,4.68,4.68,0,0,0,2.529.612,1.1,1.1,0,0,0,.9-.734l1.794-5.109Z" transform="translate(-1871.538 -1774.022)" fill="url(#linear-gradient-83)"/>
      <path id="Trazado_138696" data-name="Trazado 138696" d="M1920.921,1858.166s-10.912,68.209-10.732,68.584a9.079,9.079,0,0,1-6.3.175s.987-36.463,3.3-50.443c0,0-18.622,32.591-24.536,48.829a14.78,14.78,0,0,1-5.638-2.048s20.052-58.661,25.4-66.474Z" transform="translate(-1871.493 -1783.735)" fill="url(#linear-gradient-84)"/>
      <path id="Trazado_138697" data-name="Trazado 138697" d="M1903.207,1874.127l4.046-6.463,2.943-.592-.054-.269-3.059.615-4.109,6.563Z" transform="translate(-1866.96 -1781.986)" fill="url(#linear-gradient-85)"/>
      <path id="Trazado_138698" data-name="Trazado 138698" d="M1961.033,1801.1a73.209,73.209,0,0,0-11.842,3.692,4.092,4.092,0,0,0-2,2.014c-1.339,2.934-5.347,10.292-13.118,13.8a21.4,21.4,0,0,1,3.706,9.769c4.668-3.475,8.7-9.277,10.633-18.791a3.8,3.8,0,0,0,3.311-.093c.97-.471,2.092-1.139,2.933-1.666a3.845,3.845,0,0,0,1.706-2.29,13.275,13.275,0,0,0,.131-3.547l3.786-1.172A1.347,1.347,0,0,0,1961.033,1801.1Z" transform="translate(-1861.53 -1793.459)" fill="url(#linear-gradient-86)"/>
      <path id="Trazado_138699" data-name="Trazado 138699" d="M1946.733,1827.55a21.4,21.4,0,0,0-3.706-9.769c-4.829,2.181-11.108,2.878-19.106.107a8.477,8.477,0,0,0-2.286-.45c-4.257-.25-18.286-.706-29.895,3.129a9.023,9.023,0,0,0-5.442,4.954c-3.14,7.206-8.225,23.618,5.889,31.9a35.081,35.081,0,0,1,3.406-6.446c-2.273-3.834-2.946-9.07,1.088-15.889,2.941,7.941,4.32,19.529,4.609,24.657a11.02,11.02,0,0,1-.863,4.932l-.073.17a.584.584,0,0,0,.41.8,67,67,0,0,0,18.678,1.1,1.019,1.019,0,0,0,.908-.777c3.865-16.281,3.873-27.386,2.927-34.406C1926.893,1832.367,1937.945,1834.09,1946.733,1827.55Z" transform="translate(-1870.488 -1790.634)" fill="url(#linear-gradient-87)"/>
      <path id="Trazado_138700" data-name="Trazado 138700" d="M1914.869,1821.016s1.891,2.979,2.822,10.005Z" transform="translate(-1864.883 -1789.981)" fill="url(#linear-gradient-88)"/>
      <path id="Trazado_138701" data-name="Trazado 138701" d="M1900.805,1809.339s-.8,8.5-1.51,11.013a.859.859,0,0,0,.4.982c1.2.686,4.083,1.805,8.022-.126a1.785,1.785,0,0,0,.993-1.682l-.346-8.213Z" transform="translate(-1867.608 -1792.02)" fill="url(#linear-gradient-89)"/>
      <g id="Grupo_85858" data-name="Grupo 85858" transform="translate(26.009)">
        <path id="Trazado_138702" data-name="Trazado 138702" d="M1908.693,1800.083s2.571,5.906,2.744,9.005.841,5.111-2.744,5.736a7.62,7.62,0,0,1-8.239-4.25s-2.563-4.757-1.989-6.706S1908.693,1800.083,1908.693,1800.083Z" transform="translate(-1893.77 -1793.636)" fill="url(#linear-gradient-90)"/>
        <path id="Trazado_138703" data-name="Trazado 138703" d="M1902.365,1809.313l.2-.089a.493.493,0,0,0,.241-.677c-.505-.976-1.491-3.214-.219-3.736,1.641-.672,8.139-2,9.54-4.3a4.29,4.29,0,0,0-1.64-5.891.248.248,0,0,0-.323.106l-.15.283a.243.243,0,0,1-.449-.047h0a.243.243,0,0,0-.439-.062c-.43.689-1.594,1.808-4.705,2.382-4.421.816-7.345,2.605-7.417,5.662a.244.244,0,0,1-.377.2c-.327-.2-.849-.292-1.547.295-1.215,1.021-.718,3.67,1.944,5.848a.242.242,0,0,1-.011.39c-.483.314-1.2,1.062.661,2.058a6.277,6.277,0,0,0,3.923.855.243.243,0,0,0,.2-.294l-.592-2.685a.244.244,0,0,1,.238-.3Z" transform="translate(-1894.456 -1794.594)" fill="url(#linear-gradient-91)"/>
        <path id="Trazado_138704" data-name="Trazado 138704" d="M1901.764,1808.039s-.981-3.773-2.672-2.716.878,4.228,2.237,4.368Z" transform="translate(-1893.744 -1792.753)" fill="url(#linear-gradient-92)"/>
      </g>
      <path id="Trazado_138705" data-name="Trazado 138705" d="M1948.1,1810.123a.277.277,0,0,1-.178-.064.283.283,0,0,1-.041-.4c.278-.342,2.745-3.357,3.691-3.892.362-.2.568-.41.615-.609a.531.531,0,0,0-.059-.358l-2.945.589-1.653,1.419a.282.282,0,0,1-.368-.429l1.709-1.466a.278.278,0,0,1,.128-.062l3.215-.645a.282.282,0,0,1,.289.119,1.19,1.19,0,0,1,.233.962,1.62,1.62,0,0,1-.888.972,26.9,26.9,0,0,0-3.53,3.757A.281.281,0,0,1,1948.1,1810.123Z" transform="translate(-1859.261 -1792.916)" fill="#f8a570"/>
      <path id="Trazado_138706" data-name="Trazado 138706" d="M1903.045,1858.22l11.6-.253s-10.117-2.86-10.745-2.081c0,0-6.27-4.121-9.707-9.917a35.081,35.081,0,0,0-3.407,6.446C1893.869,1854.224,1897.914,1857.366,1903.045,1858.22Z" transform="translate(-1869.087 -1785.624)" fill="url(#linear-gradient-93)"/>
      <path id="Trazado_138707" data-name="Trazado 138707" d="M1900.944,1854.688s-.24,4.623,5.828,3.952c3.3-.364,8.623-3.439,8.623-3.439S1901.518,1855.164,1900.944,1854.688Z" transform="translate(-1867.314 -1784.102)" fill="url(#linear-gradient-94)"/>
      <g id="Grupo_85859" data-name="Grupo 85859" transform="translate(34.779 45.912)">
        <path id="Trazado_138708" data-name="Trazado 138708" d="M1903.149,1856.128a.645.645,0,0,0,.067,0l28.846-.031a1.277,1.277,0,1,0,0-2.555l-28.847.03a1.277,1.277,0,0,0-.063,2.554Z" transform="translate(-1901.923 -1830.214)" fill="url(#linear-gradient-95)"/>
        <path id="Trazado_138709" data-name="Trazado 138709" d="M1955.5,1833.682h-24.023a4.584,4.584,0,0,0-4.142,2.6l-11.106,23.3h29.855a2.782,2.782,0,0,0,2.588-1.74l8.612-21.562A1.9,1.9,0,0,0,1955.5,1833.682Z" transform="translate(-1899.425 -1833.682)" fill="url(#linear-gradient-96)"/>
        <path id="Trazado_138710" data-name="Trazado 138710" d="M1935.284,1844.207c-.521,1.6-.136,3.155.858,3.472s2.225-.724,2.745-2.325.136-3.154-.86-3.471S1935.8,1842.607,1935.284,1844.207Z" transform="translate(-1896.138 -1832.26)" fill="url(#linear-gradient-97)"/>
      </g>
    </g>
  </g>
</svg>
