<svg xmlns="http://www.w3.org/2000/svg" width="175.07" height="169.046" viewBox="0 0 175.07 169.046">
  <g id="Grupo_81567" data-name="Grupo 81567" transform="translate(-1185 -2412)">
    <g id="Grupo_81566" data-name="Grupo 81566" transform="translate(1086.782 2358.403)">
      <g id="Grupo_81560" data-name="Grupo 81560" transform="translate(98.218 112.657)">
        <g id="Grupo_81557" data-name="Grupo 81557" transform="translate(13.948 98.924)">
          <path id="Trazado_102109" data-name="Trazado 102109" d="M137.263,359.714h0a5.548,5.548,0,0,1-5.531-5.531h0a5.548,5.548,0,0,1,5.531-5.531h0a5.547,5.547,0,0,1,5.531,5.531h0A5.547,5.547,0,0,1,137.263,359.714Z" transform="translate(-128.365 -348.652)" fill="#2d1f6a"/>
          <path id="Trazado_102110" data-name="Trazado 102110" d="M140.125,359.078H128.1a2.894,2.894,0,0,1-2.886-2.886h0a2.894,2.894,0,0,1,2.886-2.885h12.024a2.894,2.894,0,0,1,2.886,2.885h0A2.894,2.894,0,0,1,140.125,359.078Z" transform="translate(-125.215 -350.902)" fill="#c1d3e9"/>
        </g>
        <g id="Grupo_81558" data-name="Grupo 81558" transform="translate(140.922 98.924)">
          <path id="Trazado_102111" data-name="Trazado 102111" d="M383.029,359.714h0a5.548,5.548,0,0,1-5.531-5.531h0a5.548,5.548,0,0,1,5.531-5.531h0a5.548,5.548,0,0,1,5.531,5.531h0A5.548,5.548,0,0,1,383.029,359.714Z" transform="translate(-374.132 -348.652)" fill="#2d1f6a"/>
          <path id="Trazado_102112" data-name="Trazado 102112" d="M385.892,359.078H373.867a2.894,2.894,0,0,1-2.885-2.886h0a2.894,2.894,0,0,1,2.885-2.885h12.024a2.894,2.894,0,0,1,2.885,2.885h0A2.894,2.894,0,0,1,385.892,359.078Z" transform="translate(-370.982 -350.902)" fill="#c1d3e9"/>
        </g>
        <path id="Trazado_102113" data-name="Trazado 102113" d="M371.177,241.673h0a4.78,4.78,0,0,1-4.766-4.767V161.945a4.78,4.78,0,0,1,4.766-4.767h0a4.78,4.78,0,0,1,4.767,4.767v74.962A4.78,4.78,0,0,1,371.177,241.673Z" transform="translate(-227.851 -157.178)" fill="#022b5f"/>
        <path id="Trazado_102114" data-name="Trazado 102114" d="M374.21,213.82a4.78,4.78,0,0,1-4.766-4.767v-51.23a4.779,4.779,0,0,0-3.033,4.433v74.962a4.766,4.766,0,1,0,9.533,0V213.487A4.721,4.721,0,0,1,374.21,213.82Z" transform="translate(-227.851 -157.49)" fill="#02214a"/>
        <rect id="Rect치ngulo_14910" data-name="Rect치ngulo 14910" width="175.07" height="47.615" rx="22.768" transform="translate(0 57.08)" fill="#fff"/>
        <rect id="Rect치ngulo_14911" data-name="Rect치ngulo 14911" width="32.224" height="159.679" rx="7.873" transform="translate(167.375 64.776) rotate(90)" fill="#022b5f"/>
        <path id="Trazado_102115" data-name="Trazado 102115" d="M128.243,305.642a4.122,4.122,0,0,1-4.068-4.068V282.556h-6.994a4.122,4.122,0,0,0-4.068,4.068v24.09a4.122,4.122,0,0,0,4.068,4.067H268.725a4.122,4.122,0,0,0,4.068-4.067v-5.071Z" transform="translate(-105.418 -217.78)" fill="#02244f"/>
        <g id="Grupo_81559" data-name="Grupo 81559" transform="translate(31.744 75.838)">
          <circle id="Elipse_4220" data-name="Elipse 4220" cx="4.81" cy="4.81" r="4.81" fill="#e1ee96"/>
          <path id="Trazado_102116" data-name="Trazado 102116" d="M224.98,311.027a2.4,2.4,0,1,1-2.4-2.4A2.4,2.4,0,0,1,224.98,311.027Z" transform="translate(-188.908 -306.217)" fill="#f08619"/>
          <path id="Trazado_102117" data-name="Trazado 102117" d="M272.458,311.027a2.4,2.4,0,1,1-2.4-2.4A2.4,2.4,0,0,1,272.458,311.027Z" transform="translate(-211.857 -306.217)" fill="#f08619"/>
          <path id="Trazado_102118" data-name="Trazado 102118" d="M319.935,311.027a2.4,2.4,0,1,1-2.4-2.4A2.4,2.4,0,0,1,319.935,311.027Z" transform="translate(-234.805 -306.217)" fill="#f08619"/>
          <path id="Trazado_102119" data-name="Trazado 102119" d="M367.413,311.027a2.4,2.4,0,1,1-2.4-2.4A2.4,2.4,0,0,1,367.413,311.027Z" transform="translate(-257.754 -306.217)" fill="#f08619"/>
        </g>
        <path id="Trazado_102120" data-name="Trazado 102120" d="M328.49,290.577H269.331a1.688,1.688,0,0,1-1.683-1.683h0a1.688,1.688,0,0,1,1.683-1.683H328.49a1.689,1.689,0,0,1,1.684,1.683h0A1.689,1.689,0,0,1,328.49,290.577Z" transform="translate(-180.113 -220.03)" fill="#004fc6"/>
        <path id="Trazado_102121" data-name="Trazado 102121" d="M403.634,290.577h-7.7a1.688,1.688,0,0,1-1.683-1.683h0a1.688,1.688,0,0,1,1.683-1.683h7.7a1.689,1.689,0,0,1,1.684,1.683h0A1.689,1.689,0,0,1,403.634,290.577Z" transform="translate(-241.309 -220.03)" fill="#004fc6"/>
        <path id="Trazado_102122" data-name="Trazado 102122" d="M122.005,301.328a11.8,11.8,0,0,1-11.763-11.763v-21.9h-.261a11.8,11.8,0,0,0-11.763,11.763v24.089a11.8,11.8,0,0,0,11.763,11.763H261.525a11.8,11.8,0,0,0,11.763-11.763v-2.185Z" transform="translate(-98.218 -210.581)" fill="#c1d3e9" opacity="0.53" style="mix-blend-mode: multiply;isolation: isolate"/>
        <path id="Trazado_102123" data-name="Trazado 102123" d="M379.793,193.7h0a.518.518,0,0,1-.516-.516V166.189a.518.518,0,0,1,.516-.517h0a.518.518,0,0,1,.516.517v26.994A.518.518,0,0,1,379.793,193.7Z" transform="translate(-234.07 -161.284)" fill="#004fc6"/>
      </g>
      <g id="Grupo_81565" data-name="Grupo 81565" transform="translate(218.794 83.596)">
        <g id="Grupo_81564" data-name="Grupo 81564">
          <g id="Grupo_81561" data-name="Grupo 81561" transform="translate(13.023 18.286)">
            <path id="Trazado_102124" data-name="Trazado 102124" d="M363.02,133.407a2.644,2.644,0,0,1-1.876-.777,6.451,6.451,0,0,0-9.112,0,2.653,2.653,0,0,1-3.752-3.752,11.763,11.763,0,0,1,16.616,0,2.653,2.653,0,0,1-1.876,4.529Z" transform="translate(-347.503 -125.443)" fill="#36a5e3"/>
          </g>
          <g id="Grupo_81562" data-name="Grupo 81562" transform="translate(7.58 9.371)">
            <path id="Trazado_102125" data-name="Trazado 102125" d="M355.934,106.223a2.644,2.644,0,0,1-1.876-.777,14.157,14.157,0,0,0-20,0,2.653,2.653,0,0,1-3.752-3.752,19.47,19.47,0,0,1,27.5,0,2.653,2.653,0,0,1-1.876,4.529Z" transform="translate(-329.53 -96.008)" fill="#36a5e3"/>
          </g>
          <g id="Grupo_81563" data-name="Grupo 81563">
            <path id="Trazado_102126" data-name="Trazado 102126" d="M346.068,78.434a2.644,2.644,0,0,1-1.876-.777,24.861,24.861,0,0,0-35.158,0,2.653,2.653,0,1,1-3.752-3.752,30.166,30.166,0,0,1,42.662,0,2.653,2.653,0,0,1-1.876,4.529Z" transform="translate(-304.504 -65.069)" fill="#36a5e3"/>
          </g>
        </g>
      </g>
    </g>
    <text id="_" data-name="?" transform="translate(1230 2520)" fill="#feca2e" font-size="40" font-family="SegoeUI, Segoe UI"><tspan x="0" y="0">?</tspan></text>
    <text id="_2" data-name="?" transform="translate(1251 2516)" fill="#feca2e" font-size="96" font-family="SegoeUI, Segoe UI"><tspan x="0" y="0">?</tspan></text>
    <text id="_3" data-name="?" transform="translate(1296 2506)" fill="#feca2e" font-size="27" font-family="SegoeUI, Segoe UI"><tspan x="0" y="0">?</tspan></text>
    <text id="_4" data-name="?" transform="translate(1196 2511)" fill="#feca2e" font-size="72" font-family="SegoeUI, Segoe UI"><tspan x="0" y="0">?</tspan></text>
    <text id="_5" data-name="?" transform="translate(1243 2480)" fill="#feca2e" font-size="16" font-family="SegoeUI, Segoe UI"><tspan x="0" y="0">?</tspan></text>
    <text id="_6" data-name="?" transform="translate(1285 2525)" fill="#feca2e" font-size="16" font-family="SegoeUI, Segoe UI"><tspan x="0" y="0">?</tspan></text>
    <text id="_7" data-name="?" transform="translate(1192 2515)" fill="#feca2e" font-size="16" font-family="SegoeUI, Segoe UI"><tspan x="0" y="0">?</tspan></text>
  </g>
</svg>
