<svg xmlns="http://www.w3.org/2000/svg" width="296.877" height="171.6" viewBox="0 0 296.877 171.6">
  <g id="Grupo_86907" data-name="Grupo 86907" transform="translate(-208.558 -187.891)">
    <g id="Grupo_86932" data-name="Grupo 86932" transform="translate(212.856 248.504)">
      <g id="Grupo_86930" data-name="Grupo 86930" transform="translate(0)">
        <path id="Trazado_140620" data-name="Trazado 140620" d="M223.748,307.5a6.241,6.241,0,0,1-2.573.463,4.554,4.554,0,0,1-4.815-4.93,4.85,4.85,0,0,1,5.089-5.118,5.219,5.219,0,0,1,2.313.434l-.3,1.026a4.584,4.584,0,0,0-1.967-.4c-2.284,0-3.8,1.46-3.8,4.02,0,2.385,1.373,3.918,3.744,3.918a5.038,5.038,0,0,0,2.053-.4Z" transform="translate(-216.36 -297.919)" fill="#444"/>
      </g>
      <g id="Grupo_86931" data-name="Grupo 86931" transform="translate(8.402 0.506)">
        <path id="Trazado_140621" data-name="Trazado 140621" d="M232.421,308.236l.376-2.834h-1.186v-.853h1.316l.274-2.1h-1.243V301.6h1.373l.376-2.762h.838l-.361,2.762h1.5l.376-2.762h.853l-.362,2.762h1.186v.853h-1.316l-.261,2.1h1.243v.853h-1.373l-.376,2.834h-.868l.376-2.834h-1.5l-.375,2.834Zm2.877-3.687.275-2.1h-1.5l-.275,2.1Z" transform="translate(-231.611 -298.838)" fill="#444"/>
      </g>
    </g>
    <g id="Grupo_86937" data-name="Grupo 86937" transform="translate(323.338 201.134)">
      <g id="Grupo_86933" data-name="Grupo 86933" transform="translate(0)">
        <path id="Trazado_140622" data-name="Trazado 140622" d="M424.3,221.516a6.243,6.243,0,0,1-2.573.463,4.554,4.554,0,0,1-4.815-4.93A4.85,4.85,0,0,1,422,211.93a5.219,5.219,0,0,1,2.313.434l-.3,1.026a4.579,4.579,0,0,0-1.966-.4c-2.284,0-3.8,1.46-3.8,4.02,0,2.385,1.373,3.918,3.744,3.918a5.038,5.038,0,0,0,2.054-.4Z" transform="translate(-416.914 -211.93)" fill="#444"/>
      </g>
      <g id="Grupo_86934" data-name="Grupo 86934" transform="translate(8.474)">
        <path id="Trazado_140623" data-name="Trazado 140623" d="M432.614,220.3a4.455,4.455,0,0,0,2.255.636c1.287,0,2.039-.68,2.039-1.663,0-.911-.521-1.431-1.836-1.937-1.59-.564-2.573-1.388-2.573-2.762,0-1.518,1.258-2.646,3.152-2.646a4.427,4.427,0,0,1,2.154.477l-.346,1.027a3.883,3.883,0,0,0-1.851-.463c-1.33,0-1.836.8-1.836,1.46,0,.911.593,1.359,1.937,1.88,1.648.636,2.487,1.431,2.487,2.862,0,1.5-1.113,2.805-3.412,2.805a5.035,5.035,0,0,1-2.487-.622Z" transform="translate(-432.296 -211.93)" fill="#444"/>
      </g>
      <g id="Grupo_86935" data-name="Grupo 86935" transform="translate(15.603)">
        <path id="Trazado_140624" data-name="Trazado 140624" d="M445.555,220.3a4.459,4.459,0,0,0,2.256.636c1.287,0,2.038-.68,2.038-1.663,0-.911-.52-1.431-1.836-1.937-1.59-.564-2.573-1.388-2.573-2.762,0-1.518,1.258-2.646,3.152-2.646a4.431,4.431,0,0,1,2.155.477l-.347,1.027a3.882,3.882,0,0,0-1.85-.463c-1.33,0-1.837.8-1.837,1.46,0,.911.593,1.359,1.937,1.88,1.648.636,2.487,1.431,2.487,2.862,0,1.5-1.113,2.805-3.412,2.805a5.035,5.035,0,0,1-2.487-.622Z" transform="translate(-445.237 -211.93)" fill="#444"/>
      </g>
      <g id="Grupo_86936" data-name="Grupo 86936" transform="translate(22.732 0.347)">
        <path id="Trazado_140625" data-name="Trazado 140625" d="M458.525,220.656a4.252,4.252,0,0,0,2.082.593c1.634,0,2.14-1.041,2.126-1.822-.015-1.315-1.2-1.879-2.429-1.879h-.709v-.954h.709c.925,0,2.1-.477,2.1-1.59,0-.752-.477-1.417-1.648-1.417a3.452,3.452,0,0,0-1.88.621l-.333-.925A4.465,4.465,0,0,1,461,212.56c1.851,0,2.689,1.1,2.689,2.241a2.334,2.334,0,0,1-1.735,2.212v.029a2.449,2.449,0,0,1,2.1,2.415c0,1.5-1.171,2.819-3.427,2.819a4.779,4.779,0,0,1-2.444-.636Z" transform="translate(-458.178 -212.56)" fill="#444"/>
      </g>
    </g>
    <g id="Grupo_86960" data-name="Grupo 86960" transform="translate(416.704 243.991)">
      <g id="Grupo_86943" data-name="Grupo 86943">
        <g id="Grupo_86942" data-name="Grupo 86942">
          <g id="Grupo_86938" data-name="Grupo 86938">
            <path id="Rectángulo_16067" data-name="Rectángulo 16067" d="M23.346,0H63.729a23.35,23.35,0,0,1,23.35,23.35V90.5A23.348,23.348,0,0,1,63.73,113.847H23.346A23.346,23.346,0,0,1,0,90.5V23.346A23.346,23.346,0,0,1,23.346,0Z" transform="translate(0.827 0.826)" fill="#fffffd"/>
            <path id="Trazado_140626" data-name="Trazado 140626" d="M661.443,405.228H600.088A13.705,13.705,0,0,1,586.4,391.538V303.415a13.7,13.7,0,0,1,13.689-13.687h61.355a13.7,13.7,0,0,1,13.687,13.687v88.124A13.7,13.7,0,0,1,661.443,405.228ZM600.088,291.381a12.048,12.048,0,0,0-12.036,12.034v88.124a12.05,12.05,0,0,0,12.036,12.037h61.355a12.049,12.049,0,0,0,12.035-12.037V303.415a12.048,12.048,0,0,0-12.035-12.034Z" transform="translate(-586.399 -289.728)" fill="#444"/>
          </g>
          <g id="Grupo_86939" data-name="Grupo 86939" transform="translate(33.394 6.489)">
            <path id="Trazado_140627" data-name="Trazado 140627" d="M668.91,303.11a1.1,1.1,0,0,1-1.1,1.1H648.62a1.1,1.1,0,1,1,0-2.2h19.189A1.1,1.1,0,0,1,668.91,303.11Z" transform="translate(-647.243 -301.733)" fill="#444"/>
            <path id="Trazado_140628" data-name="Trazado 140628" d="M667.585,304.262H648.4a1.377,1.377,0,1,1,0-2.754h19.189a1.377,1.377,0,1,1,0,2.754Zm-19.189-2.2a.826.826,0,1,0,0,1.652h19.189a.826.826,0,1,0,0-1.652Z" transform="translate(-647.019 -301.508)" fill="#444"/>
          </g>
          <g id="Grupo_86940" data-name="Grupo 86940" transform="translate(7.813 13.759)">
            <rect id="Rectángulo_16068" data-name="Rectángulo 16068" width="72.849" height="82.665" fill="#65cbe9"/>
          </g>
          <g id="Grupo_86941" data-name="Grupo 86941" transform="translate(39.759 100.319)">
            <path id="Trazado_140629" data-name="Trazado 140629" d="M663.852,473.334a3.78,3.78,0,1,0,3.782,3.777A3.776,3.776,0,0,0,663.852,473.334Z" transform="translate(-659.247 -472.508)" fill="#fffffd"/>
            <path id="Trazado_140630" data-name="Trazado 140630" d="M663.178,481.046a4.606,4.606,0,1,1,4.609-4.61A4.613,4.613,0,0,1,663.178,481.046Zm0-7.56a2.954,2.954,0,1,0,2.956,2.95A2.954,2.954,0,0,0,663.178,473.487Z" transform="translate(-658.573 -471.834)" fill="#444"/>
          </g>
        </g>
      </g>
      <g id="Grupo_86944" data-name="Grupo 86944" transform="translate(13.364 21.133)">
        <rect id="Rectángulo_16069" data-name="Rectángulo 16069" width="60.984" height="27.881" fill="#fffffd"/>
      </g>
      <g id="Grupo_86945" data-name="Grupo 86945" transform="translate(36.789 26.685)">
        <path id="Trazado_140631" data-name="Trazado 140631" d="M667.084,346.278l-13.34,7.414a.377.377,0,0,1-.4.03.385.385,0,0,1-.166-.362V338.573a.387.387,0,0,1,.166-.361.38.38,0,0,1,.4.03l13.34,7.414a.325.325,0,0,1,0,.622Z" transform="translate(-653.181 -338.169)" fill="#fad978"/>
      </g>
      <g id="Grupo_86952" data-name="Grupo 86952" transform="translate(46.107 54.003)">
        <g id="Grupo_86946" data-name="Grupo 86946">
          <rect id="Rectángulo_16070" data-name="Rectángulo 16070" width="28.374" height="35.439" fill="#fffffd"/>
        </g>
        <g id="Grupo_86947" data-name="Grupo 86947" transform="translate(1.93 2.146)">
          <rect id="Rectángulo_16071" data-name="Rectángulo 16071" width="24.513" height="8.562" fill="#f0777e"/>
        </g>
        <g id="Grupo_86948" data-name="Grupo 86948" transform="translate(1.93 22.652)">
          <rect id="Rectángulo_16072" data-name="Rectángulo 16072" width="16.401" height="1.653" fill="#fad978"/>
        </g>
        <g id="Grupo_86949" data-name="Grupo 86949" transform="translate(1.93 18.52)">
          <rect id="Rectángulo_16073" data-name="Rectángulo 16073" width="16.401" height="1.653" fill="#fad978"/>
        </g>
        <g id="Grupo_86950" data-name="Grupo 86950" transform="translate(1.93 14.389)">
          <rect id="Rectángulo_16074" data-name="Rectángulo 16074" width="16.401" height="1.653" fill="#fad978"/>
        </g>
        <g id="Grupo_86951" data-name="Grupo 86951" transform="translate(1.93 27.015)">
          <rect id="Rectángulo_16075" data-name="Rectángulo 16075" width="7.78" height="1.653" fill="#fad978"/>
        </g>
      </g>
      <g id="Grupo_86959" data-name="Grupo 86959" transform="translate(13.364 54.003)">
        <g id="Grupo_86953" data-name="Grupo 86953">
          <rect id="Rectángulo_16076" data-name="Rectángulo 16076" width="28.374" height="35.439" fill="#fffffd"/>
        </g>
        <g id="Grupo_86954" data-name="Grupo 86954" transform="translate(1.931 2.146)">
          <rect id="Rectángulo_16077" data-name="Rectángulo 16077" width="24.513" height="8.562" fill="#f0777e"/>
        </g>
        <g id="Grupo_86955" data-name="Grupo 86955" transform="translate(1.931 22.652)">
          <rect id="Rectángulo_16078" data-name="Rectángulo 16078" width="16.4" height="1.653" fill="#fad978"/>
        </g>
        <g id="Grupo_86956" data-name="Grupo 86956" transform="translate(1.931 18.52)">
          <rect id="Rectángulo_16079" data-name="Rectángulo 16079" width="16.4" height="1.653" fill="#fad978"/>
        </g>
        <g id="Grupo_86957" data-name="Grupo 86957" transform="translate(1.931 14.389)">
          <rect id="Rectángulo_16080" data-name="Rectángulo 16080" width="16.4" height="1.653" fill="#fad978"/>
        </g>
        <g id="Grupo_86958" data-name="Grupo 86958" transform="translate(1.931 27.015)">
          <rect id="Rectángulo_16081" data-name="Rectángulo 16081" width="7.78" height="1.653" fill="#fad978"/>
        </g>
      </g>
    </g>
    <g id="Grupo_86961" data-name="Grupo 86961" transform="translate(416.796 245.276)" opacity="0.35" style="mix-blend-mode: multiply;isolation: isolate">
      <path id="Trazado_140632" data-name="Trazado 140632" d="M599.428,292.061a12.878,12.878,0,0,0-12.862,12.861v88.124a12.876,12.876,0,0,0,12.862,12.863h9.946c6.862-1.924,11.589-6.46,11.589-14.613v-4.1H607.409l0-95.136Z" transform="translate(-586.566 -292.061)" fill="#939598"/>
    </g>
    <g id="Grupo_86999" data-name="Grupo 86999" transform="translate(219.295 216.359)">
      <g id="Grupo_86971" data-name="Grupo 86971" transform="translate(0)">
        <g id="Grupo_86970" data-name="Grupo 86970">
          <g id="Grupo_86969" data-name="Grupo 86969">
            <g id="Grupo_86968" data-name="Grupo 86968">
              <g id="Grupo_86967" data-name="Grupo 86967">
                <g id="Grupo_86966" data-name="Grupo 86966">
                  <g id="Grupo_86962" data-name="Grupo 86962" transform="translate(13.552)">
                    <path id="Trazado_140633" data-name="Trazado 140633" d="M254.152,250.532a9.463,9.463,0,0,1,9.462-9.464H442.778a9.464,9.464,0,0,1,9.463,9.464l0,112.183H254.149Z" transform="translate(-253.323 -240.242)" fill="#fffffd"/>
                    <path id="Trazado_140634" data-name="Trazado 140634" d="M452.391,362.868H252.649l0-113.01a10.3,10.3,0,0,1,10.289-10.29H442.1a10.3,10.3,0,0,1,10.289,10.29ZM254.3,361.215H450.739l0-111.357a8.647,8.647,0,0,0-8.637-8.638H262.941a8.647,8.647,0,0,0-8.636,8.638Z" transform="translate(-252.649 -239.568)" fill="#444"/>
                  </g>
                  <g id="Grupo_86964" data-name="Grupo 86964" transform="translate(0 121.647)">
                    <g id="Grupo_86963" data-name="Grupo 86963">
                      <path id="Trazado_140635" data-name="Trazado 140635" d="M229.549,461.891v4.1c0,11.4,9.246,15.734,20.651,15.734H434.093c11.405,0,20.651-4.329,20.651-15.734v-4.1Z" transform="translate(-228.723 -461.065)" fill="#fffffd"/>
                      <path id="Trazado_140636" data-name="Trazado 140636" d="M433.42,481.875H249.527c-13.649,0-21.478-6.036-21.478-16.56v-4.924H454.9v4.924C454.9,475.839,447.069,481.875,433.42,481.875ZM229.7,462.044v3.272c0,12.971,12.421,14.907,19.825,14.907H433.42c7.4,0,19.825-1.937,19.825-14.907v-3.272Z" transform="translate(-228.049 -460.391)" fill="#444"/>
                    </g>
                  </g>
                  <g id="Grupo_86965" data-name="Grupo 86965" transform="translate(27.197 15.201)">
                    <rect id="Rectángulo_16082" data-name="Rectángulo 16082" width="173.136" height="99.746" transform="translate(0.827 0.826)" fill="#65cbe9"/>
                    <path id="Trazado_140637" data-name="Trazado 140637" d="M452.208,368.561H277.419v-101.4H452.208Zm-173.137-1.653H450.556V268.815H279.072Z" transform="translate(-277.419 -267.162)" fill="#444"/>
                  </g>
                </g>
              </g>
            </g>
          </g>
        </g>
      </g>
      <g id="Grupo_86975" data-name="Grupo 86975" transform="translate(35.61 20.582)">
        <g id="Grupo_86972" data-name="Grupo 86972">
          <path id="Trazado_140638" data-name="Trazado 140638" d="M296.663,278.916a1.986,1.986,0,1,1-1.987-1.987A1.986,1.986,0,0,1,296.663,278.916Z" transform="translate(-292.691 -276.929)" fill="#f0777e"/>
        </g>
        <g id="Grupo_86973" data-name="Grupo 86973" transform="translate(5.5)">
          <path id="Trazado_140639" data-name="Trazado 140639" d="M306.647,278.916a1.986,1.986,0,1,1-1.986-1.987A1.986,1.986,0,0,1,306.647,278.916Z" transform="translate(-302.675 -276.929)" fill="#fffffd"/>
        </g>
        <g id="Grupo_86974" data-name="Grupo 86974" transform="translate(11)">
          <path id="Trazado_140640" data-name="Trazado 140640" d="M316.631,278.916a1.986,1.986,0,1,1-1.986-1.987A1.986,1.986,0,0,1,316.631,278.916Z" transform="translate(-312.659 -276.929)" fill="#fad978"/>
        </g>
      </g>
      <g id="Grupo_86976" data-name="Grupo 86976" transform="translate(34.634 28.147)">
        <rect id="Rectángulo_16083" data-name="Rectángulo 16083" width="159.909" height="81.011" fill="#fffffd"/>
      </g>
      <g id="Grupo_86977" data-name="Grupo 86977" transform="translate(42.192 36.011)">
        <rect id="Rectángulo_16084" data-name="Rectángulo 16084" width="28.176" height="2.315" fill="#f0777e"/>
      </g>
      <g id="Grupo_86981" data-name="Grupo 86981" transform="translate(63.001 66.393)">
        <g id="Grupo_86978" data-name="Grupo 86978">
          <rect id="Rectángulo_16085" data-name="Rectángulo 16085" width="51.382" height="2.315" fill="#f0777e"/>
        </g>
        <g id="Grupo_86979" data-name="Grupo 86979" transform="translate(55.066)">
          <rect id="Rectángulo_16086" data-name="Rectángulo 16086" width="16.978" height="2.315" fill="#f0777e"/>
        </g>
        <g id="Grupo_86980" data-name="Grupo 86980" transform="translate(76.846)">
          <rect id="Rectángulo_16087" data-name="Rectángulo 16087" width="38.279" height="2.315" fill="#f0777e"/>
        </g>
      </g>
      <g id="Grupo_86982" data-name="Grupo 86982" transform="translate(48.821 51.202)">
        <rect id="Rectángulo_16088" data-name="Rectángulo 16088" width="14.089" height="2.316" fill="#f0777e"/>
      </g>
      <g id="Grupo_86983" data-name="Grupo 86983" transform="translate(55.588 73.989)">
        <rect id="Rectángulo_16089" data-name="Rectángulo 16089" width="14.089" height="2.315" fill="#a9cd68"/>
      </g>
      <g id="Grupo_86984" data-name="Grupo 86984" transform="translate(42.436 89.179)">
        <rect id="Rectángulo_16090" data-name="Rectángulo 16090" width="14.089" height="2.315" fill="#a9cd68"/>
      </g>
      <g id="Grupo_86988" data-name="Grupo 86988" transform="translate(42.436 43.606)">
        <g id="Grupo_86985" data-name="Grupo 86985">
          <rect id="Rectángulo_16091" data-name="Rectángulo 16091" width="14.089" height="2.315" fill="#a9cd68"/>
        </g>
        <g id="Grupo_86986" data-name="Grupo 86986" transform="translate(18.171)">
          <rect id="Rectángulo_16092" data-name="Rectángulo 16092" width="38.123" height="2.315" fill="#fad978"/>
        </g>
        <g id="Grupo_86987" data-name="Grupo 86987" transform="translate(60.902)">
          <rect id="Rectángulo_16093" data-name="Rectángulo 16093" width="29.594" height="2.315" fill="#fad978"/>
        </g>
      </g>
      <g id="Grupo_86993" data-name="Grupo 86993" transform="translate(55.588 58.798)">
        <g id="Grupo_86989" data-name="Grupo 86989">
          <rect id="Rectángulo_16094" data-name="Rectángulo 16094" width="14.089" height="2.315" fill="#a9cd68"/>
        </g>
        <g id="Grupo_86990" data-name="Grupo 86990" transform="translate(19.983)">
          <rect id="Rectángulo_16095" data-name="Rectángulo 16095" width="14.087" height="2.315" fill="#a9cd68"/>
        </g>
        <g id="Grupo_86991" data-name="Grupo 86991" transform="translate(62.755)">
          <rect id="Rectángulo_16096" data-name="Rectángulo 16096" width="23.119" height="2.315" fill="#a9cd68"/>
        </g>
        <g id="Grupo_86992" data-name="Grupo 86992" transform="translate(38.721)">
          <rect id="Rectángulo_16097" data-name="Rectángulo 16097" width="19.613" height="2.315" fill="#fad978"/>
        </g>
      </g>
      <g id="Grupo_86997" data-name="Grupo 86997" transform="translate(49.512 96.774)">
        <g id="Grupo_86994" data-name="Grupo 86994" transform="translate(15.193)">
          <rect id="Rectángulo_16098" data-name="Rectángulo 16098" width="8.011" height="2.315" fill="#f0777e"/>
        </g>
        <g id="Grupo_86995" data-name="Grupo 86995">
          <rect id="Rectángulo_16099" data-name="Rectángulo 16099" width="10.036" height="2.315" fill="#a9cd68"/>
        </g>
        <g id="Grupo_86996" data-name="Grupo 86996" transform="translate(28.36)">
          <rect id="Rectángulo_16100" data-name="Rectángulo 16100" width="11.143" height="2.315" fill="#fad978"/>
        </g>
      </g>
      <g id="Grupo_86998" data-name="Grupo 86998" transform="translate(62.403 81.584)">
        <rect id="Rectángulo_16101" data-name="Rectángulo 16101" width="124.533" height="2.315" fill="#fad978"/>
      </g>
    </g>
    <g id="Grupo_87000" data-name="Grupo 87000" transform="translate(329.277 187.891)">
      <rect id="Rectángulo_16102" data-name="Rectángulo 16102" width="44.449" height="1.653" transform="translate(0)" fill="#444"/>
    </g>
    <g id="Grupo_87001" data-name="Grupo 87001" transform="translate(362.869 198.633)">
      <rect id="Rectángulo_16103" data-name="Rectángulo 16103" width="60.318" height="1.653" transform="translate(0)" fill="#444"/>
    </g>
    <g id="Grupo_87002" data-name="Grupo 87002" transform="translate(297.291 200.774)">
      <rect id="Rectángulo_16104" data-name="Rectángulo 16104" width="19.385" height="1.653" fill="#444"/>
    </g>
    <g id="Grupo_87003" data-name="Grupo 87003" transform="translate(456.266 231.56)">
      <rect id="Rectángulo_16105" data-name="Rectángulo 16105" width="19.385" height="1.653" fill="#444"/>
    </g>
    <g id="Grupo_87004" data-name="Grupo 87004" transform="translate(380.509 187.891)">
      <rect id="Rectángulo_16106" data-name="Rectángulo 16106" width="19.66" height="1.653" fill="#444"/>
    </g>
    <g id="Grupo_87007" data-name="Grupo 87007" transform="translate(215.525 222.816)">
      <g id="Grupo_87005" data-name="Grupo 87005" transform="translate(0 3.77)">
        <rect id="Rectángulo_16107" data-name="Rectángulo 16107" width="9.193" height="1.653" fill="#444"/>
      </g>
      <g id="Grupo_87006" data-name="Grupo 87006" transform="translate(3.77)">
        <rect id="Rectángulo_16108" data-name="Rectángulo 16108" width="1.653" height="9.193" fill="#444"/>
      </g>
    </g>
    <g id="Grupo_87010" data-name="Grupo 87010" transform="translate(286.321 197.766)">
      <g id="Grupo_87008" data-name="Grupo 87008" transform="translate(0)">
        <rect id="Rectángulo_16109" data-name="Rectángulo 16109" width="1.652" height="9.193" transform="translate(0 1.168) rotate(-45)" fill="#444"/>
      </g>
      <g id="Grupo_87009" data-name="Grupo 87009" transform="translate(0)">
        <rect id="Rectángulo_16110" data-name="Rectángulo 16110" width="9.193" height="1.652" transform="translate(0 6.5) rotate(-45)" fill="#444"/>
      </g>
    </g>
    <g id="Grupo_87014" data-name="Grupo 87014" transform="translate(208.558 203.347)">
      <g id="Grupo_87011" data-name="Grupo 87011" transform="translate(5.781 7.023)">
        <rect id="Rectángulo_16111" data-name="Rectángulo 16111" width="44.449" height="1.653" fill="#444"/>
      </g>
      <g id="Grupo_87012" data-name="Grupo 87012" transform="translate(0 14.047)">
        <rect id="Rectángulo_16112" data-name="Rectángulo 16112" width="19.66" height="1.653" fill="#444"/>
      </g>
      <g id="Grupo_87013" data-name="Grupo 87013" transform="translate(29.746)">
        <rect id="Rectángulo_16113" data-name="Rectángulo 16113" width="19.66" height="1.653" fill="#444"/>
      </g>
    </g>
    <g id="Grupo_87015" data-name="Grupo 87015" transform="translate(440.405 228.743)">
      <path id="Trazado_140641" data-name="Trazado 140641" d="M633.064,269.335a3.644,3.644,0,1,1,3.645-3.641A3.645,3.645,0,0,1,633.064,269.335Zm0-5.634a1.991,1.991,0,1,0,1.992,1.993A1.993,1.993,0,0,0,633.064,263.7Z" transform="translate(-629.423 -262.048)" fill="#444"/>
    </g>
  </g>
</svg>
