<svg xmlns="http://www.w3.org/2000/svg" width="249.882" height="269" viewBox="0 0 249.882 269">
  <g id="Grupo_88295" data-name="Grupo 88295" transform="translate(-269.573 -55.909)">
    <path id="Trazado_141229" data-name="Trazado 141229" d="M287.842,280.774a.774.774,0,0,1-.36-.088l-16.891-8.779a1.891,1.891,0,0,1-.035-3.337l16.757-9.172a.329.329,0,0,0,0-.575l-16.556-9.21a1.892,1.892,0,0,1-.055-3.276L294,232.344a5.654,5.654,0,0,1,5.687-.072l12.944,7.337a.782.782,0,0,1-.771,1.361l-12.944-7.337a4.082,4.082,0,0,0-4.11.052l-23.294,13.993a.317.317,0,0,0-.16.287.321.321,0,0,0,.169.281l16.555,9.21a1.891,1.891,0,0,1-.011,3.312l-16.757,9.172a.328.328,0,0,0,.006.578L288.2,279.3a.782.782,0,0,1-.362,1.476Z" transform="translate(0 -18.149)" fill="#5793ce"/>
    <g id="Grupo_88299" data-name="Grupo 88299" transform="translate(281.426 257.678)">
      <g id="Grupo_88298" data-name="Grupo 88298" transform="translate(0)">
        <g id="Grupo_88297" data-name="Grupo 88297">
          <g id="Grupo_88295-2" data-name="Grupo 88295">
            <rect id="Rectángulo_23571" data-name="Rectángulo 23571" width="4.193" height="9.047" transform="translate(10.371 4.598) rotate(119.831)" fill="#5793ce"/>
            <path id="Trazado_141230" data-name="Trazado 141230" d="M282.792,283.706a3.276,3.276,0,0,1,1.475-2.572c.817-.475,1.482-.094,1.485.851a3.276,3.276,0,0,1-1.475,2.572C283.459,285.032,282.795,284.651,282.792,283.706Z" transform="translate(-282.792 -280.93)" fill="#5793ce"/>
          </g>
          <g id="Grupo_88296" data-name="Grupo 88296" transform="translate(4.338 2.334)">
            <rect id="Rectángulo_23572" data-name="Rectángulo 23572" width="6.794" height="14.19" transform="translate(17.619 7.408) rotate(119.831)" fill="#5793ce"/>
            <path id="Trazado_141231" data-name="Trazado 141231" d="M292.372,285.056l-2.657-1.523a5.428,5.428,0,0,0-2.086,3.638l2.657,1.523A5.424,5.424,0,0,0,292.372,285.056Z" transform="translate(-287.63 -283.533)" fill="#396caa"/>
            <path id="Trazado_141232" data-name="Trazado 141232" d="M288.992,288.245a5.307,5.307,0,0,1,2.39-4.167c1.324-.77,2.4-.152,2.407,1.379a5.309,5.309,0,0,1-2.391,4.168C290.073,290.395,289,289.777,288.992,288.245Z" transform="translate(-287.771 -283.555)" fill="#5793ce"/>
          </g>
        </g>
      </g>
      <ellipse id="Elipse_4547" data-name="Elipse 4547" cx="0.984" cy="0.568" rx="0.984" ry="0.568" transform="matrix(1, -0.003, 0.003, 1, 2.185, 0.837)" fill="#d4ecff"/>
    </g>
    <g id="Grupo_88361" data-name="Grupo 88361" transform="translate(275.697 55.909)">
      <g id="Grupo_88319" data-name="Grupo 88319" transform="translate(20.088)">
        <g id="Grupo_88311" data-name="Grupo 88311">
          <g id="Grupo_88302" data-name="Grupo 88302">
            <path id="Trazado_141233" data-name="Trazado 141233" d="M377.822,181.815h0V85.075L339.363,75.01l-7.084-4.09a7.049,7.049,0,0,0-6.343.263L319.327,75l-20.512-.011,6.074,93.388a1.836,1.836,0,0,0,1.089,1.7l38.38,28.96a7.05,7.05,0,0,0,6.342-.264L376.277,184A2.515,2.515,0,0,0,377.822,181.815Z" transform="translate(-298.806 -57.395)" fill="#396caa"/>
            <path id="Trazado_141234" data-name="Trazado 141234" d="M329.336,70.291a7.315,7.315,0,0,0-3.4.892L319.327,75l-20.512-.011v97a1.838,1.838,0,0,0,1.089,1.7l44.454,25.348a5.737,5.737,0,0,0,2.943.629l.458-97.606Z" transform="translate(-298.806 -57.395)" fill="#d4ecff"/>
            <path id="Trazado_141235" data-name="Trazado 141235" d="M350.061,202.762a7.227,7.227,0,0,0,5.07-.058V104.431h-5.07Z" transform="translate(-304.102 -60.923)" fill="#5793ce"/>
            <path id="Trazado_141236" data-name="Trazado 141236" d="M344.357,100.582,299.9,75.235c-1.626-.939-1.421-2.579.455-3.662l25.578-14.767a7.049,7.049,0,0,1,6.343-.263L376.732,81.89c1.626.939,1.422,2.579-.455,3.662L350.7,100.319A7.047,7.047,0,0,1,344.357,100.582Z" transform="translate(-298.805 -55.909)" fill="#d4ecff"/>
            <path id="Trazado_141237" data-name="Trazado 141237" d="M376.276,85.69,350.7,100.457a7.047,7.047,0,0,1-6.342.263L299.9,75.373a2.449,2.449,0,0,1-.811-.72,1.7,1.7,0,0,0,.811,2.519l44.454,25.347a7.047,7.047,0,0,0,6.342-.263l25.577-14.767c1.459-.842,1.9-2.018,1.267-2.942A3.55,3.55,0,0,1,376.276,85.69Z" transform="translate(-298.805 -57.846)" fill="#fafdff"/>
            <g id="Grupo_88301" data-name="Grupo 88301" transform="translate(16.699 8.201)">
              <path id="Trazado_141238" data-name="Trazado 141238" d="M347.538,91.254,317.942,74.1c-.76-.439-.665-1.207.213-1.714l11.969-6.91a3.3,3.3,0,0,1,2.968-.123l29.6,17.156c.76.438.665,1.206-.213,1.714l-11.969,6.91A3.3,3.3,0,0,1,347.538,91.254Z" transform="translate(-317.428 -65.055)" fill="#173d7a"/>
              <g id="Grupo_88300" data-name="Grupo 88300" transform="translate(12.346 7.573)">
                <path id="Trazado_141239" data-name="Trazado 141239" d="M332.983,75.742l-1.715-.99c-.1-.061-.092-.168.03-.238l1.656-.956a.456.456,0,0,1,.411-.017l1.714.99c.106.061.092.167-.029.238l-1.655.956A.457.457,0,0,1,332.983,75.742Z" transform="translate(-331.197 -73.5)" fill="#d4ecff"/>
                <path id="Trazado_141240" data-name="Trazado 141240" d="M339.372,79.416l-1.714-.99c-.106-.061-.092-.167.03-.238l1.655-.956a.457.457,0,0,1,.411-.017l1.715.99c.1.061.092.167-.03.238l-1.656.956A.457.457,0,0,1,339.372,79.416Z" transform="translate(-331.857 -73.88)" fill="#d4ecff"/>
                <path id="Trazado_141241" data-name="Trazado 141241" d="M345.762,83.09l-1.714-.99c-.106-.061-.092-.167.029-.238l1.656-.956a.456.456,0,0,1,.411-.017l1.715.99c.1.061.092.168-.03.238l-1.656.956A.456.456,0,0,1,345.762,83.09Z" transform="translate(-332.517 -74.26)" fill="#d4ecff"/>
                <path id="Trazado_141242" data-name="Trazado 141242" d="M352.152,86.764l-1.715-.99c-.1-.061-.091-.167.03-.237l1.656-.957a.459.459,0,0,1,.411-.017l1.715.991c.1.06.091.167-.03.237l-1.656.956A.457.457,0,0,1,352.152,86.764Z" transform="translate(-333.178 -74.639)" fill="#d4ecff"/>
              </g>
              <path id="Trazado_141243" data-name="Trazado 141243" d="M317.942,74.1l.035.02a2.125,2.125,0,0,1,.178-.122l11.969-6.911a3.3,3.3,0,0,1,2.968-.123L362.653,84.1c.7-.5.738-1.185.035-1.591l-29.6-17.156a3.3,3.3,0,0,0-2.968.123l-11.969,6.91C317.276,72.892,317.181,73.659,317.942,74.1Z" transform="translate(-317.428 -65.055)" fill="#5793ce"/>
            </g>
          </g>
          <g id="Grupo_88304" data-name="Grupo 88304" transform="translate(55.173 43.41)">
            <path id="Trazado_141244" data-name="Trazado 141244" d="M362.051,124.752l16.827-9.635a4.108,4.108,0,0,0,1.714-3.276v-6.018c0-1.263-.768-1.843-1.714-1.3l-16.827,9.634a4.107,4.107,0,0,0-1.714,3.276v6.018C360.337,124.718,361.1,125.3,362.051,124.752Z" transform="translate(-360.337 -104.321)" fill="#173d7a"/>
            <path id="Trazado_141245" data-name="Trazado 141245" d="M379.761,104.348a1.681,1.681,0,0,1,.43,1.252v6.018a4.106,4.106,0,0,1-1.714,3.276l-16.828,9.635a1.232,1.232,0,0,1-.832.181,1.023,1.023,0,0,0,1.284.045l16.827-9.635a4.108,4.108,0,0,0,1.714-3.276v-6.018C380.642,104.968,380.285,104.438,379.761,104.348Z" transform="translate(-360.387 -104.324)" fill="#fff"/>
            <g id="Grupo_88303" data-name="Grupo 88303" transform="translate(6.401 7.332)">
              <path id="Trazado_141246" data-name="Trazado 141246" d="M367.85,119.4l1.544-.891a.894.894,0,0,0,.373-.714v-1.649c0-.275-.167-.4-.373-.282l-1.544.891a.9.9,0,0,0-.374.714v1.649C367.476,119.4,367.644,119.522,367.85,119.4Z" transform="translate(-367.476 -112.841)" fill="#396caa"/>
              <path id="Trazado_141247" data-name="Trazado 141247" d="M373.606,116.079l1.544-.891a.9.9,0,0,0,.374-.714v-1.649c0-.275-.168-.4-.374-.282l-1.544.891a.893.893,0,0,0-.373.714V115.8C373.233,116.072,373.4,116.2,373.606,116.079Z" transform="translate(-368.071 -112.498)" fill="#fff"/>
            </g>
          </g>
          <g id="Grupo_88306" data-name="Grupo 88306" transform="translate(55.173 86.894)">
            <path id="Trazado_141248" data-name="Trazado 141248" d="M362.051,173.247l16.827-9.635a4.1,4.1,0,0,0,1.714-3.276v-6.018c0-1.262-.768-1.844-1.714-1.3l-16.827,9.635a4.106,4.106,0,0,0-1.714,3.276v6.018C360.337,173.213,361.1,173.794,362.051,173.247Z" transform="translate(-360.337 -152.816)" fill="#173d7a"/>
            <path id="Trazado_141249" data-name="Trazado 141249" d="M379.761,152.844a1.679,1.679,0,0,1,.43,1.252v6.018a4.108,4.108,0,0,1-1.714,3.276l-16.828,9.635a1.237,1.237,0,0,1-.832.181,1.023,1.023,0,0,0,1.284.044l16.827-9.635a4.1,4.1,0,0,0,1.714-3.276v-6.018C380.642,153.464,380.285,152.933,379.761,152.844Z" transform="translate(-360.387 -152.819)" fill="#fff"/>
            <g id="Grupo_88305" data-name="Grupo 88305" transform="translate(6.401 7.332)">
              <path id="Trazado_141250" data-name="Trazado 141250" d="M367.85,167.9l1.544-.891a.9.9,0,0,0,.373-.714v-1.649c0-.275-.167-.4-.373-.282l-1.544.891a.894.894,0,0,0-.374.714v1.649C367.476,167.891,367.644,168.018,367.85,167.9Z" transform="translate(-367.476 -161.337)" fill="#396caa"/>
              <path id="Trazado_141251" data-name="Trazado 141251" d="M373.606,164.574l1.544-.89a.9.9,0,0,0,.374-.715V161.32c0-.274-.168-.4-.374-.282l-1.544.891a.9.9,0,0,0-.373.715v1.648C373.233,164.567,373.4,164.694,373.606,164.574Z" transform="translate(-368.071 -160.993)" fill="#fff"/>
            </g>
          </g>
          <g id="Grupo_88308" data-name="Grupo 88308" transform="translate(55.173 108.636)">
            <path id="Trazado_141252" data-name="Trazado 141252" d="M362.051,197.495l16.827-9.635a4.106,4.106,0,0,0,1.714-3.276v-6.018c0-1.263-.768-1.844-1.714-1.3L362.051,186.9a4.1,4.1,0,0,0-1.714,3.276V196.2C360.337,197.461,361.1,198.042,362.051,197.495Z" transform="translate(-360.337 -177.064)" fill="#173d7a"/>
            <path id="Trazado_141253" data-name="Trazado 141253" d="M379.761,177.092a1.679,1.679,0,0,1,.43,1.252v6.018a4.108,4.108,0,0,1-1.714,3.276l-16.828,9.634a1.233,1.233,0,0,1-.832.182,1.023,1.023,0,0,0,1.284.044l16.827-9.635a4.1,4.1,0,0,0,1.714-3.276V178.57C380.642,177.712,380.285,177.181,379.761,177.092Z" transform="translate(-360.387 -177.067)" fill="#fff"/>
            <g id="Grupo_88307" data-name="Grupo 88307" transform="translate(6.401 7.332)">
              <path id="Trazado_141254" data-name="Trazado 141254" d="M367.85,192.146l1.544-.891a.9.9,0,0,0,.373-.715v-1.648c0-.275-.167-.4-.373-.282l-1.544.89a.9.9,0,0,0-.374.715v1.649C367.476,192.139,367.644,192.266,367.85,192.146Z" transform="translate(-367.476 -185.584)" fill="#396caa"/>
              <path id="Trazado_141255" data-name="Trazado 141255" d="M373.606,188.822l1.544-.891a.9.9,0,0,0,.374-.714v-1.649c0-.275-.168-.4-.374-.282l-1.544.891a.894.894,0,0,0-.373.714v1.649C373.233,188.815,373.4,188.942,373.606,188.822Z" transform="translate(-368.071 -185.241)" fill="#fff"/>
            </g>
          </g>
          <g id="Grupo_88310" data-name="Grupo 88310" transform="translate(55.173 65.152)">
            <path id="Trazado_141256" data-name="Trazado 141256" d="M362.051,149l16.827-9.634a4.107,4.107,0,0,0,1.714-3.276v-6.018c0-1.262-.768-1.843-1.714-1.3l-16.827,9.635a4.107,4.107,0,0,0-1.714,3.276V147.7C360.337,148.965,361.1,149.546,362.051,149Z" transform="translate(-360.337 -128.569)" fill="#173d7a"/>
            <path id="Trazado_141257" data-name="Trazado 141257" d="M379.761,128.6a1.681,1.681,0,0,1,.43,1.252v6.018a4.108,4.108,0,0,1-1.714,3.276l-16.828,9.635a1.232,1.232,0,0,1-.832.181A1.023,1.023,0,0,0,362.1,149l16.827-9.635a4.1,4.1,0,0,0,1.714-3.276v-6.017C380.642,129.216,380.285,128.685,379.761,128.6Z" transform="translate(-360.387 -128.572)" fill="#fff"/>
            <g id="Grupo_88309" data-name="Grupo 88309" transform="translate(6.401 7.332)">
              <path id="Trazado_141258" data-name="Trazado 141258" d="M367.85,143.65l1.544-.891a.894.894,0,0,0,.373-.714V140.4c0-.275-.167-.4-.373-.282l-1.544.891a.9.9,0,0,0-.374.714v1.649C367.476,143.643,367.644,143.77,367.85,143.65Z" transform="translate(-367.476 -137.089)" fill="#396caa"/>
              <path id="Trazado_141259" data-name="Trazado 141259" d="M373.606,140.327l1.544-.891a.9.9,0,0,0,.374-.715v-1.648c0-.275-.168-.4-.374-.282l-1.544.89a.9.9,0,0,0-.373.715v1.649C373.233,140.319,373.4,140.447,373.606,140.327Z" transform="translate(-368.071 -136.746)" fill="#fff"/>
            </g>
          </g>
        </g>
        <g id="Grupo_88312" data-name="Grupo 88312" transform="translate(1.917 23.478)">
          <path id="Trazado_141260" data-name="Trazado 141260" d="M341.339,116.295,302.517,93.88a3.767,3.767,0,0,1-1.574-3.006v-7.4c0-1.158.7-1.691,1.574-1.189L341.339,104.7a3.767,3.767,0,0,1,1.574,3.006v7.4C342.912,116.263,342.208,116.8,341.339,116.295Z" transform="translate(-300.943 -82.093)" fill="#5793ce"/>
          <path id="Trazado_141261" data-name="Trazado 141261" d="M340.442,114.009,303.849,92.881a1.91,1.91,0,0,1-.8-1.525V85.79c0-.587.357-.857.8-.6l36.593,21.127a1.912,1.912,0,0,1,.8,1.525v5.566C341.241,113.992,340.883,114.263,340.442,114.009Z" transform="translate(-301.161 -82.403)" fill="#d4ecff" opacity="0.4"/>
          <path id="Trazado_141262" data-name="Trazado 141262" d="M311.727,94.94l-5.462-3.154a1.856,1.856,0,0,1-.775-1.481h0c0-.57.347-.833.775-.586l5.462,3.153a1.857,1.857,0,0,1,.775,1.481h0C312.5,94.924,312.155,95.186,311.727,94.94Z" transform="translate(-301.413 -82.872)" fill="#d4ecff"/>
          <ellipse id="Elipse_4548" data-name="Elipse 4548" cx="0.731" cy="1.266" rx="0.731" ry="1.266" transform="matrix(0.866, -0.5, 0.5, 0.866, 12.807, 12.474)" fill="#173d7a"/>
          <path id="Trazado_141263" data-name="Trazado 141263" d="M320.951,99.236c0,.57-.4.8-.895.516a1.979,1.979,0,0,1-.895-1.55c0-.571.4-.8.895-.516A1.976,1.976,0,0,1,320.951,99.236Z" transform="translate(-302.825 -83.692)" fill="#173d7a"/>
          <path id="Trazado_141264" data-name="Trazado 141264" d="M324.473,101.269c0,.57-.4.8-.895.516a1.975,1.975,0,0,1-.895-1.55c0-.57.4-.8.895-.516A1.978,1.978,0,0,1,324.473,101.269Z" transform="translate(-303.189 -83.902)" fill="#d4ecff"/>
          <path id="Trazado_141265" data-name="Trazado 141265" d="M327.995,103.3c0,.57-.4.8-.9.516a1.978,1.978,0,0,1-.895-1.55c0-.57.4-.8.895-.516A1.977,1.977,0,0,1,327.995,103.3Z" transform="translate(-303.553 -84.112)" fill="#173d7a"/>
          <path id="Trazado_141266" data-name="Trazado 141266" d="M342.766,113.378l-1.84-1.063a1.191,1.191,0,0,1-.5-.95V109.42c0-.367.222-.535.5-.377l1.84,1.063a1.192,1.192,0,0,1,.5.95V113C343.263,113.369,343.04,113.536,342.766,113.378Z" transform="translate(-305.023 -84.872)" fill="#173d7a"/>
        </g>
        <g id="Grupo_88313" data-name="Grupo 88313" transform="translate(1.917 36.533)">
          <path id="Trazado_141267" data-name="Trazado 141267" d="M341.339,130.853l-38.822-22.414a3.77,3.77,0,0,1-1.574-3.007v-7.4c0-1.159.7-1.691,1.574-1.19l38.822,22.414a3.77,3.77,0,0,1,1.574,3.007v7.4C342.912,130.822,342.208,131.355,341.339,130.853Z" transform="translate(-300.943 -96.652)" fill="#5793ce"/>
          <path id="Trazado_141268" data-name="Trazado 141268" d="M340.442,128.567l-36.593-21.127a1.91,1.91,0,0,1-.8-1.525v-5.565c0-.588.357-.858.8-.6l36.593,21.127a1.911,1.911,0,0,1,.8,1.525v5.565C341.241,128.551,340.883,128.821,340.442,128.567Z" transform="translate(-301.161 -96.961)" fill="#d4ecff" opacity="0.4"/>
          <path id="Trazado_141269" data-name="Trazado 141269" d="M311.727,109.5l-5.462-3.153a1.859,1.859,0,0,1-.775-1.481h0c0-.571.347-.833.775-.586l5.462,3.154a1.856,1.856,0,0,1,.775,1.48h0C312.5,109.482,312.155,109.745,311.727,109.5Z" transform="translate(-301.413 -97.43)" fill="#d4ecff"/>
          <path id="Trazado_141270" data-name="Trazado 141270" d="M317.43,111.761c0,.57-.4.8-.895.516a1.977,1.977,0,0,1-.9-1.55c0-.57.4-.8.9-.516A1.978,1.978,0,0,1,317.43,111.761Z" transform="translate(-302.462 -98.04)" fill="#fff"/>
          <path id="Trazado_141271" data-name="Trazado 141271" d="M320.951,113.794c0,.571-.4.8-.895.516a1.978,1.978,0,0,1-.895-1.55c0-.57.4-.8.895-.516A1.976,1.976,0,0,1,320.951,113.794Z" transform="translate(-302.825 -98.25)" fill="#173d7a"/>
          <path id="Trazado_141272" data-name="Trazado 141272" d="M324.473,115.827c0,.571-.4.8-.895.516a1.975,1.975,0,0,1-.895-1.549c0-.571.4-.8.895-.517A1.981,1.981,0,0,1,324.473,115.827Z" transform="translate(-303.189 -98.46)" fill="#d4ecff"/>
          <ellipse id="Elipse_4549" data-name="Elipse 4549" cx="0.731" cy="1.266" rx="0.731" ry="1.266" transform="matrix(0.866, -0.5, 0.5, 0.866, 22.28, 17.943)" fill="#173d7a"/>
          <path id="Trazado_141273" data-name="Trazado 141273" d="M342.766,127.937l-1.84-1.062a1.193,1.193,0,0,1-.5-.951v-1.946c0-.367.222-.534.5-.376l1.84,1.062a1.192,1.192,0,0,1,.5.95v1.947C343.263,127.927,343.04,128.1,342.766,127.937Z" transform="translate(-305.023 -99.43)" fill="#173d7a"/>
        </g>
        <g id="Grupo_88314" data-name="Grupo 88314" transform="translate(1.917 49.586)">
          <path id="Trazado_141274" data-name="Trazado 141274" d="M341.339,145.411,302.517,123a3.767,3.767,0,0,1-1.574-3.006v-7.4c0-1.159.7-1.691,1.574-1.19l38.822,22.415a3.767,3.767,0,0,1,1.574,3.006v7.4C342.912,145.38,342.208,145.913,341.339,145.411Z" transform="translate(-300.943 -111.21)" fill="#5793ce"/>
          <path id="Trazado_141275" data-name="Trazado 141275" d="M340.442,143.126,303.849,122a1.912,1.912,0,0,1-.8-1.525v-5.566c0-.587.357-.858.8-.6l36.593,21.127a1.912,1.912,0,0,1,.8,1.525v5.566C341.241,143.109,340.883,143.38,340.442,143.126Z" transform="translate(-301.161 -111.52)" fill="#d4ecff" opacity="0.4"/>
          <path id="Trazado_141276" data-name="Trazado 141276" d="M311.727,124.056l-5.462-3.153a1.858,1.858,0,0,1-.775-1.481h0c0-.57.347-.833.775-.586l5.462,3.153a1.857,1.857,0,0,1,.775,1.481h0C312.5,124.041,312.155,124.3,311.727,124.056Z" transform="translate(-301.413 -111.988)" fill="#d4ecff"/>
          <path id="Trazado_141277" data-name="Trazado 141277" d="M317.43,126.319c0,.571-.4.8-.895.517a1.979,1.979,0,0,1-.9-1.55c0-.571.4-.8.9-.517A1.981,1.981,0,0,1,317.43,126.319Z" transform="translate(-302.462 -112.598)" fill="#fff"/>
          <path id="Trazado_141278" data-name="Trazado 141278" d="M320.951,128.352c0,.571-.4.8-.895.517a1.981,1.981,0,0,1-.895-1.55c0-.571.4-.8.895-.517A1.978,1.978,0,0,1,320.951,128.352Z" transform="translate(-302.825 -112.808)" fill="#173d7a"/>
          <path id="Trazado_141279" data-name="Trazado 141279" d="M324.473,130.386c0,.57-.4.8-.895.516a1.977,1.977,0,0,1-.895-1.55c0-.571.4-.8.895-.516A1.978,1.978,0,0,1,324.473,130.386Z" transform="translate(-303.189 -113.018)" fill="#d4ecff"/>
          <path id="Trazado_141280" data-name="Trazado 141280" d="M327.995,132.419c0,.57-.4.8-.9.517a1.978,1.978,0,0,1-.895-1.55c0-.571.4-.8.895-.516A1.977,1.977,0,0,1,327.995,132.419Z" transform="translate(-303.553 -113.228)" fill="#173d7a"/>
          <path id="Trazado_141281" data-name="Trazado 141281" d="M342.766,142.495l-1.84-1.062a1.191,1.191,0,0,1-.5-.95v-1.947c0-.366.222-.534.5-.376l1.84,1.062a1.194,1.194,0,0,1,.5.95v1.947C343.263,142.486,343.04,142.653,342.766,142.495Z" transform="translate(-305.023 -113.988)" fill="#173d7a"/>
        </g>
        <g id="Grupo_88315" data-name="Grupo 88315" transform="translate(1.917 62.64)">
          <path id="Trazado_141282" data-name="Trazado 141282" d="M341.339,159.97l-38.822-22.414a3.77,3.77,0,0,1-1.574-3.007v-7.4c0-1.158.7-1.691,1.574-1.189l38.822,22.414a3.768,3.768,0,0,1,1.574,3.007v7.4C342.912,159.938,342.208,160.471,341.339,159.97Z" transform="translate(-300.943 -125.768)" fill="#5793ce"/>
          <path id="Trazado_141283" data-name="Trazado 141283" d="M340.442,157.684l-36.593-21.127a1.91,1.91,0,0,1-.8-1.525v-5.565c0-.588.357-.858.8-.6l36.593,21.127a1.91,1.91,0,0,1,.8,1.525v5.565C341.241,157.668,340.883,157.938,340.442,157.684Z" transform="translate(-301.161 -126.078)" fill="#d4ecff" opacity="0.4"/>
          <path id="Trazado_141284" data-name="Trazado 141284" d="M311.727,138.615l-5.462-3.154a1.856,1.856,0,0,1-.775-1.48h0c0-.571.347-.833.775-.586l5.462,3.154a1.856,1.856,0,0,1,.775,1.48h0C312.5,138.6,312.155,138.861,311.727,138.615Z" transform="translate(-301.413 -126.547)" fill="#d4ecff"/>
          <path id="Trazado_141285" data-name="Trazado 141285" d="M317.43,140.878c0,.57-.4.8-.895.516a1.977,1.977,0,0,1-.9-1.55c0-.571.4-.8.9-.516A1.978,1.978,0,0,1,317.43,140.878Z" transform="translate(-302.462 -127.157)" fill="#173d7a"/>
          <ellipse id="Elipse_4550" data-name="Elipse 4550" cx="0.731" cy="1.266" rx="0.731" ry="1.266" transform="matrix(0.866, -0.5, 0.5, 0.866, 15.965, 14.297)" fill="#173d7a"/>
          <path id="Trazado_141286" data-name="Trazado 141286" d="M324.473,144.944c0,.571-.4.8-.895.516a1.975,1.975,0,0,1-.895-1.55c0-.57.4-.8.895-.516A1.978,1.978,0,0,1,324.473,144.944Z" transform="translate(-303.189 -127.577)" fill="#d4ecff"/>
          <path id="Trazado_141287" data-name="Trazado 141287" d="M327.995,146.977c0,.571-.4.8-.9.516a1.978,1.978,0,0,1-.895-1.55c0-.57.4-.8.895-.516A1.978,1.978,0,0,1,327.995,146.977Z" transform="translate(-303.553 -127.787)" fill="#173d7a"/>
          <path id="Trazado_141288" data-name="Trazado 141288" d="M342.766,157.054l-1.84-1.063a1.191,1.191,0,0,1-.5-.95v-1.946c0-.367.222-.534.5-.377l1.84,1.063a1.192,1.192,0,0,1,.5.95v1.946C343.263,157.044,343.04,157.212,342.766,157.054Z" transform="translate(-305.023 -128.547)" fill="#d4ecff"/>
        </g>
        <g id="Grupo_88316" data-name="Grupo 88316" transform="translate(1.917 75.695)">
          <path id="Trazado_141289" data-name="Trazado 141289" d="M341.339,174.528l-38.822-22.414a3.767,3.767,0,0,1-1.574-3.006v-7.4c0-1.158.7-1.691,1.574-1.19l38.822,22.414a3.77,3.77,0,0,1,1.574,3.007v7.4C342.912,174.5,342.208,175.03,341.339,174.528Z" transform="translate(-300.943 -140.327)" fill="#5793ce"/>
          <path id="Trazado_141290" data-name="Trazado 141290" d="M340.442,172.243l-36.593-21.127a1.912,1.912,0,0,1-.8-1.525v-5.566c0-.588.357-.858.8-.6l36.593,21.127a1.911,1.911,0,0,1,.8,1.525v5.566C341.241,172.226,340.883,172.5,340.442,172.243Z" transform="translate(-301.161 -140.637)" fill="#d4ecff" opacity="0.4"/>
          <path id="Trazado_141291" data-name="Trazado 141291" d="M311.727,153.173l-5.462-3.153a1.857,1.857,0,0,1-.775-1.481h0c0-.57.347-.833.775-.586l5.462,3.153a1.857,1.857,0,0,1,.775,1.481h0C312.5,153.158,312.155,153.42,311.727,153.173Z" transform="translate(-301.413 -141.105)" fill="#d4ecff"/>
          <path id="Trazado_141292" data-name="Trazado 141292" d="M317.43,155.436c0,.571-.4.8-.895.516a1.977,1.977,0,0,1-.9-1.55c0-.57.4-.8.9-.516A1.978,1.978,0,0,1,317.43,155.436Z" transform="translate(-302.462 -141.715)" fill="#173d7a"/>
          <path id="Trazado_141293" data-name="Trazado 141293" d="M320.951,157.469c0,.571-.4.8-.895.517a1.981,1.981,0,0,1-.895-1.55c0-.571.4-.8.895-.517A1.978,1.978,0,0,1,320.951,157.469Z" transform="translate(-302.825 -141.925)" fill="#fff"/>
          <path id="Trazado_141294" data-name="Trazado 141294" d="M324.473,159.5c0,.571-.4.8-.895.517a1.978,1.978,0,0,1-.895-1.55c0-.571.4-.8.895-.517A1.981,1.981,0,0,1,324.473,159.5Z" transform="translate(-303.189 -142.135)" fill="#d4ecff"/>
          <path id="Trazado_141295" data-name="Trazado 141295" d="M327.995,161.536c0,.57-.4.8-.9.517a1.979,1.979,0,0,1-.895-1.55c0-.571.4-.8.895-.516A1.977,1.977,0,0,1,327.995,161.536Z" transform="translate(-303.553 -142.345)" fill="#fff"/>
          <path id="Trazado_141296" data-name="Trazado 141296" d="M342.766,171.612l-1.84-1.062a1.193,1.193,0,0,1-.5-.951v-1.947c0-.366.222-.534.5-.376l1.84,1.062a1.193,1.193,0,0,1,.5.95v1.947C343.263,171.6,343.04,171.77,342.766,171.612Z" transform="translate(-305.023 -143.105)" fill="#d4ecff"/>
        </g>
        <g id="Grupo_88317" data-name="Grupo 88317" transform="translate(1.917 88.749)">
          <path id="Trazado_141297" data-name="Trazado 141297" d="M341.339,189.087l-38.822-22.414a3.77,3.77,0,0,1-1.574-3.007v-7.4c0-1.158.7-1.691,1.574-1.189l38.822,22.414a3.767,3.767,0,0,1,1.574,3.006v7.4C342.912,189.055,342.208,189.588,341.339,189.087Z" transform="translate(-300.943 -154.885)" fill="#5793ce"/>
          <path id="Trazado_141298" data-name="Trazado 141298" d="M340.442,186.8l-36.593-21.127a1.91,1.91,0,0,1-.8-1.525v-5.565c0-.588.357-.858.8-.6l36.593,21.127a1.912,1.912,0,0,1,.8,1.525V186.2C341.241,186.784,340.883,187.055,340.442,186.8Z" transform="translate(-301.161 -155.195)" fill="#d4ecff" opacity="0.4"/>
          <path id="Trazado_141299" data-name="Trazado 141299" d="M311.727,167.732l-5.462-3.154a1.856,1.856,0,0,1-.775-1.48h0c0-.571.347-.834.775-.586l5.462,3.153a1.859,1.859,0,0,1,.775,1.481h0C312.5,167.716,312.155,167.978,311.727,167.732Z" transform="translate(-301.413 -155.664)" fill="#d4ecff"/>
          <ellipse id="Elipse_4551" data-name="Elipse 4551" cx="0.731" cy="1.266" rx="0.731" ry="1.266" transform="matrix(0.866, -0.5, 0.5, 0.866, 12.807, 12.474)" fill="#173d7a"/>
          <path id="Trazado_141300" data-name="Trazado 141300" d="M320.951,172.028c0,.57-.4.8-.895.517a1.978,1.978,0,0,1-.895-1.55c0-.571.4-.8.895-.516A1.976,1.976,0,0,1,320.951,172.028Z" transform="translate(-302.825 -156.484)" fill="#173d7a"/>
          <path id="Trazado_141301" data-name="Trazado 141301" d="M324.473,174.061c0,.57-.4.8-.895.516a1.976,1.976,0,0,1-.895-1.55c0-.57.4-.8.895-.516A1.978,1.978,0,0,1,324.473,174.061Z" transform="translate(-303.189 -156.694)" fill="#d4ecff"/>
          <path id="Trazado_141302" data-name="Trazado 141302" d="M327.995,176.094c0,.571-.4.8-.9.517a1.978,1.978,0,0,1-.895-1.55c0-.57.4-.8.895-.517A1.977,1.977,0,0,1,327.995,176.094Z" transform="translate(-303.553 -156.904)" fill="#173d7a"/>
          <path id="Trazado_141303" data-name="Trazado 141303" d="M342.766,186.171l-1.84-1.063a1.191,1.191,0,0,1-.5-.95v-1.946c0-.367.222-.535.5-.377l1.84,1.063a1.192,1.192,0,0,1,.5.95v1.946C343.263,186.161,343.04,186.328,342.766,186.171Z" transform="translate(-305.023 -157.664)" fill="#173d7a"/>
        </g>
        <g id="Grupo_88318" data-name="Grupo 88318" transform="translate(1.917 101.803)">
          <path id="Trazado_141304" data-name="Trazado 141304" d="M341.339,203.645l-38.822-22.414a3.767,3.767,0,0,1-1.574-3.007v-7.4c0-1.159.7-1.691,1.574-1.19l38.822,22.414a3.77,3.77,0,0,1,1.574,3.007v7.4C342.912,203.614,342.208,204.147,341.339,203.645Z" transform="translate(-300.943 -169.444)" fill="#5793ce"/>
          <path id="Trazado_141305" data-name="Trazado 141305" d="M340.442,201.359l-36.593-21.127a1.909,1.909,0,0,1-.8-1.524v-5.566c0-.588.357-.858.8-.6l36.593,21.127a1.911,1.911,0,0,1,.8,1.525v5.565C341.241,201.343,340.883,201.613,340.442,201.359Z" transform="translate(-301.161 -169.753)" fill="#d4ecff" opacity="0.4"/>
          <path id="Trazado_141306" data-name="Trazado 141306" d="M311.727,182.29l-5.462-3.153a1.858,1.858,0,0,1-.775-1.481h0c0-.571.347-.833.775-.586l5.462,3.154a1.857,1.857,0,0,1,.775,1.481h0C312.5,182.274,312.155,182.537,311.727,182.29Z" transform="translate(-301.413 -170.222)" fill="#d4ecff"/>
          <path id="Trazado_141307" data-name="Trazado 141307" d="M318.359,185.17c0,1.078-.757,1.515-1.69.976a3.735,3.735,0,0,1-1.691-2.928c0-1.079.757-1.515,1.691-.976A3.736,3.736,0,0,1,318.359,185.17Z" transform="translate(-302.393 -170.742)" fill="#fff"/>
          <path id="Trazado_141308" data-name="Trazado 141308" d="M325.837,189.609c0,.57-.4.8-.895.516a1.976,1.976,0,0,1-.9-1.55c0-.57.4-.8.9-.517A1.978,1.978,0,0,1,325.837,189.609Z" transform="translate(-303.33 -171.355)" fill="#173d7a"/>
          <path id="Trazado_141309" data-name="Trazado 141309" d="M329.358,191.642c0,.571-.4.8-.895.517a1.978,1.978,0,0,1-.895-1.55c0-.57.4-.8.895-.516A1.979,1.979,0,0,1,329.358,191.642Z" transform="translate(-303.694 -171.565)" fill="#d4ecff"/>
          <path id="Trazado_141310" data-name="Trazado 141310" d="M332.88,193.675c0,.571-.4.8-.895.517a1.98,1.98,0,0,1-.9-1.55c0-.571.4-.8.9-.517A1.981,1.981,0,0,1,332.88,193.675Z" transform="translate(-304.058 -171.775)" fill="#173d7a"/>
          <path id="Trazado_141311" data-name="Trazado 141311" d="M342.766,200.729l-1.84-1.062a1.193,1.193,0,0,1-.5-.951V196.77c0-.366.222-.534.5-.376l1.84,1.062a1.194,1.194,0,0,1,.5.951v1.947C343.263,200.719,343.04,200.887,342.766,200.729Z" transform="translate(-305.023 -172.222)" fill="#d4ecff"/>
        </g>
      </g>
      <path id="Trazado_141312" data-name="Trazado 141312" d="M337.89,237.883a.781.781,0,0,1-.386-.1L293.371,212.7a1.711,1.711,0,0,1-.024-2.961l18.933-11.173a2.212,2.212,0,0,0,1.082-1.9V184.355a.782.782,0,1,1,1.564,0v12.314a3.785,3.785,0,0,1-1.851,3.244l-18.934,11.172a.139.139,0,0,0-.072.128.137.137,0,0,0,.074.126l44.133,25.082a.782.782,0,0,1-.387,1.462Z" transform="translate(-278.066 -69.101)" fill="#5793ce"/>
      <g id="Grupo_88324" data-name="Grupo 88324" transform="translate(43.132 157.497)">
        <g id="Grupo_88323" data-name="Grupo 88323">
          <g id="Grupo_88322" data-name="Grupo 88322">
            <g id="Grupo_88320" data-name="Grupo 88320">
              <rect id="Rectángulo_23573" data-name="Rectángulo 23573" width="4.193" height="9.047" transform="translate(10.371 4.598) rotate(119.831)" fill="#5793ce"/>
              <path id="Trazado_141313" data-name="Trazado 141313" d="M324.5,234.332a3.277,3.277,0,0,1,1.474-2.572c.818-.475,1.482-.094,1.485.852a3.277,3.277,0,0,1-1.474,2.572C325.172,235.659,324.508,235.278,324.5,234.332Z" transform="translate(-324.505 -231.556)" fill="#5793ce"/>
            </g>
            <g id="Grupo_88321" data-name="Grupo 88321" transform="translate(4.338 2.335)">
              <rect id="Rectángulo_23574" data-name="Rectángulo 23574" width="6.794" height="14.19" transform="matrix(-0.497, 0.867, -0.867, -0.497, 17.619, 7.408)" fill="#5793ce"/>
              <path id="Trazado_141314" data-name="Trazado 141314" d="M334.085,235.683l-2.656-1.523a5.424,5.424,0,0,0-2.086,3.637L332,239.32A5.423,5.423,0,0,0,334.085,235.683Z" transform="translate(-329.343 -234.16)" fill="#396caa"/>
              <path id="Trazado_141315" data-name="Trazado 141315" d="M330.7,238.872a5.311,5.311,0,0,1,2.39-4.168c1.324-.769,2.4-.152,2.406,1.38a5.311,5.311,0,0,1-2.39,4.168C331.786,241.021,330.709,240.4,330.7,238.872Z" transform="translate(-329.484 -234.182)" fill="#5793ce"/>
            </g>
          </g>
        </g>
        <path id="Trazado_141316" data-name="Trazado 141316" d="M327.233,233.457a.423.423,0,0,1,0-.8,1.536,1.536,0,0,1,1.391,0,.424.424,0,0,1,0,.8A1.538,1.538,0,0,1,327.233,233.457Z" transform="translate(-324.757 -231.652)" fill="#d4ecff"/>
      </g>
      <g id="Grupo_88329" data-name="Grupo 88329" transform="translate(33.588 163.265)">
        <g id="Grupo_88328" data-name="Grupo 88328">
          <g id="Grupo_88327" data-name="Grupo 88327">
            <g id="Grupo_88325" data-name="Grupo 88325">
              <rect id="Rectángulo_23575" data-name="Rectángulo 23575" width="4.193" height="9.047" transform="translate(10.371 4.598) rotate(119.831)" fill="#5793ce"/>
              <path id="Trazado_141317" data-name="Trazado 141317" d="M313.861,240.765a3.274,3.274,0,0,1,1.475-2.572c.817-.475,1.482-.094,1.485.851a3.276,3.276,0,0,1-1.475,2.572C314.529,242.091,313.864,241.71,313.861,240.765Z" transform="translate(-313.861 -237.989)" fill="#5793ce"/>
            </g>
            <g id="Grupo_88326" data-name="Grupo 88326" transform="translate(4.338 2.334)">
              <rect id="Rectángulo_23576" data-name="Rectángulo 23576" width="6.794" height="14.19" transform="matrix(-0.497, 0.868, -0.868, -0.497, 17.619, 7.408)" fill="#5793ce"/>
              <path id="Trazado_141318" data-name="Trazado 141318" d="M323.441,242.115l-2.656-1.523a5.424,5.424,0,0,0-2.087,3.638l2.657,1.523A5.424,5.424,0,0,0,323.441,242.115Z" transform="translate(-318.699 -240.592)" fill="#396caa"/>
              <path id="Trazado_141319" data-name="Trazado 141319" d="M320.061,245.3a5.308,5.308,0,0,1,2.39-4.167c1.324-.77,2.4-.152,2.407,1.379a5.309,5.309,0,0,1-2.39,4.168C321.143,247.454,320.065,246.836,320.061,245.3Z" transform="translate(-318.84 -240.614)" fill="#5793ce"/>
            </g>
          </g>
        </g>
        <path id="Trazado_141320" data-name="Trazado 141320" d="M316.589,239.89a.424.424,0,0,1,0-.8,1.539,1.539,0,0,1,1.391,0,.423.423,0,0,1,0,.8A1.536,1.536,0,0,1,316.589,239.89Z" transform="translate(-314.113 -238.085)" fill="#d4ecff"/>
      </g>
      <g id="Grupo_88345" data-name="Grupo 88345" transform="translate(173.33 55.15)">
        <path id="Trazado_141321" data-name="Trazado 141321" d="M493.1,161.808a.746.746,0,0,1-.176-.02.781.781,0,0,1-.586-.938l7.626-33.111a.782.782,0,0,1,1.524.351L493.864,161.2A.782.782,0,0,1,493.1,161.808Z" transform="translate(-472.044 -118.418)" fill="#5793ce"/>
        <path id="Trazado_141322" data-name="Trazado 141322" d="M481.8,159.2a.807.807,0,0,1-.177-.02.783.783,0,0,1-.586-.938l7.627-33.111a.782.782,0,0,1,1.524.351L482.558,158.6A.781.781,0,0,1,481.8,159.2Z" transform="translate(-470.876 -118.149)" fill="#5793ce"/>
        <path id="Trazado_141323" data-name="Trazado 141323" d="M470.491,156.6a.75.75,0,0,1-.177-.02.782.782,0,0,1-.586-.938l7.627-33.111a.782.782,0,0,1,1.524.351l-7.627,33.112A.781.781,0,0,1,470.491,156.6Z" transform="translate(-469.708 -117.88)" fill="#5793ce"/>
        <g id="Grupo_88334" data-name="Grupo 88334" transform="translate(2.478 0)">
          <g id="Grupo_88333" data-name="Grupo 88333" transform="translate(0 0)">
            <g id="Grupo_88332" data-name="Grupo 88332">
              <g id="Grupo_88330" data-name="Grupo 88330" transform="translate(0 12.574)">
                <rect id="Rectángulo_23577" data-name="Rectángulo 23577" width="4.193" height="9.047" transform="translate(2.083 0) rotate(13.191)" fill="#5793ce"/>
                <path id="Trazado_141324" data-name="Trazado 141324" d="M475.779,142.819a3.275,3.275,0,0,1-2.886-.677.9.9,0,0,1,.391-1.666,3.278,3.278,0,0,1,2.886.676A.9.9,0,0,1,475.779,142.819Z" transform="translate(-472.471 -132.361)" fill="#5793ce"/>
              </g>
              <g id="Grupo_88331" data-name="Grupo 88331" transform="translate(0.426)">
                <rect id="Rectángulo_23578" data-name="Rectángulo 23578" width="6.794" height="14.19" transform="matrix(0.974, 0.228, -0.228, 0.974, 3.269, 0)" fill="#5793ce"/>
                <path id="Trazado_141325" data-name="Trazado 141325" d="M474.336,133.043l-.7,2.981a5.42,5.42,0,0,0,4.082.958l.7-2.981A5.425,5.425,0,0,0,474.336,133.043Z" transform="translate(-473.017 -119.021)" fill="#396caa"/>
                <path id="Trazado_141326" data-name="Trazado 141326" d="M478.306,135.348a5.311,5.311,0,0,1-4.678-1.1c-1.116-1.048-.833-2.258.633-2.7a5.311,5.311,0,0,1,4.678,1.1C480.056,133.7,479.772,134.9,478.306,135.348Z" transform="translate(-472.946 -118.858)" fill="#5793ce"/>
              </g>
            </g>
          </g>
          <path id="Trazado_141327" data-name="Trazado 141327" d="M474.194,140.592a.424.424,0,0,1-.769.231,1.537,1.537,0,0,1-.4-1.331.424.424,0,0,1,.768-.232A1.536,1.536,0,0,1,474.194,140.592Z" transform="translate(-472.525 -119.654)" fill="#d4ecff"/>
        </g>
        <g id="Grupo_88339" data-name="Grupo 88339" transform="translate(11.878 5.597)">
          <g id="Grupo_88338" data-name="Grupo 88338" transform="translate(0 0)">
            <g id="Grupo_88337" data-name="Grupo 88337" transform="translate(0 0)">
              <g id="Grupo_88335" data-name="Grupo 88335" transform="translate(0 12.574)">
                <rect id="Rectángulo_23579" data-name="Rectángulo 23579" width="4.193" height="9.047" transform="translate(2.083 0) rotate(13.191)" fill="#5793ce"/>
                <path id="Trazado_141328" data-name="Trazado 141328" d="M486.262,149.061a3.275,3.275,0,0,1-2.886-.677.9.9,0,0,1,.39-1.666,3.276,3.276,0,0,1,2.886.676A.9.9,0,0,1,486.262,149.061Z" transform="translate(-482.954 -138.603)" fill="#5793ce"/>
              </g>
              <g id="Grupo_88336" data-name="Grupo 88336" transform="translate(0.426)">
                <rect id="Rectángulo_23580" data-name="Rectángulo 23580" width="6.794" height="14.19" transform="translate(3.269 0) rotate(13.192)" fill="#5793ce"/>
                <path id="Trazado_141329" data-name="Trazado 141329" d="M484.818,139.286l-.7,2.981a5.427,5.427,0,0,0,4.083.957l.7-2.981A5.424,5.424,0,0,0,484.818,139.286Z" transform="translate(-483.5 -125.263)" fill="#396caa"/>
                <path id="Trazado_141330" data-name="Trazado 141330" d="M488.789,141.59a5.309,5.309,0,0,1-4.678-1.1c-1.116-1.048-.833-2.257.633-2.7a5.311,5.311,0,0,1,4.678,1.1C490.539,139.938,490.255,141.147,488.789,141.59Z" transform="translate(-483.429 -125.1)" fill="#5793ce"/>
              </g>
            </g>
          </g>
          <path id="Trazado_141331" data-name="Trazado 141331" d="M484.677,146.834a.424.424,0,0,1-.769.232,1.539,1.539,0,0,1-.4-1.332.423.423,0,0,1,.768-.232A1.538,1.538,0,0,1,484.677,146.834Z" transform="translate(-483.008 -125.896)" fill="#d4ecff"/>
        </g>
        <g id="Grupo_88344" data-name="Grupo 88344" transform="translate(21.382 11.151)">
          <g id="Grupo_88343" data-name="Grupo 88343" transform="translate(0 0)">
            <g id="Grupo_88342" data-name="Grupo 88342">
              <g id="Grupo_88340" data-name="Grupo 88340" transform="translate(0 12.574)">
                <rect id="Rectángulo_23581" data-name="Rectángulo 23581" width="4.193" height="9.047" transform="translate(2.084 0) rotate(13.191)" fill="#5793ce"/>
                <path id="Trazado_141332" data-name="Trazado 141332" d="M496.862,155.255a3.277,3.277,0,0,1-2.886-.676.9.9,0,0,1,.39-1.667,3.276,3.276,0,0,1,2.887.677A.9.9,0,0,1,496.862,155.255Z" transform="translate(-493.554 -144.797)" fill="#5793ce"/>
              </g>
              <g id="Grupo_88341" data-name="Grupo 88341" transform="translate(0.426)">
                <rect id="Rectángulo_23582" data-name="Rectángulo 23582" width="6.794" height="14.19" transform="translate(3.269 0) rotate(13.192)" fill="#5793ce"/>
                <path id="Trazado_141333" data-name="Trazado 141333" d="M495.418,145.48l-.7,2.981a5.424,5.424,0,0,0,4.082.957l.7-2.981A5.424,5.424,0,0,0,495.418,145.48Z" transform="translate(-494.1 -131.457)" fill="#396caa"/>
                <path id="Trazado_141334" data-name="Trazado 141334" d="M499.389,147.784a5.311,5.311,0,0,1-4.678-1.1c-1.116-1.049-.833-2.258.633-2.7a5.309,5.309,0,0,1,4.678,1.1C501.139,146.132,500.855,147.341,499.389,147.784Z" transform="translate(-494.029 -131.295)" fill="#5793ce"/>
              </g>
            </g>
          </g>
          <path id="Trazado_141335" data-name="Trazado 141335" d="M495.277,153.028a.424.424,0,0,1-.769.232,1.538,1.538,0,0,1-.4-1.332.424.424,0,0,1,.768-.232A1.537,1.537,0,0,1,495.277,153.028Z" transform="translate(-493.608 -132.09)" fill="#d4ecff"/>
        </g>
      </g>
      <g id="Grupo_88351" data-name="Grupo 88351" transform="translate(39.608 56.7)">
        <g id="Grupo_88347" data-name="Grupo 88347">
          <path id="Trazado_141336" data-name="Trazado 141336" d="M515.86,172.142l-90.823-52.437a3.666,3.666,0,0,0-3.077-.377l.005-.009-.165.062-.039.015-3.283,1.256,2.945,1.443c-.013.054-.03.1-.042.16l-14.793,67.34c-.741,3.371.742,7.305,3.311,8.788l88.638,51.175-.316,3.756,3.588-1.391a5.04,5.04,0,0,0,2.569-3.654l14.793-67.34C519.912,177.56,518.429,173.625,515.86,172.142Z" transform="translate(-329.443 -119.144)" fill="#173d7a"/>
          <path id="Trazado_141337" data-name="Trazado 141337" d="M516.464,172.142,425.64,119.705a3.666,3.666,0,0,0-3.077-.377l.005-.009-.165.062-.039.015-3.283,1.256,2.946,1.443c-.013.054-.03.1-.042.16l-9.749,44.381,44.438,34.622,62.659-25.5A7.047,7.047,0,0,0,516.464,172.142Z" transform="translate(-330.047 -119.144)" fill="#396caa"/>
          <path id="Trazado_141338" data-name="Trazado 141338" d="M523.869,188.657l6.913-2.944a8.661,8.661,0,0,0-2.8-6.923l-10.944,4.6Z" transform="translate(-340.876 -125.307)" fill="#274f89"/>
          <path id="Trazado_141339" data-name="Trazado 141339" d="M494.415,253.1l-90.823-52.437c-2.569-1.483-4.051-5.418-3.311-8.787l14.794-67.34c.74-3.37,3.423-4.9,5.992-3.416l90.823,52.437c2.57,1.483,4.052,5.418,3.312,8.787l-14.794,67.34C499.668,253.057,496.984,254.586,494.415,253.1Z" transform="translate(-328.792 -119.29)" fill="#d4ecff"/>
          <path id="Trazado_141340" data-name="Trazado 141340" d="M492.876,248.664,407.46,199.372c-2.352-1.358-3.709-4.958-3.031-8.042l13.537-61.621c.678-3.084,3.133-4.483,5.484-3.126l85.418,49.292c2.351,1.357,3.708,4.958,3.03,8.041L498.36,245.537C497.683,248.621,495.227,250.021,492.876,248.664Z" transform="translate(-329.222 -119.859)" fill="#fff"/>
          <path id="Trazado_141341" data-name="Trazado 141341" d="M492.876,248.664,407.46,199.372c-2.352-1.358-3.709-4.958-3.031-8.042l13.537-61.621c.678-3.084,3.133-4.483,5.484-3.126l85.418,49.292c2.351,1.357,3.708,4.958,3.03,8.041L498.36,245.537C497.683,248.621,495.227,250.021,492.876,248.664Z" transform="translate(-329.222 -119.859)" fill="#fff"/>
          <path id="Trazado_141342" data-name="Trazado 141342" d="M487.452,265.289l-12.414-1.639L394.9,217.38c-2.57-1.483-7.058-1.3-10.024.416L328.086,250.57l-7.507-.992v4.26h.007a2.926,2.926,0,0,0,1.724,2.631l90.823,52.436c2.569,1.484,7.057,1.3,10.024-.415L485,272.8c1.669-.963,2.5-2.2,2.452-3.371h0Z" transform="translate(-320.576 -129.191)" fill="#173d7a"/>
          <path id="Trazado_141343" data-name="Trazado 141343" d="M427.238,237.94l-5.694-3.287h-62.6l-30.861,17.805-7.507-.992v4.26h.007a2.926,2.926,0,0,0,1.724,2.631l90.823,52.436a9.391,9.391,0,0,0,5.173.97Z" transform="translate(-320.576 -131.08)" fill="#396caa"/>
          <path id="Trazado_141344" data-name="Trazado 141344" d="M323.911,253.844l-3.332-.44v4.26h.007a2.926,2.926,0,0,0,1.724,2.631l1.6.924Z" transform="translate(-320.576 -133.017)" fill="#5793ce"/>
          <path id="Trazado_141345" data-name="Trazado 141345" d="M424.819,318.887a11.636,11.636,0,0,0,8.517-.528v-9.5h-8.517Z" transform="translate(-331.347 -138.747)" fill="#274f89"/>
          <path id="Trazado_141346" data-name="Trazado 141346" d="M413.133,303.839,322.31,251.4c-2.57-1.483-2.247-4.074.719-5.787l61.844-35.694c2.966-1.713,7.454-1.9,10.024-.415l90.823,52.436c2.57,1.484,2.247,4.074-.719,5.787l-61.844,35.694C420.189,305.136,415.7,305.322,413.133,303.839Z" transform="translate(-320.575 -128.377)" fill="#d4ecff"/>
          <path id="Trazado_141347" data-name="Trazado 141347" d="M485,270.736,423.157,306.43c-2.967,1.713-7.455,1.9-10.024.416l-90.823-52.437a3.379,3.379,0,0,1-1.6-1.747c-.4,1.215.111,2.444,1.6,3.3L413.133,308.4c2.569,1.483,7.057,1.3,10.024-.416L485,272.292c1.993-1.151,2.787-2.7,2.317-4.039A4.83,4.83,0,0,1,485,270.736Z" transform="translate(-320.576 -132.94)" fill="#fff"/>
          <g id="Grupo_88346" data-name="Grupo 88346" transform="translate(36.03 83.356)">
            <path id="Trazado_141348" data-name="Trazado 141348" d="M365.09,236.282l-4.109-2.373c-.33-.19-.288-.523.093-.743l4.85-2.8a1.434,1.434,0,0,1,1.288-.054l4.109,2.373c.33.19.288.523-.093.742l-4.85,2.8A1.434,1.434,0,0,1,365.09,236.282Z" transform="translate(-360.758 -213.973)" fill="#173d7a"/>
            <path id="Trazado_141349" data-name="Trazado 141349" d="M372.168,240.368,368.058,238c-.33-.19-.289-.523.092-.743l4.85-2.8a1.431,1.431,0,0,1,1.288-.053l4.109,2.373c.33.19.289.523-.092.742l-4.85,2.8A1.431,1.431,0,0,1,372.168,240.368Z" transform="translate(-361.489 -214.396)" fill="#173d7a"/>
            <path id="Trazado_141350" data-name="Trazado 141350" d="M379.245,244.454l-4.109-2.373c-.33-.19-.288-.523.092-.742l4.851-2.8a1.429,1.429,0,0,1,1.287-.053l4.109,2.373c.33.19.289.523-.092.743l-4.85,2.8A1.431,1.431,0,0,1,379.245,244.454Z" transform="translate(-362.221 -214.818)" fill="#173d7a"/>
            <path id="Trazado_141351" data-name="Trazado 141351" d="M389.034,241.132l-4.109-2.373c-.33-.191-.289-.524.092-.743l4.072-2.351a1.429,1.429,0,0,1,1.287-.053l4.109,2.373c.33.19.289.523-.092.743l-4.072,2.35A1.429,1.429,0,0,1,389.034,241.132Z" transform="translate(-363.232 -214.521)" fill="#173d7a"/>
            <path id="Trazado_141352" data-name="Trazado 141352" d="M396.111,245.218,392,242.845c-.33-.19-.289-.523.092-.743l4.072-2.351a1.433,1.433,0,0,1,1.288-.053l4.109,2.373c.33.19.289.523-.092.743l-4.072,2.351A1.433,1.433,0,0,1,396.111,245.218Z" transform="translate(-363.963 -214.943)" fill="#173d7a"/>
            <path id="Trazado_141353" data-name="Trazado 141353" d="M403.189,249.3l-4.109-2.373c-.33-.19-.289-.523.092-.743l4.072-2.35a1.429,1.429,0,0,1,1.287-.054l4.109,2.373c.33.191.289.524-.092.743l-4.072,2.351A1.429,1.429,0,0,1,403.189,249.3Z" transform="translate(-364.695 -215.365)" fill="#173d7a"/>
            <path id="Trazado_141354" data-name="Trazado 141354" d="M410.266,253.39l-4.109-2.373c-.33-.19-.289-.523.092-.743l4.072-2.35a1.431,1.431,0,0,1,1.288-.054l4.109,2.373c.33.191.289.524-.092.743l-4.072,2.351A1.431,1.431,0,0,1,410.266,253.39Z" transform="translate(-365.426 -215.788)" fill="#173d7a"/>
            <path id="Trazado_141355" data-name="Trazado 141355" d="M417.344,257.476l-4.109-2.372c-.33-.191-.289-.524.092-.743l4.072-2.351a1.432,1.432,0,0,1,1.287-.054l4.109,2.373c.33.191.289.524-.092.743l-4.072,2.351A1.429,1.429,0,0,1,417.344,257.476Z" transform="translate(-366.157 -216.21)" fill="#173d7a"/>
            <path id="Trazado_141356" data-name="Trazado 141356" d="M424.421,261.563l-4.109-2.373c-.33-.191-.289-.524.092-.743l4.072-2.351a1.431,1.431,0,0,1,1.288-.053l4.109,2.373c.33.19.288.523-.092.742l-4.072,2.351A1.433,1.433,0,0,1,424.421,261.563Z" transform="translate(-366.889 -216.632)" fill="#173d7a"/>
            <path id="Trazado_141357" data-name="Trazado 141357" d="M431.5,265.649l-4.109-2.373c-.33-.191-.289-.524.092-.743l4.072-2.351a1.429,1.429,0,0,1,1.287-.053l4.109,2.373c.33.19.289.523-.092.743l-4.072,2.35A1.429,1.429,0,0,1,431.5,265.649Z" transform="translate(-367.62 -217.054)" fill="#173d7a"/>
            <path id="Trazado_141358" data-name="Trazado 141358" d="M438.576,269.735l-4.109-2.373c-.33-.19-.289-.524.092-.743l4.072-2.351a1.43,1.43,0,0,1,1.288-.053l4.109,2.372c.329.19.288.523-.093.743l-4.071,2.35A1.431,1.431,0,0,1,438.576,269.735Z" transform="translate(-368.351 -217.477)" fill="#173d7a"/>
            <path id="Trazado_141359" data-name="Trazado 141359" d="M445.653,273.821l-4.109-2.373c-.33-.19-.288-.523.093-.743l4.071-2.35A1.431,1.431,0,0,1,447,268.3l4.109,2.373c.33.191.289.524-.092.743l-4.072,2.351A1.431,1.431,0,0,1,445.653,273.821Z" transform="translate(-369.083 -217.899)" fill="#173d7a"/>
            <path id="Trazado_141360" data-name="Trazado 141360" d="M452.731,277.907l-4.109-2.373c-.33-.19-.289-.523.092-.742l4.072-2.351a1.429,1.429,0,0,1,1.287-.054l4.109,2.372c.33.191.289.524-.092.743l-4.072,2.351A1.429,1.429,0,0,1,452.731,277.907Z" transform="translate(-369.814 -218.321)" fill="#173d7a"/>
            <path id="Trazado_141361" data-name="Trazado 141361" d="M399.462,239.2l-4.109-2.373c-.33-.19-.289-.523.092-.743l4.072-2.35a1.431,1.431,0,0,1,1.288-.054l4.109,2.373c.33.191.288.524-.093.743l-4.071,2.351A1.431,1.431,0,0,1,399.462,239.2Z" transform="translate(-364.31 -214.321)" fill="#396caa"/>
            <path id="Trazado_141362" data-name="Trazado 141362" d="M392.279,235.05l-4.109-2.373c-.33-.19-.289-.523.092-.743l4.072-2.35a1.431,1.431,0,0,1,1.288-.054l4.109,2.373c.331.19.289.524-.092.743L393.566,235A1.431,1.431,0,0,1,392.279,235.05Z" transform="translate(-363.567 -213.893)" fill="#396caa"/>
            <path id="Trazado_141363" data-name="Trazado 141363" d="M384.537,230.581l-8.85-5.11c-.33-.19-.289-.523.092-.742l4.072-2.351a1.432,1.432,0,0,1,1.287-.054l8.851,5.11c.33.191.288.524-.092.743l-4.072,2.351A1.431,1.431,0,0,1,384.537,230.581Z" transform="translate(-362.278 -213.148)" fill="#173d7a"/>
            <path id="Trazado_141364" data-name="Trazado 141364" d="M389.759,225.64l-7.182-4.146c-.33-.191-.289-.524.092-.743l4.072-2.351a1.43,1.43,0,0,1,1.288-.053l7.182,4.146c.33.191.289.524-.092.743l-4.072,2.351A1.431,1.431,0,0,1,389.759,225.64Z" transform="translate(-362.989 -212.737)" fill="#173d7a"/>
            <path id="Trazado_141365" data-name="Trazado 141365" d="M406.539,243.283l-4.109-2.373c-.329-.19-.288-.523.093-.742l4.072-2.351a1.432,1.432,0,0,1,1.287-.054l4.109,2.373c.33.191.289.524-.092.743l-4.072,2.351A1.431,1.431,0,0,1,406.539,243.283Z" transform="translate(-365.041 -214.743)" fill="#396caa"/>
            <path id="Trazado_141366" data-name="Trazado 141366" d="M413.617,247.37,409.507,245c-.33-.191-.289-.524.092-.743l4.072-2.351a1.431,1.431,0,0,1,1.288-.053l4.108,2.373c.33.19.289.523-.092.742l-4.072,2.351A1.432,1.432,0,0,1,413.617,247.37Z" transform="translate(-365.772 -215.166)" fill="#173d7a"/>
            <path id="Trazado_141367" data-name="Trazado 141367" d="M420.694,251.456l-4.109-2.373c-.33-.191-.288-.524.092-.743l4.072-2.351a1.431,1.431,0,0,1,1.288-.053l4.109,2.373c.33.19.289.523-.092.743l-4.072,2.35A1.431,1.431,0,0,1,420.694,251.456Z" transform="translate(-366.504 -215.588)" fill="#173d7a"/>
            <path id="Trazado_141368" data-name="Trazado 141368" d="M427.772,255.542l-4.109-2.373c-.33-.19-.289-.524.092-.743l4.072-2.351a1.429,1.429,0,0,1,1.287-.053l4.109,2.373c.33.19.289.523-.092.743l-4.072,2.35A1.429,1.429,0,0,1,427.772,255.542Z" transform="translate(-367.235 -216.01)" fill="#173d7a"/>
            <path id="Trazado_141369" data-name="Trazado 141369" d="M434.849,259.628l-4.109-2.373c-.33-.19-.289-.523.092-.743l4.072-2.35a1.431,1.431,0,0,1,1.288-.054l4.109,2.373c.33.191.289.524-.092.743l-4.072,2.351A1.43,1.43,0,0,1,434.849,259.628Z" transform="translate(-367.966 -216.432)" fill="#173d7a"/>
            <path id="Trazado_141370" data-name="Trazado 141370" d="M441.927,263.714l-4.109-2.373c-.33-.19-.289-.523.092-.743l4.072-2.35a1.429,1.429,0,0,1,1.287-.054l4.109,2.373c.33.191.289.524-.092.743l-4.072,2.351A1.428,1.428,0,0,1,441.927,263.714Z" transform="translate(-368.698 -216.854)" fill="#173d7a"/>
            <path id="Trazado_141371" data-name="Trazado 141371" d="M449,267.8l-4.109-2.372c-.33-.191-.289-.524.092-.743l4.072-2.351a1.434,1.434,0,0,1,1.288-.054l4.109,2.373c.33.191.289.524-.092.743l-4.072,2.351A1.431,1.431,0,0,1,449,267.8Z" transform="translate(-369.429 -217.277)" fill="#173d7a"/>
            <path id="Trazado_141372" data-name="Trazado 141372" d="M456.082,271.887l-4.109-2.373c-.33-.191-.289-.524.092-.743l4.072-2.351a1.429,1.429,0,0,1,1.287-.053l4.109,2.373c.33.19.289.523-.092.742l-4.072,2.351A1.432,1.432,0,0,1,456.082,271.887Z" transform="translate(-370.16 -217.699)" fill="#173d7a"/>
            <path id="Trazado_141373" data-name="Trazado 141373" d="M463.159,275.973l-4.109-2.373c-.33-.191-.289-.524.092-.743l4.072-2.351a1.431,1.431,0,0,1,1.288-.053l4.109,2.373c.33.19.288.523-.092.743l-4.072,2.35A1.431,1.431,0,0,1,463.159,275.973Z" transform="translate(-370.892 -218.121)" fill="#173d7a"/>
            <path id="Trazado_141374" data-name="Trazado 141374" d="M475.181,282.914l-8.966-5.177c-.33-.191-.289-.524.092-.743l4.072-2.351a1.429,1.429,0,0,1,1.287-.053l8.967,5.176c.33.19.289.524-.092.743l-4.072,2.351A1.431,1.431,0,0,1,475.181,282.914Z" transform="translate(-371.632 -218.549)" fill="#173d7a"/>
            <path id="Trazado_141375" data-name="Trazado 141375" d="M489.121,275.052l-7.568-4.369c-.33-.191-.289-.524.092-.743l4.072-2.351a1.431,1.431,0,0,1,1.288-.053l7.568,4.37c.33.19.288.523-.092.743L490.409,275A1.431,1.431,0,0,1,489.121,275.052Z" transform="translate(-373.217 -217.82)" fill="#173d7a"/>
            <path id="Trazado_141376" data-name="Trazado 141376" d="M418.934,242.484l-4.109-2.373c-.33-.19-.289-.524.092-.743l4.072-2.351a1.429,1.429,0,0,1,1.287-.053l4.109,2.373c.33.19.289.523-.092.743l-4.072,2.35A1.429,1.429,0,0,1,418.934,242.484Z" transform="translate(-366.322 -214.661)" fill="#173d7a"/>
            <path id="Trazado_141377" data-name="Trazado 141377" d="M411.68,238.3l-4.109-2.373c-.33-.19-.289-.523.092-.743l4.072-2.35a1.431,1.431,0,0,1,1.288-.054l4.109,2.373c.33.191.288.524-.092.743l-4.072,2.351A1.431,1.431,0,0,1,411.68,238.3Z" transform="translate(-365.572 -214.228)" fill="#173d7a"/>
            <path id="Trazado_141378" data-name="Trazado 141378" d="M404.427,234.108l-4.109-2.373c-.33-.19-.289-.523.092-.743l4.072-2.35a1.429,1.429,0,0,1,1.287-.054l4.109,2.373c.33.191.289.524-.092.743l-4.072,2.351A1.429,1.429,0,0,1,404.427,234.108Z" transform="translate(-364.823 -213.795)" fill="#396caa"/>
            <path id="Trazado_141379" data-name="Trazado 141379" d="M397.173,229.921l-4.109-2.373c-.33-.191-.289-.524.092-.743l4.072-2.351a1.434,1.434,0,0,1,1.288-.054l4.109,2.373c.33.191.289.524-.092.743l-4.072,2.351A1.433,1.433,0,0,1,397.173,229.921Z" transform="translate(-364.073 -213.362)" fill="#173d7a"/>
            <path id="Trazado_141380" data-name="Trazado 141380" d="M426.011,246.57,421.9,244.2c-.33-.19-.289-.523.092-.743l4.072-2.35a1.431,1.431,0,0,1,1.288-.054l4.109,2.373c.33.19.288.524-.093.743l-4.071,2.351A1.431,1.431,0,0,1,426.011,246.57Z" transform="translate(-367.053 -215.083)" fill="#173d7a"/>
            <path id="Trazado_141381" data-name="Trazado 141381" d="M433.088,250.656l-4.109-2.373c-.329-.19-.288-.523.093-.743l4.072-2.35a1.429,1.429,0,0,1,1.287-.054l4.109,2.373c.33.191.289.524-.092.743l-4.072,2.351A1.431,1.431,0,0,1,433.088,250.656Z" transform="translate(-367.784 -215.505)" fill="#173d7a"/>
            <path id="Trazado_141382" data-name="Trazado 141382" d="M440.166,254.742l-4.109-2.373c-.33-.19-.289-.523.092-.742l4.072-2.351a1.434,1.434,0,0,1,1.288-.054l4.109,2.373c.33.191.289.524-.092.743l-4.072,2.351A1.429,1.429,0,0,1,440.166,254.742Z" transform="translate(-368.516 -215.927)" fill="#173d7a"/>
            <path id="Trazado_141383" data-name="Trazado 141383" d="M447.243,258.829l-4.109-2.373c-.33-.191-.288-.524.092-.743l4.072-2.351a1.431,1.431,0,0,1,1.288-.053l4.109,2.372c.33.191.289.524-.092.743l-4.072,2.351A1.434,1.434,0,0,1,447.243,258.829Z" transform="translate(-369.247 -216.35)" fill="#173d7a"/>
            <path id="Trazado_141384" data-name="Trazado 141384" d="M454.321,262.915l-4.109-2.373c-.33-.191-.289-.524.092-.743l4.072-2.351a1.429,1.429,0,0,1,1.287-.053l4.109,2.373c.33.19.289.523-.092.743l-4.072,2.35A1.429,1.429,0,0,1,454.321,262.915Z" transform="translate(-369.978 -216.772)" fill="#173d7a"/>
            <path id="Trazado_141385" data-name="Trazado 141385" d="M461.4,267l-4.109-2.373c-.33-.191-.289-.524.092-.743l4.072-2.351a1.431,1.431,0,0,1,1.288-.053l4.109,2.373c.33.19.289.523-.092.743l-4.072,2.35A1.431,1.431,0,0,1,461.4,267Z" transform="translate(-370.71 -217.194)" fill="#173d7a"/>
            <path id="Trazado_141386" data-name="Trazado 141386" d="M468.476,271.087l-4.109-2.373c-.33-.19-.289-.523.092-.743l4.072-2.35a1.429,1.429,0,0,1,1.287-.054l4.109,2.373c.33.191.289.524-.092.743l-4.072,2.351A1.429,1.429,0,0,1,468.476,271.087Z" transform="translate(-371.441 -217.616)" fill="#173d7a"/>
            <path id="Trazado_141387" data-name="Trazado 141387" d="M475.553,275.173l-4.109-2.373c-.33-.19-.289-.523.092-.743l4.072-2.35a1.431,1.431,0,0,1,1.288-.054L481,272.026c.33.191.289.524-.092.743l-4.072,2.351A1.431,1.431,0,0,1,475.553,275.173Z" transform="translate(-372.172 -218.039)" fill="#173d7a"/>
            <path id="Trazado_141388" data-name="Trazado 141388" d="M482.631,279.259l-4.109-2.372c-.33-.191-.289-.524.092-.743l4.072-2.351a1.432,1.432,0,0,1,1.287-.054l4.109,2.373c.33.191.289.524-.092.743l-4.072,2.351A1.429,1.429,0,0,1,482.631,279.259Z" transform="translate(-372.904 -218.461)" fill="#173d7a"/>
            <path id="Trazado_141389" data-name="Trazado 141389" d="M415.207,232.377,411.1,230c-.33-.19-.289-.523.092-.743l4.072-2.35a1.429,1.429,0,0,1,1.287-.054l4.109,2.373c.33.19.289.524-.092.743l-4.072,2.351A1.429,1.429,0,0,1,415.207,232.377Z" transform="translate(-365.937 -213.616)" fill="#173d7a"/>
            <path id="Trazado_141390" data-name="Trazado 141390" d="M408.165,228.311l-4.109-2.373c-.33-.19-.289-.523.092-.743l4.072-2.35a1.429,1.429,0,0,1,1.287-.054l4.109,2.373c.33.191.289.524-.092.743l-4.072,2.351A1.429,1.429,0,0,1,408.165,228.311Z" transform="translate(-365.209 -213.196)" fill="#173d7a"/>
            <path id="Trazado_141391" data-name="Trazado 141391" d="M401.122,224.245l-4.109-2.373c-.33-.19-.288-.523.092-.742l4.072-2.351a1.434,1.434,0,0,1,1.288-.054l4.109,2.373c.33.191.289.524-.092.743l-4.072,2.351A1.431,1.431,0,0,1,401.122,224.245Z" transform="translate(-364.481 -212.776)" fill="#173d7a"/>
            <path id="Trazado_141392" data-name="Trazado 141392" d="M394.08,220.18l-4.109-2.373c-.33-.191-.289-.524.092-.743l4.072-2.351a1.431,1.431,0,0,1,1.288-.053l4.109,2.372c.33.191.289.524-.092.743l-4.072,2.351A1.434,1.434,0,0,1,394.08,220.18Z" transform="translate(-363.753 -212.356)" fill="#173d7a"/>
            <path id="Trazado_141393" data-name="Trazado 141393" d="M401.322,216.18l-4.109-2.373c-.33-.191-.289-.524.092-.743l1.346-.777a1.431,1.431,0,0,1,1.288-.053l4.109,2.373c.329.19.288.523-.093.742l-1.346.777A1.432,1.432,0,0,1,401.322,216.18Z" transform="translate(-364.502 -212.105)" fill="#173d7a"/>
            <path id="Trazado_141394" data-name="Trazado 141394" d="M410.512,221.486l-4.109-2.373c-.33-.191-.289-.524.092-.743l1.346-.777a1.431,1.431,0,0,1,1.288-.053l4.109,2.373c.33.19.288.523-.092.742l-1.347.777A1.432,1.432,0,0,1,410.512,221.486Z" transform="translate(-365.451 -212.653)" fill="#173d7a"/>
            <path id="Trazado_141395" data-name="Trazado 141395" d="M417.525,225.534l-4.109-2.373c-.33-.19-.289-.523.092-.742l1.346-.777a1.434,1.434,0,0,1,1.288-.054l4.109,2.373c.329.191.288.524-.093.743l-1.346.777A1.429,1.429,0,0,1,417.525,225.534Z" transform="translate(-366.176 -213.072)" fill="#173d7a"/>
            <path id="Trazado_141396" data-name="Trazado 141396" d="M424.538,229.583l-4.109-2.373c-.33-.19-.289-.523.092-.742l1.346-.777a1.432,1.432,0,0,1,1.287-.054l4.109,2.373c.33.191.289.524-.092.743l-1.346.777A1.429,1.429,0,0,1,424.538,229.583Z" transform="translate(-366.901 -213.49)" fill="#173d7a"/>
            <path id="Trazado_141397" data-name="Trazado 141397" d="M431.55,233.632l-4.109-2.373c-.33-.19-.289-.523.092-.743l1.346-.776a1.429,1.429,0,0,1,1.287-.054l4.109,2.373c.33.191.289.524-.092.743l-1.346.777A1.431,1.431,0,0,1,431.55,233.632Z" transform="translate(-367.625 -213.909)" fill="#173d7a"/>
            <path id="Trazado_141398" data-name="Trazado 141398" d="M470.7,256.237l-4.109-2.373c-.33-.191-.288-.524.092-.743l1.347-.777a1.429,1.429,0,0,1,1.287-.053l4.109,2.373c.33.19.289.523-.092.742l-1.346.777A1.433,1.433,0,0,1,470.7,256.237Z" transform="translate(-371.671 -216.244)" fill="#173d7a"/>
            <path id="Trazado_141399" data-name="Trazado 141399" d="M477.715,260.286l-4.109-2.373c-.33-.19-.289-.523.092-.742l1.347-.777a1.429,1.429,0,0,1,1.287-.053l4.109,2.372c.33.191.289.524-.092.743l-1.346.777A1.434,1.434,0,0,1,477.715,260.286Z" transform="translate(-372.396 -216.663)" fill="#173d7a"/>
            <path id="Trazado_141400" data-name="Trazado 141400" d="M484.728,264.334l-4.109-2.373c-.33-.19-.289-.523.092-.742l1.346-.777a1.434,1.434,0,0,1,1.288-.054l4.109,2.373c.33.191.289.524-.092.743l-1.346.777A1.431,1.431,0,0,1,484.728,264.334Z" transform="translate(-373.12 -217.081)" fill="#173d7a"/>
            <path id="Trazado_141401" data-name="Trazado 141401" d="M491.741,268.383l-4.109-2.373c-.33-.19-.289-.523.092-.742l1.346-.777a1.431,1.431,0,0,1,1.288-.054l4.109,2.373c.33.191.289.524-.092.743l-1.346.777A1.431,1.431,0,0,1,491.741,268.383Z" transform="translate(-373.845 -217.5)" fill="#173d7a"/>
            <path id="Trazado_141402" data-name="Trazado 141402" d="M422.284,236.463l-4.109-2.373c-.33-.19-.288-.523.092-.743l4.072-2.35a1.431,1.431,0,0,1,1.288-.054l4.109,2.373c.33.191.289.524-.092.743l-4.072,2.351A1.431,1.431,0,0,1,422.284,236.463Z" transform="translate(-366.668 -214.039)" fill="#173d7a"/>
            <path id="Trazado_141403" data-name="Trazado 141403" d="M429.362,240.549l-4.109-2.373c-.33-.19-.289-.523.092-.742l4.072-2.351a1.432,1.432,0,0,1,1.287-.054l4.109,2.373c.33.191.289.524-.092.743l-4.072,2.351A1.429,1.429,0,0,1,429.362,240.549Z" transform="translate(-367.399 -214.461)" fill="#173d7a"/>
            <path id="Trazado_141404" data-name="Trazado 141404" d="M436.439,244.636l-4.109-2.373c-.33-.191-.289-.524.092-.743l4.072-2.351a1.431,1.431,0,0,1,1.288-.053l4.109,2.372c.33.191.289.524-.092.743l-4.072,2.351A1.434,1.434,0,0,1,436.439,244.636Z" transform="translate(-368.131 -214.883)" fill="#173d7a"/>
            <path id="Trazado_141405" data-name="Trazado 141405" d="M443.517,248.722l-4.109-2.373c-.33-.191-.289-.524.092-.743l4.072-2.351a1.429,1.429,0,0,1,1.287-.053l4.109,2.373c.33.19.289.523-.092.742l-4.072,2.351A1.429,1.429,0,0,1,443.517,248.722Z" transform="translate(-368.862 -215.305)" fill="#173d7a"/>
            <path id="Trazado_141406" data-name="Trazado 141406" d="M450.594,252.808l-4.109-2.373c-.33-.191-.289-.524.092-.743l4.072-2.351a1.431,1.431,0,0,1,1.288-.053l4.109,2.373c.33.19.288.523-.092.743l-4.072,2.35A1.431,1.431,0,0,1,450.594,252.808Z" transform="translate(-369.593 -215.727)" fill="#173d7a"/>
            <path id="Trazado_141407" data-name="Trazado 141407" d="M457.672,256.894l-4.109-2.373c-.33-.19-.289-.523.092-.743l4.072-2.35a1.429,1.429,0,0,1,1.287-.054l4.109,2.373c.33.19.289.524-.092.743l-4.072,2.351A1.429,1.429,0,0,1,457.672,256.894Z" transform="translate(-370.325 -216.15)" fill="#173d7a"/>
            <path id="Trazado_141408" data-name="Trazado 141408" d="M464.749,260.98l-4.109-2.373c-.33-.19-.289-.523.092-.743l4.072-2.35a1.431,1.431,0,0,1,1.288-.054l4.109,2.373c.33.191.288.524-.093.743l-4.071,2.351A1.431,1.431,0,0,1,464.749,260.98Z" transform="translate(-371.056 -216.572)" fill="#173d7a"/>
            <path id="Trazado_141409" data-name="Trazado 141409" d="M471.826,265.066l-4.109-2.373c-.329-.19-.288-.523.093-.742l4.071-2.351a1.434,1.434,0,0,1,1.288-.054l4.109,2.373c.33.191.289.524-.092.743l-4.072,2.351A1.431,1.431,0,0,1,471.826,265.066Z" transform="translate(-371.787 -216.994)" fill="#173d7a"/>
            <path id="Trazado_141410" data-name="Trazado 141410" d="M478.9,269.153l-4.109-2.372c-.33-.191-.289-.524.092-.743l4.072-2.351a1.429,1.429,0,0,1,1.287-.053L484.355,266c.33.191.289.524-.092.743L480.19,269.1A1.431,1.431,0,0,1,478.9,269.153Z" transform="translate(-372.519 -217.416)" fill="#173d7a"/>
            <path id="Trazado_141411" data-name="Trazado 141411" d="M380.9,236.436l-12.1-6.988c-.33-.19-.289-.523.092-.743l4.072-2.351a1.434,1.434,0,0,1,1.288-.053l12.1,6.988c.33.19.289.523-.092.743l-4.072,2.35A1.431,1.431,0,0,1,380.9,236.436Z" transform="translate(-361.566 -213.559)" fill="#173d7a"/>
            <path id="Trazado_141412" data-name="Trazado 141412" d="M467.848,286.635l-12.1-6.987c-.33-.191-.289-.524.092-.743l4.072-2.351a1.431,1.431,0,0,1,1.288-.053l12.1,6.987c.33.191.289.524-.092.743l-4.072,2.351A1.431,1.431,0,0,1,467.848,286.635Z" transform="translate(-370.55 -218.746)" fill="#173d7a"/>
            <path id="Trazado_141413" data-name="Trazado 141413" d="M440.466,279.8l-4.109-2.373c-.33-.19-.289-.524.092-.743l4.85-2.8a1.431,1.431,0,0,1,1.288-.053L446.7,276.2c.33.191.289.524-.092.743l-4.851,2.8A1.429,1.429,0,0,1,440.466,279.8Z" transform="translate(-368.547 -218.47)" fill="#173d7a"/>
            <path id="Trazado_141414" data-name="Trazado 141414" d="M388.785,249.962l-6.572-3.794c-.33-.191-.289-.524.092-.743l4.85-2.8a1.431,1.431,0,0,1,1.288-.054l6.572,3.795c.33.19.289.523-.092.743l-4.85,2.8A1.431,1.431,0,0,1,388.785,249.962Z" transform="translate(-362.952 -215.24)" fill="#173d7a"/>
            <path id="Trazado_141415" data-name="Trazado 141415" d="M433.363,275.7,426.79,271.9c-.33-.19-.289-.523.092-.743l4.851-2.8a1.429,1.429,0,0,1,1.287-.053l6.573,3.794c.33.191.289.524-.092.743l-4.851,2.8A1.429,1.429,0,0,1,433.363,275.7Z" transform="translate(-367.558 -217.9)" fill="#173d7a"/>
            <path id="Trazado_141416" data-name="Trazado 141416" d="M399,255.858l-6.572-3.795c-.33-.19-.289-.524.092-.743l4.851-2.8a1.432,1.432,0,0,1,1.287-.054l6.573,3.795c.33.191.288.524-.092.743l-4.851,2.8A1.434,1.434,0,0,1,399,255.858Z" transform="translate(-364.007 -215.849)" fill="#173d7a"/>
            <path id="Trazado_141417" data-name="Trazado 141417" d="M398.73,248.51l28.573,16.5a.392.392,0,0,1,0,.742l-4.946,2.856a1.421,1.421,0,0,1-1.284,0l-28.573-16.5Z" transform="translate(-364.038 -215.867)" fill="#173d7a"/>
            <path id="Trazado_141418" data-name="Trazado 141418" d="M460.365,287.9l4.578,2.642c.271.156.237.429-.075.609l-1.984,1.146a1.174,1.174,0,0,1-1.055.044L457.25,289.7c-.271-.156-.237-.429.076-.609l1.983-1.146A1.174,1.174,0,0,1,460.365,287.9Z" transform="translate(-370.71 -219.926)" fill="#173d7a"/>
            <path id="Trazado_141419" data-name="Trazado 141419" d="M453.229,283.78l4.577,2.643c.271.156.237.429-.076.609l-1.983,1.146a1.174,1.174,0,0,1-1.055.044l-4.577-2.643c-.271-.156-.237-.429.075-.609l1.984-1.146A1.171,1.171,0,0,1,453.229,283.78Z" transform="translate(-369.972 -219.501)" fill="#173d7a"/>
            <path id="Trazado_141420" data-name="Trazado 141420" d="M446.152,279.693l4.577,2.643c.271.156.237.429-.075.609l-1.984,1.146a1.174,1.174,0,0,1-1.055.044l-4.578-2.643c-.27-.156-.236-.429.076-.609l1.984-1.146A1.174,1.174,0,0,1,446.152,279.693Z" transform="translate(-369.241 -219.078)" fill="#173d7a"/>
            <path id="Trazado_141421" data-name="Trazado 141421" d="M457.137,281.523l4.577,2.643c.271.156.237.429-.075.609l-1.984,1.145a1.171,1.171,0,0,1-1.055.044l-4.578-2.642c-.27-.156-.237-.429.076-.609l1.984-1.146A1.172,1.172,0,0,1,457.137,281.523Z" transform="translate(-370.376 -219.267)" fill="#173d7a"/>
          </g>
        </g>
        <g id="Grupo_88350" data-name="Grupo 88350" transform="translate(81.369 18.888)">
          <g id="Grupo_88348" data-name="Grupo 88348">
            <path id="Trazado_141422" data-name="Trazado 141422" d="M447.35,155.583l-6.072-3.506a1.737,1.737,0,0,1-.742-1.8h0a.845.845,0,0,1,1.3-.62l6.073,3.506a1.737,1.737,0,0,1,.741,1.8h0A.845.845,0,0,1,447.35,155.583Z" transform="translate(-414.336 -141.171)" fill="#d4ecff"/>
            <path id="Trazado_141423" data-name="Trazado 141423" d="M463.151,164.706l-8.955-5.17a1.736,1.736,0,0,1-.741-1.8h0a.845.845,0,0,1,1.3-.62l8.954,5.17a1.735,1.735,0,0,1,.742,1.8h0A.845.845,0,0,1,463.151,164.706Z" transform="translate(-415.671 -141.941)" fill="#d4ecff"/>
            <path id="Trazado_141424" data-name="Trazado 141424" d="M435.545,187.2l-6.073-3.506a1.738,1.738,0,0,1-.741-1.8h0a.844.844,0,0,1,1.3-.62l6.072,3.506a1.736,1.736,0,0,1,.742,1.8h0A.845.845,0,0,1,435.545,187.2Z" transform="translate(-413.116 -144.437)" fill="#d4ecff"/>
            <path id="Trazado_141425" data-name="Trazado 141425" d="M449.593,195.308l-8.954-5.17a1.736,1.736,0,0,1-.741-1.8h0a.845.845,0,0,1,1.3-.62l8.954,5.17a1.736,1.736,0,0,1,.741,1.8h0A.845.845,0,0,1,449.593,195.308Z" transform="translate(-414.27 -145.103)" fill="#d4ecff"/>
            <path id="Trazado_141426" data-name="Trazado 141426" d="M427.634,150.605l-3.793-2.191a1.737,1.737,0,0,1-.742-1.8h0a.845.845,0,0,1,1.3-.62l3.794,2.19a1.737,1.737,0,0,1,.741,1.8h0A.845.845,0,0,1,427.634,150.605Z" transform="translate(-412.534 -140.792)" fill="#d4ecff"/>
            <path id="Trazado_141427" data-name="Trazado 141427" d="M439.775,164.019l-11.591-6.692a1.738,1.738,0,0,1-.741-1.8h0a.845.845,0,0,1,1.3-.62l11.59,6.693a1.735,1.735,0,0,1,.742,1.8h0A.845.845,0,0,1,439.775,164.019Z" transform="translate(-412.983 -141.713)" fill="#d4ecff"/>
            <path id="Trazado_141428" data-name="Trazado 141428" d="M429.369,170.821l-3.794-2.191a1.737,1.737,0,0,1-.742-1.8h0a.845.845,0,0,1,1.3-.62l3.794,2.19a1.737,1.737,0,0,1,.742,1.8h0A.845.845,0,0,1,429.369,170.821Z" transform="translate(-412.713 -142.881)" fill="#d4ecff"/>
            <path id="Trazado_141429" data-name="Trazado 141429" d="M451.635,209.3,441.5,203.446a1.736,1.736,0,0,1-.741-1.8h0a.845.845,0,0,1,1.3-.621l10.132,5.85a1.738,1.738,0,0,1,.741,1.8h0A.845.845,0,0,1,451.635,209.3Z" transform="translate(-414.359 -146.479)" fill="#d4ecff"/>
            <path id="Trazado_141430" data-name="Trazado 141430" d="M425.4,181.34l-2.435-1.406a1.735,1.735,0,0,1-.742-1.8h0a.845.845,0,0,1,1.3-.62l2.435,1.406a1.738,1.738,0,0,1,.741,1.8h0A.845.845,0,0,1,425.4,181.34Z" transform="translate(-412.444 -144.049)" fill="#d4ecff"/>
            <path id="Trazado_141431" data-name="Trazado 141431" d="M423.381,192.983l-3.024-1.746a1.738,1.738,0,0,1-.741-1.8h0a.845.845,0,0,1,1.3-.62l3.024,1.747a1.736,1.736,0,0,1,.741,1.8h0A.845.845,0,0,1,423.381,192.983Z" transform="translate(-412.174 -145.217)" fill="#d4ecff"/>
            <path id="Trazado_141432" data-name="Trazado 141432" d="M435.93,200.229l-7.972-4.6a1.735,1.735,0,0,1-.742-1.8h0a.845.845,0,0,1,1.3-.62l7.973,4.6a1.736,1.736,0,0,1,.741,1.8h0A.845.845,0,0,1,435.93,200.229Z" transform="translate(-412.959 -145.671)" fill="#d4ecff"/>
            <path id="Trazado_141433" data-name="Trazado 141433" d="M424.785,200.2l-5.732-3.31a1.738,1.738,0,0,1-.742-1.8h0a.845.845,0,0,1,1.3-.621l5.733,3.31a1.738,1.738,0,0,1,.741,1.8h0A.845.845,0,0,1,424.785,200.2Z" transform="translate(-412.039 -145.801)" fill="#d4ecff"/>
            <path id="Trazado_141434" data-name="Trazado 141434" d="M462.074,215.351l-3.682-2.125a1.737,1.737,0,0,1-.741-1.8h0a.845.845,0,0,1,1.3-.621l3.682,2.126a1.737,1.737,0,0,1,.741,1.8h0A.845.845,0,0,1,462.074,215.351Z" transform="translate(-416.104 -147.489)" fill="#d4ecff"/>
            <path id="Trazado_141435" data-name="Trazado 141435" d="M444.376,179.485l-10.132-5.85a1.737,1.737,0,0,1-.741-1.8h0a.845.845,0,0,1,1.3-.62l10.132,5.851a1.738,1.738,0,0,1,.742,1.8h0A.846.846,0,0,1,444.376,179.485Z" transform="translate(-413.609 -143.398)" fill="#d4ecff"/>
            <path id="Trazado_141436" data-name="Trazado 141436" d="M444.539,173.175l-17.66-10.2a1.735,1.735,0,0,1-.741-1.8h0a.845.845,0,0,1,1.3-.62l17.66,10.2a1.737,1.737,0,0,1,.741,1.8h0A.845.845,0,0,1,444.539,173.175Z" transform="translate(-412.848 -142.297)" fill="#d4ecff"/>
            <path id="Trazado_141437" data-name="Trazado 141437" d="M434.4,180.132l-10.132-5.85a1.738,1.738,0,0,1-.741-1.8h0a.845.845,0,0,1,1.3-.621l10.132,5.851a1.736,1.736,0,0,1,.741,1.8h0A.845.845,0,0,1,434.4,180.132Z" transform="translate(-412.579 -143.465)" fill="#d4ecff"/>
            <path id="Trazado_141438" data-name="Trazado 141438" d="M453.69,184.864l-3.681-2.126a1.736,1.736,0,0,1-.742-1.8h0a.845.845,0,0,1,1.3-.62l3.682,2.125a1.738,1.738,0,0,1,.741,1.8h0A.845.845,0,0,1,453.69,184.864Z" transform="translate(-415.238 -144.339)" fill="#d4ecff"/>
            <path id="Trazado_141439" data-name="Trazado 141439" d="M492.13,181.437l-21.8-12.587a1.74,1.74,0,0,1-.742-1.8h0a.846.846,0,0,1,1.3-.62l21.8,12.587a1.736,1.736,0,0,1,.741,1.8h0A.845.845,0,0,1,492.13,181.437Z" transform="translate(-417.338 -142.904)" fill="#d4ecff"/>
            <path id="Trazado_141440" data-name="Trazado 141440" d="M433.842,192.618l-12.18-7.033a1.737,1.737,0,0,1-.741-1.8h0a.845.845,0,0,1,1.3-.621L434.4,190.2a1.737,1.737,0,0,1,.742,1.8h0A.845.845,0,0,1,433.842,192.618Z" transform="translate(-412.309 -144.633)" fill="#d4ecff"/>
            <path id="Trazado_141441" data-name="Trazado 141441" d="M434.1,147.933l-8.955-5.17a1.735,1.735,0,0,1-.741-1.8h0a.845.845,0,0,1,1.3-.62l8.954,5.17a1.736,1.736,0,0,1,.742,1.8h0A.845.845,0,0,1,434.1,147.933Z" transform="translate(-412.669 -140.208)" fill="#d4ecff"/>
            <path id="Trazado_141442" data-name="Trazado 141442" d="M422.47,205.268,412.1,199.28a1.736,1.736,0,0,1-.741-1.8h0a.845.845,0,0,1,1.3-.621l10.371,5.988a1.736,1.736,0,0,1,.741,1.8h0A.845.845,0,0,1,422.47,205.268Z" transform="translate(-411.321 -146.048)" fill="#d4ecff"/>
          </g>
          <g id="Grupo_88349" data-name="Grupo 88349" transform="translate(67.48 51.378)">
            <path id="Trazado_141443" data-name="Trazado 141443" d="M501.239,229.931l-6.073-3.507a1.735,1.735,0,0,1-.741-1.8h0a.845.845,0,0,1,1.3-.621l6.073,3.506a1.738,1.738,0,0,1,.741,1.8h0A.845.845,0,0,1,501.239,229.931Z" transform="translate(-487.384 -200.231)" fill="#d4ecff"/>
            <path id="Trazado_141444" data-name="Trazado 141444" d="M505.469,206.754l-11.591-6.693a1.737,1.737,0,0,1-.741-1.8h0a.845.845,0,0,1,1.3-.621l11.591,6.692a1.738,1.738,0,0,1,.741,1.8h0A.845.845,0,0,1,505.469,206.754Z" transform="translate(-487.251 -197.507)" fill="#d4ecff"/>
            <path id="Trazado_141445" data-name="Trazado 141445" d="M495.063,213.555l-3.794-2.191a1.735,1.735,0,0,1-.741-1.8h0a.845.845,0,0,1,1.3-.621l3.794,2.191a1.737,1.737,0,0,1,.741,1.8h0A.845.845,0,0,1,495.063,213.555Z" transform="translate(-486.981 -198.675)" fill="#d4ecff"/>
            <path id="Trazado_141446" data-name="Trazado 141446" d="M491.1,224.075l-2.435-1.406a1.737,1.737,0,0,1-.741-1.8h0a.845.845,0,0,1,1.3-.62l2.434,1.405a1.736,1.736,0,0,1,.742,1.8h0A.845.845,0,0,1,491.1,224.075Z" transform="translate(-486.712 -199.843)" fill="#d4ecff"/>
            <path id="Trazado_141447" data-name="Trazado 141447" d="M510.07,222.22l-10.132-5.851a1.735,1.735,0,0,1-.742-1.8h0a.845.845,0,0,1,1.3-.621l10.133,5.85a1.738,1.738,0,0,1,.741,1.8h0A.845.845,0,0,1,510.07,222.22Z" transform="translate(-487.877 -199.192)" fill="#d4ecff"/>
            <path id="Trazado_141448" data-name="Trazado 141448" d="M510.234,215.91l-17.66-10.2a1.737,1.737,0,0,1-.742-1.8h0a.845.845,0,0,1,1.3-.62l17.66,10.2a1.737,1.737,0,0,1,.742,1.8h0A.845.845,0,0,1,510.234,215.91Z" transform="translate(-487.116 -198.091)" fill="#d4ecff"/>
            <path id="Trazado_141449" data-name="Trazado 141449" d="M500.1,222.867l-10.132-5.85a1.736,1.736,0,0,1-.742-1.8h0a.845.845,0,0,1,1.3-.621l10.132,5.85a1.737,1.737,0,0,1,.742,1.8h0A.845.845,0,0,1,500.1,222.867Z" transform="translate(-486.846 -199.259)" fill="#d4ecff"/>
            <path id="Trazado_141450" data-name="Trazado 141450" d="M499.536,235.352l-12.18-7.032a1.738,1.738,0,0,1-.741-1.8h0a.845.845,0,0,1,1.3-.62l12.18,7.033a1.737,1.737,0,0,1,.741,1.8h0A.845.845,0,0,1,499.536,235.352Z" transform="translate(-486.577 -200.427)" fill="#d4ecff"/>
          </g>
        </g>
      </g>
      <g id="Grupo_88358" data-name="Grupo 88358" transform="translate(154.976 7.288)">
        <g id="Grupo_88354" data-name="Grupo 88354">
          <path id="Trazado_141451" data-name="Trazado 141451" d="M531.432,153.025l9.57-3.807-2.152-14.08-4.646,4.116Z" transform="translate(-457.731 -71.384)" fill="#5793ce"/>
          <path id="Trazado_141452" data-name="Trazado 141452" d="M460,80.814l23.121-9.239s-4.259,9.22-4.267,9.239-12.345,2.858-12.345,2.858Z" transform="translate(-450.35 -64.816)" fill="#5793ce"/>
          <path id="Trazado_141453" data-name="Trazado 141453" d="M534.057,118.345a10.188,10.188,0,0,0-3.747-1.288c1.276-8.509-2.4-17.491-9.455-21.568a15.394,15.394,0,0,0-6.611-2.078c2.765-10.314-1.506-22.036-10.208-27.064a16.028,16.028,0,0,0-13.792-1.328l0-.008-.213.085c-.111.043-.222.087-.333.133l-7.244,2.85,2.889,2.486a14.67,14.67,0,0,0-9.095,9.085c-3.3,8.636.085,19.137,7.559,23.454l44.426,37.448c5.611,3.242,9.019,1.888,11.5-4.6S539.668,121.588,534.057,118.345Z" transform="translate(-451.899 -64.037)" fill="#5793ce"/>
          <path id="Trazado_141454" data-name="Trazado 141454" d="M478.653,75.849l24.921-9.957a15.921,15.921,0,0,0-12.952-.872l0-.008-.213.085c-.111.043-.222.087-.333.133l-7.244,2.85,2.889,2.486A13.823,13.823,0,0,0,478.653,75.849Z" transform="translate(-452.277 -64.037)" fill="#5793ce"/>
          <path id="Trazado_141455" data-name="Trazado 141455" d="M515.437,116.729l16.457-6.564a19.828,19.828,0,0,0-8.664-11.208,16.165,16.165,0,0,0-1.661-.836L498.9,107.175Z" transform="translate(-454.37 -67.559)" fill="#5793ce"/>
          <path id="Trazado_141456" data-name="Trazado 141456" d="M488.954,69.167l7.062,4.08,12.257-4.88a19.512,19.512,0,0,0-2.794-1.971,17.325,17.325,0,0,0-4.792-1.9Z" transform="translate(-453.342 -64.084)" fill="#d4ecff"/>
          <path id="Trazado_141457" data-name="Trazado 141457" d="M533.118,108.5l-11.845,4.715,3.494,4.91,10.164-4.041A22.818,22.818,0,0,0,533.118,108.5Z" transform="translate(-456.682 -68.631)" fill="#d4ecff"/>
          <path id="Trazado_141458" data-name="Trazado 141458" d="M523.475,121.817a10.182,10.182,0,0,0-3.747-1.288c1.276-8.509-2.495-17.547-9.55-21.623a14.9,14.9,0,0,0-6.515-2.021c2.765-10.314-1.506-22.036-10.208-27.064-9.359-5.408-20.3-1.024-24.427,9.79q-.21.55-.39,1.109c-7.141-3.177-15.036.4-18.135,8.515-3.3,8.636.085,19.137,7.559,23.454L514.5,145.3c5.612,3.242,12.17.614,14.647-5.87S529.086,125.059,523.475,121.817Z" transform="translate(-449.238 -64.395)" fill="#d4ecff"/>
          <g id="Grupo_88352" data-name="Grupo 88352" transform="translate(8.532 2.459)">
            <path id="Trazado_141459" data-name="Trazado 141459" d="M527.948,121.09A10.184,10.184,0,0,0,524.2,119.8c1.276-8.509-2.495-17.546-9.55-21.622a14.913,14.913,0,0,0-6.516-2.022c2.764-10.314-1.506-22.036-10.209-27.064a15.935,15.935,0,0,0-16.672.076,15.954,15.954,0,0,1,15.507.575c8.7,5.029,12.973,16.751,10.208,27.065a14.892,14.892,0,0,1,6.515,2.021c7.056,4.077,10.826,13.114,9.55,21.623a10.183,10.183,0,0,1,3.747,1.288c5.611,3.242,8.152,11.128,5.676,17.612a11.644,11.644,0,0,1-4.412,5.664,11.3,11.3,0,0,0,5.576-6.316C536.1,132.218,533.559,124.332,527.948,121.09Z" transform="translate(-461.078 -66.779)" fill="#fff"/>
            <path id="Trazado_141460" data-name="Trazado 141460" d="M469.62,82.037c.106-.326.221-.647.341-.968a12.566,12.566,0,0,0-11.207,1.142A12.6,12.6,0,0,1,469.62,82.037Z" transform="translate(-458.753 -68.171)" fill="#fff"/>
          </g>
          <g id="Grupo_88353" data-name="Grupo 88353" transform="translate(3.637 5.942)">
            <path id="Trazado_141461" data-name="Trazado 141461" d="M462.676,82.736a7.415,7.415,0,0,0-2.976.6,10.8,10.8,0,0,0-5.316,6.224c-2.9,7.588.2,17.2,6.766,21l56.443,32.611a5.882,5.882,0,0,0,5.036.713,6.925,6.925,0,0,0,3.478-4.126c2.092-5.475-.145-12.414-4.884-15.153a7.317,7.317,0,0,0-2.684-.942l-2.292-.309.3-1.964c1.177-7.848-2.447-16.13-8.616-19.7a11.893,11.893,0,0,0-5.193-1.65l-2.84-.183.638-2.383c2.535-9.458-1.564-20.382-9.331-24.87-3.611-2.086-7.416-2.507-10.711-1.188s-5.988,4.347-7.582,8.52c-.124.324-.237.65-.343.978l-1.523,4.675-4.428-1.969A9.719,9.719,0,0,0,462.676,82.736Z" transform="translate(-453.294 -70.663)" fill="#396caa"/>
          </g>
        </g>
        <g id="Grupo_88357" data-name="Grupo 88357" transform="translate(29.167 32.398)">
          <path id="Trazado_141462" data-name="Trazado 141462" d="M494.6,124.356l1.945-.783-1.512-1.163Z" transform="translate(-483.092 -102.466)" fill="#5793ce"/>
          <path id="Trazado_141463" data-name="Trazado 141463" d="M493.52,101l1.889-.766-.133.793Z" transform="translate(-482.98 -100.174)" fill="#5793ce"/>
          <path id="Trazado_141464" data-name="Trazado 141464" d="M501.311,118.663l1.97-.795-2.873-2.893Z" transform="translate(-483.692 -101.698)" fill="#5793ce"/>
          <g id="Grupo_88355" data-name="Grupo 88355" transform="translate(1.975)">
            <path id="Trazado_141465" data-name="Trazado 141465" d="M495.273,122.022l-7.532-4.349a1.219,1.219,0,0,1-.515-1.242l1.8-8.548,8.916,5.148-1.8,8.549A.567.567,0,0,1,495.273,122.022Z" transform="translate(-484.303 -100.965)" fill="#5793ce"/>
            <path id="Trazado_141466" data-name="Trazado 141466" d="M494.4,100.233l-10.179,5.132c-.431.218-.288,1.029.237,1.332l8.308,4.8,8.309,4.8c.525.3.942-.185.687-.8L495.727,101C495.467,100.372,494.841,100.012,494.4,100.233Z" transform="translate(-483.969 -100.168)" fill="#5793ce"/>
          </g>
          <g id="Grupo_88356" data-name="Grupo 88356" transform="translate(0 0.797)">
            <path id="Trazado_141467" data-name="Trazado 141467" d="M493.071,122.911l-7.533-4.349a1.221,1.221,0,0,1-.515-1.241l1.8-8.549,8.917,5.148-1.8,8.549A.567.567,0,0,1,493.071,122.911Z" transform="translate(-482.1 -101.854)" fill="#d4ecff"/>
            <path id="Trazado_141468" data-name="Trazado 141468" d="M492.2,101.122l-10.179,5.132c-.432.218-.289,1.029.236,1.332l8.309,4.8,8.309,4.8c.524.3.942-.185.686-.8l-6.035-14.493C493.264,101.261,492.639,100.9,492.2,101.122Z" transform="translate(-481.766 -101.057)" fill="#d4ecff"/>
          </g>
        </g>
      </g>
      <g id="Grupo_88359" data-name="Grupo 88359" transform="translate(0 200.377)">
        <path id="Trazado_141469" data-name="Trazado 141469" d="M353.309,347.277l30.838-17.718a3.57,3.57,0,0,0,2.063-2.9h0l.026-5.309-.991,1.708a7.407,7.407,0,0,0-1.935-1.557l-62.1-36.028c-3.519-2.042-8.847-2.273-11.9-.518l-30.838,17.718a5.49,5.49,0,0,0-.861.607l-1.183-1.514-.025,4.991v0c-.044,1.375.94,2.836,2.9,3.975l62.1,36.028C344.926,348.8,350.254,349.032,353.309,347.277Z" transform="translate(-276.402 -279.832)" fill="#396caa"/>
        <path id="Trazado_141470" data-name="Trazado 141470" d="M278.5,298.274l30.838-17.718c3.054-1.755,8.383-1.523,11.9.518l62.1,36.028c3.518,2.041,3.9,5.118.84,6.873l-30.838,17.718c-3.054,1.756-8.383,1.523-11.9-.518l-62.1-36.027C275.818,303.106,275.442,300.029,278.5,298.274Z" transform="translate(-276.405 -279.378)" fill="#d4ecff"/>
        <path id="Trazado_141471" data-name="Trazado 141471" d="M384.177,326.55l-30.838,17.718c-3.054,1.756-8.383,1.523-11.9-.518l-62.1-36.027a5.285,5.285,0,0,1-2.861-3.428c-.246,1.476.725,3.1,2.861,4.336l62.1,36.028c3.518,2.041,8.847,2.273,11.9.518l30.838-17.718c1.575-.9,2.231-2.162,2.021-3.446A3.73,3.73,0,0,1,384.177,326.55Z" transform="translate(-276.406 -281.953)" fill="#fff"/>
        <path id="Trazado_141472" data-name="Trazado 141472" d="M280.725,299.148l30.115-17.3c2.374-1.364,6.518-1.184,9.254.4l61.758,35.829c2.736,1.587,3.028,3.98.653,5.345l-30.115,17.3c-2.374,1.365-6.518,1.184-9.254-.4l-61.758-35.829C278.642,302.905,278.35,300.513,280.725,299.148Z" transform="translate(-276.683 -279.538)" fill="#fff"/>
      </g>
      <g id="Grupo_88360" data-name="Grupo 88360" transform="translate(30.945 218.686)">
        <path id="Trazado_141473" data-name="Trazado 141473" d="M333.7,307.393l-11.147-6.436c-.413-.239-.361-.656.116-.932h0a1.79,1.79,0,0,1,1.612-.066l11.148,6.436c.413.239.361.655-.116.931h0A1.8,1.8,0,0,1,333.7,307.393Z" transform="translate(-312.088 -299.797)" fill="#b2d3ea"/>
        <path id="Trazado_141474" data-name="Trazado 141474" d="M322.743,305.438l-3.977-2.3c-.413-.239-.361-.655.116-.932h0a1.8,1.8,0,0,1,1.613-.066l3.977,2.3c.413.239.361.655-.116.932h0A1.8,1.8,0,0,1,322.743,305.438Z" transform="translate(-311.696 -300.023)" fill="#b2d3ea"/>
        <path id="Trazado_141475" data-name="Trazado 141475" d="M330.186,309.735l-3.977-2.3c-.413-.239-.361-.655.116-.932h0a1.8,1.8,0,0,1,1.613-.066l3.977,2.3c.413.239.361.656-.117.932h0A1.793,1.793,0,0,1,330.186,309.735Z" transform="translate(-312.465 -300.467)" fill="#396caa"/>
        <path id="Trazado_141476" data-name="Trazado 141476" d="M344.45,317.97l-10.8-6.234c-.413-.239-.361-.656.116-.931h0a1.79,1.79,0,0,1,1.612-.067l10.8,6.234c.413.238.361.655-.116.932h0A1.793,1.793,0,0,1,344.45,317.97Z" transform="translate(-313.235 -300.911)" fill="#b2d3ea"/>
        <path id="Trazado_141477" data-name="Trazado 141477" d="M328.908,313.37l-13.929-8.041c-.413-.239-.361-.655.117-.932h0a1.793,1.793,0,0,1,1.612-.066l13.929,8.041c.413.239.361.656-.116.932h0A1.792,1.792,0,0,1,328.908,313.37Z" transform="translate(-311.305 -300.249)" fill="#b2d3ea"/>
        <path id="Trazado_141478" data-name="Trazado 141478" d="M345.268,327.19l-34.075-19.675c-.413-.239-.361-.656.116-.931h0a1.792,1.792,0,0,1,1.613-.067L347,326.192c.413.239.361.656-.116.931h0A1.8,1.8,0,0,1,345.268,327.19Z" transform="translate(-310.914 -300.475)" fill="#396caa"/>
        <path id="Trazado_141479" data-name="Trazado 141479" d="M358.024,321.436l-19.607-11.32c-.413-.238-.362-.655.116-.931h0a1.79,1.79,0,0,1,1.612-.067l19.607,11.32c.413.239.361.655-.116.931h0A1.792,1.792,0,0,1,358.024,321.436Z" transform="translate(-313.727 -300.743)" fill="#b2d3ea"/>
      </g>
      <path id="Trazado_141480" data-name="Trazado 141480" d="M333.14,343.132l-2.868-1.654a1.239,1.239,0,0,1-.516-.987h0c0-.38.231-.555.516-.391l2.868,1.654a1.239,1.239,0,0,1,.516.987h0C333.656,343.122,333.425,343.3,333.14,343.132Z" transform="translate(-281.916 -85.269)" fill="#d4ecff"/>
      <path id="Trazado_141481" data-name="Trazado 141481" d="M338.172,346.046l-2.867-1.654a1.238,1.238,0,0,1-.516-.987h0c0-.38.231-.555.516-.391l2.867,1.654a1.239,1.239,0,0,1,.516.987h0C338.688,346.036,338.457,346.21,338.172,346.046Z" transform="translate(-282.436 -85.57)" fill="#d4ecff"/>
    </g>
  </g>
</svg>
